<svg version="1.1" xmlns="http://www.w3.org/2000/svg" xmlns:xlink="http://www.w3.org/1999/xlink" width="400" height="200"><defs/><g transform="scale(1,1)"><g id="background-d7adaa9a"><rect fill="white" stroke="none" x="0" y="0" width="400" height="200" class="dcg-svg-background"/></g><g id="background-images-d7adaa9a"/><g id="graphpaper-d7adaa9a"><g id="grid-d7adaa9a"><g><path fill="none" stroke="rgb(0,0,0)" class="dcg-svg-minor-gridline" paint-order="fill stroke markers" d=" M -0.5 0 L -0.5 200" stroke-opacity="0.12" stroke-miterlimit="10" stroke-dasharray=""/><path fill="none" stroke="rgb(0,0,0)" class="dcg-svg-minor-gridline" paint-order="fill stroke markers" d=" M 66.5 0 L 66.5 200" stroke-opacity="0.12" stroke-miterlimit="10" stroke-dasharray=""/><path fill="none" stroke="rgb(0,0,0)" class="dcg-svg-minor-gridline" paint-order="fill stroke markers" d=" M 132.5 0 L 132.5 200" stroke-opacity="0.12" stroke-miterlimit="10" stroke-dasharray=""/><path fill="none" stroke="rgb(0,0,0)" class="dcg-svg-minor-gridline" paint-order="fill stroke markers" d=" M 266.5 0 L 266.5 200" stroke-opacity="0.12" stroke-miterlimit="10" stroke-dasharray=""/><path fill="none" stroke="rgb(0,0,0)" class="dcg-svg-minor-gridline" paint-order="fill stroke markers" d=" M 332.5 0 L 332.5 200" stroke-opacity="0.12" stroke-miterlimit="10" stroke-dasharray=""/><path fill="none" stroke="rgb(0,0,0)" class="dcg-svg-minor-gridline" paint-order="fill stroke markers" d=" M 0 132.5 L 400 132.5" stroke-opacity="0.12" stroke-miterlimit="10" stroke-dasharray=""/><path fill="none" stroke="rgb(0,0,0)" class="dcg-svg-minor-gridline" paint-order="fill stroke markers" d=" M 0 99.5 L 400 99.5" stroke-opacity="0.12" stroke-miterlimit="10" stroke-dasharray=""/><path fill="none" stroke="rgb(0,0,0)" class="dcg-svg-minor-gridline" paint-order="fill stroke markers" d=" M 0 66.5 L 400 66.5" stroke-opacity="0.12" stroke-miterlimit="10" stroke-dasharray=""/><path fill="none" stroke="rgb(0,0,0)" class="dcg-svg-minor-gridline" paint-order="fill stroke markers" d=" M 0 32.5 L 400 32.5" stroke-opacity="0.12" stroke-miterlimit="10" stroke-dasharray=""/><path fill="none" stroke="rgb(0,0,0)" class="dcg-svg-minor-gridline" paint-order="fill stroke markers" d=" M 0 -0.5 L 400 -0.5" stroke-opacity="0.12" stroke-miterlimit="10" stroke-dasharray=""/><path fill="none" stroke="rgb(0,0,0)" class="dcg-svg-major-gridline" paint-order="fill stroke markers" d=" M 0 -0.5 L 400 -0.5" stroke-opacity="0.31818181818181823" stroke-miterlimit="10" stroke-dasharray=""/></g></g><g id="axis-d7adaa9a"><g id="yaxis-d7adaa9a"><title>Y axis</title><path fill="none" stroke="rgb(0,0,0)" class="dcg-svg-axis-line" paint-order="fill stroke markers" d=" M 199.75 0 L 199.75 200" stroke-opacity="0.9" stroke-miterlimit="10" stroke-width="1.5" stroke-dasharray=""/></g><g id="xaxis-d7adaa9a"><title>X axis</title><path fill="none" stroke="rgb(0,0,0)" class="dcg-svg-axis-line" paint-order="fill stroke markers" d=" M 0 166.75 L 400 166.75" stroke-opacity="0.9" stroke-miterlimit="10" stroke-width="1.5" stroke-dasharray=""/></g><g/></g></g><g id="expressions-d7adaa9a"><g id="sketch-d7adaa9a"><title>Expression 1</title><path fill="#2d70b3" stroke="none" paint-order="stroke fill markers" d="" fill-opacity="0.4"/><g><path fill="none" stroke="#2d70b3" class="dcg-svg-curve" paint-order="fill stroke markers" d=" M 44.68608502577391 -5.5 L 44.68608502577391 -5.5 L 46.9609375 0.20808352286405807 L 50.67187500000001 9.00525310706439 L 54.38281250000001 17.31533420990266 L 58.09375000000001 25.164082165927653 L 61.80468750000001 32.57582250540719 L 65.515625 39.57352634615228 L 69.2265625 46.17888158762631 L 72.9375 52.41236012799146 L 76.6484375 58.29328131241698 L 80.359375 63.8398718092933 L 84.0703125 69.0693220999267 L 87.78125 73.9978397567914 L 91.58984375 78.75915578828194 L 95.3984375 83.2351212879748 L 99.20703125 87.44034849139543 L 103.01562500000001 91.38856578191461 L 106.82421875000001 95.09266250842444 L 110.73046875000001 98.65080969409159 L 114.63671875000001 101.97709325494783 L 118.54296875000001 105.08293634694719 L 122.54687500000001 108.04880656075277 L 126.55078125000001 110.80498061703149 L 130.65234375 113.42133867536606 L 134.75390625 115.83798565053746 L 138.953125 118.11482192438443 L 143.25 120.24726165138027 L 147.64453125 122.23085126804814 L 152.13671875 124.06119063027738 L 156.82421875 125.76732467107821 L 161.4140625 127.24425268860459 L 165.90625 128.5109965988534 L 170.3984375 129.60670236864095 L 174.79296875 130.51787204470577 L 179.08984375 131.25893922456635 L 183.38671875 131.85494232889846 L 187.5859375 132.2996218237002 L 191.78515625 132.60988858801915 L 195.984375 132.78697401960974 L 200.18359375000003 132.83158094142277 L 204.38281250000003 132.74388639099382 L 208.58203125000003 132.5235423230764 L 212.78125000000003 132.16967422830749 L 216.98046875000003 131.6808776624236 L 221.17968750000003 131.05521267225274 L 225.47656250000003 130.2707236960411 L 229.77343750000003 129.33706397272505 L 234.16796875000003 128.22384269206032 L 238.56250000000003 126.94569335729923 L 243.05468750000003 125.46288516857044 L 247.64453125000003 123.75683125855713 L 252.23437500000003 121.8496753219422 L 256.62890625 119.82688262453354 L 260.92578125 117.65434543319323 L 265.125 115.33647542832466 L 269.2265625 112.87782874007323 L 273.23046875 110.28317668682058 L 277.234375 107.48689034943207 L 281.140625 104.55484896769582 L 285.046875 101.41121967130606 L 288.953125 98.04520657739306 L 292.76171875 94.53819767894736 L 296.5703125 90.79735050376664 L 300.37890625 86.81045268337037 L 304.08984375 82.67670778305383 L 307.80078125 78.28420345597648 L 311.51171875 73.6193260662363 L 315.22265625 68.66761781536962 L 318.93359375 63.413731933470075 L 322.64453125 57.841385115128816 L 326.35546875 51.93330705278191 L 329.96875 45.840676540477745 L 333.58203125 39.39449524136751 L 337.1953125 32.57582250540719 L 340.80859375 25.364623200467435 L 344.421875 17.739708843616114 L 348.03515625 9.67867534353951 L 351.6484375 1.1578371711726732 L 354.3197116073111 -5.5" stroke-linecap="round" stroke-linejoin="round" stroke-miterlimit="10" stroke-width="2.5" stroke-opacity="0.9" stroke-dasharray=""/></g></g></g><g id="labels-d7adaa9a"/></g></svg>