<svg version="1.1" xmlns="http://www.w3.org/2000/svg" xmlns:xlink="http://www.w3.org/1999/xlink" width="399" height="199"><defs/><g transform="scale(1,1)"><g id="background-6f2cd460"><rect fill="white" stroke="none" x="0" y="0" width="399.9943542480469" height="199.99717712402344" class="dcg-svg-background"/></g><g id="background-images-6f2cd460"/><g id="graphpaper-6f2cd460"><g id="grid-6f2cd460"><g><path fill="none" stroke="rgb(0,0,0)" class="dcg-svg-minor-gridline" paint-order="fill stroke markers" d=" M -0.5 0 L -0.5 199.99717712402344" stroke-opacity="0.12" stroke-miterlimit="10" stroke-dasharray=""/><path fill="none" stroke="rgb(0,0,0)" class="dcg-svg-minor-gridline" paint-order="fill stroke markers" d=" M 39.5 0 L 39.5 199.99717712402344" stroke-opacity="0.12" stroke-miterlimit="10" stroke-dasharray=""/><path fill="none" stroke="rgb(0,0,0)" class="dcg-svg-minor-gridline" paint-order="fill stroke markers" d=" M 79.5 0 L 79.5 199.99717712402344" stroke-opacity="0.12" stroke-miterlimit="10" stroke-dasharray=""/><path fill="none" stroke="rgb(0,0,0)" class="dcg-svg-minor-gridline" paint-order="fill stroke markers" d=" M 119.5 0 L 119.5 199.99717712402344" stroke-opacity="0.12" stroke-miterlimit="10" stroke-dasharray=""/><path fill="none" stroke="rgb(0,0,0)" class="dcg-svg-minor-gridline" paint-order="fill stroke markers" d=" M 159.5 0 L 159.5 199.99717712402344" stroke-opacity="0.12" stroke-miterlimit="10" stroke-dasharray=""/><path fill="none" stroke="rgb(0,0,0)" class="dcg-svg-minor-gridline" paint-order="fill stroke markers" d=" M 239.5 0 L 239.5 199.99717712402344" stroke-opacity="0.12" stroke-miterlimit="10" stroke-dasharray=""/><path fill="none" stroke="rgb(0,0,0)" class="dcg-svg-minor-gridline" paint-order="fill stroke markers" d=" M 279.5 0 L 279.5 199.99717712402344" stroke-opacity="0.12" stroke-miterlimit="10" stroke-dasharray=""/><path fill="none" stroke="rgb(0,0,0)" class="dcg-svg-minor-gridline" paint-order="fill stroke markers" d=" M 319.5 0 L 319.5 199.99717712402344" stroke-opacity="0.12" stroke-miterlimit="10" stroke-dasharray=""/><path fill="none" stroke="rgb(0,0,0)" class="dcg-svg-minor-gridline" paint-order="fill stroke markers" d=" M 359.5 0 L 359.5 199.99717712402344" stroke-opacity="0.12" stroke-miterlimit="10" stroke-dasharray=""/><path fill="none" stroke="rgb(0,0,0)" class="dcg-svg-minor-gridline" paint-order="fill stroke markers" d=" M 399.5 0 L 399.5 199.99717712402344" stroke-opacity="0.12" stroke-miterlimit="10" stroke-dasharray=""/><path fill="none" stroke="rgb(0,0,0)" class="dcg-svg-minor-gridline" paint-order="fill stroke markers" d=" M 0 179.5 L 399.9943542480469 179.5" stroke-opacity="0.12" stroke-miterlimit="10" stroke-dasharray=""/><path fill="none" stroke="rgb(0,0,0)" class="dcg-svg-minor-gridline" paint-order="fill stroke markers" d=" M 0 139.5 L 399.9943542480469 139.5" stroke-opacity="0.12" stroke-miterlimit="10" stroke-dasharray=""/><path fill="none" stroke="rgb(0,0,0)" class="dcg-svg-minor-gridline" paint-order="fill stroke markers" d=" M 0 59.5 L 399.9943542480469 59.5" stroke-opacity="0.12" stroke-miterlimit="10" stroke-dasharray=""/><path fill="none" stroke="rgb(0,0,0)" class="dcg-svg-minor-gridline" paint-order="fill stroke markers" d=" M 0 19.5 L 399.9943542480469 19.5" stroke-opacity="0.12" stroke-miterlimit="10" stroke-dasharray=""/><path fill="none" stroke="rgb(0,0,0)" class="dcg-svg-major-gridline" paint-order="fill stroke markers" d=" M -0.5 0 L -0.5 199.99717712402344" stroke-opacity="0.31818181818181823" stroke-miterlimit="10" stroke-dasharray=""/><path fill="none" stroke="rgb(0,0,0)" class="dcg-svg-major-gridline" paint-order="fill stroke markers" d=" M 399.5 0 L 399.5 199.99717712402344" stroke-opacity="0.31818181818181823" stroke-miterlimit="10" stroke-dasharray=""/></g></g><g id="axis-6f2cd460"><g id="yaxis-6f2cd460"><title>Y axis</title><path fill="none" stroke="rgb(0,0,0)" class="dcg-svg-axis-line" paint-order="fill stroke markers" d=" M 199.75 0 L 199.75 199.99717712402344" stroke-opacity="0.9" stroke-miterlimit="10" stroke-width="1.5" stroke-dasharray=""/></g><g id="xaxis-6f2cd460"><title>X axis</title><path fill="none" stroke="rgb(0,0,0)" class="dcg-svg-axis-line" paint-order="fill stroke markers" d=" M 0 99.75 L 399.9943542480469 99.75" stroke-opacity="0.9" stroke-miterlimit="10" stroke-width="1.5" stroke-dasharray=""/></g><g/></g></g><g id="expressions-6f2cd460"><g id="sketch-6f2cd460"><title>Expression 1</title><path fill="#2d70b3" stroke="none" paint-order="stroke fill markers" d="" fill-opacity="0.4"/><g><path fill="none" stroke="#2d70b3" class="dcg-svg-curve" paint-order="fill stroke markers" d=" M -0.5 139.49439220858122 L -0.5 139.49439220858122 L 61.3155337497592 139.41821867763667 L 82.40898602455854 139.26932361597835 L 95.8853583112359 139.0506051175617 L 105.84615521878004 138.7644426985803 L 113.85385469347239 138.4081428979281 L 120.59204083681107 137.97980247893273 L 126.35367826372385 137.48566173329613 L 131.4317315891385 136.92271171798603 L 136.02151055634022 136.28506270633247 L 140.22067003697157 135.5712644665249 L 144.12686490267515 134.77430947137694 L 147.74009515345097 133.9043559792591 L 151.1580156609416 132.9472283750868 L 154.47828129678965 131.87691060313313 L 157.7008920609951 130.69111781145227 L 160.82584795355797 129.38989948749014 L 163.85314897447824 127.97591330315024 L 166.88044999539852 126.40119528525095 L 169.9077510163188 124.65790275898715 L 172.93505203723907 122.74068600316288 L 176.06000792980194 120.57699213356057 L 179.2826186940074 118.15155499568182 L 182.70053920149803 115.3729490561865 L 186.41142432391644 112.1366581270319 L 190.70823867619038 108.14876356196444 L 196.1769114881754 102.81124928516907 L 209.55562890321016 89.64692191578195 L 213.9500981271267 85.64345027937522 L 217.7586381211877 82.40833172674347 L 221.2742135003209 79.64540113242109 L 224.59447913616896 77.24738624357829 L 227.71943502873182 75.18336724736928 L 230.8443909212947 73.3061432683734 L 233.87169194221497 71.66156079971596 L 236.89899296313524 70.1812554474678 L 240.0239488556981 68.81599871131078 L 243.14890474826097 67.60482817785484 L 246.37151551246643 66.50416142630812 L 249.69178114831448 65.51318047260904 L 253.2073565274477 64.60560970369474 L 256.9182416498661 63.787183901081164 L 260.9220913872123 63.04368001534681 L 265.2189057394862 62.38311173582176 L 269.9063395783305 61.79786630531606 L 275.08204777538776 61.285430557461865 L 280.94134007394314 60.83939713474484 L 287.6795262172818 60.460654862113955 L 295.68722569197416 60.145980329506415 L 305.5503677278757 59.895412046758594 L 318.34315591305494 59.708661291761416 L 336.6046169102192 59.583357431941636 L 367.95183070749044 59.51673198718825 L 399.4943542480469 59.50278491544222" stroke-linecap="round" stroke-linejoin="round" stroke-miterlimit="10" stroke-width="2.5" stroke-opacity="0.9" stroke-dasharray=""/></g></g></g><g id="labels-6f2cd460"/></g></svg>