<svg version="1.1" xmlns="http://www.w3.org/2000/svg" xmlns:xlink="http://www.w3.org/1999/xlink" width="600" height="400"><defs/><g transform="scale(1,1)"><g id="background-251e2817"><rect fill="white" stroke="none" x="0" y="0" width="600" height="400" class="dcg-svg-background"/></g><g id="background-images-251e2817"/><g id="graphpaper-251e2817"><g id="grid-251e2817"><g><path fill="none" stroke="rgb(0,0,0)" class="dcg-svg-minor-gridline" paint-order="fill stroke markers" d=" M -0.5 0 L -0.5 400" stroke-opacity="0.12" stroke-miterlimit="10" stroke-dasharray=""/><path fill="none" stroke="rgb(0,0,0)" class="dcg-svg-minor-gridline" paint-order="fill stroke markers" d=" M 32.5 0 L 32.5 400" stroke-opacity="0.12" stroke-miterlimit="10" stroke-dasharray=""/><path fill="none" stroke="rgb(0,0,0)" class="dcg-svg-minor-gridline" paint-order="fill stroke markers" d=" M 66.5 0 L 66.5 400" stroke-opacity="0.12" stroke-miterlimit="10" stroke-dasharray=""/><path fill="none" stroke="rgb(0,0,0)" class="dcg-svg-minor-gridline" paint-order="fill stroke markers" d=" M 99.5 0 L 99.5 400" stroke-opacity="0.12" stroke-miterlimit="10" stroke-dasharray=""/><path fill="none" stroke="rgb(0,0,0)" class="dcg-svg-minor-gridline" paint-order="fill stroke markers" d=" M 132.5 0 L 132.5 400" stroke-opacity="0.12" stroke-miterlimit="10" stroke-dasharray=""/><path fill="none" stroke="rgb(0,0,0)" class="dcg-svg-minor-gridline" paint-order="fill stroke markers" d=" M 166.5 0 L 166.5 400" stroke-opacity="0.12" stroke-miterlimit="10" stroke-dasharray=""/><path fill="none" stroke="rgb(0,0,0)" class="dcg-svg-minor-gridline" paint-order="fill stroke markers" d=" M 199.5 0 L 199.5 400" stroke-opacity="0.12" stroke-miterlimit="10" stroke-dasharray=""/><path fill="none" stroke="rgb(0,0,0)" class="dcg-svg-minor-gridline" paint-order="fill stroke markers" d=" M 232.5 0 L 232.5 400" stroke-opacity="0.12" stroke-miterlimit="10" stroke-dasharray=""/><path fill="none" stroke="rgb(0,0,0)" class="dcg-svg-minor-gridline" paint-order="fill stroke markers" d=" M 266.5 0 L 266.5 400" stroke-opacity="0.12" stroke-miterlimit="10" stroke-dasharray=""/><path fill="none" stroke="rgb(0,0,0)" class="dcg-svg-minor-gridline" paint-order="fill stroke markers" d=" M 299.5 0 L 299.5 400" stroke-opacity="0.12" stroke-miterlimit="10" stroke-dasharray=""/><path fill="none" stroke="rgb(0,0,0)" class="dcg-svg-minor-gridline" paint-order="fill stroke markers" d=" M 332.5 0 L 332.5 400" stroke-opacity="0.12" stroke-miterlimit="10" stroke-dasharray=""/><path fill="none" stroke="rgb(0,0,0)" class="dcg-svg-minor-gridline" paint-order="fill stroke markers" d=" M 366.5 0 L 366.5 400" stroke-opacity="0.12" stroke-miterlimit="10" stroke-dasharray=""/><path fill="none" stroke="rgb(0,0,0)" class="dcg-svg-minor-gridline" paint-order="fill stroke markers" d=" M 399.5 0 L 399.5 400" stroke-opacity="0.12" stroke-miterlimit="10" stroke-dasharray=""/><path fill="none" stroke="rgb(0,0,0)" class="dcg-svg-minor-gridline" paint-order="fill stroke markers" d=" M 432.5 0 L 432.5 400" stroke-opacity="0.12" stroke-miterlimit="10" stroke-dasharray=""/><path fill="none" stroke="rgb(0,0,0)" class="dcg-svg-minor-gridline" paint-order="fill stroke markers" d=" M 466.5 0 L 466.5 400" stroke-opacity="0.12" stroke-miterlimit="10" stroke-dasharray=""/><path fill="none" stroke="rgb(0,0,0)" class="dcg-svg-minor-gridline" paint-order="fill stroke markers" d=" M 499.5 0 L 499.5 400" stroke-opacity="0.12" stroke-miterlimit="10" stroke-dasharray=""/><path fill="none" stroke="rgb(0,0,0)" class="dcg-svg-minor-gridline" paint-order="fill stroke markers" d=" M 532.5 0 L 532.5 400" stroke-opacity="0.12" stroke-miterlimit="10" stroke-dasharray=""/><path fill="none" stroke="rgb(0,0,0)" class="dcg-svg-minor-gridline" paint-order="fill stroke markers" d=" M 566.5 0 L 566.5 400" stroke-opacity="0.12" stroke-miterlimit="10" stroke-dasharray=""/><path fill="none" stroke="rgb(0,0,0)" class="dcg-svg-minor-gridline" paint-order="fill stroke markers" d=" M 0 370.5 L 600 370.5" stroke-opacity="0.12" stroke-miterlimit="10" stroke-dasharray=""/><path fill="none" stroke="rgb(0,0,0)" class="dcg-svg-minor-gridline" paint-order="fill stroke markers" d=" M 0 342.5 L 600 342.5" stroke-opacity="0.12" stroke-miterlimit="10" stroke-dasharray=""/><path fill="none" stroke="rgb(0,0,0)" class="dcg-svg-minor-gridline" paint-order="fill stroke markers" d=" M 0 313.5 L 600 313.5" stroke-opacity="0.12" stroke-miterlimit="10" stroke-dasharray=""/><path fill="none" stroke="rgb(0,0,0)" class="dcg-svg-minor-gridline" paint-order="fill stroke markers" d=" M 0 285.5 L 600 285.5" stroke-opacity="0.12" stroke-miterlimit="10" stroke-dasharray=""/><path fill="none" stroke="rgb(0,0,0)" class="dcg-svg-minor-gridline" paint-order="fill stroke markers" d=" M 0 256.5 L 600 256.5" stroke-opacity="0.12" stroke-miterlimit="10" stroke-dasharray=""/><path fill="none" stroke="rgb(0,0,0)" class="dcg-svg-minor-gridline" paint-order="fill stroke markers" d=" M 0 228.5 L 600 228.5" stroke-opacity="0.12" stroke-miterlimit="10" stroke-dasharray=""/><path fill="none" stroke="rgb(0,0,0)" class="dcg-svg-minor-gridline" paint-order="fill stroke markers" d=" M 0 170.5 L 600 170.5" stroke-opacity="0.12" stroke-miterlimit="10" stroke-dasharray=""/><path fill="none" stroke="rgb(0,0,0)" class="dcg-svg-minor-gridline" paint-order="fill stroke markers" d=" M 0 142.5 L 600 142.5" stroke-opacity="0.12" stroke-miterlimit="10" stroke-dasharray=""/><path fill="none" stroke="rgb(0,0,0)" class="dcg-svg-minor-gridline" paint-order="fill stroke markers" d=" M 0 113.5 L 600 113.5" stroke-opacity="0.12" stroke-miterlimit="10" stroke-dasharray=""/><path fill="none" stroke="rgb(0,0,0)" class="dcg-svg-minor-gridline" paint-order="fill stroke markers" d=" M 0 85.5 L 600 85.5" stroke-opacity="0.12" stroke-miterlimit="10" stroke-dasharray=""/><path fill="none" stroke="rgb(0,0,0)" class="dcg-svg-minor-gridline" paint-order="fill stroke markers" d=" M 0 56.5 L 600 56.5" stroke-opacity="0.12" stroke-miterlimit="10" stroke-dasharray=""/><path fill="none" stroke="rgb(0,0,0)" class="dcg-svg-minor-gridline" paint-order="fill stroke markers" d=" M 0 28.5 L 600 28.5" stroke-opacity="0.12" stroke-miterlimit="10" stroke-dasharray=""/><path fill="none" stroke="rgb(0,0,0)" class="dcg-svg-minor-gridline" paint-order="fill stroke markers" d=" M 0 -0.5 L 600 -0.5" stroke-opacity="0.12" stroke-miterlimit="10" stroke-dasharray=""/><path fill="none" stroke="rgb(0,0,0)" class="dcg-svg-major-gridline" paint-order="fill stroke markers" d=" M 66.5 0 L 66.5 400" stroke-opacity="0.31818181818181823" stroke-miterlimit="10" stroke-dasharray=""/><path fill="none" stroke="rgb(0,0,0)" class="dcg-svg-major-gridline" paint-order="fill stroke markers" d=" M 199.5 0 L 199.5 400" stroke-opacity="0.31818181818181823" stroke-miterlimit="10" stroke-dasharray=""/><path fill="none" stroke="rgb(0,0,0)" class="dcg-svg-major-gridline" paint-order="fill stroke markers" d=" M 332.5 0 L 332.5 400" stroke-opacity="0.31818181818181823" stroke-miterlimit="10" stroke-dasharray=""/><path fill="none" stroke="rgb(0,0,0)" class="dcg-svg-major-gridline" paint-order="fill stroke markers" d=" M 466.5 0 L 466.5 400" stroke-opacity="0.31818181818181823" stroke-miterlimit="10" stroke-dasharray=""/><path fill="none" stroke="rgb(0,0,0)" class="dcg-svg-major-gridline" paint-order="fill stroke markers" d=" M 0 342.5 L 600 342.5" stroke-opacity="0.31818181818181823" stroke-miterlimit="10" stroke-dasharray=""/><path fill="none" stroke="rgb(0,0,0)" class="dcg-svg-major-gridline" paint-order="fill stroke markers" d=" M 0 56.5 L 600 56.5" stroke-opacity="0.31818181818181823" stroke-miterlimit="10" stroke-dasharray=""/></g></g><g id="axis-251e2817"><g id="yaxis-251e2817"><title>Y axis</title><path fill="none" stroke="rgb(0,0,0)" class="dcg-svg-axis-line" paint-order="fill stroke markers" d=" M -67.25 0 L -67.25 400" stroke-opacity="0.9" stroke-miterlimit="10" stroke-width="1.5" stroke-dasharray=""/></g><g id="xaxis-251e2817"><title>X axis</title><path fill="none" stroke="rgb(0,0,0)" class="dcg-svg-axis-line" paint-order="fill stroke markers" d=" M 0 199.75 L 600 199.75" stroke-opacity="0.9" stroke-miterlimit="10" stroke-width="1.5" stroke-dasharray=""/></g><g><g class="dcg-svg-axis-value"><text fill="none" stroke="#ffffff" font-family="Arial" font-size="14px" font-style="normal" font-weight="normal" text-decoration="normal" x="-75.55973307291667" y="215.808" text-anchor="middle" stroke-miterlimit="2" stroke-width="3" stroke-dasharray="">0</text><text fill="#000000" stroke="none" font-family="Arial" font-size="14px" font-style="normal" font-weight="normal" text-decoration="normal" x="-75.55973307291667" y="215.808" text-anchor="middle">0</text></g><g class="dcg-svg-axis-value"><text fill="none" stroke="#ffffff" font-family="Arial" font-size="14px" font-style="normal" font-weight="normal" text-decoration="normal" x="66.66666666666667" y="215.808" text-anchor="middle" stroke-miterlimit="2" stroke-width="3" stroke-dasharray="">2</text><text fill="#000000" stroke="none" font-family="Arial" font-size="14px" font-style="normal" font-weight="normal" text-decoration="normal" x="66.66666666666667" y="215.808" text-anchor="middle">2</text></g><g class="dcg-svg-axis-value"><text fill="none" stroke="#ffffff" font-family="Arial" font-size="14px" font-style="normal" font-weight="normal" text-decoration="normal" x="200" y="215.808" text-anchor="middle" stroke-miterlimit="2" stroke-width="3" stroke-dasharray="">4</text><text fill="#000000" stroke="none" font-family="Arial" font-size="14px" font-style="normal" font-weight="normal" text-decoration="normal" x="200" y="215.808" text-anchor="middle">4</text></g><g class="dcg-svg-axis-value"><text fill="none" stroke="#ffffff" font-family="Arial" font-size="14px" font-style="normal" font-weight="normal" text-decoration="normal" x="333.3333333333333" y="215.808" text-anchor="middle" stroke-miterlimit="2" stroke-width="3" stroke-dasharray="">6</text><text fill="#000000" stroke="none" font-family="Arial" font-size="14px" font-style="normal" font-weight="normal" text-decoration="normal" x="333.3333333333333" y="215.808" text-anchor="middle">6</text></g><g class="dcg-svg-axis-value"><text fill="none" stroke="#ffffff" font-family="Arial" font-size="14px" font-style="normal" font-weight="normal" text-decoration="normal" x="466.6666666666667" y="215.808" text-anchor="middle" stroke-miterlimit="2" stroke-width="3" stroke-dasharray="">8</text><text fill="#000000" stroke="none" font-family="Arial" font-size="14px" font-style="normal" font-weight="normal" text-decoration="normal" x="466.6666666666667" y="215.808" text-anchor="middle">8</text></g><g class="dcg-svg-axis-value dcg-svg-offcenter-axis-value"><text fill="none" stroke="#ffffff" font-family="Arial" font-size="14px" font-style="normal" font-weight="normal" text-decoration="normal" x="589.2138671875" y="215.808" text-anchor="middle" stroke-miterlimit="2" stroke-width="3" stroke-dasharray="">10</text><text fill="#000000" stroke="none" font-family="Arial" font-size="14px" font-style="normal" font-weight="normal" text-decoration="normal" x="589.2138671875" y="215.808" text-anchor="middle">10</text></g><g class="dcg-svg-axis-value"><text fill="none" stroke="#ffffff" font-family="Arial" font-size="14px" font-style="normal" font-weight="normal" text-decoration="normal" x="9.22412109375" y="346.6651428571428" text-anchor="middle" stroke-miterlimit="2" stroke-width="3" stroke-dasharray="">-5</text><text fill="rgb(150,150,150)" stroke="none" font-family="Arial" font-size="14px" font-style="normal" font-weight="normal" text-decoration="normal" x="9.22412109375" y="346.6651428571428" text-anchor="middle" fill-opacity="1">-5</text></g><g class="dcg-svg-axis-value"><text fill="none" stroke="#ffffff" font-family="Arial" font-size="14px" font-style="normal" font-weight="normal" text-decoration="normal" x="6.89306640625" y="60.95085714285717" text-anchor="middle" stroke-miterlimit="2" stroke-width="3" stroke-dasharray="">5</text><text fill="rgb(150,150,150)" stroke="none" font-family="Arial" font-size="14px" font-style="normal" font-weight="normal" text-decoration="normal" x="6.89306640625" y="60.95085714285717" text-anchor="middle" fill-opacity="1">5</text></g></g></g></g><g id="expressions-251e2817"><g id="sketch-251e2817"><title>Expression 1</title><path fill="#2d70b3" stroke="none" paint-order="stroke fill markers" d="" fill-opacity="0.4"/><path fill="#2d70b3" stroke="none" class="dcg-svg-region" paint-order="stroke fill markers" d=" M -3 -3 L -0.4262737148102817 -3 L -0.41629464285714707 170.92857142857144 L 66.15043085813522 170.935546875 L 66.2290061712265 184.55859375 L 66.48521205357144 185.2142857142857 L 132.7275390625 185.2142857142857 L 132.82033253446872 185.81509081035418 L 132.88983952999115 189.83203125 L 132.7275390625 189.94189453125 L 129.926025390625 189.83203125 L 128.11328125 189.72216796875 L 125.47656250000001 189.6123046875 L 123.66381835937501 189.50244140625 L 121.35668945312501 189.392578125 L 119.54394531250001 189.28271484375 L 117.56640625000001 189.1728515625 L 116.90722656250001 189.06298828125 L 116.08325195312501 189.06298828125 L 113.44653320312501 188.953125 L 110.31542968750001 188.7333984375 L 108.33789062500001 188.62353515625 L 104.38281250000001 188.3763427734375 L 103.06445312500001 188.2939453125 L 102.40527343750001 188.18408203125 L 101.58129882812501 188.18408203125 L 101.08691406250001 188.07421875 L 100.42773437500001 188.07421875 L 97.955810546875 187.96435546875 L 97.791015625 187.8544921875 L 97.1318359375 187.8544921875 L 95.154296875 187.74462890625 L 88.5625 187.1953125 L 88.4801025390625 187.250244140625 L 88.4801025390625 187.250244140625 L 83.783447265625 186.86572265625 L 82.6298828125 186.755859375 L 78.0980224609375 186.371337890625 L 78.015625 186.31640625 L 77.9332275390625 186.371337890625 L 77.9332275390625 186.371337890625 L 64.2552490234375 184.943115234375 L 64.1728515625 184.88818359375 L 64.0904541015625 184.98431396484375 L 61.53613281250001 184.66845703125 L 56.34509277343751 184.064208984375 L 56.09790039062501 184.00927734375 L 56.01550292968751 184.0367431640625 L 43.573486328125 182.2789306640625 L 43.0791015625 182.1416015625 L 42.255126953125 182.03173828125 L 39.288818359375 181.59228515625 L 39.1240234375 181.482421875 L 39.0416259765625 181.537353515625 L 32.037841796875 180.27392578125 L 31.873046875 180.1640625 L 31.7906494140625 180.218994140625 L 31.7906494140625 180.218994140625 L 29.730712890625004 179.83447265625 L 17.04150390625 176.8681640625 L 13.416015625000002 175.76953125 L 13.333618164062502 175.824462890625 L 13.333618164062502 175.824462890625 L 13.168823242187502 175.76953125 L 13.168823242187502 175.76953125 L 8.8841552734375 174.396240234375 L 8.8017578125 174.34130859375 L 8.7193603515625 174.396240234375 L 8.142578125 174.12158203125 L 8.0601806640625 174.16278076171875 L 7.153808593750001 173.7919921875 L 2.7867431640625004 172.25390625 L 0.232421875 171.1552734375 L -0.4267578125 170.935546875 L -2.404296875 170.05664062499997 L -3 169.77297247023807 M 290.9285714285715 193.78571428571428 L 332.7886949181557 193.787109375 L 332.8647355437279 194.666015625 L 326.4439697265625 194.611083984375 L 326.4439697265625 194.65228271484375 L 322.90087890625 194.611083984375 L 317.5450439453125 194.501220703125 L 317.0506591796875 194.501220703125 L 316.2266845703125 194.501220703125 L 315.7322998046875 194.501220703125 L 309.7996826171875 194.391357421875 L 308.9757080078125 194.391357421875 L 308.563720703125 194.4188232421875 L 308.0693359375 194.33642578125 L 307.1629638671875 194.391357421875 L 306.0093994140625 194.37762451171875 L 304.8558349609375 194.37762451171875 L 304.7734375 194.33642578125 L 304.6910400390625 194.37762451171875 L 304.608642578125 194.33642578125 L 294.061767578125 194.2265625 L 289.98309326171875 194.1441650390625 L 288.49993896484375 194.1441650390625 L 280.71337890625 194.0068359375 L 273.1328125 193.89697265625 L 271.2376708984375 193.842041015625 L 269.177734375 193.787109375 L 260.27880859375 193.67724609375 L 257.9716796875 193.5673828125 L 257.147705078125 193.622314453125 L 253.11022949218753 193.512451171875 L 251.95666503906253 193.49871826171875 L 250.80310058593753 193.49871826171875 L 250.72070312500003 193.45751953125 L 250.63830566406253 193.49871826171875 L 250.55590820312503 193.45751953125 L 242.48095703125003 193.34765625 L 238.69067382812503 193.23779296875 L 231.93408203125003 193.1279296875 L 231.60449218750003 193.01806640625 L 230.94531250000003 193.1004638671875 L 227.81420898437503 193.01806640625 L 222.37597656250003 192.908203125 L 219.08007812500003 192.79833984375 L 218.25610351562503 192.79833984375 L 216.03137207031253 192.743408203125 L 215.53698730468753 192.743408203125 L 212.24108886718753 192.633544921875 L 211.08752441406253 192.61981201171875 L 209.93395996093753 192.61981201171875 L 209.85156250000003 192.57861328125 L 209.76916503906253 192.61981201171875 L 209.68676757812503 192.57861328125 L 203.75415039062503 192.46875 L 201.94140625000003 192.35888671875 L 201.85900878906253 192.413818359375 L 201.85900878906253 192.413818359375 L 200.61955915178578 192.35714285714283 L 266.13546562194824 192.46875 L 266.22937873502417 193.55541417665054 L 266.54101562499994 193.78571428571428 L 290.9285714285715 193.78571428571428 M 199.53053664446145 191.74040984630764 L 199.54536186728794 192.16879864840402 L 199.0574951171875 192.303955078125 L 197.986328125 192.2490234375 L 197.3271484375 192.2490234375 L 191.888916015625 192.13916015625 L 191.39453125 192.029296875 L 190.076171875 192.029296875 L 184.1435546875 191.91943359375 L 183.484375 191.8919677734375 L 180.51806640625 191.8095703125 L 180.1884765625 191.69970703125 L 179.2821044921875 191.754638671875 L 178.046142578125 191.69970703125 L 173.6790771484375 191.58984375 L 170.9599609375 191.47998046875 L 167.33447265625 191.3701171875 L 167.0048828125 191.26025390625 L 166.345703125 191.3426513671875 L 161.7314453125 191.150390625 L 158.435546875 191.04052734375 L 157.1171875 190.9306640625 L 156.7052001953125 190.985595703125 L 156.12841796875 190.9306640625 L 155.1396484375 190.9306640625 L 153.326904296875 190.82080078125 L 149.6190185546875 190.7109375 L 148.73839569091797 190.6731719970703 L 145.251953125 190.4912109375 L 142.120849609375 190.38134765625 L 140.7200927734375 190.326416015625 L 136.0234375 190.0517578125 L 133.5410505022322 189.97619047619048 L 199.30468750000006 189.97619047619048 L 199.47970163822174 190.271484375 L 199.53053664446145 191.74040984630764 M 603 196.63500622735506 L 575.037109375 196.53369140625 L 573.1419677734375 196.478759765625 L 571.08203125 196.423828125 L 569.1868896484375 196.478759765625 L 567.126953125 196.423828125 L 565.2318115234375 196.478759765625 L 563.171875 196.423828125 L 551.4266764322917 196.32539682539684 L 598.767578125 196.32539682539684 L 600.0859375 196.64285714285714 L 603 196.64285714285714 M 549.1814546130953 196.32539682539684 L 549.8339494977679 196.32539682539684 L 548.7899576822917 196.32539682539684 L 549.1814546130953 196.32539682539684 M 547.9283447265625 196.368896484375 L 547.4715983072917 196.32539682539684 L 548.5155901227679 196.32539682539684 L 547.9283447265625 196.368896484375 M 550.5650634765625 196.368896484375 L 550.1083170572917 196.32539682539684 L 551.1523088727679 196.32539682539684 L 550.5650634765625 196.368896484375 M 543.9080171130953 196.32539682539684 L 544.5605119977679 196.32539682539684 L 543.5165201822917 196.32539682539684 L 543.9080171130953 196.32539682539684 M 542.6549072265625 196.368896484375 L 542.1981608072917 196.32539682539684 L 543.2421526227679 196.32539682539684 L 542.6549072265625 196.368896484375 M 546.5447358630953 196.32539682539684 L 547.1972307477679 196.32539682539684 L 546.1532389322917 196.32539682539684 L 546.5447358630953 196.32539682539684 M 545.2916259765625 196.368896484375 L 544.8348795572917 196.32539682539684 L 545.8788713727679 196.32539682539684 L 545.2916259765625 196.368896484375 M 541.2712983630953 196.32539682539684 L 541.9237932477679 196.32539682539684 L 540.8798014322917 196.32539682539684 L 541.2712983630953 196.32539682539684 M 532.355224609375 196.31396484375 L 510.76708984375006 196.2041015625 L 509.77832031250006 196.09423828125 L 508.87194824218756 196.149169921875 L 508.04797363281256 196.149169921875 L 507.96557617187506 196.1766357421875 L 507.80078125000006 196.09423828125 L 507.55358886718756 196.149169921875 L 506.72961425781256 196.149169921875 L 506.64721679687506 196.1766357421875 L 506.48242187500006 196.09423828125 L 506.23522949218756 196.149169921875 L 505.08166503906256 196.13543701171875 L 503.92810058593756 196.13543701171875 L 503.84570312500006 196.09423828125 L 503.59851074218756 196.149169921875 L 502.44494628906256 196.13543701171875 L 501.29138183593756 196.13543701171875 L 501.20898437500006 196.09423828125 L 501.12658691406256 196.13543701171875 L 501.04418945312506 196.09423828125 L 474.67700195312506 195.984375 L 473.6045270647322 195.92857142857142 L 532.7787990570068 195.984375 L 532.7616565611418 196.04301020923884 L 532.8460487425327 196.31396484375 L 532.355224609375 196.31396484375 M 473.4397321428572 195.92857142857142 L 473.44234793526783 195.92857142857142 L 473.44104003906256 195.929443359375 L 472.5913162231446 195.9672088623047 L 473.4397321428572 195.92857142857142 M 472.12268066406256 195.929443359375 L 471.4274520874024 195.96034240722656 L 472.12398856026783 195.92857142857142 L 472.12268066406256 195.929443359375 M 470.8030133928572 195.92857142857142 L 470.80562918526783 195.92857142857142 L 470.80432128906256 195.929443359375 L 470.2635879516602 195.95347595214844 L 470.8030133928572 195.92857142857142 M 469.48596191406256 195.929443359375 L 469.099723815918 195.9466094970703 L 469.48726981026783 195.92857142857142 L 469.48596191406256 195.929443359375 M 462.1275510204082 195.41836734693877 L 465.61328125000006 195.41836734693877 L 466.84924316406256 195.929443359375 L 462.81176757812506 195.87451171875 L 462.5233764648438 195.9019775390625 L 456.13757324218756 195.819580078125 L 456.0036773681641 195.84017944335938 L 453.74804687500006 195.7646484375 L 453.3669586181641 195.84017944335938 L 451.11132812500006 195.7646484375 L 450.86413574218756 195.819580078125 L 448.0214233398438 195.7921142578125 L 443.20117187500006 195.7646484375 L 428.20483398437506 195.65478515625 L 426.80407714843756 195.599853515625 L 424.74414062500006 195.544921875 L 422.84899902343756 195.599853515625 L 420.78906250000006 195.544921875 L 401.4329460299746 195.41836734693877 L 462.1275510204082 195.41836734693877 M 468.1662946428571 195.92857142857142 L 468.16891043526783 195.92857142857142 L 468.16760253906256 195.929443359375 L 468.16760253906256 195.929443359375 L 467.93585968017584 195.9397430419922 L 468.1662946428571 195.92857142857142 M 398.9280133928572 194.7380952380952 L 399.0361328125 194.7380952380952 L 399.55872761097385 195.19652534268408 L 399.5805261658981 195.34050015704693 L 398.376953125 195.4075927734375 L 397.4705810546875 195.380126953125 L 388.9012451171875 195.270263671875 L 388.0772705078125 195.270263671875 L 387.665283203125 195.2977294921875 L 387.1708984375 195.21533203125 L 386.2645263671875 195.270263671875 L 385.1109619140625 195.25653076171875 L 383.9573974609375 195.25653076171875 L 383.875 195.21533203125 L 383.6278076171875 195.270263671875 L 382.391845703125 195.21533203125 L 366.3243408203125 195.10546875 L 364.0172119140625 195.050537109375 L 363.47647857666016 195.07456970214844 L 362.3898620605469 195.06427001953125 L 359.979736328125 194.99560546875 L 359.69134521484375 195.0230712890625 L 353.3055419921875 194.940673828125 L 353.17164611816406 194.96127319335938 L 350.916015625 194.8857421875 L 350.6688232421875 194.940673828125 L 347.94970703125 194.8857421875 L 336.4140625 194.77587890625 L 336.1873604910715 194.7380952380952 L 398.9280133928572 194.7380952380952" fill-opacity="0.4"/><g><path fill="none" stroke="#2d70b3" class="dcg-svg-curve" paint-order="fill stroke markers" d=" M -0.4267578125 170.92857142857144 L 10.5732421875 170.92857142857144 M 17.5732421875 170.92857142857144 L 28.5732421875 170.92857142857144 M 35.5732421875 170.92857142857144 L 46.5732421875 170.92857142857144 M 53.5732421875 170.92857142857144 L 64.5732421875 170.92857142857144" stroke-linecap="round" stroke-linejoin="round" stroke-miterlimit="10" stroke-width="2.5" stroke-opacity="0.9" stroke-dasharray=""/></g><g><path fill="none" stroke="#2d70b3" class="dcg-svg-curve" paint-order="fill stroke markers" d=" M 66.16810555306438 173.99990879795706 L 66.16817367076874 174.01171875" stroke-linecap="round" stroke-linejoin="round" stroke-miterlimit="10" stroke-width="2.5" stroke-opacity="0.9" stroke-dasharray=""/></g><g><path fill="none" stroke="#2d70b3" class="dcg-svg-curve" paint-order="fill stroke markers" d=" M 66.17577773332596 175.330078125 L 66.17831242084503 175.76953125" stroke-linecap="round" stroke-linejoin="round" stroke-miterlimit="10" stroke-width="2.5" stroke-opacity="0.9" stroke-dasharray=""/></g><g><path fill="none" stroke="#2d70b3" class="dcg-svg-curve" paint-order="fill stroke markers" d=" M 66.18591648340225 177.087890625 L 66.18830538054053 177.5020672463063" stroke-linecap="round" stroke-linejoin="round" stroke-miterlimit="10" stroke-width="2.5" stroke-opacity="0.9" stroke-dasharray=""/></g><g><path fill="none" stroke="#2d70b3" class="dcg-svg-curve" paint-order="fill stroke markers" d=" M 66.19605523347855 178.845703125 L 66.19858992099762 179.28515625" stroke-linecap="round" stroke-linejoin="round" stroke-miterlimit="10" stroke-width="2.5" stroke-opacity="0.9" stroke-dasharray=""/></g><g><path fill="none" stroke="#2d70b3" class="dcg-svg-curve" paint-order="fill stroke markers" d=" M 66.48172433035715 185.2142857142857 L 77.48172433035715 185.2142857142857 M 84.48172433035715 185.2142857142857 L 95.48172433035715 185.2142857142857 M 102.48172433035715 185.2142857142857 L 113.48172433035715 185.2142857142857 M 120.48172433035715 185.2142857142857 L 131.48172433035717 185.2142857142857" stroke-linecap="round" stroke-linejoin="round" stroke-miterlimit="10" stroke-width="2.5" stroke-opacity="0.9" stroke-dasharray=""/></g><g><path fill="none" stroke="#2d70b3" class="dcg-svg-curve" paint-order="fill stroke markers" d=" M 132.82033253446872 185.81509081035418 L 132.8214029669762 185.876953125" stroke-linecap="round" stroke-linejoin="round" stroke-miterlimit="10" stroke-width="2.5" stroke-opacity="0.9" stroke-dasharray=""/></g><g><path fill="none" stroke="#2d70b3" class="dcg-svg-curve" paint-order="fill stroke markers" d=" M 132.83536722474054 186.6839739335063 L 132.8366110920906 186.755859375" stroke-linecap="round" stroke-linejoin="round" stroke-miterlimit="10" stroke-width="2.5" stroke-opacity="0.9" stroke-dasharray=""/></g><g><path fill="none" stroke="#2d70b3" class="dcg-svg-curve" paint-order="fill stroke markers" d=" M 132.85040191501236 187.5528570566584 L 132.85181921720505 187.634765625" stroke-linecap="round" stroke-linejoin="round" stroke-miterlimit="10" stroke-width="2.5" stroke-opacity="0.9" stroke-dasharray=""/></g><g><path fill="none" stroke="#2d70b3" class="dcg-svg-curve" paint-order="fill stroke markers" d=" M 290.9285714285715 193.78571428571428 L 301.9285714285715 193.78571428571428 M 308.9285714285715 193.78571428571428 L 319.9285714285715 193.78571428571428 M 326.9285714285715 193.78571428571428 L 332.45898437499994 193.78571428571428" stroke-linecap="round" stroke-linejoin="round" stroke-miterlimit="10" stroke-width="2.5" stroke-opacity="0.9" stroke-dasharray=""/></g><g><path fill="none" stroke="#2d70b3" class="dcg-svg-curve" paint-order="fill stroke markers" d=" M 200.61955915178578 192.35714285714283 L 211.61955915178578 192.35714285714283 M 218.61955915178578 192.35714285714283 L 229.61955915178578 192.35714285714283 M 236.61955915178578 192.35714285714283 L 247.61955915178578 192.35714285714283 M 254.61955915178578 192.35714285714283 L 265.6195591517858 192.35714285714283" stroke-linecap="round" stroke-linejoin="round" stroke-miterlimit="10" stroke-width="2.5" stroke-opacity="0.9" stroke-dasharray=""/></g><g><path fill="none" stroke="#2d70b3" class="dcg-svg-curve" paint-order="fill stroke markers" d=" M 266.22937873502417 193.55541417665054 L 266.54101562499994 193.78571428571428 M 266.54101562499994 193.78571428571428 L 277.15351634573796 193.78571428571428 M 284.15351634573796 193.78571428571428 L 290.9285714285715 193.78571428571428" stroke-linecap="round" stroke-linejoin="round" stroke-miterlimit="10" stroke-width="2.5" stroke-opacity="0.9" stroke-dasharray=""/></g><g><path fill="none" stroke="#2d70b3" class="dcg-svg-curve" paint-order="fill stroke markers" d=" M 133.5410505022322 189.97619047619048 L 144.5410505022322 189.97619047619048 M 151.5410505022322 189.97619047619048 L 162.5410505022322 189.97619047619048 M 169.5410505022322 189.97619047619048 L 180.5410505022322 189.97619047619048 M 187.5410505022322 189.97619047619048 L 198.5410505022322 189.97619047619048" stroke-linecap="round" stroke-linejoin="round" stroke-miterlimit="10" stroke-width="2.5" stroke-opacity="0.9" stroke-dasharray=""/></g><g><path fill="none" stroke="#2d70b3" class="dcg-svg-curve" paint-order="fill stroke markers" d=" M 199.4906200595096 190.5869824603269 L 199.49490976333624 190.7109375" stroke-linecap="round" stroke-linejoin="round" stroke-miterlimit="10" stroke-width="2.5" stroke-opacity="0.9" stroke-dasharray=""/></g><g><path fill="none" stroke="#2d70b3" class="dcg-svg-curve" paint-order="fill stroke markers" d=" M 551.4266764322917 196.32539682539684 L 562.4266764322917 196.32539682539684 M 569.4266764322917 196.32539682539684 L 580.4266764322917 196.32539682539684 M 587.4266764322917 196.32539682539684 L 598.4266764322917 196.32539682539684 M 605.3889928526578 196.64285714285714 L 605.5 196.64285714285714" stroke-linecap="round" stroke-linejoin="round" stroke-miterlimit="10" stroke-width="2.5" stroke-opacity="0.9" stroke-dasharray=""/></g><g><path fill="none" stroke="#2d70b3" class="dcg-svg-curve" paint-order="fill stroke markers" d=" M 549.1814546130953 196.32539682539684 L 549.8339494977679 196.32539682539684" stroke-linecap="round" stroke-linejoin="round" stroke-miterlimit="10" stroke-width="2.5" stroke-opacity="0.9" stroke-dasharray=""/></g><g><path fill="none" stroke="#2d70b3" class="dcg-svg-curve" paint-order="fill stroke markers" d=" M 548.7899576822917 196.32539682539684 L 549.1814546130953 196.32539682539684" stroke-linecap="round" stroke-linejoin="round" stroke-miterlimit="10" stroke-width="2.5" stroke-opacity="0.9" stroke-dasharray=""/></g><g><path fill="none" stroke="#2d70b3" class="dcg-svg-curve" paint-order="fill stroke markers" d=" M 547.4715983072917 196.32539682539684 L 548.5155901227679 196.32539682539684" stroke-linecap="round" stroke-linejoin="round" stroke-miterlimit="10" stroke-width="2.5" stroke-opacity="0.9" stroke-dasharray=""/></g><g><path fill="none" stroke="#2d70b3" class="dcg-svg-curve" paint-order="fill stroke markers" d=" M 550.1083170572917 196.32539682539684 L 551.1523088727679 196.32539682539684" stroke-linecap="round" stroke-linejoin="round" stroke-miterlimit="10" stroke-width="2.5" stroke-opacity="0.9" stroke-dasharray=""/></g><g><path fill="none" stroke="#2d70b3" class="dcg-svg-curve" paint-order="fill stroke markers" d=" M 543.9080171130953 196.32539682539684 L 544.5605119977679 196.32539682539684" stroke-linecap="round" stroke-linejoin="round" stroke-miterlimit="10" stroke-width="2.5" stroke-opacity="0.9" stroke-dasharray=""/></g><g><path fill="none" stroke="#2d70b3" class="dcg-svg-curve" paint-order="fill stroke markers" d=" M 543.5165201822917 196.32539682539684 L 543.9080171130953 196.32539682539684" stroke-linecap="round" stroke-linejoin="round" stroke-miterlimit="10" stroke-width="2.5" stroke-opacity="0.9" stroke-dasharray=""/></g><g><path fill="none" stroke="#2d70b3" class="dcg-svg-curve" paint-order="fill stroke markers" d=" M 542.1981608072917 196.32539682539684 L 543.2421526227679 196.32539682539684" stroke-linecap="round" stroke-linejoin="round" stroke-miterlimit="10" stroke-width="2.5" stroke-opacity="0.9" stroke-dasharray=""/></g><g><path fill="none" stroke="#2d70b3" class="dcg-svg-curve" paint-order="fill stroke markers" d=" M 546.5447358630953 196.32539682539684 L 547.1972307477679 196.32539682539684" stroke-linecap="round" stroke-linejoin="round" stroke-miterlimit="10" stroke-width="2.5" stroke-opacity="0.9" stroke-dasharray=""/></g><g><path fill="none" stroke="#2d70b3" class="dcg-svg-curve" paint-order="fill stroke markers" d=" M 546.1532389322917 196.32539682539684 L 546.5447358630953 196.32539682539684" stroke-linecap="round" stroke-linejoin="round" stroke-miterlimit="10" stroke-width="2.5" stroke-opacity="0.9" stroke-dasharray=""/></g><g><path fill="none" stroke="#2d70b3" class="dcg-svg-curve" paint-order="fill stroke markers" d=" M 544.8348795572917 196.32539682539684 L 545.8788713727679 196.32539682539684" stroke-linecap="round" stroke-linejoin="round" stroke-miterlimit="10" stroke-width="2.5" stroke-opacity="0.9" stroke-dasharray=""/></g><g><path fill="none" stroke="#2d70b3" class="dcg-svg-curve" paint-order="fill stroke markers" d=" M 541.2712983630953 196.32539682539684 L 541.9237932477679 196.32539682539684" stroke-linecap="round" stroke-linejoin="round" stroke-miterlimit="10" stroke-width="2.5" stroke-opacity="0.9" stroke-dasharray=""/></g><g><path fill="none" stroke="#2d70b3" class="dcg-svg-curve" paint-order="fill stroke markers" d=" M 540.8798014322917 196.32539682539684 L 541.2712983630953 196.32539682539684" stroke-linecap="round" stroke-linejoin="round" stroke-miterlimit="10" stroke-width="2.5" stroke-opacity="0.9" stroke-dasharray=""/></g><g><path fill="none" stroke="#2d70b3" class="dcg-svg-curve" paint-order="fill stroke markers" d=" M 473.6045270647322 195.92857142857142 L 484.6045270647322 195.92857142857142 M 491.6045270647322 195.92857142857142 L 502.6045270647322 195.92857142857142 M 509.6045270647322 195.92857142857142 L 520.6045270647322 195.92857142857142 M 527.6045270647322 195.92857142857142 L 532.1904296875 195.92857142857142" stroke-linecap="round" stroke-linejoin="round" stroke-miterlimit="10" stroke-width="2.5" stroke-opacity="0.9" stroke-dasharray=""/></g><g><path fill="none" stroke="#2d70b3" class="dcg-svg-curve" paint-order="fill stroke markers" d=" M 473.4397321428572 195.92857142857142 L 473.44234793526783 195.92857142857142" stroke-linecap="round" stroke-linejoin="round" stroke-miterlimit="10" stroke-width="2.5" stroke-opacity="0.9" stroke-dasharray=""/></g><g><path fill="none" stroke="#2d70b3" class="dcg-svg-curve" paint-order="fill stroke markers" d=" M 473.4214215959822 195.92857142857142 L 473.4397321428572 195.92857142857142" stroke-linecap="round" stroke-linejoin="round" stroke-miterlimit="10" stroke-width="2.5" stroke-opacity="0.9" stroke-dasharray=""/></g><g><path fill="none" stroke="#2d70b3" class="dcg-svg-curve" paint-order="fill stroke markers" d=" M 472.1030622209822 195.92857142857142 L 472.12398856026783 195.92857142857142" stroke-linecap="round" stroke-linejoin="round" stroke-miterlimit="10" stroke-width="2.5" stroke-opacity="0.9" stroke-dasharray=""/></g><g><path fill="none" stroke="#2d70b3" class="dcg-svg-curve" paint-order="fill stroke markers" d=" M 470.8030133928572 195.92857142857142 L 470.80562918526783 195.92857142857142" stroke-linecap="round" stroke-linejoin="round" stroke-miterlimit="10" stroke-width="2.5" stroke-opacity="0.9" stroke-dasharray=""/></g><g><path fill="none" stroke="#2d70b3" class="dcg-svg-curve" paint-order="fill stroke markers" d=" M 470.7847028459822 195.92857142857142 L 470.8030133928572 195.92857142857142" stroke-linecap="round" stroke-linejoin="round" stroke-miterlimit="10" stroke-width="2.5" stroke-opacity="0.9" stroke-dasharray=""/></g><g><path fill="none" stroke="#2d70b3" class="dcg-svg-curve" paint-order="fill stroke markers" d=" M 469.4663434709822 195.92857142857142 L 469.48726981026783 195.92857142857142" stroke-linecap="round" stroke-linejoin="round" stroke-miterlimit="10" stroke-width="2.5" stroke-opacity="0.9" stroke-dasharray=""/></g><g><path fill="none" stroke="#2d70b3" class="dcg-svg-curve" paint-order="fill stroke markers" d=" M 462.1275510204082 195.41836734693877 L 465.61328125000006 195.41836734693877 M 465.61328125000006 195.41836734693877 L 466.85055106026783 195.92857142857142" stroke-linecap="round" stroke-linejoin="round" stroke-miterlimit="10" stroke-width="2.5" stroke-opacity="0.9" stroke-dasharray=""/></g><g><path fill="none" stroke="#2d70b3" class="dcg-svg-curve" paint-order="fill stroke markers" d=" M 401.4329460299746 195.41836734693877 L 412.4329460299746 195.41836734693877 M 419.4329460299746 195.41836734693877 L 430.4329460299746 195.41836734693877 M 437.4329460299746 195.41836734693877 L 448.4329460299746 195.41836734693877 M 455.4329460299746 195.41836734693877 L 462.1275510204082 195.41836734693877" stroke-linecap="round" stroke-linejoin="round" stroke-miterlimit="10" stroke-width="2.5" stroke-opacity="0.9" stroke-dasharray=""/></g><g><path fill="none" stroke="#2d70b3" class="dcg-svg-curve" paint-order="fill stroke markers" d=" M 468.1662946428571 195.92857142857142 L 468.16891043526783 195.92857142857142" stroke-linecap="round" stroke-linejoin="round" stroke-miterlimit="10" stroke-width="2.5" stroke-opacity="0.9" stroke-dasharray=""/></g><g><path fill="none" stroke="#2d70b3" class="dcg-svg-curve" paint-order="fill stroke markers" d=" M 468.1479840959822 195.92857142857142 L 468.1662946428571 195.92857142857142" stroke-linecap="round" stroke-linejoin="round" stroke-miterlimit="10" stroke-width="2.5" stroke-opacity="0.9" stroke-dasharray=""/></g><g><path fill="none" stroke="#2d70b3" class="dcg-svg-curve" paint-order="fill stroke markers" d=" M 398.9280133928572 194.7380952380952 L 399.0361328125 194.7380952380952" stroke-linecap="round" stroke-linejoin="round" stroke-miterlimit="10" stroke-width="2.5" stroke-opacity="0.9" stroke-dasharray=""/></g><g><path fill="none" stroke="#2d70b3" class="dcg-svg-curve" paint-order="fill stroke markers" d=" M 399.55872761097385 195.19652534268408 L 399.5805261658981 195.34050015704693" stroke-linecap="round" stroke-linejoin="round" stroke-miterlimit="10" stroke-width="2.5" stroke-opacity="0.9" stroke-dasharray=""/></g><g><path fill="none" stroke="#2d70b3" class="dcg-svg-curve" paint-order="fill stroke markers" d=" M 336.1873604910715 194.7380952380952 L 347.1873604910715 194.7380952380952 M 354.1873604910715 194.7380952380952 L 365.1873604910715 194.7380952380952 M 372.1873604910715 194.7380952380952 L 383.1873604910715 194.7380952380952 M 390.1873604910715 194.7380952380952 L 398.9280133928572 194.7380952380952" stroke-linecap="round" stroke-linejoin="round" stroke-miterlimit="10" stroke-width="2.5" stroke-opacity="0.9" stroke-dasharray=""/></g></g></g><g id="labels-251e2817"/></g></svg>