<svg version="1.1" xmlns="http://www.w3.org/2000/svg" xmlns:xlink="http://www.w3.org/1999/xlink" width="200" height="400"><defs/><g transform="scale(1,1)"><g id="background-18611139"><rect fill="white" stroke="none" x="0" y="0" width="200" height="400" class="dcg-svg-background"/></g><g id="background-images-18611139"/><g id="graphpaper-18611139"><g id="grid-18611139"><g><path fill="none" stroke="rgb(0,0,0)" class="dcg-svg-minor-gridline" paint-order="fill stroke markers" d=" M -0.5 0 L -0.5 400" stroke-opacity="0.12" stroke-miterlimit="10" stroke-dasharray=""/><path fill="none" stroke="rgb(0,0,0)" class="dcg-svg-minor-gridline" paint-order="fill stroke markers" d=" M 24.5 0 L 24.5 400" stroke-opacity="0.12" stroke-miterlimit="10" stroke-dasharray=""/><path fill="none" stroke="rgb(0,0,0)" class="dcg-svg-minor-gridline" paint-order="fill stroke markers" d=" M 49.5 0 L 49.5 400" stroke-opacity="0.12" stroke-miterlimit="10" stroke-dasharray=""/><path fill="none" stroke="rgb(0,0,0)" class="dcg-svg-minor-gridline" paint-order="fill stroke markers" d=" M 74.5 0 L 74.5 400" stroke-opacity="0.12" stroke-miterlimit="10" stroke-dasharray=""/><path fill="none" stroke="rgb(0,0,0)" class="dcg-svg-minor-gridline" paint-order="fill stroke markers" d=" M 124.5 0 L 124.5 400" stroke-opacity="0.12" stroke-miterlimit="10" stroke-dasharray=""/><path fill="none" stroke="rgb(0,0,0)" class="dcg-svg-minor-gridline" paint-order="fill stroke markers" d=" M 149.5 0 L 149.5 400" stroke-opacity="0.12" stroke-miterlimit="10" stroke-dasharray=""/><path fill="none" stroke="rgb(0,0,0)" class="dcg-svg-minor-gridline" paint-order="fill stroke markers" d=" M 174.5 0 L 174.5 400" stroke-opacity="0.12" stroke-miterlimit="10" stroke-dasharray=""/><path fill="none" stroke="rgb(0,0,0)" class="dcg-svg-minor-gridline" paint-order="fill stroke markers" d=" M 0 349.5 L 200 349.5" stroke-opacity="0.12" stroke-miterlimit="10" stroke-dasharray=""/><path fill="none" stroke="rgb(0,0,0)" class="dcg-svg-minor-gridline" paint-order="fill stroke markers" d=" M 0 249.5 L 200 249.5" stroke-opacity="0.12" stroke-miterlimit="10" stroke-dasharray=""/><path fill="none" stroke="rgb(0,0,0)" class="dcg-svg-minor-gridline" paint-order="fill stroke markers" d=" M 0 199.5 L 200 199.5" stroke-opacity="0.12" stroke-miterlimit="10" stroke-dasharray=""/><path fill="none" stroke="rgb(0,0,0)" class="dcg-svg-minor-gridline" paint-order="fill stroke markers" d=" M 0 149.5 L 200 149.5" stroke-opacity="0.12" stroke-miterlimit="10" stroke-dasharray=""/><path fill="none" stroke="rgb(0,0,0)" class="dcg-svg-minor-gridline" paint-order="fill stroke markers" d=" M 0 99.5 L 200 99.5" stroke-opacity="0.12" stroke-miterlimit="10" stroke-dasharray=""/><path fill="none" stroke="rgb(0,0,0)" class="dcg-svg-minor-gridline" paint-order="fill stroke markers" d=" M 0 49.5 L 200 49.5" stroke-opacity="0.12" stroke-miterlimit="10" stroke-dasharray=""/><path fill="none" stroke="rgb(0,0,0)" class="dcg-svg-minor-gridline" paint-order="fill stroke markers" d=" M 0 -0.5 L 200 -0.5" stroke-opacity="0.12" stroke-miterlimit="10" stroke-dasharray=""/><path fill="none" stroke="rgb(0,0,0)" class="dcg-svg-major-gridline" paint-order="fill stroke markers" d=" M -0.5 0 L -0.5 400" stroke-opacity="0.31818181818181823" stroke-miterlimit="10" stroke-dasharray=""/><path fill="none" stroke="rgb(0,0,0)" class="dcg-svg-major-gridline" paint-order="fill stroke markers" d=" M 0 99.5 L 200 99.5" stroke-opacity="0.31818181818181823" stroke-miterlimit="10" stroke-dasharray=""/></g></g><g id="axis-18611139"><g id="yaxis-18611139"><title>Y axis</title><path fill="none" stroke="rgb(0,0,0)" class="dcg-svg-axis-line" paint-order="fill stroke markers" d=" M 99.75 0 L 99.75 400" stroke-opacity="0.9" stroke-miterlimit="10" stroke-width="1.5" stroke-dasharray=""/></g><g id="xaxis-18611139"><title>X axis</title><path fill="none" stroke="rgb(0,0,0)" class="dcg-svg-axis-line" paint-order="fill stroke markers" d=" M 0 299.75 L 200 299.75" stroke-opacity="0.9" stroke-miterlimit="10" stroke-width="1.5" stroke-dasharray=""/></g><g/></g></g><g id="expressions-18611139"><g id="sketch-18611139"><title>Expression 1</title><path fill="#2d70b3" stroke="none" paint-order="stroke fill markers" d="" fill-opacity="0.4"/><g><path fill="none" stroke="#2d70b3" class="dcg-svg-curve" paint-order="fill stroke markers" d=" M 10.495506042640137 -5.5 L 10.495506042640137 -5.5 L 10.92578125 -2.982735936320694 L 13.220703125 9.806036802244137 L 15.515625 21.98441380740445 L 17.810546875 33.578055363142994 L 20.10546875 44.6113896945497 L 22.44921875 55.32531834023189 L 24.79296875 65.5026321050824 L 27.13671875 75.16569734574387 L 29.48046875 84.33575027134054 L 31.82421875 93.03294361361537 L 34.216796875 101.443435883397 L 36.609375 109.40033722983281 L 39.001953125 116.92187061990597 L 41.443359375 124.16599095863364 L 43.884765625 130.9919993828512 L 46.375 137.54066516256324 L 48.865234375 143.68750664482073 L 51.404296875 149.55695415435173 L 53.9921875 155.14139631772792 L 56.62890625 160.43347642332282 L 59.314453125 165.42601313805565 L 62.048828125 170.11191417811793 L 64.83203125 174.48408260272146 L 67.712890625 178.60172458497922 L 70.544921875 182.25819331191428 L 73.328125 185.485001949204 L 76.0625 188.31102702223876 L 78.748046875 190.76278081894722 L 81.43359375 192.90076701826945 L 84.0703125 194.7005881698261 L 86.70703125 196.20890359271777 L 89.294921875 197.40988696584844 L 91.8828125 198.33732302166024 L 94.470703125 198.99369679653438 L 97.009765625 199.3759490158879 L 99.548828125 199.49995231628037 L 102.087890625 199.36602653812943 L 104.626953125 198.9738262480743 L 107.166015625 198.322339848003 L 109.705078125 197.40988696584844 L 112.29296875 196.20890359271777 L 114.880859375 194.73115490426534 L 117.46875 192.9726813183398 L 120.10546875 190.88742891012598 L 122.7421875 188.50006424646332 L 125.427734375 185.75106063564036 L 128.11328125 182.6738278161032 L 130.84765625 179.1942271328759 L 133.630859375 175.28283396309695 L 136.462890625 170.9075665289073 L 139.24609375 166.2057741778158 L 141.931640625 161.27750052096002 L 144.568359375 156.05088339141435 L 147.15625 150.53315075634436 L 149.6953125 144.7316951061575 L 152.185546875 138.6541528958311 L 154.67578125 132.17754897303234 L 157.1171875 125.42504368604398 L 159.55859375 118.25742889662286 L 161.951171875 110.81395967187444 L 164.34375 102.9383599815863 L 166.6875 94.78713045576524 L 169.03125 86.18601001026121 L 171.375 77.11609623802912 L 173.71875 67.55745647993729 L 176.013671875 57.70418779374222 L 178.30859375 47.341446523111415 L 180.603515625 36.44739799469454 L 182.8984375 24.999088051394892 L 185.193359375 12.972394687123654 L 187.439453125 0.6171759270783355 L 188.49974520512012 -5.5" stroke-linecap="round" stroke-linejoin="round" stroke-miterlimit="10" stroke-width="2.5" stroke-opacity="0.9" stroke-dasharray=""/></g></g></g><g id="labels-18611139"/></g></svg>