<svg version="1.1" xmlns="http://www.w3.org/2000/svg" xmlns:xlink="http://www.w3.org/1999/xlink" width="600" height="400"><defs/><g transform="scale(1,1)"><g id="background-3543146d"><rect fill="white" stroke="none" x="0" y="0" width="600" height="400" class="dcg-svg-background"/></g><g id="background-images-3543146d"/><g id="graphpaper-3543146d"><g id="grid-3543146d"><g><path fill="none" stroke="rgb(0,0,0)" class="dcg-svg-minor-gridline" paint-order="fill stroke markers" d=" M -0.5 0 L -0.5 400" stroke-opacity="0.12" stroke-miterlimit="10" stroke-dasharray=""/><path fill="none" stroke="rgb(0,0,0)" class="dcg-svg-minor-gridline" paint-order="fill stroke markers" d=" M 29.5 0 L 29.5 400" stroke-opacity="0.12" stroke-miterlimit="10" stroke-dasharray=""/><path fill="none" stroke="rgb(0,0,0)" class="dcg-svg-minor-gridline" paint-order="fill stroke markers" d=" M 59.5 0 L 59.5 400" stroke-opacity="0.12" stroke-miterlimit="10" stroke-dasharray=""/><path fill="none" stroke="rgb(0,0,0)" class="dcg-svg-minor-gridline" paint-order="fill stroke markers" d=" M 89.5 0 L 89.5 400" stroke-opacity="0.12" stroke-miterlimit="10" stroke-dasharray=""/><path fill="none" stroke="rgb(0,0,0)" class="dcg-svg-minor-gridline" paint-order="fill stroke markers" d=" M 119.5 0 L 119.5 400" stroke-opacity="0.12" stroke-miterlimit="10" stroke-dasharray=""/><path fill="none" stroke="rgb(0,0,0)" class="dcg-svg-minor-gridline" paint-order="fill stroke markers" d=" M 149.5 0 L 149.5 400" stroke-opacity="0.12" stroke-miterlimit="10" stroke-dasharray=""/><path fill="none" stroke="rgb(0,0,0)" class="dcg-svg-minor-gridline" paint-order="fill stroke markers" d=" M 179.5 0 L 179.5 400" stroke-opacity="0.12" stroke-miterlimit="10" stroke-dasharray=""/><path fill="none" stroke="rgb(0,0,0)" class="dcg-svg-minor-gridline" paint-order="fill stroke markers" d=" M 209.5 0 L 209.5 400" stroke-opacity="0.12" stroke-miterlimit="10" stroke-dasharray=""/><path fill="none" stroke="rgb(0,0,0)" class="dcg-svg-minor-gridline" paint-order="fill stroke markers" d=" M 239.5 0 L 239.5 400" stroke-opacity="0.12" stroke-miterlimit="10" stroke-dasharray=""/><path fill="none" stroke="rgb(0,0,0)" class="dcg-svg-minor-gridline" paint-order="fill stroke markers" d=" M 269.5 0 L 269.5 400" stroke-opacity="0.12" stroke-miterlimit="10" stroke-dasharray=""/><path fill="none" stroke="rgb(0,0,0)" class="dcg-svg-minor-gridline" paint-order="fill stroke markers" d=" M 329.5 0 L 329.5 400" stroke-opacity="0.12" stroke-miterlimit="10" stroke-dasharray=""/><path fill="none" stroke="rgb(0,0,0)" class="dcg-svg-minor-gridline" paint-order="fill stroke markers" d=" M 359.5 0 L 359.5 400" stroke-opacity="0.12" stroke-miterlimit="10" stroke-dasharray=""/><path fill="none" stroke="rgb(0,0,0)" class="dcg-svg-minor-gridline" paint-order="fill stroke markers" d=" M 389.5 0 L 389.5 400" stroke-opacity="0.12" stroke-miterlimit="10" stroke-dasharray=""/><path fill="none" stroke="rgb(0,0,0)" class="dcg-svg-minor-gridline" paint-order="fill stroke markers" d=" M 419.5 0 L 419.5 400" stroke-opacity="0.12" stroke-miterlimit="10" stroke-dasharray=""/><path fill="none" stroke="rgb(0,0,0)" class="dcg-svg-minor-gridline" paint-order="fill stroke markers" d=" M 449.5 0 L 449.5 400" stroke-opacity="0.12" stroke-miterlimit="10" stroke-dasharray=""/><path fill="none" stroke="rgb(0,0,0)" class="dcg-svg-minor-gridline" paint-order="fill stroke markers" d=" M 479.5 0 L 479.5 400" stroke-opacity="0.12" stroke-miterlimit="10" stroke-dasharray=""/><path fill="none" stroke="rgb(0,0,0)" class="dcg-svg-minor-gridline" paint-order="fill stroke markers" d=" M 509.5 0 L 509.5 400" stroke-opacity="0.12" stroke-miterlimit="10" stroke-dasharray=""/><path fill="none" stroke="rgb(0,0,0)" class="dcg-svg-minor-gridline" paint-order="fill stroke markers" d=" M 539.5 0 L 539.5 400" stroke-opacity="0.12" stroke-miterlimit="10" stroke-dasharray=""/><path fill="none" stroke="rgb(0,0,0)" class="dcg-svg-minor-gridline" paint-order="fill stroke markers" d=" M 569.5 0 L 569.5 400" stroke-opacity="0.12" stroke-miterlimit="10" stroke-dasharray=""/><path fill="none" stroke="rgb(0,0,0)" class="dcg-svg-minor-gridline" paint-order="fill stroke markers" d=" M 0 370.5 L 600 370.5" stroke-opacity="0.12" stroke-miterlimit="10" stroke-dasharray=""/><path fill="none" stroke="rgb(0,0,0)" class="dcg-svg-minor-gridline" paint-order="fill stroke markers" d=" M 0 342.5 L 600 342.5" stroke-opacity="0.12" stroke-miterlimit="10" stroke-dasharray=""/><path fill="none" stroke="rgb(0,0,0)" class="dcg-svg-minor-gridline" paint-order="fill stroke markers" d=" M 0 313.5 L 600 313.5" stroke-opacity="0.12" stroke-miterlimit="10" stroke-dasharray=""/><path fill="none" stroke="rgb(0,0,0)" class="dcg-svg-minor-gridline" paint-order="fill stroke markers" d=" M 0 285.5 L 600 285.5" stroke-opacity="0.12" stroke-miterlimit="10" stroke-dasharray=""/><path fill="none" stroke="rgb(0,0,0)" class="dcg-svg-minor-gridline" paint-order="fill stroke markers" d=" M 0 256.5 L 600 256.5" stroke-opacity="0.12" stroke-miterlimit="10" stroke-dasharray=""/><path fill="none" stroke="rgb(0,0,0)" class="dcg-svg-minor-gridline" paint-order="fill stroke markers" d=" M 0 228.5 L 600 228.5" stroke-opacity="0.12" stroke-miterlimit="10" stroke-dasharray=""/><path fill="none" stroke="rgb(0,0,0)" class="dcg-svg-minor-gridline" paint-order="fill stroke markers" d=" M 0 170.5 L 600 170.5" stroke-opacity="0.12" stroke-miterlimit="10" stroke-dasharray=""/><path fill="none" stroke="rgb(0,0,0)" class="dcg-svg-minor-gridline" paint-order="fill stroke markers" d=" M 0 142.5 L 600 142.5" stroke-opacity="0.12" stroke-miterlimit="10" stroke-dasharray=""/><path fill="none" stroke="rgb(0,0,0)" class="dcg-svg-minor-gridline" paint-order="fill stroke markers" d=" M 0 113.5 L 600 113.5" stroke-opacity="0.12" stroke-miterlimit="10" stroke-dasharray=""/><path fill="none" stroke="rgb(0,0,0)" class="dcg-svg-minor-gridline" paint-order="fill stroke markers" d=" M 0 85.5 L 600 85.5" stroke-opacity="0.12" stroke-miterlimit="10" stroke-dasharray=""/><path fill="none" stroke="rgb(0,0,0)" class="dcg-svg-minor-gridline" paint-order="fill stroke markers" d=" M 0 56.5 L 600 56.5" stroke-opacity="0.12" stroke-miterlimit="10" stroke-dasharray=""/><path fill="none" stroke="rgb(0,0,0)" class="dcg-svg-minor-gridline" paint-order="fill stroke markers" d=" M 0 28.5 L 600 28.5" stroke-opacity="0.12" stroke-miterlimit="10" stroke-dasharray=""/><path fill="none" stroke="rgb(0,0,0)" class="dcg-svg-minor-gridline" paint-order="fill stroke markers" d=" M 0 -0.5 L 600 -0.5" stroke-opacity="0.12" stroke-miterlimit="10" stroke-dasharray=""/><path fill="none" stroke="rgb(0,0,0)" class="dcg-svg-major-gridline" paint-order="fill stroke markers" d=" M -0.5 0 L -0.5 400" stroke-opacity="0.31818181818181823" stroke-miterlimit="10" stroke-dasharray=""/><path fill="none" stroke="rgb(0,0,0)" class="dcg-svg-major-gridline" paint-order="fill stroke markers" d=" M 149.5 0 L 149.5 400" stroke-opacity="0.31818181818181823" stroke-miterlimit="10" stroke-dasharray=""/><path fill="none" stroke="rgb(0,0,0)" class="dcg-svg-major-gridline" paint-order="fill stroke markers" d=" M 449.5 0 L 449.5 400" stroke-opacity="0.31818181818181823" stroke-miterlimit="10" stroke-dasharray=""/><path fill="none" stroke="rgb(0,0,0)" class="dcg-svg-major-gridline" paint-order="fill stroke markers" d=" M 0 342.5 L 600 342.5" stroke-opacity="0.31818181818181823" stroke-miterlimit="10" stroke-dasharray=""/><path fill="none" stroke="rgb(0,0,0)" class="dcg-svg-major-gridline" paint-order="fill stroke markers" d=" M 0 56.5 L 600 56.5" stroke-opacity="0.31818181818181823" stroke-miterlimit="10" stroke-dasharray=""/></g></g><g id="axis-3543146d"><g id="yaxis-3543146d"><title>Y axis</title><path fill="none" stroke="rgb(0,0,0)" class="dcg-svg-axis-line" paint-order="fill stroke markers" d=" M 299.75 0 L 299.75 400" stroke-opacity="0.9" stroke-miterlimit="10" stroke-width="1.5" stroke-dasharray=""/></g><g id="xaxis-3543146d"><title>X axis</title><path fill="none" stroke="rgb(0,0,0)" class="dcg-svg-axis-line" paint-order="fill stroke markers" d=" M 0 199.75 L 600 199.75" stroke-opacity="0.9" stroke-miterlimit="10" stroke-width="1.5" stroke-dasharray=""/></g><g><g class="dcg-svg-axis-value"><text fill="none" stroke="#ffffff" font-family="Arial" font-size="14px" font-style="normal" font-weight="normal" text-decoration="normal" x="291.10693359375" y="215.808" text-anchor="middle" stroke-miterlimit="2" stroke-width="3" stroke-dasharray="">0</text><text fill="#000000" stroke="none" font-family="Arial" font-size="14px" font-style="normal" font-weight="normal" text-decoration="normal" x="291.10693359375" y="215.808" text-anchor="middle">0</text></g><g class="dcg-svg-axis-value dcg-svg-offcenter-axis-value"><text fill="none" stroke="#ffffff" font-family="Arial" font-size="14px" font-style="normal" font-weight="normal" text-decoration="normal" x="13.1171875" y="215.808" text-anchor="middle" stroke-miterlimit="2" stroke-width="3" stroke-dasharray="">-10</text><text fill="#000000" stroke="none" font-family="Arial" font-size="14px" font-style="normal" font-weight="normal" text-decoration="normal" x="13.1171875" y="215.808" text-anchor="middle">-10</text></g><g class="dcg-svg-axis-value"><text fill="none" stroke="#ffffff" font-family="Arial" font-size="14px" font-style="normal" font-weight="normal" text-decoration="normal" x="147.6689453125" y="215.808" text-anchor="middle" stroke-miterlimit="2" stroke-width="3" stroke-dasharray="">-5</text><text fill="#000000" stroke="none" font-family="Arial" font-size="14px" font-style="normal" font-weight="normal" text-decoration="normal" x="147.6689453125" y="215.808" text-anchor="middle">-5</text></g><g class="dcg-svg-axis-value"><text fill="none" stroke="#ffffff" font-family="Arial" font-size="14px" font-style="normal" font-weight="normal" text-decoration="normal" x="450" y="215.808" text-anchor="middle" stroke-miterlimit="2" stroke-width="3" stroke-dasharray="">5</text><text fill="#000000" stroke="none" font-family="Arial" font-size="14px" font-style="normal" font-weight="normal" text-decoration="normal" x="450" y="215.808" text-anchor="middle">5</text></g><g class="dcg-svg-axis-value dcg-svg-offcenter-axis-value"><text fill="none" stroke="#ffffff" font-family="Arial" font-size="14px" font-style="normal" font-weight="normal" text-decoration="normal" x="589.2138671875" y="215.808" text-anchor="middle" stroke-miterlimit="2" stroke-width="3" stroke-dasharray="">10</text><text fill="#000000" stroke="none" font-family="Arial" font-size="14px" font-style="normal" font-weight="normal" text-decoration="normal" x="589.2138671875" y="215.808" text-anchor="middle">10</text></g><g class="dcg-svg-axis-value"><text fill="none" stroke="#ffffff" font-family="Arial" font-size="14px" font-style="normal" font-weight="normal" text-decoration="normal" x="288.77587890625" y="346.6651428571428" text-anchor="middle" stroke-miterlimit="2" stroke-width="3" stroke-dasharray="">-5</text><text fill="#000000" stroke="none" font-family="Arial" font-size="14px" font-style="normal" font-weight="normal" text-decoration="normal" x="288.77587890625" y="346.6651428571428" text-anchor="middle">-5</text></g><g class="dcg-svg-axis-value"><text fill="none" stroke="#ffffff" font-family="Arial" font-size="14px" font-style="normal" font-weight="normal" text-decoration="normal" x="291.10693359375" y="60.95085714285717" text-anchor="middle" stroke-miterlimit="2" stroke-width="3" stroke-dasharray="">5</text><text fill="#000000" stroke="none" font-family="Arial" font-size="14px" font-style="normal" font-weight="normal" text-decoration="normal" x="291.10693359375" y="60.95085714285717" text-anchor="middle">5</text></g></g></g></g><g id="expressions-3543146d"><g id="sketch-3543146d"><title>Expression 1</title><path fill="#2d70b3" stroke="none" class="dcg-svg-region" paint-order="stroke fill markers" d=" M -0.5 202.35714285714283 L 29.499999999999947 202.35714285714283 L 29.499999999999947 399.5 L -0.5 399.5 L -0.5 202.35714285714283 M 29.5 202.67460317460316 L 59.49999999999994 202.67460317460316 L 59.49999999999994 399.5 L 29.5 399.5 L 29.5 202.67460317460316 M 59.5 203.07142857142856 L 89.49999999999997 203.07142857142856 L 89.49999999999997 399.5 L 59.5 399.5 L 59.5 203.07142857142856 M 89.5 203.58163265306123 L 119.49999999999997 203.58163265306123 L 119.49999999999997 399.5 L 89.5 399.5 L 89.5 203.58163265306123 M 119.5 204.26190476190476 L 149.49999999999997 204.26190476190476 L 149.49999999999997 399.5 L 119.5 399.5 L 119.5 204.26190476190476 M 149.5 205.2142857142857 L 179.49999999999997 205.2142857142857 L 179.49999999999997 399.5 L 149.5 399.5 L 149.5 205.2142857142857 M 179.5 206.64285714285714 L 209.5 206.64285714285714 L 209.5 399.5 L 179.5 399.5 L 179.5 206.64285714285714 M 209.5 209.0238095238095 L 239.5 209.0238095238095 L 239.5 399.5 L 209.5 399.5 L 209.5 209.0238095238095 M 239.5 213.78571428571428 L 269.5 213.78571428571428 L 269.5 399.5 L 239.5 399.5 L 239.5 213.78571428571428 M 269.5 228.07142857142856 L 299.5 228.07142857142856 L 299.5 399.5 L 269.5 399.5 L 269.5 228.07142857142856 M 329.5 170.92857142857144 L 359.5 170.92857142857144 L 359.5 399.5 L 329.5 399.5 L 329.5 170.92857142857144 M 359.5 185.2142857142857 L 389.5 185.2142857142857 L 389.5 399.5 L 359.5 399.5 L 359.5 185.2142857142857 M 389.5 189.97619047619048 L 419.5 189.97619047619048 L 419.5 399.5 L 389.5 399.5 L 389.5 189.97619047619048 M 419.5 192.35714285714283 L 449.5 192.35714285714283 L 449.5 399.5 L 419.5 399.5 L 419.5 192.35714285714283 M 449.5 193.78571428571428 L 479.5 193.78571428571428 L 479.5 399.5 L 449.5 399.5 L 449.5 193.78571428571428 M 479.5 194.7380952380952 L 509.5 194.7380952380952 L 509.5 399.5 L 479.5 399.5 L 479.5 194.7380952380952 M 509.5 195.41836734693877 L 539.5 195.41836734693877 L 539.5 399.5 L 509.5 399.5 L 509.5 195.41836734693877 M 539.5 195.92857142857142 L 569.5 195.92857142857142 L 569.5 399.5 L 539.5 399.5 L 539.5 195.92857142857142 M 569.5 196.32539682539684 L 599.5 196.32539682539684 L 599.5 399.5 L 569.5 399.5 L 569.5 196.32539682539684" fill-opacity="0.4"/><path fill="#2d70b3" stroke="none" paint-order="stroke fill markers" d="" fill-opacity="0.4"/><path fill="#2d70b3" stroke="none" paint-order="stroke fill markers" d="" fill-opacity="0.4"/><path fill="#2d70b3" stroke="none" paint-order="stroke fill markers" d="" fill-opacity="0.4"/><path fill="#2d70b3" stroke="none" paint-order="stroke fill markers" d="" fill-opacity="0.4"/><g><path fill="none" stroke="#2d70b3" class="dcg-svg-curve" paint-order="fill stroke markers" d=" M -0.5 202.35714285714283 L 10.5 202.35714285714283 M 17.5 202.35714285714283 L 28.5 202.35714285714283" stroke-linecap="round" stroke-linejoin="round" stroke-miterlimit="10" stroke-width="2.5" stroke-opacity="0.9" stroke-dasharray=""/></g><g><path fill="none" stroke="#2d70b3" class="dcg-svg-curve" paint-order="fill stroke markers" d=" M 29.5 202.67460317460316 L 40.5 202.67460317460316 M 47.5 202.67460317460316 L 58.5 202.67460317460316" stroke-linecap="round" stroke-linejoin="round" stroke-miterlimit="10" stroke-width="2.5" stroke-opacity="0.9" stroke-dasharray=""/></g><g><path fill="none" stroke="#2d70b3" class="dcg-svg-curve" paint-order="fill stroke markers" d=" M 59.5 203.07142857142856 L 70.5 203.07142857142856 M 77.5 203.07142857142856 L 88.5 203.07142857142856" stroke-linecap="round" stroke-linejoin="round" stroke-miterlimit="10" stroke-width="2.5" stroke-opacity="0.9" stroke-dasharray=""/></g><g><path fill="none" stroke="#2d70b3" class="dcg-svg-curve" paint-order="fill stroke markers" d=" M 89.5 203.58163265306123 L 100.5 203.58163265306123 M 107.5 203.58163265306123 L 118.5 203.58163265306123" stroke-linecap="round" stroke-linejoin="round" stroke-miterlimit="10" stroke-width="2.5" stroke-opacity="0.9" stroke-dasharray=""/></g><g><path fill="none" stroke="#2d70b3" class="dcg-svg-curve" paint-order="fill stroke markers" d=" M 119.5 204.26190476190476 L 130.5 204.26190476190476 M 137.5 204.26190476190476 L 148.5 204.26190476190476" stroke-linecap="round" stroke-linejoin="round" stroke-miterlimit="10" stroke-width="2.5" stroke-opacity="0.9" stroke-dasharray=""/></g><g><path fill="none" stroke="#2d70b3" class="dcg-svg-curve" paint-order="fill stroke markers" d=" M 149.5 205.2142857142857 L 160.5 205.2142857142857 M 167.5 205.2142857142857 L 178.5 205.2142857142857" stroke-linecap="round" stroke-linejoin="round" stroke-miterlimit="10" stroke-width="2.5" stroke-opacity="0.9" stroke-dasharray=""/></g><g><path fill="none" stroke="#2d70b3" class="dcg-svg-curve" paint-order="fill stroke markers" d=" M 179.5 206.64285714285714 L 190.5 206.64285714285714 M 197.5 206.64285714285714 L 208.5 206.64285714285714" stroke-linecap="round" stroke-linejoin="round" stroke-miterlimit="10" stroke-width="2.5" stroke-opacity="0.9" stroke-dasharray=""/></g><g><path fill="none" stroke="#2d70b3" class="dcg-svg-curve" paint-order="fill stroke markers" d=" M 209.5 209.0238095238095 L 220.5 209.0238095238095 M 227.5 209.0238095238095 L 238.5 209.0238095238095" stroke-linecap="round" stroke-linejoin="round" stroke-miterlimit="10" stroke-width="2.5" stroke-opacity="0.9" stroke-dasharray=""/></g><g><path fill="none" stroke="#2d70b3" class="dcg-svg-curve" paint-order="fill stroke markers" d=" M 239.5 213.78571428571428 L 250.5 213.78571428571428 M 257.5 213.78571428571428 L 268.5 213.78571428571428" stroke-linecap="round" stroke-linejoin="round" stroke-miterlimit="10" stroke-width="2.5" stroke-opacity="0.9" stroke-dasharray=""/></g><g><path fill="none" stroke="#2d70b3" class="dcg-svg-curve" paint-order="fill stroke markers" d=" M 269.5 228.07142857142856 L 280.5 228.07142857142856 M 287.5 228.07142857142856 L 298.5 228.07142857142856" stroke-linecap="round" stroke-linejoin="round" stroke-miterlimit="10" stroke-width="2.5" stroke-opacity="0.9" stroke-dasharray=""/></g><g><path fill="none" stroke="#2d70b3" class="dcg-svg-curve" paint-order="fill stroke markers" d=" M 329.5 170.92857142857144 L 340.5 170.92857142857144 M 347.5 170.92857142857144 L 358.5 170.92857142857144" stroke-linecap="round" stroke-linejoin="round" stroke-miterlimit="10" stroke-width="2.5" stroke-opacity="0.9" stroke-dasharray=""/></g><g><path fill="none" stroke="#2d70b3" class="dcg-svg-curve" paint-order="fill stroke markers" d=" M 359.5 185.2142857142857 L 370.5 185.2142857142857 M 377.5 185.2142857142857 L 388.5 185.2142857142857" stroke-linecap="round" stroke-linejoin="round" stroke-miterlimit="10" stroke-width="2.5" stroke-opacity="0.9" stroke-dasharray=""/></g><g><path fill="none" stroke="#2d70b3" class="dcg-svg-curve" paint-order="fill stroke markers" d=" M 389.5 189.97619047619048 L 400.5 189.97619047619048 M 407.5 189.97619047619048 L 418.5 189.97619047619048" stroke-linecap="round" stroke-linejoin="round" stroke-miterlimit="10" stroke-width="2.5" stroke-opacity="0.9" stroke-dasharray=""/></g><g><path fill="none" stroke="#2d70b3" class="dcg-svg-curve" paint-order="fill stroke markers" d=" M 419.5 192.35714285714283 L 430.5 192.35714285714283 M 437.5 192.35714285714283 L 448.5 192.35714285714283" stroke-linecap="round" stroke-linejoin="round" stroke-miterlimit="10" stroke-width="2.5" stroke-opacity="0.9" stroke-dasharray=""/></g><g><path fill="none" stroke="#2d70b3" class="dcg-svg-curve" paint-order="fill stroke markers" d=" M 449.5 193.78571428571428 L 460.5 193.78571428571428 M 467.5 193.78571428571428 L 478.5 193.78571428571428" stroke-linecap="round" stroke-linejoin="round" stroke-miterlimit="10" stroke-width="2.5" stroke-opacity="0.9" stroke-dasharray=""/></g><g><path fill="none" stroke="#2d70b3" class="dcg-svg-curve" paint-order="fill stroke markers" d=" M 479.5 194.7380952380952 L 490.5 194.7380952380952 M 497.5 194.7380952380952 L 508.5 194.7380952380952" stroke-linecap="round" stroke-linejoin="round" stroke-miterlimit="10" stroke-width="2.5" stroke-opacity="0.9" stroke-dasharray=""/></g><g><path fill="none" stroke="#2d70b3" class="dcg-svg-curve" paint-order="fill stroke markers" d=" M 509.5 195.41836734693877 L 520.5 195.41836734693877 M 527.5 195.41836734693877 L 538.5 195.41836734693877" stroke-linecap="round" stroke-linejoin="round" stroke-miterlimit="10" stroke-width="2.5" stroke-opacity="0.9" stroke-dasharray=""/></g><g><path fill="none" stroke="#2d70b3" class="dcg-svg-curve" paint-order="fill stroke markers" d=" M 539.5 195.92857142857142 L 550.5 195.92857142857142 M 557.5 195.92857142857142 L 568.5 195.92857142857142" stroke-linecap="round" stroke-linejoin="round" stroke-miterlimit="10" stroke-width="2.5" stroke-opacity="0.9" stroke-dasharray=""/></g><g><path fill="none" stroke="#2d70b3" class="dcg-svg-curve" paint-order="fill stroke markers" d=" M 569.5 196.32539682539684 L 580.5 196.32539682539684 M 587.5 196.32539682539684 L 598.5 196.32539682539684" stroke-linecap="round" stroke-linejoin="round" stroke-miterlimit="10" stroke-width="2.5" stroke-opacity="0.9" stroke-dasharray=""/></g></g><g id="sketch-3543146d"><title>Expression 2</title><path fill="#388c46" stroke="none" class="dcg-svg-region" paint-order="stroke fill markers" d=" M -0.5 202.35714285714283 L 57.068359375 203.0356063875701 L 99.255859375 203.7804890793186 L 131.189453125 204.59262712918064 L 156.091796875 205.4769444039107 L 175.720703125 206.42476754015215 L 191.541015625 207.43952316340375 L 204.578125 208.5299823633157 L 215.41796875 209.69412643106023 L 224.5 210.92857142857142 L 232.1171875 212.2204968944099 L 238.708984375 213.5998278829604 L 244.421875 215.0623100303951 L 249.40234375 216.60944026733497 L 253.796875 218.25457875457874 L 257.751953125 220.031328320802 L 261.267578125 221.91926655719757 L 264.490234375 223.98296473401075 L 267.56640625 226.34141546526865 L 270.349609375 228.90416367552044 L 272.986328125 231.82833464877663 L 275.330078125 234.96320346320346 L 277.52734375 238.50952380952378 L 279.431640625 242.21115745568298 L 281.189453125 246.31142857142856 L 282.80078125 250.828320802005 L 284.412109375 256.30998613037445 L 285.876953125 262.4185867895545 L 287.1953125 269.1598639455782 L 288.513671875 277.5190476190476 L 289.685546875 286.83475479744135 L 290.857421875 298.6767554479419 L 291.8828125 312.0274725274725 L 292.908203125 329.531746031746 L 293.787109375 349.53663003663 L 294.666015625 376.8160173160173 L 295.27168703079224 403 L 299.5 403 L 299.5 399.5 L -0.5 399.5 L -0.5 202.35714285714283 M 299.5 -3 L 303.7559862136841 -3 L 304.48046875 27.39915966386559 L 305.359375 53.21428571428572 L 306.384765625 75.00151975683889 L 307.41015625 91.14021164021159 L 308.58203125 105.12211981566821 L 309.75390625 115.90816326530609 L 311.072265625 125.4312839059674 L 312.537109375 133.75361155698232 L 314.001953125 140.3946608946609 L 315.61328125 146.3051948051948 L 317.37109375 151.53747072599532 L 319.12890625 155.8326226012793 L 321.033203125 159.6943634596696 L 323.083984375 163.15572315882875 L 325.427734375 166.4410815173527 L 327.91796875 169.33799705449186 L 330.84765625 172.1568758344459 L 333.923828125 174.60030395136778 L 337.146484375 176.73179544191217 L 340.662109375 178.67641077783426 L 344.470703125 180.4399720800372 L 348.71875 182.08503401360542 L 353.552734375 183.6424699961285 L 358.97265625 185.08761435608727 L 365.125 186.43877551020407 L 372.15625 187.70276497695852 L 380.359375 188.89958592132504 L 389.880859375 190.01632322296828 L 401.16015625 191.06854672704816 L 414.63671875 192.05543438749547 L 430.896484375 192.97666825927695 L 450.818359375 193.83549993085325 L 475.57421875 194.63192298550035 L 506.921875 195.36763518966907 L 547.205078125 196.03966376615696 L 599.5 196.64285714285714 L 599.5 399.5 L 299.5 399.5 L 299.5 -3" fill-opacity="0.4"/><path fill="#388c46" stroke="none" paint-order="stroke fill markers" d="" fill-opacity="0.4"/><path fill="#388c46" stroke="none" paint-order="stroke fill markers" d="" fill-opacity="0.4"/><path fill="#388c46" stroke="none" paint-order="stroke fill markers" d="" fill-opacity="0.4"/><path fill="#388c46" stroke="none" paint-order="stroke fill markers" d="" fill-opacity="0.4"/><g><path fill="none" stroke="#388c46" class="dcg-svg-curve" paint-order="fill stroke markers" d=" M -0.5 202.35714285714283 L 10.499236159359041 202.48677275588759 M 17.498750078951158 202.56926450963422 L 28.497986238310197 202.69889440837898 M 35.497500157902316 202.7813861621256 L 46.49673631726136 202.91101606087037 M 53.49625023685347 202.993507814617 L 57.068359375 203.0356063875701 M 57.068359375 203.0356063875701 L 64.49484465438145 203.1667319661215 M 71.49375378010558 203.29030805545773 L 82.49203954910062 203.4844990529861 M 89.49094867482475 203.60807514232235 L 99.255859375 203.7804890793186 M 99.255859375 203.7804890793186 L 100.48902794509468 203.81185113413488 M 107.48676527332734 203.98981822395538 L 118.48320964626438 204.2694807936733 M 125.48094697449704 204.4474478834938 L 131.189453125 204.59262712918064 M 131.189453125 204.59262712918064 L 136.4757690362964 204.78035164728107 M 143.47135949617916 205.02877491027658 L 154.4644302188521 205.41915432355526 M 161.4571530278431 205.73602194145002 L 172.44435136325848 206.26656198541096 M 179.43290527980523 206.66287775518333 L 190.41034637956352 207.36699912351236 M 197.3876067951694 207.92854791162446 L 204.578125 208.5299823633157 M 204.578125 208.5299823633157 L 208.3408609672851 208.93408106213724 M 215.30083900139022 209.68154729199279 L 215.41796875 209.69412643106023 M 215.41796875 209.69412643106023 L 224.5 210.92857142857142 M 224.5 210.92857142857142 L 226.19248472947555 211.21562805183981 M 233.08687113774153 212.42340282673618 L 238.708984375 213.5998278829604 M 238.708984375 213.5998278829604 L 243.80090598350034 214.9033439026757 M 250.47351495991194 217.01044435254965 L 253.796875 218.25457875457874 M 253.796875 218.25457875457874 L 257.751953125 220.031328320802 M 257.751953125 220.031328320802 L 260.49676992726125 221.50533211611292 M 266.31415173301855 225.38133238106323 L 267.56640625 226.34141546526865 M 267.56640625 226.34141546526865 L 270.349609375 228.90416367552044 M 270.349609375 228.90416367552044 L 272.986328125 231.82833464877663 M 272.986328125 231.82833464877663 L 274.0050444063021 233.1909125265378 M 277.8088158005849 239.0566582540408 L 279.431640625 242.21115745568298 M 279.431640625 242.21115745568298 L 281.189453125 246.31142857142856 M 281.189453125 246.31142857142856 L 282.1945363537448 249.12888862600315 M 284.2660493219145 255.8130964426465 L 284.412109375 256.30998613037445 M 284.412109375 256.30998613037445 L 285.876953125 262.4185867895545 M 285.876953125 262.4185867895545 L 286.68311564266537 266.54080495512886 M 287.87008247201925 273.43830747198814 L 288.513671875 277.5190476190476 M 288.513671875 277.5190476190476 L 289.3709825925609 284.3341564025748 M 290.1266990075894 291.29267380850797 L 290.857421875 298.6767554479419 M 290.857421875 298.6767554479419 L 291.1315619241579 302.2460939490381 M 291.66761232813406 309.2255387668153 L 291.8828125 312.0274725274725 M 291.8828125 312.0274725274725 L 292.36174623376075 320.2032709615285 M 292.771100589224 327.19129135443404 L 292.908203125 329.531746031746 M 292.908203125 329.531746031746 L 293.2881138825141 338.17893751124404 M 293.59535958097547 345.1721914091643 L 293.787109375 349.53663003663 M 293.787109375 349.53663003663 L 294.0006520493864 356.1645420753288 M 294.2260659477356 363.1609117464105 L 294.5802877879986 374.1552069438245 M 294.76632825849003 381.15266625332805 L 295.02070529005374 392.1497246020781 M 295.182581582867 399.14785264219176 L 295.3295154571533 405.5" stroke-linecap="round" stroke-linejoin="round" stroke-miterlimit="10" stroke-width="2.5" stroke-opacity="0.9" stroke-dasharray=""/></g><g><path fill="none" stroke="#388c46" class="dcg-svg-curve" paint-order="fill stroke markers" d=" M 303.6964054107666 -5.5 L 303.9584865258144 5.496877442671408 M 304.1252654172085 12.494890360735033 L 304.38734653225623 23.491767803406443 M 304.58566149874196 30.48886811498093 L 304.9599525374076 41.482498371560176 M 305.1981377438312 48.47844489847424 L 305.359375 53.21428571428572 M 305.359375 53.21428571428572 L 305.65373534174853 59.468777906976214 M 305.98281787640536 66.46103824862425 L 306.384765625 75.00151975683889 M 306.384765625 75.00151975683889 L 306.5401201170866 77.44665453704371 M 306.9839782961927 84.43256821507042 L 307.41015625 91.14021164021159 M 307.41015625 91.14021164021159 L 307.7675277748332 95.40409289439017 M 308.3521735500068 102.37963511830164 L 308.58203125 105.12211981566821 M 308.58203125 105.12211981566821 L 309.4729010531891 113.32176602807824 M 310.3570561349676 120.26499435997428 L 311.072265625 125.4312839059674 M 311.072265625 125.4312839059674 L 312.074992083222 131.12814961581907 M 313.4706764467096 137.98605271888493 L 314.001953125 140.3946608946609 M 314.001953125 140.3946608946609 L 315.61328125 146.3051948051948 M 315.61328125 146.3051948051948 L 316.3799060880699 148.58711775233544 M 318.8435725077385 155.13541982330588 L 319.12890625 155.8326226012793 M 319.12890625 155.8326226012793 L 321.033203125 159.6943634596696 M 321.033203125 159.6943634596696 L 323.083984375 163.15572315882875 M 323.083984375 163.15572315882875 L 324.19767728572964 164.71684542574906 M 328.683137964925 170.07422549627142 L 330.84765625 172.1568758344459 M 330.84765625 172.1568758344459 L 333.923828125 174.60030395136778 M 333.923828125 174.60030395136778 L 337.146484375 176.73179544191217 M 337.146484375 176.73179544191217 L 337.3249570163648 176.83051491154856 M 343.553523987605 180.01527421513686 L 344.470703125 180.4399720800372 M 344.470703125 180.4399720800372 L 348.71875 182.08503401360542 M 348.71875 182.08503401360542 L 353.552734375 183.6424699961285 M 353.552734375 183.6424699961285 L 353.8958778908547 183.73396428848744 M 360.6778720195162 185.46210924791734 L 365.125 186.43877551020407 M 365.125 186.43877551020407 L 371.47017733236567 187.57943148357998 M 378.3931491614359 188.61271716521708 L 380.359375 188.89958592132504 M 380.359375 188.89958592132504 L 389.31097365931925 189.94948357787624 M 396.2792860191096 190.6132199071034 L 401.16015625 191.06854672704816 M 401.16015625 191.06854672704816 L 407.2418087549755 191.5139056835542 M 414.22311473152206 192.02514619626368 L 414.63671875 192.05543438749547 M 414.63671875 192.05543438749547 L 425.2050583768142 192.65420762059438 M 432.1947250157488 193.03263538986093 L 443.18451765312096 193.50640515204603 M 450.17802205872147 193.80789500070927 L 450.818359375 193.83549993085325 M 450.818359375 193.83549993085325 L 461.17207075842896 194.1685901428316 M 468.16845114056827 194.39367134688155 L 475.57421875 194.63192298550035 M 475.57421875 194.63192298550035 L 479.16363130878415 194.71616451871844 M 486.1617042522901 194.880405431313 L 497.1586760206566 195.1384982939616 M 504.1567489641626 195.30273920655614 L 506.921875 195.36763518966907 M 506.921875 195.36763518966907 L 515.1548419572046 195.50498248668896 M 522.1538680784448 195.62174444195014 L 533.1523376975366 195.80522751450346 M 540.1513638187769 195.92198946976464 L 547.205078125 196.03966376615696 M 547.205078125 196.03966376615696 L 551.1501199078206 196.08516766957402 M 558.1496543015686 196.16590347784975 L 569.1489226346013 196.2927740337116 M 576.1484570283493 196.37350984198733 L 587.147725361382 196.50038039784917 M 594.14725975513 196.5811162061249 L 599.5 196.64285714285714" stroke-linecap="round" stroke-linejoin="round" stroke-miterlimit="10" stroke-width="2.5" stroke-opacity="0.9" stroke-dasharray=""/></g></g></g><g id="labels-3543146d"/></g></svg>