<svg version="1.1" xmlns="http://www.w3.org/2000/svg" xmlns:xlink="http://www.w3.org/1999/xlink" width="600" height="400"><defs/><g transform="scale(1,1)"><g id="background-266ec03a"><rect fill="white" stroke="none" x="0" y="0" width="600" height="400" class="dcg-svg-background"/></g><g id="background-images-266ec03a"/><g id="graphpaper-266ec03a"><g id="grid-266ec03a"><g><path fill="none" stroke="rgb(0,0,0)" class="dcg-svg-minor-gridline" paint-order="fill stroke markers" d=" M -0.5 0 L -0.5 400" stroke-opacity="0.12" stroke-miterlimit="10" stroke-dasharray=""/><path fill="none" stroke="rgb(0,0,0)" class="dcg-svg-minor-gridline" paint-order="fill stroke markers" d=" M 32.5 0 L 32.5 400" stroke-opacity="0.12" stroke-miterlimit="10" stroke-dasharray=""/><path fill="none" stroke="rgb(0,0,0)" class="dcg-svg-minor-gridline" paint-order="fill stroke markers" d=" M 66.5 0 L 66.5 400" stroke-opacity="0.12" stroke-miterlimit="10" stroke-dasharray=""/><path fill="none" stroke="rgb(0,0,0)" class="dcg-svg-minor-gridline" paint-order="fill stroke markers" d=" M 99.5 0 L 99.5 400" stroke-opacity="0.12" stroke-miterlimit="10" stroke-dasharray=""/><path fill="none" stroke="rgb(0,0,0)" class="dcg-svg-minor-gridline" paint-order="fill stroke markers" d=" M 132.5 0 L 132.5 400" stroke-opacity="0.12" stroke-miterlimit="10" stroke-dasharray=""/><path fill="none" stroke="rgb(0,0,0)" class="dcg-svg-minor-gridline" paint-order="fill stroke markers" d=" M 166.5 0 L 166.5 400" stroke-opacity="0.12" stroke-miterlimit="10" stroke-dasharray=""/><path fill="none" stroke="rgb(0,0,0)" class="dcg-svg-minor-gridline" paint-order="fill stroke markers" d=" M 199.5 0 L 199.5 400" stroke-opacity="0.12" stroke-miterlimit="10" stroke-dasharray=""/><path fill="none" stroke="rgb(0,0,0)" class="dcg-svg-minor-gridline" paint-order="fill stroke markers" d=" M 232.5 0 L 232.5 400" stroke-opacity="0.12" stroke-miterlimit="10" stroke-dasharray=""/><path fill="none" stroke="rgb(0,0,0)" class="dcg-svg-minor-gridline" paint-order="fill stroke markers" d=" M 266.5 0 L 266.5 400" stroke-opacity="0.12" stroke-miterlimit="10" stroke-dasharray=""/><path fill="none" stroke="rgb(0,0,0)" class="dcg-svg-minor-gridline" paint-order="fill stroke markers" d=" M 299.5 0 L 299.5 400" stroke-opacity="0.12" stroke-miterlimit="10" stroke-dasharray=""/><path fill="none" stroke="rgb(0,0,0)" class="dcg-svg-minor-gridline" paint-order="fill stroke markers" d=" M 332.5 0 L 332.5 400" stroke-opacity="0.12" stroke-miterlimit="10" stroke-dasharray=""/><path fill="none" stroke="rgb(0,0,0)" class="dcg-svg-minor-gridline" paint-order="fill stroke markers" d=" M 366.5 0 L 366.5 400" stroke-opacity="0.12" stroke-miterlimit="10" stroke-dasharray=""/><path fill="none" stroke="rgb(0,0,0)" class="dcg-svg-minor-gridline" paint-order="fill stroke markers" d=" M 399.5 0 L 399.5 400" stroke-opacity="0.12" stroke-miterlimit="10" stroke-dasharray=""/><path fill="none" stroke="rgb(0,0,0)" class="dcg-svg-minor-gridline" paint-order="fill stroke markers" d=" M 432.5 0 L 432.5 400" stroke-opacity="0.12" stroke-miterlimit="10" stroke-dasharray=""/><path fill="none" stroke="rgb(0,0,0)" class="dcg-svg-minor-gridline" paint-order="fill stroke markers" d=" M 466.5 0 L 466.5 400" stroke-opacity="0.12" stroke-miterlimit="10" stroke-dasharray=""/><path fill="none" stroke="rgb(0,0,0)" class="dcg-svg-minor-gridline" paint-order="fill stroke markers" d=" M 499.5 0 L 499.5 400" stroke-opacity="0.12" stroke-miterlimit="10" stroke-dasharray=""/><path fill="none" stroke="rgb(0,0,0)" class="dcg-svg-minor-gridline" paint-order="fill stroke markers" d=" M 532.5 0 L 532.5 400" stroke-opacity="0.12" stroke-miterlimit="10" stroke-dasharray=""/><path fill="none" stroke="rgb(0,0,0)" class="dcg-svg-minor-gridline" paint-order="fill stroke markers" d=" M 566.5 0 L 566.5 400" stroke-opacity="0.12" stroke-miterlimit="10" stroke-dasharray=""/><path fill="none" stroke="rgb(0,0,0)" class="dcg-svg-minor-gridline" paint-order="fill stroke markers" d=" M 0 349.5 L 600 349.5" stroke-opacity="0.12" stroke-miterlimit="10" stroke-dasharray=""/><path fill="none" stroke="rgb(0,0,0)" class="dcg-svg-minor-gridline" paint-order="fill stroke markers" d=" M 0 299.5 L 600 299.5" stroke-opacity="0.12" stroke-miterlimit="10" stroke-dasharray=""/><path fill="none" stroke="rgb(0,0,0)" class="dcg-svg-minor-gridline" paint-order="fill stroke markers" d=" M 0 249.5 L 600 249.5" stroke-opacity="0.12" stroke-miterlimit="10" stroke-dasharray=""/><path fill="none" stroke="rgb(0,0,0)" class="dcg-svg-minor-gridline" paint-order="fill stroke markers" d=" M 0 149.5 L 600 149.5" stroke-opacity="0.12" stroke-miterlimit="10" stroke-dasharray=""/><path fill="none" stroke="rgb(0,0,0)" class="dcg-svg-minor-gridline" paint-order="fill stroke markers" d=" M 0 99.5 L 600 99.5" stroke-opacity="0.12" stroke-miterlimit="10" stroke-dasharray=""/><path fill="none" stroke="rgb(0,0,0)" class="dcg-svg-minor-gridline" paint-order="fill stroke markers" d=" M 0 49.5 L 600 49.5" stroke-opacity="0.12" stroke-miterlimit="10" stroke-dasharray=""/><path fill="none" stroke="rgb(0,0,0)" class="dcg-svg-minor-gridline" paint-order="fill stroke markers" d=" M 0 -0.5 L 600 -0.5" stroke-opacity="0.12" stroke-miterlimit="10" stroke-dasharray=""/><path fill="none" stroke="rgb(0,0,0)" class="dcg-svg-major-gridline" paint-order="fill stroke markers" d=" M 66.5 0 L 66.5 400" stroke-opacity="0.31818181818181823" stroke-miterlimit="10" stroke-dasharray=""/><path fill="none" stroke="rgb(0,0,0)" class="dcg-svg-major-gridline" paint-order="fill stroke markers" d=" M 199.5 0 L 199.5 400" stroke-opacity="0.31818181818181823" stroke-miterlimit="10" stroke-dasharray=""/><path fill="none" stroke="rgb(0,0,0)" class="dcg-svg-major-gridline" paint-order="fill stroke markers" d=" M 332.5 0 L 332.5 400" stroke-opacity="0.31818181818181823" stroke-miterlimit="10" stroke-dasharray=""/><path fill="none" stroke="rgb(0,0,0)" class="dcg-svg-major-gridline" paint-order="fill stroke markers" d=" M 466.5 0 L 466.5 400" stroke-opacity="0.31818181818181823" stroke-miterlimit="10" stroke-dasharray=""/><path fill="none" stroke="rgb(0,0,0)" class="dcg-svg-major-gridline" paint-order="fill stroke markers" d=" M 0 -0.5 L 600 -0.5" stroke-opacity="0.31818181818181823" stroke-miterlimit="10" stroke-dasharray=""/></g></g><g id="axis-266ec03a"><g id="yaxis-266ec03a"><title>Y axis</title><path fill="none" stroke="rgb(0,0,0)" class="dcg-svg-axis-line" paint-order="fill stroke markers" d=" M -67.25 0 L -67.25 400" stroke-opacity="0.9" stroke-miterlimit="10" stroke-width="1.5" stroke-dasharray=""/></g><g id="xaxis-266ec03a"><title>X axis</title><path fill="none" stroke="rgb(0,0,0)" class="dcg-svg-axis-line" paint-order="fill stroke markers" d=" M 0 199.75 L 600 199.75" stroke-opacity="0.9" stroke-miterlimit="10" stroke-width="1.5" stroke-dasharray=""/></g><g><g class="dcg-svg-axis-value"><text fill="none" stroke="#ffffff" font-family="Arial" font-size="14px" font-style="normal" font-weight="normal" text-decoration="normal" x="-75.55973307291667" y="215.808" text-anchor="middle" stroke-miterlimit="2" stroke-width="3" stroke-dasharray="">0</text><text fill="#000000" stroke="none" font-family="Arial" font-size="14px" font-style="normal" font-weight="normal" text-decoration="normal" x="-75.55973307291667" y="215.808" text-anchor="middle">0</text></g><g class="dcg-svg-axis-value"><text fill="none" stroke="#ffffff" font-family="Arial" font-size="14px" font-style="normal" font-weight="normal" text-decoration="normal" x="66.66666666666667" y="215.808" text-anchor="middle" stroke-miterlimit="2" stroke-width="3" stroke-dasharray="">2</text><text fill="#000000" stroke="none" font-family="Arial" font-size="14px" font-style="normal" font-weight="normal" text-decoration="normal" x="66.66666666666667" y="215.808" text-anchor="middle">2</text></g><g class="dcg-svg-axis-value"><text fill="none" stroke="#ffffff" font-family="Arial" font-size="14px" font-style="normal" font-weight="normal" text-decoration="normal" x="200" y="215.808" text-anchor="middle" stroke-miterlimit="2" stroke-width="3" stroke-dasharray="">4</text><text fill="#000000" stroke="none" font-family="Arial" font-size="14px" font-style="normal" font-weight="normal" text-decoration="normal" x="200" y="215.808" text-anchor="middle">4</text></g><g class="dcg-svg-axis-value"><text fill="none" stroke="#ffffff" font-family="Arial" font-size="14px" font-style="normal" font-weight="normal" text-decoration="normal" x="333.3333333333333" y="215.808" text-anchor="middle" stroke-miterlimit="2" stroke-width="3" stroke-dasharray="">6</text><text fill="#000000" stroke="none" font-family="Arial" font-size="14px" font-style="normal" font-weight="normal" text-decoration="normal" x="333.3333333333333" y="215.808" text-anchor="middle">6</text></g><g class="dcg-svg-axis-value"><text fill="none" stroke="#ffffff" font-family="Arial" font-size="14px" font-style="normal" font-weight="normal" text-decoration="normal" x="466.6666666666667" y="215.808" text-anchor="middle" stroke-miterlimit="2" stroke-width="3" stroke-dasharray="">8</text><text fill="#000000" stroke="none" font-family="Arial" font-size="14px" font-style="normal" font-weight="normal" text-decoration="normal" x="466.6666666666667" y="215.808" text-anchor="middle">8</text></g><g class="dcg-svg-axis-value dcg-svg-offcenter-axis-value"><text fill="none" stroke="#ffffff" font-family="Arial" font-size="14px" font-style="normal" font-weight="normal" text-decoration="normal" x="589.2138671875" y="215.808" text-anchor="middle" stroke-miterlimit="2" stroke-width="3" stroke-dasharray="">10</text><text fill="#000000" stroke="none" font-family="Arial" font-size="14px" font-style="normal" font-weight="normal" text-decoration="normal" x="589.2138671875" y="215.808" text-anchor="middle">10</text></g><g class="dcg-svg-axis-value dcg-svg-offcenter-axis-value"><text fill="none" stroke="#ffffff" font-family="Arial" font-size="14px" font-style="normal" font-weight="normal" text-decoration="normal" x="9.22412109375" y="393.808" text-anchor="middle" stroke-miterlimit="2" stroke-width="3" stroke-dasharray="">-2</text><text fill="rgb(150,150,150)" stroke="none" font-family="Arial" font-size="14px" font-style="normal" font-weight="normal" text-decoration="normal" x="9.22412109375" y="393.808" text-anchor="middle" fill-opacity="1">-2</text></g><g class="dcg-svg-axis-value dcg-svg-offcenter-axis-value"><text fill="none" stroke="#ffffff" font-family="Arial" font-size="14px" font-style="normal" font-weight="normal" text-decoration="normal" x="6.89306640625" y="13.808" text-anchor="middle" stroke-miterlimit="2" stroke-width="3" stroke-dasharray="">2</text><text fill="rgb(150,150,150)" stroke="none" font-family="Arial" font-size="14px" font-style="normal" font-weight="normal" text-decoration="normal" x="6.89306640625" y="13.808" text-anchor="middle" fill-opacity="1">2</text></g></g></g></g><g id="expressions-266ec03a"><g id="sketch-266ec03a"><title>Expression 1</title><path fill="#2d70b3" stroke="none" paint-order="stroke fill markers" d="" fill-opacity="0.4"/><path fill="#2d70b3" stroke="none" class="dcg-svg-region" paint-order="stroke fill markers" d=" M -3 -3 L -0.4314662388392857 -3 L -0.488555908203125 99.3046875 L 0.232421875 99.5 L 66.150390625 99.5 L 66.2326271533966 149.40234375 L 67.517578125 149.5 L 132.7275390625 149.5 L 132.81379890441895 150.28125 L 132.9330901503563 166.1015625 L 133.88313802083334 166.16666666666666 L 199.3046875 166.16666666666669 L 199.47639717362964 166.8659956342469 L 199.54705190658572 174.01171875 L 199.89062500000003 174.5 L 265.8818359375 174.5 L 266.13987270964145 175.15805361023905 L 266.20788526535034 179.28515625 L 265.4698486328125 179.449951171875 L 258.630859375 178.95556640625 L 257.806884765625 178.95556640625 L 257.3125 178.845703125 L 255.994140625 178.845703125 L 254.01660156250003 178.73583984375 L 253.02783203125003 178.6259765625 L 250.55590820312503 178.51611328125 L 250.06152343750003 178.40625 L 247.42480468750003 178.29638671875 L 245.44726562500003 178.1590576171875 L 231.76928710937503 177.19775390625 L 231.52209472656253 177.142822265625 L 230.20373535156253 177.032958984375 L 230.20373535156253 177.07415771484375 L 228.72058105468753 176.923095703125 L 228.14379882812503 176.923095703125 L 227.64941406250003 176.8681640625 L 225.58947753906253 176.703369140625 L 223.19995117187503 176.53857421875 L 223.03515625000003 176.4287109375 L 222.78796386718753 176.483642578125 L 220.39843750000003 176.208984375 L 219.08007812500003 176.208984375 L 204.49572753906253 174.945556640625 L 198.7279052734375 174.396240234375 L 198.5631103515625 174.396240234375 L 195.4320068359375 174.066650390625 L 195.2672119140625 174.066650390625 L 192.38330078125 173.7919921875 L 192.0537109375 173.68212890625 L 191.8065185546875 173.737060546875 L 188.593017578125 173.407470703125 L 187.604248046875 173.3250732421875 L 187.274658203125 173.24267578125 L 185.7091064453125 173.1328125 L 182.166015625 172.693359375 L 181.4244384765625 172.638427734375 L 181.4244384765625 172.67962646484375 L 178.8701171875 172.36376953125 L 178.2933349609375 172.308837890625 L 178.2933349609375 172.308837890625 L 178.1285400390625 172.308837890625 L 177.5517578125 172.25390625 L 177.5517578125 172.25390625 L 176.2333984375 172.0341796875 L 174.750244140625 171.92431640625 L 173.5142822265625 171.759521484375 L 173.5142822265625 171.80072021484375 L 170.9599609375 171.48486328125 L 170.3831787109375 171.429931640625 L 170.3831787109375 171.429931640625 L 170.30078125 171.375 L 168.982421875 171.26513671875 L 167.6640625 171.04541015625 L 166.2633056640625 170.935546875 L 165.02734375 170.7158203125 L 164.69775390625 170.7158203125 L 164.3681640625 170.60595703125 L 162.72021484375 170.49609375 L 161.40185546875 170.2763671875 L 160.248291015625 170.16650390625 L 159.0123291015625 170.001708984375 L 158.435546875 169.94677734375 L 158.435546875 169.94677734375 L 147.394287109375 168.40869140625 L 147.1470947265625 168.353759765625 L 146.5703125 168.298828125 L 146.5703125 168.298828125 L 144.5927734375 167.96923828125 L 144.0159912109375 167.914306640625 L 144.0159912109375 167.914306640625 L 143.93359375 167.859375 L 143.60400390625 167.859375 L 141.296875 167.419921875 L 139.978515625 167.31005859375 L 139.3193359375 167.2001953125 L 135.4466552734375 166.595947265625 L 133.07772827148438 166.19769287109375 L 125.47656250000001 164.89306640625 L 124.73498535156251 164.728271484375 L 124.73498535156251 164.7557373046875 L 115.50646972656251 162.970458984375 L 115.50646972656251 162.9979248046875 L 109.82104492187501 161.81689453125 L 109.57385253906251 161.761962890625 L 107.84350585937501 161.37744140625 L 107.59631347656251 161.322509765625 L 105.86596679687501 160.93798828125 L 105.61877441406251 160.883056640625 L 103.88842773437501 160.49853515625 L 103.64123535156251 160.443603515625 L 101.66369628906251 160.004150390625 L 101.41650390625001 159.94921875 L 101.41650390625001 159.94921875 L 100.42773437500001 159.7020263671875 L 91.364013671875 157.42236328125 L 91.1168212890625 157.367431640625 L 90.86962890625 157.3125 L 90.86962890625 157.3125 L 89.1392822265625 156.818115234375 L 89.1392822265625 156.8455810546875 L 86.5025634765625 156.049072265625 L 85.5137939453125 155.829345703125 L 85.2666015625 155.66455078125 L 83.7010498046875 155.280029296875 L 82.6298828125 154.8955078125 L 81.970703125 154.78564453125 L 81.64111328125 154.67578125 L 76.532470703125 153.02783203125 L 75.37890625 152.6982421875 L 73.3189697265625 152.0390625 L 72.7421875 151.8193359375 L 72.0830078125 151.599609375 L 72.0830078125 151.599609375 L 71.423828125 151.3798828125 L 71.423828125 151.3798828125 L 71.259033203125 151.27001953125 L 70.7646484375 151.16015625 L 70.7646484375 151.16015625 L 66.150390625 149.40234375 L 65.985595703125 149.40234375 L 60.79455566406251 147.3973388671875 L 59.31140136718751 146.765625 L 53.29638671875001 144.12890625 L 52.96679687500001 143.9091796875 L 52.30761718750001 143.689453125 L 52.30761718750001 143.689453125 L 51.64843750000001 143.35986328125 L 51.64843750000001 143.35986328125 L 50.82446289062501 142.92041015625 L 47.7757568359375 141.437255859375 L 47.0341796875 141.052734375 L 46.375 140.72314453125 L 46.375 140.72314453125 L 45.551025390625 140.28369140625 L 44.06787109375 139.5146484375 L 43.3262939453125 139.130126953125 L 37.146484375 135.5595703125 L 27.176391601562504 128.802978515625 L 25.693237304687504 127.704345703125 L 17.37109375 120.6181640625 L 17.1239013671875 120.3984375 L 15.311157226562502 118.640625 L 14.404785156250002 117.76171875 L 13.580810546875002 116.8828125 L 13.333618164062502 116.6356201171875 L 7.071411132812501 109.686767578125 L 1.715576171875 102.71044921875 L 1.2211914062500002 101.94140625 L -0.75634765625 99.0849609375 L -1.0859375 98.53564453125 L -1.0859375 98.53564453125 L -1.250732421875 98.31591796875 L -1.9923095703125 97.107421875 L -2.8162841796875 95.7890625 L -3 95.49085711050725 M 269.50000000000006 179.49999999999997 L 332.458984375 179.49999999999997 L 332.7941263914108 179.724609375 L 332.87016701698303 182.80078125 L 333.728515625 182.83333333333334 L 333.6949462890625 182.855712890625 L 333.6949462890625 182.855712890625 L 302.7135009765625 181.427490234375 L 302.7135009765625 181.46868896484375 L 289.94189453125 180.8232421875 L 289.6123046875 180.71337890625 L 289.3651123046875 180.768310546875 L 287.634765625 180.603515625 L 286.31640625 180.603515625 L 283.6796875 180.49365234375 L 282.03173828125 180.3837890625 L 279.724609375 180.27392578125 L 279.6422119140625 180.218994140625 L 278.40625 180.1640625 L 275.76953125 180.05419921875 L 275.5223388671875 179.999267578125 L 275.5223388671875 179.999267578125 L 275.38844299316406 180.01986694335938 L 269.177734375 179.61474609375 L 266.54101562500006 179.49999999999997 L 269.50000000000006 179.49999999999997 M 599.2395833333334 188.38888888888889 L 599.4360114336014 188.513671875 L 599.5158382088291 189.33319119411397 L 600.0859374999999 189.5 L 603 189.5 L 603 189.54466540404042 L 600.909912109375 189.50244140625 L 592.8349609375 189.392578125 L 590.1158447265625 189.337646484375 L 588.9622802734375 189.337646484375 L 588.715087890625 189.28271484375 L 587.9735107421875 189.32391357421875 L 587.396728515625 189.28271484375 L 585.1719970703125 189.227783203125 L 584.6776123046875 189.227783203125 L 584.0184326171875 189.2552490234375 L 582.947265625 189.1728515625 L 582.5352783203125 189.227783203125 L 582.0408935546875 189.227783203125 L 579.98095703125 189.1728515625 L 571.7412109375 189.06298828125 L 571.1644287109375 189.008056640625 L 571.1644287109375 189.008056640625 L 570.9996337890625 189.008056640625 L 569.1044921875 188.953125 L 568.5277099609375 189.008056640625 L 568.5277099609375 189.008056640625 L 568.3629150390625 189.008056640625 L 566.4677734375 188.953125 L 559.052001953125 188.84326171875 L 556.580078125 188.7333984375 L 556.3328857421875 188.788330078125 L 556.3328857421875 188.788330078125 L 553.61376953125 188.7333984375 L 546.033203125 188.62353515625 L 545.4564208984375 188.568603515625 L 545.4564208984375 188.568603515625 L 543.396484375 188.513671875 L 542.8197021484375 188.568603515625 L 542.8197021484375 188.568603515625 L 540.759765625 188.513671875 L 533.5616861979167 188.38888888888889 L 599.2395833333334 188.38888888888889 M 532.8301724548805 188.06126080325367 L 532.8426375119931 188.29487489423425 L 532.4376220703125 188.348876953125 L 529.5537109375 188.2939453125 L 522.137939453125 188.18408203125 L 521.6435546875 188.07421875 L 521.0667724609375 188.129150390625 L 521.0667724609375 188.129150390625 L 520.9019775390625 188.129150390625 L 519.0068359375 188.07421875 L 511.09667968750006 187.96435546875 L 509.77832031250006 187.8544921875 L 508.87194824218756 187.909423828125 L 507.80078125000006 187.8544921875 L 500.38500976562506 187.74462890625 L 499.89062500000006 187.634765625 L 497.99548339843756 187.689697265625 L 497.83068847656256 187.689697265625 L 495.93554687500006 187.634765625 L 489.67333984375006 187.52490234375 L 487.36621093750006 187.4150390625 L 486.78942871093756 187.4425048828125 L 486.37744140625006 187.4150390625 L 479.95043945312506 187.30517578125 L 479.45605468750006 187.1953125 L 478.87927246093756 187.250244140625 L 478.87927246093756 187.250244140625 L 478.71447753906256 187.250244140625 L 476.81933593750006 187.1953125 L 470.57772827148443 187.09918212890625 L 469.82470703125006 187 L 532.1904296875 187 L 532.7814931085604 187.24072334429312 L 532.8301724548805 188.06126080325367 M 469.32116699218756 187.030517578125 L 468.72607421875006 187 L 469.45849609375006 187 L 469.32116699218756 187.030517578125 M 465.94810267857144 185.21428571428572 L 466.11796569824224 185.4375 L 466.1883736848832 186.9755859375 L 460.83422851562506 186.86572265625 L 460.33984375000006 186.755859375 L 458.44470214843756 186.810791015625 L 458.27990722656256 186.810791015625 L 456.38476562500006 186.755859375 L 455.64318847656256 186.700927734375 L 455.64318847656256 186.74212646484375 L 449.79296875000006 186.5361328125 L 449.38098144531256 186.591064453125 L 448.80419921875006 186.5361328125 L 447.81542968750006 186.5361328125 L 443.03637695312506 186.42626953125 L 442.54199218750006 186.31640625 L 441.96520996093756 186.371337890625 L 441.96520996093756 186.371337890625 L 441.80041503906256 186.371337890625 L 439.90527343750006 186.31640625 L 434.63183593750006 186.20654296875 L 433.31347656250006 186.0966796875 L 432.40710449218756 186.151611328125 L 431.33593750000006 186.0966796875 L 426.55688476562506 185.98681640625 L 426.06250000000006 185.876953125 L 424.74414062500006 185.876953125 L 418.48193359375006 185.76708984375 L 415.84521484375006 185.6572265625 L 414.85644531250006 185.6572265625 L 410.90136718750006 185.54736328125 L 410.32458496093756 185.492431640625 L 410.32458496093756 185.492431640625 L 410.15979003906256 185.492431640625 L 408.26464843750006 185.4375 L 403.48559570312506 185.32763671875 L 401.01367187500006 185.2177734375 L 396.234619140625 185.10791015625 L 395.740234375 184.998046875 L 394.421875 184.998046875 L 392.3619384765625 184.943115234375 L 392.3619384765625 184.98431396484375 L 384.5341796875 184.66845703125 L 383.710205078125 184.66845703125 L 379.095947265625 184.55859375 L 377.447998046875 184.44873046875 L 372.6689453125 184.3388671875 L 372.009765625 184.3114013671875 L 367.3955078125 184.119140625 L 365.9947509765625 184.064208984375 L 365.9947509765625 184.10540771484375 L 354.87109375 183.6796875 L 351.9253845214844 183.58355712890625 L 350.53492736816406 183.53549194335938 L 346.9609375 183.35009765625 L 343.005859375 183.240234375 L 339.05078125 183.0205078125 L 335.095703125 182.91064453125 L 333.826171875 182.83333333333334 L 399.4525934311985 182.96259396253427 L 399.55525814237785 184.65196332174813 L 399.6953125000001 185.21428571428572 L 465.94810267857144 185.21428571428572 M 467.95703125000006 187 L 468.14013671875006 187 L 468.00280761718756 187.030517578125 L 468.00280761718756 187.030517578125 L 467.40771484375006 187 L 467.95703125000006 187" fill-opacity="0.4"/><g><path fill="none" stroke="#2d70b3" class="dcg-svg-curve" paint-order="fill stroke markers" d=" M -0.060546874999999944 99.5 L 10.939453125 99.5 M 17.939453125 99.5 L 28.939453125 99.5 M 35.939453125 99.5 L 46.939453125 99.5 M 53.939453125 99.5 L 64.939453125 99.5" stroke-linecap="round" stroke-linejoin="round" stroke-miterlimit="10" stroke-width="2.5" stroke-opacity="0.9" stroke-dasharray=""/></g><g><path fill="none" stroke="#2d70b3" class="dcg-svg-curve" paint-order="fill stroke markers" d=" M 66.15585632659126 102.81666869893917 L 66.1558623313904 102.8203125" stroke-linecap="round" stroke-linejoin="round" stroke-miterlimit="10" stroke-width="2.5" stroke-opacity="0.9" stroke-dasharray=""/></g><g><path fill="none" stroke="#2d70b3" class="dcg-svg-curve" paint-order="fill stroke markers" d=" M 66.15658652782442 103.259765625 L 66.15730312995368 103.69461041336422" stroke-linecap="round" stroke-linejoin="round" stroke-miterlimit="10" stroke-width="2.5" stroke-opacity="0.9" stroke-dasharray=""/></g><g><path fill="none" stroke="#2d70b3" class="dcg-svg-curve" paint-order="fill stroke markers" d=" M 66.15803492069246 104.138671875 L 66.15874993331606 104.57255212778927" stroke-linecap="round" stroke-linejoin="round" stroke-miterlimit="10" stroke-width="2.5" stroke-opacity="0.9" stroke-dasharray=""/></g><g><path fill="none" stroke="#2d70b3" class="dcg-svg-curve" paint-order="fill stroke markers" d=" M 66.16164354004084 106.32843555663942 L 66.16165590286256 106.3359375" stroke-linecap="round" stroke-linejoin="round" stroke-miterlimit="10" stroke-width="2.5" stroke-opacity="0.9" stroke-dasharray=""/></g><g><path fill="none" stroke="#2d70b3" class="dcg-svg-curve" paint-order="fill stroke markers" d=" M 66.16382849216463 107.654296875 L 66.16453714676565 108.08431898548957" stroke-linecap="round" stroke-linejoin="round" stroke-miterlimit="10" stroke-width="2.5" stroke-opacity="0.9" stroke-dasharray=""/></g><g><path fill="none" stroke="#2d70b3" class="dcg-svg-curve" paint-order="fill stroke markers" d=" M 66.16598395012804 108.96226069991462 L 66.16600108146669 108.97265625" stroke-linecap="round" stroke-linejoin="round" stroke-miterlimit="10" stroke-width="2.5" stroke-opacity="0.9" stroke-dasharray=""/></g><g><path fill="none" stroke="#2d70b3" class="dcg-svg-curve" paint-order="fill stroke markers" d=" M 66.8583984375 149.5 L 77.8583984375 149.5 M 84.8583984375 149.5 L 95.8583984375 149.5 M 102.8583984375 149.5 L 113.8583984375 149.5 M 120.8583984375 149.5 L 131.8583984375 149.5" stroke-linecap="round" stroke-linejoin="round" stroke-miterlimit="10" stroke-width="2.5" stroke-opacity="0.9" stroke-dasharray=""/></g><g><path fill="none" stroke="#2d70b3" class="dcg-svg-curve" paint-order="fill stroke markers" d=" M 132.81568098689016 150.66194184207325 L 132.815971493721 150.720703125" stroke-linecap="round" stroke-linejoin="round" stroke-miterlimit="10" stroke-width="2.5" stroke-opacity="0.9" stroke-dasharray=""/></g><g><path fill="none" stroke="#2d70b3" class="dcg-svg-curve" paint-order="fill stroke markers" d=" M 132.82001189127328 151.53796082248448 L 132.82031667232513 151.599609375" stroke-linecap="round" stroke-linejoin="round" stroke-miterlimit="10" stroke-width="2.5" stroke-opacity="0.9" stroke-dasharray=""/></g><g><path fill="none" stroke="#2d70b3" class="dcg-svg-curve" paint-order="fill stroke markers" d=" M 132.8243427956564 152.41397980289574 L 132.82466185092926 152.478515625" stroke-linecap="round" stroke-linejoin="round" stroke-miterlimit="10" stroke-width="2.5" stroke-opacity="0.9" stroke-dasharray=""/></g><g><path fill="none" stroke="#2d70b3" class="dcg-svg-curve" paint-order="fill stroke markers" d=" M 132.86332093510464 160.29815062659694 L 132.86376845836637 160.388671875" stroke-linecap="round" stroke-linejoin="round" stroke-miterlimit="10" stroke-width="2.5" stroke-opacity="0.9" stroke-dasharray=""/></g><g><path fill="none" stroke="#2d70b3" class="dcg-svg-curve" paint-order="fill stroke markers" d=" M 132.84328920469457 165.58494261353698 L 132.84442881959657 165.83082179779217" stroke-linecap="round" stroke-linejoin="round" stroke-miterlimit="10" stroke-width="2.5" stroke-opacity="0.9" stroke-dasharray=""/></g><g><path fill="none" stroke="#2d70b3" class="dcg-svg-curve" paint-order="fill stroke markers" d=" M 133.2890625 166.16666666666666 L 144.2890625 166.16666666666666 M 151.2890625 166.16666666666666 L 162.2890625 166.16666666666666 M 169.2890625 166.16666666666666 L 180.2890625 166.16666666666666 M 187.2890625 166.16666666666666 L 198.2890625 166.16666666666669" stroke-linecap="round" stroke-linejoin="round" stroke-miterlimit="10" stroke-width="2.5" stroke-opacity="0.9" stroke-dasharray=""/></g><g><path fill="none" stroke="#2d70b3" class="dcg-svg-curve" paint-order="fill stroke markers" d=" M 199.88248697916669 174.5 L 210.88248697916669 174.5 M 217.88248697916669 174.5 L 228.88248697916669 174.5 M 235.88248697916669 174.5 L 246.88248697916669 174.5 M 253.88248697916669 174.5 L 264.8824869791667 174.5" stroke-linecap="round" stroke-linejoin="round" stroke-miterlimit="10" stroke-width="2.5" stroke-opacity="0.9" stroke-dasharray=""/></g><g><path fill="none" stroke="#2d70b3" class="dcg-svg-curve" paint-order="fill stroke markers" d=" M 269.50000000000006 179.49999999999997 L 280.50000000000006 179.49999999999997 M 287.50000000000006 179.49999999999997 L 298.50000000000006 179.49999999999997 M 305.50000000000006 179.49999999999997 L 316.50000000000006 179.49999999999997 M 323.50000000000006 179.49999999999997 L 332.458984375 179.49999999999997" stroke-linecap="round" stroke-linejoin="round" stroke-miterlimit="10" stroke-width="2.5" stroke-opacity="0.9" stroke-dasharray=""/></g><g><path fill="none" stroke="#2d70b3" class="dcg-svg-curve" paint-order="fill stroke markers" d=" M 333.4599609375 182.83333333333334 L 333.728515625 182.83333333333334" stroke-linecap="round" stroke-linejoin="round" stroke-miterlimit="10" stroke-width="2.5" stroke-opacity="0.9" stroke-dasharray=""/></g><g><path fill="none" stroke="#2d70b3" class="dcg-svg-curve" paint-order="fill stroke markers" d=" M 266.54101562500006 179.49999999999997 L 269.50000000000006 179.49999999999997" stroke-linecap="round" stroke-linejoin="round" stroke-miterlimit="10" stroke-width="2.5" stroke-opacity="0.9" stroke-dasharray=""/></g><g><path fill="none" stroke="#2d70b3" class="dcg-svg-curve" paint-order="fill stroke markers" d=" M 599.2395833333334 188.38888888888889 L 599.4355755005379 188.507793416308" stroke-linecap="round" stroke-linejoin="round" stroke-miterlimit="10" stroke-width="2.5" stroke-opacity="0.9" stroke-dasharray=""/></g><g><path fill="none" stroke="#2d70b3" class="dcg-svg-curve" paint-order="fill stroke markers" d=" M 599.5158382088291 189.33319119411397 L 600.0859374999999 189.5 M 600.0859374999999 189.5 L 605.5 189.5" stroke-linecap="round" stroke-linejoin="round" stroke-miterlimit="10" stroke-width="2.5" stroke-opacity="0.9" stroke-dasharray=""/></g><g><path fill="none" stroke="#2d70b3" class="dcg-svg-curve" paint-order="fill stroke markers" d=" M 533.5616861979167 188.38888888888889 L 544.5616861979167 188.38888888888889 M 551.5616861979167 188.38888888888889 L 562.5616861979167 188.38888888888889 M 569.5616861979167 188.38888888888889 L 580.5616861979167 188.38888888888889 M 587.5616861979167 188.38888888888889 L 598.5616861979167 188.38888888888889" stroke-linecap="round" stroke-linejoin="round" stroke-miterlimit="10" stroke-width="2.5" stroke-opacity="0.9" stroke-dasharray=""/></g><g><path fill="none" stroke="#2d70b3" class="dcg-svg-curve" paint-order="fill stroke markers" d=" M 532.8273734660348 188.0890426893102 L 532.8426375119931 188.29487489423425" stroke-linecap="round" stroke-linejoin="round" stroke-miterlimit="10" stroke-width="2.5" stroke-opacity="0.9" stroke-dasharray=""/></g><g><path fill="none" stroke="#2d70b3" class="dcg-svg-curve" paint-order="fill stroke markers" d=" M 469.82470703125006 187 L 480.82470703125006 187 M 487.82470703125006 187 L 498.82470703125006 187 M 505.82470703125006 187 L 516.82470703125 187 M 523.82470703125 187 L 532.1904296875 187" stroke-linecap="round" stroke-linejoin="round" stroke-miterlimit="10" stroke-width="2.5" stroke-opacity="0.9" stroke-dasharray=""/></g><g><path fill="none" stroke="#2d70b3" class="dcg-svg-curve" paint-order="fill stroke markers" d=" M 468.72607421875006 187 L 469.45849609375006 187" stroke-linecap="round" stroke-linejoin="round" stroke-miterlimit="10" stroke-width="2.5" stroke-opacity="0.9" stroke-dasharray=""/></g><g><path fill="none" stroke="#2d70b3" class="dcg-svg-curve" paint-order="fill stroke markers" d=" M 466.178622055499 186.50408401400233 L 466.1775452158694 186.81913652275378" stroke-linecap="round" stroke-linejoin="round" stroke-miterlimit="10" stroke-width="2.5" stroke-opacity="0.9" stroke-dasharray=""/></g><g><path fill="none" stroke="#2d70b3" class="dcg-svg-curve" paint-order="fill stroke markers" d=" M 333.826171875 182.83333333333334 L 344.82615053784514 182.85499936554172 M 351.8261369596557 182.8687868405834 L 362.8261156225008 182.89045287279177 M 369.82610204431137 182.90424034783345 L 380.8260807071565 182.9259063800418 M 387.82606712896705 182.93969385508348 L 398.8260457918122 182.96135988729185" stroke-linecap="round" stroke-linejoin="round" stroke-miterlimit="10" stroke-width="2.5" stroke-opacity="0.9" stroke-dasharray=""/></g><g><path fill="none" stroke="#2d70b3" class="dcg-svg-curve" paint-order="fill stroke markers" d=" M 399.55525814237785 184.65196332174813 L 399.6953125000001 185.21428571428572 M 399.6953125000001 185.21428571428572 L 410.11581125216867 185.21428571428572 M 417.11581125216867 185.21428571428572 L 428.11581125216867 185.21428571428572 M 435.11581125216867 185.21428571428572 L 446.11581125216867 185.21428571428572 M 453.11581125216867 185.21428571428572 L 464.11581125216867 185.21428571428572" stroke-linecap="round" stroke-linejoin="round" stroke-miterlimit="10" stroke-width="2.5" stroke-opacity="0.9" stroke-dasharray=""/></g><g><path fill="none" stroke="#2d70b3" class="dcg-svg-curve" paint-order="fill stroke markers" d=" M 467.95703125000006 187 L 468.14013671875006 187" stroke-linecap="round" stroke-linejoin="round" stroke-miterlimit="10" stroke-width="2.5" stroke-opacity="0.9" stroke-dasharray=""/></g><g><path fill="none" stroke="#2d70b3" class="dcg-svg-curve" paint-order="fill stroke markers" d=" M 467.40771484375006 187 L 467.95703125000006 187" stroke-linecap="round" stroke-linejoin="round" stroke-miterlimit="10" stroke-width="2.5" stroke-opacity="0.9" stroke-dasharray=""/></g></g></g><g id="labels-266ec03a"/></g></svg>