<svg version="1.1" xmlns="http://www.w3.org/2000/svg" xmlns:xlink="http://www.w3.org/1999/xlink" width="600" height="400"><defs/><g transform="scale(1,1)"><g id="background-72f569b3"><rect fill="white" stroke="none" x="0" y="0" width="600" height="400" class="dcg-svg-background"/></g><g id="background-images-72f569b3"/><g id="graphpaper-72f569b3"><g id="grid-72f569b3"><g><path fill="none" stroke="rgb(0,0,0)" class="dcg-svg-minor-gridline" paint-order="fill stroke markers" d=" M -0.5 0 L -0.5 400" stroke-opacity="0.12" stroke-miterlimit="10" stroke-dasharray=""/><path fill="none" stroke="rgb(0,0,0)" class="dcg-svg-minor-gridline" paint-order="fill stroke markers" d=" M 32.5 0 L 32.5 400" stroke-opacity="0.12" stroke-miterlimit="10" stroke-dasharray=""/><path fill="none" stroke="rgb(0,0,0)" class="dcg-svg-minor-gridline" paint-order="fill stroke markers" d=" M 66.5 0 L 66.5 400" stroke-opacity="0.12" stroke-miterlimit="10" stroke-dasharray=""/><path fill="none" stroke="rgb(0,0,0)" class="dcg-svg-minor-gridline" paint-order="fill stroke markers" d=" M 99.5 0 L 99.5 400" stroke-opacity="0.12" stroke-miterlimit="10" stroke-dasharray=""/><path fill="none" stroke="rgb(0,0,0)" class="dcg-svg-minor-gridline" paint-order="fill stroke markers" d=" M 132.5 0 L 132.5 400" stroke-opacity="0.12" stroke-miterlimit="10" stroke-dasharray=""/><path fill="none" stroke="rgb(0,0,0)" class="dcg-svg-minor-gridline" paint-order="fill stroke markers" d=" M 166.5 0 L 166.5 400" stroke-opacity="0.12" stroke-miterlimit="10" stroke-dasharray=""/><path fill="none" stroke="rgb(0,0,0)" class="dcg-svg-minor-gridline" paint-order="fill stroke markers" d=" M 199.5 0 L 199.5 400" stroke-opacity="0.12" stroke-miterlimit="10" stroke-dasharray=""/><path fill="none" stroke="rgb(0,0,0)" class="dcg-svg-minor-gridline" paint-order="fill stroke markers" d=" M 232.5 0 L 232.5 400" stroke-opacity="0.12" stroke-miterlimit="10" stroke-dasharray=""/><path fill="none" stroke="rgb(0,0,0)" class="dcg-svg-minor-gridline" paint-order="fill stroke markers" d=" M 266.5 0 L 266.5 400" stroke-opacity="0.12" stroke-miterlimit="10" stroke-dasharray=""/><path fill="none" stroke="rgb(0,0,0)" class="dcg-svg-minor-gridline" paint-order="fill stroke markers" d=" M 299.5 0 L 299.5 400" stroke-opacity="0.12" stroke-miterlimit="10" stroke-dasharray=""/><path fill="none" stroke="rgb(0,0,0)" class="dcg-svg-minor-gridline" paint-order="fill stroke markers" d=" M 332.5 0 L 332.5 400" stroke-opacity="0.12" stroke-miterlimit="10" stroke-dasharray=""/><path fill="none" stroke="rgb(0,0,0)" class="dcg-svg-minor-gridline" paint-order="fill stroke markers" d=" M 366.5 0 L 366.5 400" stroke-opacity="0.12" stroke-miterlimit="10" stroke-dasharray=""/><path fill="none" stroke="rgb(0,0,0)" class="dcg-svg-minor-gridline" paint-order="fill stroke markers" d=" M 399.5 0 L 399.5 400" stroke-opacity="0.12" stroke-miterlimit="10" stroke-dasharray=""/><path fill="none" stroke="rgb(0,0,0)" class="dcg-svg-minor-gridline" paint-order="fill stroke markers" d=" M 432.5 0 L 432.5 400" stroke-opacity="0.12" stroke-miterlimit="10" stroke-dasharray=""/><path fill="none" stroke="rgb(0,0,0)" class="dcg-svg-minor-gridline" paint-order="fill stroke markers" d=" M 466.5 0 L 466.5 400" stroke-opacity="0.12" stroke-miterlimit="10" stroke-dasharray=""/><path fill="none" stroke="rgb(0,0,0)" class="dcg-svg-minor-gridline" paint-order="fill stroke markers" d=" M 499.5 0 L 499.5 400" stroke-opacity="0.12" stroke-miterlimit="10" stroke-dasharray=""/><path fill="none" stroke="rgb(0,0,0)" class="dcg-svg-minor-gridline" paint-order="fill stroke markers" d=" M 532.5 0 L 532.5 400" stroke-opacity="0.12" stroke-miterlimit="10" stroke-dasharray=""/><path fill="none" stroke="rgb(0,0,0)" class="dcg-svg-minor-gridline" paint-order="fill stroke markers" d=" M 566.5 0 L 566.5 400" stroke-opacity="0.12" stroke-miterlimit="10" stroke-dasharray=""/><path fill="none" stroke="rgb(0,0,0)" class="dcg-svg-minor-gridline" paint-order="fill stroke markers" d=" M 0 383.5 L 600 383.5" stroke-opacity="0.12" stroke-miterlimit="10" stroke-dasharray=""/><path fill="none" stroke="rgb(0,0,0)" class="dcg-svg-minor-gridline" paint-order="fill stroke markers" d=" M 0 351.5 L 600 351.5" stroke-opacity="0.12" stroke-miterlimit="10" stroke-dasharray=""/><path fill="none" stroke="rgb(0,0,0)" class="dcg-svg-minor-gridline" paint-order="fill stroke markers" d=" M 0 287.5 L 600 287.5" stroke-opacity="0.12" stroke-miterlimit="10" stroke-dasharray=""/><path fill="none" stroke="rgb(0,0,0)" class="dcg-svg-minor-gridline" paint-order="fill stroke markers" d=" M 0 255.5 L 600 255.5" stroke-opacity="0.12" stroke-miterlimit="10" stroke-dasharray=""/><path fill="none" stroke="rgb(0,0,0)" class="dcg-svg-minor-gridline" paint-order="fill stroke markers" d=" M 0 223.5 L 600 223.5" stroke-opacity="0.12" stroke-miterlimit="10" stroke-dasharray=""/><path fill="none" stroke="rgb(0,0,0)" class="dcg-svg-minor-gridline" paint-order="fill stroke markers" d=" M 0 191.5 L 600 191.5" stroke-opacity="0.12" stroke-miterlimit="10" stroke-dasharray=""/><path fill="none" stroke="rgb(0,0,0)" class="dcg-svg-minor-gridline" paint-order="fill stroke markers" d=" M 0 159.5 L 600 159.5" stroke-opacity="0.12" stroke-miterlimit="10" stroke-dasharray=""/><path fill="none" stroke="rgb(0,0,0)" class="dcg-svg-minor-gridline" paint-order="fill stroke markers" d=" M 0 127.5 L 600 127.5" stroke-opacity="0.12" stroke-miterlimit="10" stroke-dasharray=""/><path fill="none" stroke="rgb(0,0,0)" class="dcg-svg-minor-gridline" paint-order="fill stroke markers" d=" M 0 95.5 L 600 95.5" stroke-opacity="0.12" stroke-miterlimit="10" stroke-dasharray=""/><path fill="none" stroke="rgb(0,0,0)" class="dcg-svg-minor-gridline" paint-order="fill stroke markers" d=" M 0 63.5 L 600 63.5" stroke-opacity="0.12" stroke-miterlimit="10" stroke-dasharray=""/><path fill="none" stroke="rgb(0,0,0)" class="dcg-svg-minor-gridline" paint-order="fill stroke markers" d=" M 0 31.5 L 600 31.5" stroke-opacity="0.12" stroke-miterlimit="10" stroke-dasharray=""/><path fill="none" stroke="rgb(0,0,0)" class="dcg-svg-minor-gridline" paint-order="fill stroke markers" d=" M 0 -0.5 L 600 -0.5" stroke-opacity="0.12" stroke-miterlimit="10" stroke-dasharray=""/><path fill="none" stroke="rgb(0,0,0)" class="dcg-svg-major-gridline" paint-order="fill stroke markers" d=" M 66.5 0 L 66.5 400" stroke-opacity="0.31818181818181823" stroke-miterlimit="10" stroke-dasharray=""/><path fill="none" stroke="rgb(0,0,0)" class="dcg-svg-major-gridline" paint-order="fill stroke markers" d=" M 199.5 0 L 199.5 400" stroke-opacity="0.31818181818181823" stroke-miterlimit="10" stroke-dasharray=""/><path fill="none" stroke="rgb(0,0,0)" class="dcg-svg-major-gridline" paint-order="fill stroke markers" d=" M 332.5 0 L 332.5 400" stroke-opacity="0.31818181818181823" stroke-miterlimit="10" stroke-dasharray=""/><path fill="none" stroke="rgb(0,0,0)" class="dcg-svg-major-gridline" paint-order="fill stroke markers" d=" M 466.5 0 L 466.5 400" stroke-opacity="0.31818181818181823" stroke-miterlimit="10" stroke-dasharray=""/><path fill="none" stroke="rgb(0,0,0)" class="dcg-svg-major-gridline" paint-order="fill stroke markers" d=" M 0 159.5 L 600 159.5" stroke-opacity="0.31818181818181823" stroke-miterlimit="10" stroke-dasharray=""/><path fill="none" stroke="rgb(0,0,0)" class="dcg-svg-major-gridline" paint-order="fill stroke markers" d=" M 0 -0.5 L 600 -0.5" stroke-opacity="0.31818181818181823" stroke-miterlimit="10" stroke-dasharray=""/></g></g><g id="axis-72f569b3"><g id="yaxis-72f569b3"><title>Y axis</title><path fill="none" stroke="rgb(0,0,0)" class="dcg-svg-axis-line" paint-order="fill stroke markers" d=" M -67.25 0 L -67.25 400" stroke-opacity="0.9" stroke-miterlimit="10" stroke-width="1.5" stroke-dasharray=""/></g><g id="xaxis-72f569b3"><title>X axis</title><path fill="none" stroke="rgb(0,0,0)" class="dcg-svg-axis-line" paint-order="fill stroke markers" d=" M 0 319.75 L 600 319.75" stroke-opacity="0.9" stroke-miterlimit="10" stroke-width="1.5" stroke-dasharray=""/></g><g><g class="dcg-svg-axis-value"><text fill="none" stroke="#ffffff" font-family="Arial" font-size="14px" font-style="normal" font-weight="normal" text-decoration="normal" x="-75.55973307291667" y="335.808" text-anchor="middle" stroke-miterlimit="2" stroke-width="3" stroke-dasharray="">0</text><text fill="#000000" stroke="none" font-family="Arial" font-size="14px" font-style="normal" font-weight="normal" text-decoration="normal" x="-75.55973307291667" y="335.808" text-anchor="middle">0</text></g><g class="dcg-svg-axis-value"><text fill="none" stroke="#ffffff" font-family="Arial" font-size="14px" font-style="normal" font-weight="normal" text-decoration="normal" x="66.66666666666667" y="335.808" text-anchor="middle" stroke-miterlimit="2" stroke-width="3" stroke-dasharray="">2</text><text fill="#000000" stroke="none" font-family="Arial" font-size="14px" font-style="normal" font-weight="normal" text-decoration="normal" x="66.66666666666667" y="335.808" text-anchor="middle">2</text></g><g class="dcg-svg-axis-value"><text fill="none" stroke="#ffffff" font-family="Arial" font-size="14px" font-style="normal" font-weight="normal" text-decoration="normal" x="200" y="335.808" text-anchor="middle" stroke-miterlimit="2" stroke-width="3" stroke-dasharray="">4</text><text fill="#000000" stroke="none" font-family="Arial" font-size="14px" font-style="normal" font-weight="normal" text-decoration="normal" x="200" y="335.808" text-anchor="middle">4</text></g><g class="dcg-svg-axis-value"><text fill="none" stroke="#ffffff" font-family="Arial" font-size="14px" font-style="normal" font-weight="normal" text-decoration="normal" x="333.3333333333333" y="335.808" text-anchor="middle" stroke-miterlimit="2" stroke-width="3" stroke-dasharray="">6</text><text fill="#000000" stroke="none" font-family="Arial" font-size="14px" font-style="normal" font-weight="normal" text-decoration="normal" x="333.3333333333333" y="335.808" text-anchor="middle">6</text></g><g class="dcg-svg-axis-value"><text fill="none" stroke="#ffffff" font-family="Arial" font-size="14px" font-style="normal" font-weight="normal" text-decoration="normal" x="466.6666666666667" y="335.808" text-anchor="middle" stroke-miterlimit="2" stroke-width="3" stroke-dasharray="">8</text><text fill="#000000" stroke="none" font-family="Arial" font-size="14px" font-style="normal" font-weight="normal" text-decoration="normal" x="466.6666666666667" y="335.808" text-anchor="middle">8</text></g><g class="dcg-svg-axis-value dcg-svg-offcenter-axis-value"><text fill="none" stroke="#ffffff" font-family="Arial" font-size="14px" font-style="normal" font-weight="normal" text-decoration="normal" x="589.2138671875" y="335.808" text-anchor="middle" stroke-miterlimit="2" stroke-width="3" stroke-dasharray="">10</text><text fill="#000000" stroke="none" font-family="Arial" font-size="14px" font-style="normal" font-weight="normal" text-decoration="normal" x="589.2138671875" y="335.808" text-anchor="middle">10</text></g><g class="dcg-svg-axis-value"><text fill="none" stroke="#ffffff" font-family="Arial" font-size="14px" font-style="normal" font-weight="normal" text-decoration="normal" x="6.89306640625" y="163.808" text-anchor="middle" stroke-miterlimit="2" stroke-width="3" stroke-dasharray="">1</text><text fill="rgb(150,150,150)" stroke="none" font-family="Arial" font-size="14px" font-style="normal" font-weight="normal" text-decoration="normal" x="6.89306640625" y="163.808" text-anchor="middle" fill-opacity="1">1</text></g><g class="dcg-svg-axis-value dcg-svg-offcenter-axis-value"><text fill="none" stroke="#ffffff" font-family="Arial" font-size="14px" font-style="normal" font-weight="normal" text-decoration="normal" x="6.89306640625" y="13.808" text-anchor="middle" stroke-miterlimit="2" stroke-width="3" stroke-dasharray="">2</text><text fill="rgb(150,150,150)" stroke="none" font-family="Arial" font-size="14px" font-style="normal" font-weight="normal" text-decoration="normal" x="6.89306640625" y="13.808" text-anchor="middle" fill-opacity="1">2</text></g></g></g></g><g id="expressions-72f569b3"><g id="sketch-72f569b3"><title>Expression 1</title><path fill="#2d70b3" stroke="none" paint-order="stroke fill markers" d="" fill-opacity="0.4"/><path fill="#2d70b3" stroke="none" class="dcg-svg-region" paint-order="stroke fill markers" d=" M -3 -3 L -0.4260347634826328 -3 L -0.4121093750000059 159.5 L 66.1504006832838 159.509765625 L 66.150390625 239.44903564453125 L 64.50244140625 238.3916015625 L 64.008056640625 238.171875 L 64.008056640625 238.171875 L 52.96679687500001 230.701171875 L 52.71960449218751 230.426513671875 L 52.06042480468751 229.987060546875 L 51.64843750000001 229.71240234375 L 51.64843750000001 229.71240234375 L 51.48364257812501 229.49267578125 L 51.23645019531251 229.3828125 L 51.23645019531251 229.3828125 L 44.3150634765625 223.724853515625 L 43.73828125 223.23046875 L 43.73828125 223.23046875 L 43.511688232421875 223.12060546875 L 38.938629150390625 218.94580078125 L 38.7120361328125 218.671142578125 L 38.13525390625 218.1767578125 L 36.5697021484375 216.638671875 L 36.5697021484375 216.583740234375 L 35.992919921875 216.08935546875 L 35.828125 215.86962890625 L 35.828125 215.86962890625 L 32.697021484375 212.68359375 L 32.4498291015625 212.299072265625 L 32.2850341796875 212.244140625 L 28.165161132812504 207.574951171875 L 27.258789062500004 206.53125 L 27.093994140625004 206.20166015625 L 24.951660156250004 203.6748046875 L 18.689453125 195.21533203125 L 18.6070556640625 195.10546875 L 18.0302734375 194.2265625 L 17.70068359375 193.787109375 L 13.004028320312502 186.31640625 L 11.932861328125 184.55859375 L 11.4384765625 183.78955078125 L 11.4384765625 183.6796875 L 10.5321044921875 182.086669921875 L 10.3673095703125 181.921875 L 9.2137451171875 179.724609375 L 8.966552734375 179.28515625 L 8.142578125 177.85693359375 L 7.81298828125 177.087890625 L 2.2099609375 165.662109375 L 1.6331787109375 164.288818359375 L 1.55078125 164.23388671875 L 1.55078125 164.23388671875 L -0.5091552734375 159.454833984375 L -1.0859375 157.9716796875 L -1.3331298828125 157.3125 L -1.4979248046875 157.037841796875 L -1.580322265625 156.76318359375 L -1.7451171875 156.43359375 L -1.7451171875 156.43359375 L -1.9923095703125 155.829345703125 L -2.6514892578125 153.961669921875 L -2.73388671875 153.796875 L -2.73388671875 153.796875 L -2.898681640625 153.46728515625 L -2.9810791015625 153.302490234375 L -3 153.24782986111111 M 428.0044642857143 296.64285714285717 L 466.11010354755524 296.7273788849632 L 466.18900735676294 299.4755859375 L 462.97656250000006 299.36572265625 L 460.99902343750006 299.255859375 L 459.59826660156256 299.200927734375 L 459.59826660156256 299.24212646484375 L 443.53076171875006 298.5966796875 L 440.56445312500006 298.48681640625 L 438.58691406250006 298.376953125 L 435.29101562500006 298.26708984375 L 433.64306640625006 298.1572265625 L 430.18237304687506 298.04736328125 L 429.93518066406256 297.992431640625 L 428.69921875000006 297.9375 L 425.40332031250006 297.82763671875 L 423.75537109375006 297.7177734375 L 420.12988281250006 297.60791015625 L 420.04748535156256 297.552978515625 L 418.15234375000006 297.498046875 L 417.41076660156256 297.443115234375 L 417.41076660156256 297.48431396484375 L 401.1915457589286 296.64285714285717 L 428.0044642857143 296.64285714285717 M 467.95703125000006 299.5 L 468.14013671875006 299.5 L 467.8689117431641 299.5511169433594 L 467.40771484375006 299.5 L 467.95703125000006 299.5 M 398.63085937500006 292.83333333333337 L 399.44140625000006 292.83333333333337 L 399.53000460565096 296.619140625 L 397.05859375 296.50927734375 L 395.41064453125 296.3994140625 L 392.4443359375 296.28955078125 L 390.302001953125 296.1796875 L 367.4779052734375 294.916259765625 L 367.3131103515625 294.916259765625 L 364.593994140625 294.75146484375 L 363.6876220703125 294.696533203125 L 363.1932373046875 294.696533203125 L 361.627685546875 294.6141357421875 L 361.3804931640625 294.57293701171875 L 360.8037109375 294.53173828125 L 358.2493896484375 294.421875 L 352.8935546875 294.09228515625 L 350.916015625 293.982421875 L 346.3017578125 293.65283203125 L 343.829833984375 293.54296875 L 333.77734375 292.83333333333337 L 398.63085937500006 292.83333333333337 M 400.43688964843756 296.674072265625 L 400.0154854910715 296.64285714285717 L 400.7646484375 296.64285714285717 L 400.43688964843756 296.674072265625 M 307.57421875000006 287.5 L 332.458984375 287.5 L 332.79367376863956 287.830078125 L 332.868356525898 292.6640625 L 332.458984375 292.77392578125 L 330.316650390625 292.6640625 L 327.8447265625 292.4443359375 L 325.8671875 292.33447265625 L 323.8072509765625 292.169677734375 L 323.8072509765625 292.21087646484375 L 322.5712890625 292.11474609375 L 320.92333984375 292.0048828125 L 319.9345703125 291.89501953125 L 317.7098388671875 291.78515625 L 314.001953125 291.45556640625 L 312.0244140625 291.345703125 L 304.608642578125 290.79638671875 L 303.78466796875 290.6865234375 L 301.642333984375 290.57666015625 L 301.3951416015625 290.521728515625 L 300.0767822265625 290.411865234375 L 300.0767822265625 290.45306396484375 L 298.5936279296875 290.302001953125 L 296.9456787109375 290.17840576171875 L 296.698486328125 290.13720703125 L 294.8033447265625 290.02734375 L 290.271484375 289.587890625 L 288.129150390625 289.47802734375 L 281.7021484375 288.81884765625 L 281.4549560546875 288.873779296875 L 278.9830322265625 288.654052734375 L 278.3238525390625 288.61285400390625 L 277.4998779296875 288.544189453125 L 273.297607421875 288.15966796875 L 273.1328125 288.0498046875 L 272.8856201171875 288.104736328125 L 272.8856201171875 288.104736328125 L 265.057861328125 287.390625 L 252.03906250000003 286.072265625 L 251.05029296875003 285.96240234375 L 249.23754882812503 285.74267578125 L 248.74316406250003 285.6328125 L 246.93041992187503 285.52294921875 L 246.76562500000003 285.4130859375 L 246.51843261718753 285.468017578125 L 242.15136718750003 284.9736328125 L 240.83300781250003 284.86376953125 L 237.53710937500003 284.42431640625 L 236.05395507812503 284.314453125 L 225.67187500000003 282.99609375 L 225.58947753906253 283.051025390625 L 225.58947753906253 283.051025390625 L 222.54077148437503 282.66650390625 L 222.29357910156253 282.611572265625 L 220.06884765625003 282.3369140625 L 219.73925781250003 282.22705078125 L 218.17370605468753 282.1171875 L 213.80664062500003 281.4580078125 L 213.47705078125003 281.4580078125 L 213.14746093750003 281.34814453125 L 211.66430664062503 281.23828125 L 204.74291992187503 280.24951171875 L 204.57812500000003 280.1396484375 L 204.33093261718753 280.194580078125 L 204.33093261718753 280.194580078125 L 185.3795166015625 277.228271484375 L 185.3795166015625 277.2557373046875 L 178.2109375 275.96484375 L 177.88134765625 275.96484375 L 174.6678466796875 275.360595703125 L 174.255859375 275.3056640625 L 174.255859375 275.3056640625 L 170.30078125 274.53662109375 L 169.8887939453125 274.481689453125 L 165.6865234375 273.65771484375 L 165.02734375 273.5478515625 L 157.1171875 271.89990234375 L 156.7052001953125 271.844970703125 L 142.0384521484375 268.50787353515625 L 141.9560546875 268.38427734375 L 141.8736572265625 268.4666748046875 L 141.0496826171875 268.219482421875 L 138.495361328125 267.615234375 L 137.177001953125 267.28564453125 L 126.63012695312501 264.42919921875 L 125.97094726562501 264.20947265625 L 124.32299804687501 263.77001953125 L 124.07580566406251 263.715087890625 L 120.45031738281251 262.616455078125 L 119.54394531250001 262.341796875 L 112.29296875000001 260.03466796875 L 111.55139160156251 259.760009765625 L 110.97460937500001 259.59521484375 L 110.97460937500001 259.59521484375 L 104.95959472656251 257.5078125 L 104.38281250000001 257.2880859375 L 100.75732421875001 255.9697265625 L 100.34533691406251 255.804931640625 L 98.6973876953125 255.145751953125 L 94.5775146484375 253.497802734375 L 94.330322265625 253.44287109375 L 90.7872314453125 251.959716796875 L 90.5400390625 251.794921875 L 88.89208984375 251.1357421875 L 88.1505126953125 250.751220703125 L 86.91455078125 250.2568359375 L 86.5849609375 250.037109375 L 86.5849609375 250.037109375 L 85.431396484375 249.59765625 L 84.607421875 249.158203125 L 84.5250244140625 249.158203125 L 71.5062255859375 242.56640625 L 71.423828125 242.45654296875 L 70.7646484375 242.126953125 L 69.3638916015625 241.302978515625 L 68.45751953125 240.80859375 L 67.2215576171875 240.094482421875 L 66.8919677734375 239.9296875 L 66.8114013671875 239.5 L 132.7275390625 239.5 L 132.812797712621 240.42597972508065 L 132.93256967087484 265.93999443484097 L 133.58203125 266.1666666666667 L 199.47028708457947 266.296875 L 199.54146704450258 279.48046875 L 207.21484375000003 279.5 L 265.8818359375 279.5 L 266.1316381268375 279.7533870821083 L 266.21029925346375 287.390625 L 266.541015625 287.5 L 307.57421875000006 287.5 M 603 303.5497721354167 L 602.72265625 303.54052734375 L 601.404296875 303.5 L 603 303.5 M 599.1712239583333 301.72222222222223 L 599.4267578125 301.72222222222223 L 599.4267578125 303.4306640625 L 598.932373046875 303.485595703125 L 598.43798828125 303.4306640625 L 592.17578125 303.32080078125 L 592.0933837890625 303.265869140625 L 590.1982421875 303.2109375 L 583.6064453125 303.10107421875 L 582.2880859375 302.9912109375 L 581.3817138671875 303.046142578125 L 580.310546875 302.9912109375 L 575.037109375 302.88134765625 L 573.0595703125 302.771484375 L 572.9771728515625 302.826416015625 L 571.08203125 302.771484375 L 570.3404541015625 302.716552734375 L 570.3404541015625 302.75775146484375 L 564.490234375 302.5517578125 L 564.16064453125 302.5517578125 L 558.5576171875 302.44189453125 L 556.580078125 302.33203125 L 556.4976806640625 302.386962890625 L 556.4976806640625 302.386962890625 L 555.26171875 302.33203125 L 550.9976501464844 302.23590087890625 L 549.6071929931641 302.1878356933594 L 547.3515625 302.1123046875 L 542.902099609375 302.00244140625 L 542.078125 301.892578125 L 540.759765625 301.892578125 L 535.486328125 301.78271484375 L 534.5799560546875 301.727783203125 L 534.5799560546875 301.727783203125 L 534.5382486979167 301.72222222222223 L 599.1712239583333 301.72222222222223 M 532.8059638333907 300.54512172226043 L 532.8477787673473 301.6728515625 L 527.576171875 301.56298828125 L 527.4937744140625 301.508056640625 L 525.5986328125 301.453125 L 520.3251953125 301.34326171875 L 519.0068359375 301.2333984375 L 518.34765625 301.2333984375 L 513.568603515625 301.12353515625 L 513.07421875 301.013671875 L 511.755859375 301.013671875 L 509.69592285156256 300.958740234375 L 509.69592285156256 300.99993896484375 L 501.86816406250006 300.68408203125 L 501.04418945312506 300.68408203125 L 496.51232910156256 300.57421875 L 494.45239257812506 300.46435546875 L 490.00292968750006 300.3544921875 L 489.34375000000006 300.3270263671875 L 484.72949218750006 300.134765625 L 483.32873535156256 300.079833984375 L 483.32873535156256 300.12103271484375 L 472.20507812500006 299.6953125 L 469.25936889648443 299.59918212890625 L 468.50634765625006 299.5 L 532.1904296875 299.5 L 532.7762668497604 299.74420751682646 L 532.8059638333907 300.54512172226043 M 533.2532552083334 301.72222222222223 L 533.3533528645834 301.72222222222223 L 533.2198893229167 301.72222222222223 L 533.2532552083334 301.72222222222223" fill-opacity="0.4"/><g><path fill="none" stroke="#2d70b3" class="dcg-svg-curve" paint-order="fill stroke markers" d=" M -0.4121093750000059 159.5 L 10.587890624999995 159.5 M 17.587890624999996 159.5 L 28.587890624999996 159.5 M 35.587890625 159.5 L 46.587890625 159.5 M 53.587890625 159.5 L 64.587890625 159.5" stroke-linecap="round" stroke-linejoin="round" stroke-miterlimit="10" stroke-width="2.5" stroke-opacity="0.9" stroke-dasharray=""/></g><g><path fill="none" stroke="#2d70b3" class="dcg-svg-curve" paint-order="fill stroke markers" d=" M 66.15221117436887 161.267578125 L 66.15266223734771 161.7055168417682" stroke-linecap="round" stroke-linejoin="round" stroke-miterlimit="10" stroke-width="2.5" stroke-opacity="0.9" stroke-dasharray=""/></g><g><path fill="none" stroke="#2d70b3" class="dcg-svg-curve" paint-order="fill stroke markers" d=" M 66.1531164199114 162.146484375 L 66.15356904268266 162.5859375" stroke-linecap="round" stroke-linejoin="round" stroke-miterlimit="10" stroke-width="2.5" stroke-opacity="0.9" stroke-dasharray=""/></g><g><path fill="none" stroke="#2d70b3" class="dcg-svg-curve" paint-order="fill stroke markers" d=" M 66.15402166545393 163.025390625 L 66.15447148612023 163.46212317591986" stroke-linecap="round" stroke-linejoin="round" stroke-miterlimit="10" stroke-width="2.5" stroke-opacity="0.9" stroke-dasharray=""/></g><g><path fill="none" stroke="#2d70b3" class="dcg-svg-curve" paint-order="fill stroke markers" d=" M 66.1567374020815 165.662109375 L 66.157185359279 166.09703267714733" stroke-linecap="round" stroke-linejoin="round" stroke-miterlimit="10" stroke-width="2.5" stroke-opacity="0.9" stroke-dasharray=""/></g><g><path fill="none" stroke="#2d70b3" class="dcg-svg-curve" paint-order="fill stroke markers" d=" M 66.15764264762403 166.541015625 L 66.15808998366525 166.97533584422317" stroke-linecap="round" stroke-linejoin="round" stroke-miterlimit="10" stroke-width="2.5" stroke-opacity="0.9" stroke-dasharray=""/></g><g><path fill="none" stroke="#2d70b3" class="dcg-svg-curve" paint-order="fill stroke markers" d=" M 66.16170848121025 170.4885485125265 L 66.1617162525654 170.49609375" stroke-linecap="round" stroke-linejoin="round" stroke-miterlimit="10" stroke-width="2.5" stroke-opacity="0.9" stroke-dasharray=""/></g><g><path fill="none" stroke="#2d70b3" class="dcg-svg-curve" paint-order="fill stroke markers" d=" M 66.16804085191407 176.6366706820573 L 66.16805297136307 176.6484375" stroke-linecap="round" stroke-linejoin="round" stroke-miterlimit="10" stroke-width="2.5" stroke-opacity="0.9" stroke-dasharray=""/></g><g><path fill="none" stroke="#2d70b3" class="dcg-svg-curve" paint-order="fill stroke markers" d=" M 66.1689454763003 177.51497384913313 L 66.16895821690557 177.52734375" stroke-linecap="round" stroke-linejoin="round" stroke-miterlimit="10" stroke-width="2.5" stroke-opacity="0.9" stroke-dasharray=""/></g><g><path fill="none" stroke="#2d70b3" class="dcg-svg-curve" paint-order="fill stroke markers" d=" M 66.21417669561306 221.43013220292465 L 66.21422049403188 221.47265625" stroke-linecap="round" stroke-linejoin="round" stroke-miterlimit="10" stroke-width="2.5" stroke-opacity="0.9" stroke-dasharray=""/></g><g><path fill="none" stroke="#2d70b3" class="dcg-svg-curve" paint-order="fill stroke markers" d=" M 428.0044642857143 296.64285714285717 L 439.0044372262332 296.66725607419806 M 446.00442000656346 296.68278266686957 L 457.00439294708247 296.7071815982105 M 464.0043757274127 296.72270819088203 L 466.11010354755524 296.7273788849632" stroke-linecap="round" stroke-linejoin="round" stroke-miterlimit="10" stroke-width="2.5" stroke-opacity="0.9" stroke-dasharray=""/></g><g><path fill="none" stroke="#2d70b3" class="dcg-svg-curve" paint-order="fill stroke markers" d=" M 466.18279232162854 298.9957434817429 L 466.1821079776348 299.3160946815768" stroke-linecap="round" stroke-linejoin="round" stroke-miterlimit="10" stroke-width="2.5" stroke-opacity="0.9" stroke-dasharray=""/></g><g><path fill="none" stroke="#2d70b3" class="dcg-svg-curve" paint-order="fill stroke markers" d=" M 401.1915457589286 296.64285714285717 L 412.1915457589286 296.64285714285717 M 419.1915457589286 296.64285714285717 L 428.0044642857143 296.64285714285717" stroke-linecap="round" stroke-linejoin="round" stroke-miterlimit="10" stroke-width="2.5" stroke-opacity="0.9" stroke-dasharray=""/></g><g><path fill="none" stroke="#2d70b3" class="dcg-svg-curve" paint-order="fill stroke markers" d=" M 467.95703125000006 299.5 L 468.14013671875006 299.5" stroke-linecap="round" stroke-linejoin="round" stroke-miterlimit="10" stroke-width="2.5" stroke-opacity="0.9" stroke-dasharray=""/></g><g><path fill="none" stroke="#2d70b3" class="dcg-svg-curve" paint-order="fill stroke markers" d=" M 467.40771484375006 299.5 L 467.95703125000006 299.5" stroke-linecap="round" stroke-linejoin="round" stroke-miterlimit="10" stroke-width="2.5" stroke-opacity="0.9" stroke-dasharray=""/></g><g><path fill="none" stroke="#2d70b3" class="dcg-svg-curve" paint-order="fill stroke markers" d=" M 398.63085937500006 292.83333333333337 L 399.44140625000006 292.83333333333337 M 399.44140625000006 292.83333333333337 L 399.4539639800787 293.103515625" stroke-linecap="round" stroke-linejoin="round" stroke-miterlimit="10" stroke-width="2.5" stroke-opacity="0.9" stroke-dasharray=""/></g><g><path fill="none" stroke="#2d70b3" class="dcg-svg-curve" paint-order="fill stroke markers" d=" M 333.77734375 292.83333333333337 L 344.77734375 292.83333333333337 M 351.77734375 292.83333333333337 L 362.77734375 292.83333333333337 M 369.77734375 292.83333333333337 L 380.77734375 292.83333333333337 M 387.77734375 292.83333333333337 L 398.63085937500006 292.83333333333337" stroke-linecap="round" stroke-linejoin="round" stroke-miterlimit="10" stroke-width="2.5" stroke-opacity="0.9" stroke-dasharray=""/></g><g><path fill="none" stroke="#2d70b3" class="dcg-svg-curve" paint-order="fill stroke markers" d=" M 400.0154854910715 296.64285714285717 L 400.7646484375 296.64285714285717" stroke-linecap="round" stroke-linejoin="round" stroke-miterlimit="10" stroke-width="2.5" stroke-opacity="0.9" stroke-dasharray=""/></g><g><path fill="none" stroke="#2d70b3" class="dcg-svg-curve" paint-order="fill stroke markers" d=" M 307.57421875000006 287.5 L 318.57421875000006 287.5 M 325.57421875000006 287.5 L 332.458984375 287.5" stroke-linecap="round" stroke-linejoin="round" stroke-miterlimit="10" stroke-width="2.5" stroke-opacity="0.9" stroke-dasharray=""/></g><g><path fill="none" stroke="#2d70b3" class="dcg-svg-curve" paint-order="fill stroke markers" d=" M 332.796981843557 288.0441996042954 L 332.80046311020857 288.26953125" stroke-linecap="round" stroke-linejoin="round" stroke-miterlimit="10" stroke-width="2.5" stroke-opacity="0.9" stroke-dasharray=""/></g><g><path fill="none" stroke="#2d70b3" class="dcg-svg-curve" paint-order="fill stroke markers" d=" M 332.861567184329 292.224609375 L 332.8641831075558 292.3939300116295" stroke-linecap="round" stroke-linejoin="round" stroke-miterlimit="10" stroke-width="2.5" stroke-opacity="0.9" stroke-dasharray=""/></g><g><path fill="none" stroke="#2d70b3" class="dcg-svg-curve" paint-order="fill stroke markers" d=" M 66.8114013671875 239.5 L 77.8114013671875 239.5 M 84.8114013671875 239.5 L 95.8114013671875 239.5 M 102.8114013671875 239.5 L 113.8114013671875 239.5 M 120.8114013671875 239.5 L 131.8114013671875 239.5" stroke-linecap="round" stroke-linejoin="round" stroke-miterlimit="10" stroke-width="2.5" stroke-opacity="0.9" stroke-dasharray=""/></g><g><path fill="none" stroke="#2d70b3" class="dcg-svg-curve" paint-order="fill stroke markers" d=" M 132.8221271634102 243.4453125 L 132.82328779541197 243.82093313639203" stroke-linecap="round" stroke-linejoin="round" stroke-miterlimit="10" stroke-width="2.5" stroke-opacity="0.9" stroke-dasharray=""/></g><g><path fill="none" stroke="#2d70b3" class="dcg-svg-curve" paint-order="fill stroke markers" d=" M 132.82755863666537 245.203125 L 132.82891650497916 245.642578125" stroke-linecap="round" stroke-linejoin="round" stroke-miterlimit="10" stroke-width="2.5" stroke-opacity="0.9" stroke-dasharray=""/></g><g><path fill="none" stroke="#2d70b3" class="dcg-svg-curve" paint-order="fill stroke markers" d=" M 132.83027437329292 246.08203125 L 132.83163224160674 246.521484375" stroke-linecap="round" stroke-linejoin="round" stroke-miterlimit="10" stroke-width="2.5" stroke-opacity="0.9" stroke-dasharray=""/></g><g><path fill="none" stroke="#2d70b3" class="dcg-svg-curve" paint-order="fill stroke markers" d=" M 132.93164075130213 265.72135408246527 L 132.93256967087484 265.93999443484097 M 132.93256967087484 265.93999443484097 L 133.58203125 266.1666666666667 M 133.58203125 266.1666666666667 L 143.6755071757402 266.1697705862593 M 150.67550684475586 266.17192320803997 L 161.6755063246376 266.17530589940964 M 168.67550599365327 266.1774585211903 L 179.67550547353505 266.18084121256 M 186.67550514255072 266.1829938343407 L 197.6755046224325 266.1863765257104" stroke-linecap="round" stroke-linejoin="round" stroke-miterlimit="10" stroke-width="2.5" stroke-opacity="0.9" stroke-dasharray=""/></g><g><path fill="none" stroke="#2d70b3" class="dcg-svg-curve" paint-order="fill stroke markers" d=" M 199.52977562052487 279.22169330996445 L 199.54087160223713 279.3776923765262" stroke-linecap="round" stroke-linejoin="round" stroke-miterlimit="10" stroke-width="2.5" stroke-opacity="0.9" stroke-dasharray=""/></g><g><path fill="none" stroke="#2d70b3" class="dcg-svg-curve" paint-order="fill stroke markers" d=" M 200.59374999999997 279.5 L 211.59374999999997 279.5 M 218.59374999999997 279.5 L 229.59374999999997 279.5 M 236.59374999999997 279.5 L 247.59374999999997 279.5 M 254.59374999999997 279.5 L 265.59375 279.5" stroke-linecap="round" stroke-linejoin="round" stroke-miterlimit="10" stroke-width="2.5" stroke-opacity="0.9" stroke-dasharray=""/></g><g><path fill="none" stroke="#2d70b3" class="dcg-svg-curve" paint-order="fill stroke markers" d=" M 266.1586102899668 282.3721243900221 L 266.1605107486248 282.556640625" stroke-linecap="round" stroke-linejoin="round" stroke-miterlimit="10" stroke-width="2.5" stroke-opacity="0.9" stroke-dasharray=""/></g><g><path fill="none" stroke="#2d70b3" class="dcg-svg-curve" paint-order="fill stroke markers" d=" M 266.16503697633743 282.99609375 L 266.16760101100994 283.2450368259934" stroke-linecap="round" stroke-linejoin="round" stroke-miterlimit="10" stroke-width="2.5" stroke-opacity="0.9" stroke-dasharray=""/></g><g><path fill="none" stroke="#2d70b3" class="dcg-svg-curve" paint-order="fill stroke markers" d=" M 266.1740894317627 283.875 L 266.176591732053 284.11794926196467" stroke-linecap="round" stroke-linejoin="round" stroke-miterlimit="10" stroke-width="2.5" stroke-opacity="0.9" stroke-dasharray=""/></g><g><path fill="none" stroke="#2d70b3" class="dcg-svg-curve" paint-order="fill stroke markers" d=" M 266.21029925346375 287.390625 L 266.541015625 287.5 M 266.541015625 287.5 L 277.1926821511174 287.5 M 284.1926821511174 287.5 L 295.1926821511174 287.5 M 302.1926821511174 287.5 L 307.57421875000006 287.5" stroke-linecap="round" stroke-linejoin="round" stroke-miterlimit="10" stroke-width="2.5" stroke-opacity="0.9" stroke-dasharray=""/></g><g><path fill="none" stroke="#2d70b3" class="dcg-svg-curve" paint-order="fill stroke markers" d=" M 604.474609375 303.5 L 605.5 303.5" stroke-linecap="round" stroke-linejoin="round" stroke-miterlimit="10" stroke-width="2.5" stroke-opacity="0.9" stroke-dasharray=""/></g><g><path fill="none" stroke="#2d70b3" class="dcg-svg-curve" paint-order="fill stroke markers" d=" M 601.404296875 303.5 L 604.474609375 303.5" stroke-linecap="round" stroke-linejoin="round" stroke-miterlimit="10" stroke-width="2.5" stroke-opacity="0.9" stroke-dasharray=""/></g><g><path fill="none" stroke="#2d70b3" class="dcg-svg-curve" paint-order="fill stroke markers" d=" M 599.1712239583333 301.72222222222223 L 599.4267578125 301.72222222222223 M 599.4267578125 301.72222222222223 L 599.4344169065735 301.8874720622845" stroke-linecap="round" stroke-linejoin="round" stroke-miterlimit="10" stroke-width="2.5" stroke-opacity="0.9" stroke-dasharray=""/></g><g><path fill="none" stroke="#2d70b3" class="dcg-svg-curve" paint-order="fill stroke markers" d=" M 534.5382486979167 301.72222222222223 L 545.5382486979167 301.72222222222223 M 552.5382486979167 301.72222222222223 L 563.5382486979167 301.72222222222223 M 570.5382486979167 301.72222222222223 L 581.5382486979167 301.72222222222223 M 588.5382486979167 301.72222222222223 L 599.1712239583333 301.72222222222223" stroke-linecap="round" stroke-linejoin="round" stroke-miterlimit="10" stroke-width="2.5" stroke-opacity="0.9" stroke-dasharray=""/></g><g><path fill="none" stroke="#2d70b3" class="dcg-svg-curve" paint-order="fill stroke markers" d=" M 468.50634765625006 299.5 L 479.50634765625006 299.5 M 486.50634765625006 299.5 L 497.50634765625006 299.5 M 504.50634765625006 299.5 L 515.50634765625 299.5 M 522.50634765625 299.5 L 532.1904296875 299.5 M 532.1904296875 299.5 L 532.7762668497604 299.74420751682646" stroke-linecap="round" stroke-linejoin="round" stroke-miterlimit="10" stroke-width="2.5" stroke-opacity="0.9" stroke-dasharray=""/></g><g><path fill="none" stroke="#2d70b3" class="dcg-svg-curve" paint-order="fill stroke markers" d=" M 533.2532552083334 301.72222222222223 L 533.3533528645834 301.72222222222223" stroke-linecap="round" stroke-linejoin="round" stroke-miterlimit="10" stroke-width="2.5" stroke-opacity="0.9" stroke-dasharray=""/></g><g><path fill="none" stroke="#2d70b3" class="dcg-svg-curve" paint-order="fill stroke markers" d=" M 533.2198893229167 301.72222222222223 L 533.2532552083334 301.72222222222223" stroke-linecap="round" stroke-linejoin="round" stroke-miterlimit="10" stroke-width="2.5" stroke-opacity="0.9" stroke-dasharray=""/></g></g></g><g id="labels-72f569b3"/></g></svg>