<svg version="1.1" xmlns="http://www.w3.org/2000/svg" xmlns:xlink="http://www.w3.org/1999/xlink" width="600" height="400"><defs/><g transform="scale(1,1)"><g id="background-27d98114"><rect fill="white" stroke="none" x="0" y="0" width="600" height="400" class="dcg-svg-background"/></g><g id="background-images-27d98114"/><g id="graphpaper-27d98114"><g id="grid-27d98114"><g><path fill="none" stroke="rgb(0,0,0)" class="dcg-svg-minor-gridline" paint-order="fill stroke markers" d=" M -0.5 0 L -0.5 400" stroke-opacity="0.12" stroke-miterlimit="10" stroke-dasharray=""/><path fill="none" stroke="rgb(0,0,0)" class="dcg-svg-minor-gridline" paint-order="fill stroke markers" d=" M 29.5 0 L 29.5 400" stroke-opacity="0.12" stroke-miterlimit="10" stroke-dasharray=""/><path fill="none" stroke="rgb(0,0,0)" class="dcg-svg-minor-gridline" paint-order="fill stroke markers" d=" M 59.5 0 L 59.5 400" stroke-opacity="0.12" stroke-miterlimit="10" stroke-dasharray=""/><path fill="none" stroke="rgb(0,0,0)" class="dcg-svg-minor-gridline" paint-order="fill stroke markers" d=" M 89.5 0 L 89.5 400" stroke-opacity="0.12" stroke-miterlimit="10" stroke-dasharray=""/><path fill="none" stroke="rgb(0,0,0)" class="dcg-svg-minor-gridline" paint-order="fill stroke markers" d=" M 119.5 0 L 119.5 400" stroke-opacity="0.12" stroke-miterlimit="10" stroke-dasharray=""/><path fill="none" stroke="rgb(0,0,0)" class="dcg-svg-minor-gridline" paint-order="fill stroke markers" d=" M 149.5 0 L 149.5 400" stroke-opacity="0.12" stroke-miterlimit="10" stroke-dasharray=""/><path fill="none" stroke="rgb(0,0,0)" class="dcg-svg-minor-gridline" paint-order="fill stroke markers" d=" M 179.5 0 L 179.5 400" stroke-opacity="0.12" stroke-miterlimit="10" stroke-dasharray=""/><path fill="none" stroke="rgb(0,0,0)" class="dcg-svg-minor-gridline" paint-order="fill stroke markers" d=" M 209.5 0 L 209.5 400" stroke-opacity="0.12" stroke-miterlimit="10" stroke-dasharray=""/><path fill="none" stroke="rgb(0,0,0)" class="dcg-svg-minor-gridline" paint-order="fill stroke markers" d=" M 239.5 0 L 239.5 400" stroke-opacity="0.12" stroke-miterlimit="10" stroke-dasharray=""/><path fill="none" stroke="rgb(0,0,0)" class="dcg-svg-minor-gridline" paint-order="fill stroke markers" d=" M 269.5 0 L 269.5 400" stroke-opacity="0.12" stroke-miterlimit="10" stroke-dasharray=""/><path fill="none" stroke="rgb(0,0,0)" class="dcg-svg-minor-gridline" paint-order="fill stroke markers" d=" M 329.5 0 L 329.5 400" stroke-opacity="0.12" stroke-miterlimit="10" stroke-dasharray=""/><path fill="none" stroke="rgb(0,0,0)" class="dcg-svg-minor-gridline" paint-order="fill stroke markers" d=" M 359.5 0 L 359.5 400" stroke-opacity="0.12" stroke-miterlimit="10" stroke-dasharray=""/><path fill="none" stroke="rgb(0,0,0)" class="dcg-svg-minor-gridline" paint-order="fill stroke markers" d=" M 389.5 0 L 389.5 400" stroke-opacity="0.12" stroke-miterlimit="10" stroke-dasharray=""/><path fill="none" stroke="rgb(0,0,0)" class="dcg-svg-minor-gridline" paint-order="fill stroke markers" d=" M 419.5 0 L 419.5 400" stroke-opacity="0.12" stroke-miterlimit="10" stroke-dasharray=""/><path fill="none" stroke="rgb(0,0,0)" class="dcg-svg-minor-gridline" paint-order="fill stroke markers" d=" M 449.5 0 L 449.5 400" stroke-opacity="0.12" stroke-miterlimit="10" stroke-dasharray=""/><path fill="none" stroke="rgb(0,0,0)" class="dcg-svg-minor-gridline" paint-order="fill stroke markers" d=" M 479.5 0 L 479.5 400" stroke-opacity="0.12" stroke-miterlimit="10" stroke-dasharray=""/><path fill="none" stroke="rgb(0,0,0)" class="dcg-svg-minor-gridline" paint-order="fill stroke markers" d=" M 509.5 0 L 509.5 400" stroke-opacity="0.12" stroke-miterlimit="10" stroke-dasharray=""/><path fill="none" stroke="rgb(0,0,0)" class="dcg-svg-minor-gridline" paint-order="fill stroke markers" d=" M 539.5 0 L 539.5 400" stroke-opacity="0.12" stroke-miterlimit="10" stroke-dasharray=""/><path fill="none" stroke="rgb(0,0,0)" class="dcg-svg-minor-gridline" paint-order="fill stroke markers" d=" M 569.5 0 L 569.5 400" stroke-opacity="0.12" stroke-miterlimit="10" stroke-dasharray=""/><path fill="none" stroke="rgb(0,0,0)" class="dcg-svg-minor-gridline" paint-order="fill stroke markers" d=" M 0 370.5 L 600 370.5" stroke-opacity="0.12" stroke-miterlimit="10" stroke-dasharray=""/><path fill="none" stroke="rgb(0,0,0)" class="dcg-svg-minor-gridline" paint-order="fill stroke markers" d=" M 0 342.5 L 600 342.5" stroke-opacity="0.12" stroke-miterlimit="10" stroke-dasharray=""/><path fill="none" stroke="rgb(0,0,0)" class="dcg-svg-minor-gridline" paint-order="fill stroke markers" d=" M 0 313.5 L 600 313.5" stroke-opacity="0.12" stroke-miterlimit="10" stroke-dasharray=""/><path fill="none" stroke="rgb(0,0,0)" class="dcg-svg-minor-gridline" paint-order="fill stroke markers" d=" M 0 285.5 L 600 285.5" stroke-opacity="0.12" stroke-miterlimit="10" stroke-dasharray=""/><path fill="none" stroke="rgb(0,0,0)" class="dcg-svg-minor-gridline" paint-order="fill stroke markers" d=" M 0 256.5 L 600 256.5" stroke-opacity="0.12" stroke-miterlimit="10" stroke-dasharray=""/><path fill="none" stroke="rgb(0,0,0)" class="dcg-svg-minor-gridline" paint-order="fill stroke markers" d=" M 0 228.5 L 600 228.5" stroke-opacity="0.12" stroke-miterlimit="10" stroke-dasharray=""/><path fill="none" stroke="rgb(0,0,0)" class="dcg-svg-minor-gridline" paint-order="fill stroke markers" d=" M 0 170.5 L 600 170.5" stroke-opacity="0.12" stroke-miterlimit="10" stroke-dasharray=""/><path fill="none" stroke="rgb(0,0,0)" class="dcg-svg-minor-gridline" paint-order="fill stroke markers" d=" M 0 142.5 L 600 142.5" stroke-opacity="0.12" stroke-miterlimit="10" stroke-dasharray=""/><path fill="none" stroke="rgb(0,0,0)" class="dcg-svg-minor-gridline" paint-order="fill stroke markers" d=" M 0 113.5 L 600 113.5" stroke-opacity="0.12" stroke-miterlimit="10" stroke-dasharray=""/><path fill="none" stroke="rgb(0,0,0)" class="dcg-svg-minor-gridline" paint-order="fill stroke markers" d=" M 0 85.5 L 600 85.5" stroke-opacity="0.12" stroke-miterlimit="10" stroke-dasharray=""/><path fill="none" stroke="rgb(0,0,0)" class="dcg-svg-minor-gridline" paint-order="fill stroke markers" d=" M 0 56.5 L 600 56.5" stroke-opacity="0.12" stroke-miterlimit="10" stroke-dasharray=""/><path fill="none" stroke="rgb(0,0,0)" class="dcg-svg-minor-gridline" paint-order="fill stroke markers" d=" M 0 28.5 L 600 28.5" stroke-opacity="0.12" stroke-miterlimit="10" stroke-dasharray=""/><path fill="none" stroke="rgb(0,0,0)" class="dcg-svg-minor-gridline" paint-order="fill stroke markers" d=" M 0 -0.5 L 600 -0.5" stroke-opacity="0.12" stroke-miterlimit="10" stroke-dasharray=""/><path fill="none" stroke="rgb(0,0,0)" class="dcg-svg-major-gridline" paint-order="fill stroke markers" d=" M -0.5 0 L -0.5 400" stroke-opacity="0.31818181818181823" stroke-miterlimit="10" stroke-dasharray=""/><path fill="none" stroke="rgb(0,0,0)" class="dcg-svg-major-gridline" paint-order="fill stroke markers" d=" M 149.5 0 L 149.5 400" stroke-opacity="0.31818181818181823" stroke-miterlimit="10" stroke-dasharray=""/><path fill="none" stroke="rgb(0,0,0)" class="dcg-svg-major-gridline" paint-order="fill stroke markers" d=" M 449.5 0 L 449.5 400" stroke-opacity="0.31818181818181823" stroke-miterlimit="10" stroke-dasharray=""/><path fill="none" stroke="rgb(0,0,0)" class="dcg-svg-major-gridline" paint-order="fill stroke markers" d=" M 0 342.5 L 600 342.5" stroke-opacity="0.31818181818181823" stroke-miterlimit="10" stroke-dasharray=""/><path fill="none" stroke="rgb(0,0,0)" class="dcg-svg-major-gridline" paint-order="fill stroke markers" d=" M 0 56.5 L 600 56.5" stroke-opacity="0.31818181818181823" stroke-miterlimit="10" stroke-dasharray=""/></g></g><g id="axis-27d98114"><g id="yaxis-27d98114"><title>Y axis</title><path fill="none" stroke="rgb(0,0,0)" class="dcg-svg-axis-line" paint-order="fill stroke markers" d=" M 299.75 0 L 299.75 400" stroke-opacity="0.9" stroke-miterlimit="10" stroke-width="1.5" stroke-dasharray=""/></g><g id="xaxis-27d98114"><title>X axis</title><path fill="none" stroke="rgb(0,0,0)" class="dcg-svg-axis-line" paint-order="fill stroke markers" d=" M 0 199.75 L 600 199.75" stroke-opacity="0.9" stroke-miterlimit="10" stroke-width="1.5" stroke-dasharray=""/></g><g><g class="dcg-svg-axis-value"><text fill="none" stroke="#ffffff" font-family="Arial" font-size="14px" font-style="normal" font-weight="normal" text-decoration="normal" x="291.10693359375" y="215.808" text-anchor="middle" stroke-miterlimit="2" stroke-width="3" stroke-dasharray="">0</text><text fill="#000000" stroke="none" font-family="Arial" font-size="14px" font-style="normal" font-weight="normal" text-decoration="normal" x="291.10693359375" y="215.808" text-anchor="middle">0</text></g><g class="dcg-svg-axis-value dcg-svg-offcenter-axis-value"><text fill="none" stroke="#ffffff" font-family="Arial" font-size="14px" font-style="normal" font-weight="normal" text-decoration="normal" x="13.1171875" y="215.808" text-anchor="middle" stroke-miterlimit="2" stroke-width="3" stroke-dasharray="">-10</text><text fill="#000000" stroke="none" font-family="Arial" font-size="14px" font-style="normal" font-weight="normal" text-decoration="normal" x="13.1171875" y="215.808" text-anchor="middle">-10</text></g><g class="dcg-svg-axis-value"><text fill="none" stroke="#ffffff" font-family="Arial" font-size="14px" font-style="normal" font-weight="normal" text-decoration="normal" x="147.6689453125" y="215.808" text-anchor="middle" stroke-miterlimit="2" stroke-width="3" stroke-dasharray="">-5</text><text fill="#000000" stroke="none" font-family="Arial" font-size="14px" font-style="normal" font-weight="normal" text-decoration="normal" x="147.6689453125" y="215.808" text-anchor="middle">-5</text></g><g class="dcg-svg-axis-value"><text fill="none" stroke="#ffffff" font-family="Arial" font-size="14px" font-style="normal" font-weight="normal" text-decoration="normal" x="450" y="215.808" text-anchor="middle" stroke-miterlimit="2" stroke-width="3" stroke-dasharray="">5</text><text fill="#000000" stroke="none" font-family="Arial" font-size="14px" font-style="normal" font-weight="normal" text-decoration="normal" x="450" y="215.808" text-anchor="middle">5</text></g><g class="dcg-svg-axis-value dcg-svg-offcenter-axis-value"><text fill="none" stroke="#ffffff" font-family="Arial" font-size="14px" font-style="normal" font-weight="normal" text-decoration="normal" x="589.2138671875" y="215.808" text-anchor="middle" stroke-miterlimit="2" stroke-width="3" stroke-dasharray="">10</text><text fill="#000000" stroke="none" font-family="Arial" font-size="14px" font-style="normal" font-weight="normal" text-decoration="normal" x="589.2138671875" y="215.808" text-anchor="middle">10</text></g><g class="dcg-svg-axis-value"><text fill="none" stroke="#ffffff" font-family="Arial" font-size="14px" font-style="normal" font-weight="normal" text-decoration="normal" x="288.77587890625" y="346.6651428571428" text-anchor="middle" stroke-miterlimit="2" stroke-width="3" stroke-dasharray="">-5</text><text fill="#000000" stroke="none" font-family="Arial" font-size="14px" font-style="normal" font-weight="normal" text-decoration="normal" x="288.77587890625" y="346.6651428571428" text-anchor="middle">-5</text></g><g class="dcg-svg-axis-value"><text fill="none" stroke="#ffffff" font-family="Arial" font-size="14px" font-style="normal" font-weight="normal" text-decoration="normal" x="291.10693359375" y="60.95085714285717" text-anchor="middle" stroke-miterlimit="2" stroke-width="3" stroke-dasharray="">5</text><text fill="#000000" stroke="none" font-family="Arial" font-size="14px" font-style="normal" font-weight="normal" text-decoration="normal" x="291.10693359375" y="60.95085714285717" text-anchor="middle">5</text></g></g></g></g><g id="expressions-27d98114"><g id="sketch-27d98114"><title>Expression 1</title><path fill="#2d70b3" stroke="none" paint-order="stroke fill markers" d="" fill-opacity="0.4"/><path fill="#2d70b3" stroke="none" class="dcg-svg-region" paint-order="stroke fill markers" d=" M 329.57221048489276 -3 L 329.5132751464844 170.70208740234372 L 329.9149394132653 170.92857142857144 L 359.48539195093747 170.93557380062495 L 359.5248016414424 184.9717468223717 L 360.4793526785714 185.2142857142857 L 389.4780870052193 185.21773366318712 L 389.55793035030365 189.83203125 L 390.6830357142857 189.97619047619048 L 419.470703125 189.97619047619048 L 419.6381138392857 192.35714285714283 L 449.46981620788574 192.46875 L 449.48133186002417 193.55541417665054 L 449.79296875 193.78571428571428 L 479.45618277475063 193.78719476650042 L 479.5560673308764 194.7074354060462 L 479.3736572265625 194.720947265625 L 479.3736572265625 194.720947265625 L 477.478515625 194.666015625 L 473.029052734375 194.55615234375 L 472.8642578125 194.4462890625 L 471.9578857421875 194.5286865234375 L 470.88671875 194.4462890625 L 470.55712890625 194.4462890625 L 465.61328125 194.33642578125 L 465.5308837890625 194.281494140625 L 463.6357421875 194.2265625 L 458.856689453125 194.11669921875 L 456.384765625 194.0068359375 L 453.253662109375 193.89697265625 L 451.8529052734375 193.842041015625 L 449.2161865234375 193.732177734375 L 447.0738525390625 193.69097900390625 L 446.2498779296875 193.622314453125 L 445.673095703125 193.622314453125 L 444.18994140625 193.5673828125 L 443.8603515625 193.45751953125 L 442.9539794921875 193.512451171875 L 441.2236328125 193.34765625 L 439.9052734375 193.34765625 L 436.444580078125 193.23779296875 L 435.9501953125 193.1279296875 L 434.96142578125 193.1279296875 L 431.830322265625 193.01806640625 L 431.3359375 192.908203125 L 430.017578125 192.908203125 L 429.2760009765625 192.853271484375 L 429.2760009765625 192.89447021484375 L 428.0400390625 192.79833984375 L 425.4033203125 192.6884765625 L 423.590576171875 192.57861328125 L 421.4482421875 192.46875 L 416.833984375 192.13916015625 L 414.8564453125 192.029296875 L 403.0736083984375 191.205322265625 L 402.9088134765625 191.205322265625 L 383.4630126953125 189.227783203125 L 382.9686279296875 189.227783203125 L 382.556640625 189.1728515625 L 382.556640625 189.1728515625 L 381.23828125 188.953125 L 380.084716796875 188.84326171875 L 379.919921875 188.7333984375 L 379.6727294921875 188.788330078125 L 371.4329833984375 187.579833984375 L 371.185791015625 187.52490234375 L 369.208251953125 187.1953125 L 363.8524169921875 186.151611328125 L 363.4404296875 185.98681640625 L 363.1932373046875 186.041748046875 L 362.45166015625 185.876953125 L 356.9310302734375 184.55859375 L 354.54150390625 183.8994140625 L 353.717529296875 183.6796875 L 353.717529296875 183.6796875 L 353.387939453125 183.56982421875 L 352.728759765625 183.35009765625 L 352.234375 183.240234375 L 352.234375 183.240234375 L 350.8336181640625 182.80078125 L 345.97216796875 181.04296875 L 345.642578125 180.8232421875 L 344.9833984375 180.603515625 L 343.33544921875 179.9443359375 L 342.5938720703125 179.559814453125 L 340.2867431640625 178.461181640625 L 338.885986328125 177.63720703125 L 338.1444091796875 177.252685546875 L 336.74365234375 176.4287109375 L 332.458984375 173.46240234375 L 332.0469970703125 173.1328125 L 329.5132751464844 170.92181396484372 L 329.4102783203125 170.77075195312497 L 329.4102783203125 170.77075195312497 L 328.2567138671875 169.61718749999997 L 327.8447265625 169.17773437499997 L 327.8447265625 169.17773437499997 L 327.4327392578125 168.73828124999997 L 326.361572265625 167.52978515624997 L 324.9608154296875 165.82690429687497 L 324.548828125 165.22265624999997 L 324.548828125 165.22265624999997 L 324.4664306640625 165.16772460937497 L 320.8409423828125 159.23510742187497 L 318.2042236328125 153.63208007812497 L 316.638671875 149.40234374999997 L 315.814697265625 146.76562499999997 L 314.001953125 140.39355468749994 L 313.8423080444336 139.73437499999994 L 313.9195556640625 139.73437499999994 L 313.7547607421875 139.29492187499994 L 313.67236328125 138.85546874999994 L 313.177978515625 136.76806640624994 L 313.0955810546875 136.21874999999994 L 312.848388671875 135.22998046874994 L 312.68359375 134.46093749999994 L 312.68359375 134.46093749999994 L 311.1180419921875 125.50708007812494 L 311.03564453125 124.79296874999994 L 310.7884521484375 123.47460937499994 L 310.7060546875 122.59570312499994 L 310.2940673828125 119.68432617187494 L 310.211669921875 119.08007812499994 L 309.9644775390625 117.32226562499994 L 309.882080078125 116.44335937499994 L 309.71728515625 115.56445312499994 L 309.5730895996094 114.13623046874994 L 307.1629638671875 86.99999999999994 L 307.08056640625 85.24218749999994 L 306.9981689453125 84.967529296875 L 306.915771484375 82.93505859375 L 306.79217529296875 81.9462890625 L 306.8333740234375 81.7265625 L 306.7509765625 81.287109375 L 306.7509765625 81.287109375 L 306.6685791015625 78.595458984375 L 306.586181640625 77.66162109375 L 306.5037841796875 75.848876953125 L 306.42138671875 75.134765625 L 306.3389892578125 72.772705078125 L 306.256591796875 72.05859375 L 306.1741943359375 70.245849609375 L 306.091796875 69.421875 L 306.091796875 69.421875 L 306.0093994140625 66.345703125 L 305.927001953125 65.466796875 L 305.8446044921875 62.830078125 L 305.76220703125 62.1708984375 L 305.6798095703125 59.149658203125 L 305.597412109375 58.435546875 L 305.5150146484375 55.359375 L 305.4326171875 54.919921875 L 305.4326171875 54.919921875 L 305.3502197265625 50.96484375 L 305.267822265625 50.0859375 L 305.1854248046875 46.5703125 L 305.10302734375 45.9111328125 L 305.0206298828125 42.010986328125 L 304.938232421875 41.296875 L 304.8558349609375 37.726318359375 L 304.7734375 36.90234375 L 304.7734375 36.90234375 L 304.6910400390625 31.683837890625 L 304.608642578125 31.51904296875 L 304.5262451171875 26.190673828125 L 304.44384765625 25.4765625 L 304.2996520996094 20.09326171875 L 304.23785400390625 18.33544921875 L 304.279052734375 17.56640625 L 304.279052734375 17.126953125 L 304.1966552734375 14.05078125 L 304.1142578125 13.611328125 L 304.1142578125 13.611328125 L 304.0318603515625 7.01953125 L 303.949462890625 6.140625 L 303.8670654296875 -0.451171875 L 303.78466796875 -1.1103515625 L 303.7631946910511 -3 M 603 196.66151736674027 L 598.767578125 196.6160888671875 L 598.3555908203125 196.588623046875 L 598.3555908203125 196.588623046875 L 598.2422943115234 196.62295532226562 L 577.742420014881 196.32539682539684 L 598.767578125 196.32539682539684 L 600.0859375 196.64285714285714 L 603 196.64285714285714 M 575.5486421130953 196.32539682539684 L 576.2011369977678 196.32539682539684 L 575.1571451822916 196.32539682539684 L 575.5486421130953 196.32539682539684 M 574.2955322265625 196.368896484375 L 573.8387858072916 196.32539682539684 L 574.8827776227678 196.32539682539684 L 574.2955322265625 196.368896484375 M 576.9322509765625 196.368896484375 L 576.4755045572916 196.32539682539684 L 577.5194963727679 196.32539682539684 L 576.9322509765625 196.368896484375 M 569.269287109375 196.31396484375 L 562.18310546875 196.2041015625 L 561.1943359375 196.2041015625 L 551.306640625 196.09423828125 L 551.2242431640625 196.039306640625 L 549.3291015625 195.984375 L 547.4339599609375 196.039306640625 L 547.2691650390625 196.039306640625 L 545.3740234375 195.984375 L 542.1592145647321 195.92857142857142 L 569.4456691741943 195.984375 L 569.5129188597202 196.31396484375 L 569.269287109375 196.31396484375 M 535.9556760204082 195.41836734693877 L 539.44140625 195.41836734693877 L 540.6786760602679 195.92857142857142 L 540.4456253051758 195.9397430419922 L 537.958251953125 195.87451171875 L 537.8140563964844 195.88824462890625 L 523.126708984375 195.65478515625 L 521.7259521484375 195.599853515625 L 519.666015625 195.544921875 L 510.4375 195.41836734693877 L 535.9556760204082 195.41836734693877 M 541.9944196428571 195.92857142857142 L 541.9970354352679 195.92857142857142 L 541.7073364257812 195.9569091796875 L 541.4549942016602 195.95347595214844 L 541.9944196428571 195.92857142857142 M 504.3967633928572 194.7380952380952 L 509.119140625 194.7380952380952 L 509.46527790033605 194.87471056644264 L 509.52608921635345 195.37676781090232 L 508.954345703125 195.380126953125 L 504.83447265625 195.3251953125 L 504.5048828125 195.21533203125 L 503.5985107421875 195.270263671875 L 502.52734375 195.21533203125 L 502.2801513671875 195.270263671875 L 501.044189453125 195.21533203125 L 494.6171875 195.10546875 L 488.025390625 194.8857421875 L 487.7781982421875 194.940673828125 L 487.7781982421875 194.940673828125 L 482.257568359375 194.77587890625 L 481.20689174107144 194.7380952380952 L 504.3967633928572 194.7380952380952 M -3 202.12877871717893 L -0.4966830015183028 202.13671875 L -1.0859375 202.34271240234375 L -3 202.24966769748264 M 8.47321428571427 202.35714285714283 L 9.449428013392865 202.35714285714283 L 8.147809709821459 202.35714285714283 L 8.47321428571427 202.35714285714283 M 7.2362060546875 202.411376953125 L 6.829450334821459 202.35714285714283 L 8.131068638392865 202.35714285714283 L 7.2362060546875 202.411376953125 M 5.836495535714324 202.35714285714283 L 6.812709263392865 202.35714285714283 L 5.511090959821459 202.35714285714283 L 5.836495535714324 202.35714285714283 M 5.0938720703125 202.411376953125 L 4.199009486607135 202.35714285714283 L 5.500627790178594 202.35714285714283 L 5.0938720703125 202.411376953125 M 13.74665178571427 202.35714285714283 L 29.236328125 202.35714285714283 L 29.540369927883148 202.576171875 L 10.779296875 202.46630859375 L 9.466169084821459 202.35714285714283 L 13.74665178571427 202.35714285714283 M 35.3165922619048 202.67460317460316 L 58.8994140625 202.67460317460316 L 59.548415551951535 203.02241046536562 L 59.4761962890625 203.070556640625 L 59.4761962890625 203.070556640625 L 55.088531494140625 203.00189208984375 L 48.846923828125 202.90576171875 L 47.343170166015625 202.89202880859375 L 38.46484375 202.7684326171875 L 38.0528564453125 202.740966796875 L 38.0528564453125 202.740966796875 L 37.93955993652344 202.77529907226562 L 36.7344970703125 202.740966796875 L 34.015380859375 202.68603515625 L 33.912384033203125 202.72723388671875 L 31.378662109375 202.68603515625 L 30.486095610119033 202.67460317460316 L 35.3165922619048 202.67460317460316 M 63.59737723214283 203.07142857142856 L 89.23842075892857 203.07142857142856 L 89.5060273706913 203.56494140625 L 83.2890625 203.455078125 L 82.5474853515625 203.400146484375 L 82.5474853515625 203.400146484375 L 79.9107666015625 203.400146484375 L 78.015625 203.34521484375 L 70.10546875 203.2353515625 L 66.150390625 203.12548828125 L 62.78124999999997 203.07142857142856 L 63.59737723214283 203.07142857142856 M 96.00330835459184 203.58163265306123 L 119.35411352040816 203.58163265306123 L 119.49944746494293 203.89453125 L 119.379150390625 204.22412109375 L 117.1544189453125 204.169189453125 L 116.6600341796875 204.169189453125 L 113.3641357421875 204.059326171875 L 112.29296875 204.00439453125 L 112.0457763671875 204.059326171875 L 110.809814453125 204.00439453125 L 104.4652099609375 203.89453125 L 104.3828125 203.78466796875 L 104.3004150390625 203.839599609375 L 103.60518646240234 203.87049865722656 L 102.67306518554688 203.85333251953125 L 100.262939453125 203.78466796875 L 100.11874389648438 203.79840087890625 L 98.72828674316406 203.75033569335938 L 96.47265625 203.6748046875 L 93.98615872130104 203.58163265306123 L 96.00330835459184 203.58163265306123 M 93.36658960459184 203.58163265306123 L 93.71075314891583 203.58163265306123 L 92.79298369738518 203.58163265306123 L 93.36658960459184 203.58163265306123 M 92.1055908203125 203.619873046875 L 91.47462432238518 203.58163265306123 L 92.39239377391583 203.58163265306123 L 92.1055908203125 203.619873046875 M 127.34598214285714 204.26190476190476 L 149.46045976877213 204.333984375 L 149.53167655722643 205.1571348949544 L 147.6414794921875 205.14422607421875 L 147.064697265625 205.10302734375 L 143.60400390625 204.9931640625 L 143.2744140625 204.88330078125 L 142.3680419921875 204.938232421875 L 141.132080078125 204.88330078125 L 137.01220703125 204.7734375 L 132.068359375 204.5537109375 L 131.8211669921875 204.608642578125 L 131.8211669921875 204.608642578125 L 125.4765625 204.333984375 L 124.158203125 204.333984375 L 121.91821289062499 204.26190476190476 L 127.34598214285714 204.26190476190476 M 120.7799072265625 204.279052734375 L 120.59985351562499 204.26190476190476 L 121.01140485491072 204.26190476190476 L 120.7799072265625 204.279052734375 M 151.18666294642856 205.2142857142857 L 151.8291015625 205.2142857142857 L 151.2669677734375 205.267822265625 L 151.2669677734375 205.267822265625 L 150.54422433035714 205.2142857142857 L 151.18666294642856 205.2142857142857 M 161.72935267857144 205.2142857142857 L 178.87011718750003 205.2142857142857 L 179.47428129040793 205.68902080639472 L 179.52919226986995 206.64104354449663 L 179.4468994140625 206.586181640625 L 179.4468994140625 206.586181640625 L 167.2520751953125 205.927001953125 L 166.7576904296875 205.927001953125 L 164.7801513671875 205.817138671875 L 163.708984375 205.76220703125 L 163.544189453125 205.76220703125 L 160.248291015625 205.65234375 L 158.435546875 205.54248046875 L 155.46923828125 205.4326171875 L 151.85421316964286 205.2142857142857 L 161.72935267857144 205.2142857142857 M 184.9701450892857 206.64285714285714 L 209.1923828125 206.64285714285714 L 209.4509209394455 206.970703125 L 209.57577332273905 208.4729219515073 L 210.00900829081633 209.0238095238095 L 239.07170758928572 209.0238095238095 L 239.43474543094635 209.16796875 L 239.51078605651855 213.5625 L 239.83900669642858 213.78571428571428 L 269.177734375 213.78571428571428 L 269.4261739850044 214.001953125 L 269.5063306123225 227.89916139991124 L 269.0953369140625 227.625 L 268.6627502441406 227.29541015625 L 268.683349609375 227.29541015625 L 268.024169921875 226.63623046875 L 266.7882080078125 225.702392578125 L 266.21142578125 225.2080078125 L 259.5372314453125 220.868408203125 L 258.0540771484375 220.099365234375 L 257.3125 219.71484375 L 257.147705078125 219.71484375 L 254.0166015625 218.28662109375 L 253.1102294921875 217.95703125 L 249.896728515625 216.74853515625 L 240.173828125 213.89208984375 L 239.7618408203125 213.837158203125 L 239.7618408203125 213.837158203125 L 238.85546875 213.5625 L 238.85546875 213.5625 L 238.6082763671875 213.5625 L 236.8779296875 213.123046875 L 232.9228515625 212.35400390625 L 232.8404541015625 212.299072265625 L 231.769287109375 212.13427734375 L 231.6044921875 212.0244140625 L 230.780517578125 211.91455078125 L 228.63818359375 211.5849609375 L 227.6494140625 211.365234375 L 221.716796875 210.486328125 L 220.72802734375 210.37646484375 L 219.7392578125 210.15673828125 L 218.256103515625 210.046875 L 209.8515625 209.05810546875 L 199.9638671875 208.0693359375 L 198.480712890625 207.95947265625 L 197.986328125 207.849609375 L 195.67919921875 207.73974609375 L 185.4619140625 206.970703125 L 183.484375 206.86083984375 L 180.85550362723214 206.64285714285714 L 184.9701450892857 206.64285714285714 M 180.25474330357142 206.64285714285714 L 180.83980887276786 206.64285714285714 L 180.6004638671875 206.696044921875 L 179.56330217633928 206.64285714285714 L 180.25474330357142 206.64285714285714 M 270.001708984375 228.50390625 L 269.8395298549107 228.07142857142856 L 299.4794006347656 228.16058349609375 L 299.4176025390625 228.943359375 L 299.4176025390625 283.820068359375 L 288.953125 280.68896484375 L 288.3763427734375 276.459228515625 L 287.3875732421875 269.8125 L 285.98681640625 262.78125 L 284.3388671875 255.75 L 282.1141357421875 248.71874999999997 L 278.40625 239.9296875 L 278.241455078125 239.81982421875 L 276.593505859375 236.74365234375 L 276.1815185546875 236.139404296875 L 275.76953125 235.53515625 L 275.76953125 235.53515625 L 275.6871337890625 235.480224609375 L 273.5447998046875 232.458984375 L 270.001708984375 228.50390625" fill-opacity="0.4"/><g><path fill="none" stroke="#2d70b3" class="dcg-svg-curve" paint-order="fill stroke markers" d=" M 329.822265625 170.92857142857144 L 340.822265323186 170.93114823034685 M 347.82226513112255 170.93278801329484 L 358.8222648293086 170.93536481507022" stroke-linecap="round" stroke-linejoin="round" stroke-miterlimit="10" stroke-width="2.5" stroke-opacity="0.9" stroke-dasharray=""/></g><g><path fill="none" stroke="#2d70b3" class="dcg-svg-curve" paint-order="fill stroke markers" d=" M 359.50313460826874 174.01171875 L 359.5055914689989 174.43767860400072" stroke-linecap="round" stroke-linejoin="round" stroke-miterlimit="10" stroke-width="2.5" stroke-opacity="0.9" stroke-dasharray=""/></g><g><path fill="none" stroke="#2d70b3" class="dcg-svg-curve" paint-order="fill stroke markers" d=" M 359.51064142586796 175.31321821608805 L 359.51073867082596 175.330078125" stroke-linecap="round" stroke-linejoin="round" stroke-miterlimit="10" stroke-width="2.5" stroke-opacity="0.9" stroke-dasharray=""/></g><g><path fill="none" stroke="#2d70b3" class="dcg-svg-curve" paint-order="fill stroke markers" d=" M 359.51327335834503 175.76953125 L 359.5156913827369 176.18875782817534" stroke-linecap="round" stroke-linejoin="round" stroke-miterlimit="10" stroke-width="2.5" stroke-opacity="0.9" stroke-dasharray=""/></g><g><path fill="none" stroke="#2d70b3" class="dcg-svg-curve" paint-order="fill stroke markers" d=" M 359.520741339606 177.06429744026266 L 359.52087742090225 177.087890625" stroke-linecap="round" stroke-linejoin="round" stroke-miterlimit="10" stroke-width="2.5" stroke-opacity="0.9" stroke-dasharray=""/></g><g><path fill="none" stroke="#2d70b3" class="dcg-svg-curve" paint-order="fill stroke markers" d=" M 359.5308412533441 178.81537666443728 L 359.53101617097855 178.845703125" stroke-linecap="round" stroke-linejoin="round" stroke-miterlimit="10" stroke-width="2.5" stroke-opacity="0.9" stroke-dasharray=""/></g><g><path fill="none" stroke="#2d70b3" class="dcg-svg-curve" paint-order="fill stroke markers" d=" M 359.5335508584976 179.28515625 L 359.53589121021315 179.69091627652458" stroke-linecap="round" stroke-linejoin="round" stroke-miterlimit="10" stroke-width="2.5" stroke-opacity="0.9" stroke-dasharray=""/></g><g><path fill="none" stroke="#2d70b3" class="dcg-svg-curve" paint-order="fill stroke markers" d=" M 359.5248016414424 184.9717468223717 L 360.4793526785714 185.2142857142857 M 360.4793526785714 185.2142857142857 L 370.49447048459075 185.21547651158215 M 377.49447043511054 185.21630881142903 L 388.4944703573559 185.21761671118838" stroke-linecap="round" stroke-linejoin="round" stroke-miterlimit="10" stroke-width="2.5" stroke-opacity="0.9" stroke-dasharray=""/></g><g><path fill="none" stroke="#2d70b3" class="dcg-svg-curve" paint-order="fill stroke markers" d=" M 389.48949378728867 185.876953125 L 389.49312169549114 186.08661678633922" stroke-linecap="round" stroke-linejoin="round" stroke-miterlimit="10" stroke-width="2.5" stroke-opacity="0.9" stroke-dasharray=""/></g><g><path fill="none" stroke="#2d70b3" class="dcg-svg-curve" paint-order="fill stroke markers" d=" M 389.5047019124031 186.755859375 L 389.50815638576296 186.95549990949132" stroke-linecap="round" stroke-linejoin="round" stroke-miterlimit="10" stroke-width="2.5" stroke-opacity="0.9" stroke-dasharray=""/></g><g><path fill="none" stroke="#2d70b3" class="dcg-svg-curve" paint-order="fill stroke markers" d=" M 389.51991003751755 187.634765625 L 389.5231910760348 187.82438303264345" stroke-linecap="round" stroke-linejoin="round" stroke-miterlimit="10" stroke-width="2.5" stroke-opacity="0.9" stroke-dasharray=""/></g><g><path fill="none" stroke="#2d70b3" class="dcg-svg-curve" paint-order="fill stroke markers" d=" M 390.16801525297615 189.97619047619048 L 401.16801525297615 189.97619047619048 M 408.16801525297615 189.97619047619048 L 419.16801525297615 189.97619047619048" stroke-linecap="round" stroke-linejoin="round" stroke-miterlimit="10" stroke-width="2.5" stroke-opacity="0.9" stroke-dasharray=""/></g><g><path fill="none" stroke="#2d70b3" class="dcg-svg-curve" paint-order="fill stroke markers" d=" M 419.4955570542745 190.69436821381697 L 419.4961304664612 190.7109375" stroke-linecap="round" stroke-linejoin="round" stroke-miterlimit="10" stroke-width="2.5" stroke-opacity="0.9" stroke-dasharray=""/></g><g><path fill="none" stroke="#2d70b3" class="dcg-svg-curve" paint-order="fill stroke markers" d=" M 419.6366191007653 192.35714285714283 L 430.6366191007653 192.35714285714283 M 437.6366191007653 192.35714285714283 L 448.6366191007653 192.35714285714283" stroke-linecap="round" stroke-linejoin="round" stroke-miterlimit="10" stroke-width="2.5" stroke-opacity="0.9" stroke-dasharray=""/></g><g><path fill="none" stroke="#2d70b3" class="dcg-svg-curve" paint-order="fill stroke markers" d=" M 449.48133186002417 193.55541417665054 L 449.79296875 193.78571428571428 M 449.79296875 193.78571428571428 L 460.40546946024625 193.78618618375316 M 467.40546945332585 193.78649744745613 L 478.405469442451 193.78698657613222" stroke-linecap="round" stroke-linejoin="round" stroke-miterlimit="10" stroke-width="2.5" stroke-opacity="0.9" stroke-dasharray=""/></g><g><path fill="none" stroke="#2d70b3" class="dcg-svg-curve" paint-order="fill stroke markers" d=" M 479.5461873335372 194.60592719430852 L 479.5560673308764 194.7074354060462" stroke-linecap="round" stroke-linejoin="round" stroke-miterlimit="10" stroke-width="2.5" stroke-opacity="0.9" stroke-dasharray=""/></g><g><path fill="none" stroke="#2d70b3" class="dcg-svg-curve" paint-order="fill stroke markers" d=" M 577.742420014881 196.32539682539684 L 588.742420014881 196.32539682539684 M 595.742420014881 196.32539682539684 L 598.767578125 196.32539682539684 M 598.767578125 196.32539682539684 L 600.0859375 196.64285714285714 M 600.0859375 196.64285714285714 L 605.5 196.64285714285714" stroke-linecap="round" stroke-linejoin="round" stroke-miterlimit="10" stroke-width="2.5" stroke-opacity="0.9" stroke-dasharray=""/></g><g><path fill="none" stroke="#2d70b3" class="dcg-svg-curve" paint-order="fill stroke markers" d=" M 575.5486421130953 196.32539682539684 L 576.2011369977678 196.32539682539684" stroke-linecap="round" stroke-linejoin="round" stroke-miterlimit="10" stroke-width="2.5" stroke-opacity="0.9" stroke-dasharray=""/></g><g><path fill="none" stroke="#2d70b3" class="dcg-svg-curve" paint-order="fill stroke markers" d=" M 575.1571451822916 196.32539682539684 L 575.5486421130953 196.32539682539684" stroke-linecap="round" stroke-linejoin="round" stroke-miterlimit="10" stroke-width="2.5" stroke-opacity="0.9" stroke-dasharray=""/></g><g><path fill="none" stroke="#2d70b3" class="dcg-svg-curve" paint-order="fill stroke markers" d=" M 573.8387858072916 196.32539682539684 L 574.8827776227678 196.32539682539684" stroke-linecap="round" stroke-linejoin="round" stroke-miterlimit="10" stroke-width="2.5" stroke-opacity="0.9" stroke-dasharray=""/></g><g><path fill="none" stroke="#2d70b3" class="dcg-svg-curve" paint-order="fill stroke markers" d=" M 576.4755045572916 196.32539682539684 L 577.5194963727679 196.32539682539684" stroke-linecap="round" stroke-linejoin="round" stroke-miterlimit="10" stroke-width="2.5" stroke-opacity="0.9" stroke-dasharray=""/></g><g><path fill="none" stroke="#2d70b3" class="dcg-svg-curve" paint-order="fill stroke markers" d=" M 542.1592145647321 195.92857142857142 L 553.1592145647321 195.92857142857142 M 560.1592145647321 195.92857142857142 L 569.1044921875 195.92857142857142" stroke-linecap="round" stroke-linejoin="round" stroke-miterlimit="10" stroke-width="2.5" stroke-opacity="0.9" stroke-dasharray=""/></g><g><path fill="none" stroke="#2d70b3" class="dcg-svg-curve" paint-order="fill stroke markers" d=" M 535.9556760204082 195.41836734693877 L 539.44140625 195.41836734693877 M 539.44140625 195.41836734693877 L 540.6786760602679 195.92857142857142" stroke-linecap="round" stroke-linejoin="round" stroke-miterlimit="10" stroke-width="2.5" stroke-opacity="0.9" stroke-dasharray=""/></g><g><path fill="none" stroke="#2d70b3" class="dcg-svg-curve" paint-order="fill stroke markers" d=" M 510.4375 195.41836734693877 L 521.4375 195.41836734693877 M 528.4375 195.41836734693877 L 535.9556760204082 195.41836734693877" stroke-linecap="round" stroke-linejoin="round" stroke-miterlimit="10" stroke-width="2.5" stroke-opacity="0.9" stroke-dasharray=""/></g><g><path fill="none" stroke="#2d70b3" class="dcg-svg-curve" paint-order="fill stroke markers" d=" M 541.9944196428571 195.92857142857142 L 541.9970354352679 195.92857142857142" stroke-linecap="round" stroke-linejoin="round" stroke-miterlimit="10" stroke-width="2.5" stroke-opacity="0.9" stroke-dasharray=""/></g><g><path fill="none" stroke="#2d70b3" class="dcg-svg-curve" paint-order="fill stroke markers" d=" M 541.9761090959822 195.92857142857142 L 541.9944196428571 195.92857142857142" stroke-linecap="round" stroke-linejoin="round" stroke-miterlimit="10" stroke-width="2.5" stroke-opacity="0.9" stroke-dasharray=""/></g><g><path fill="none" stroke="#2d70b3" class="dcg-svg-curve" paint-order="fill stroke markers" d=" M 504.3967633928572 194.7380952380952 L 509.119140625 194.7380952380952 M 509.119140625 194.7380952380952 L 509.46527790033605 194.87471056644264" stroke-linecap="round" stroke-linejoin="round" stroke-miterlimit="10" stroke-width="2.5" stroke-opacity="0.9" stroke-dasharray=""/></g><g><path fill="none" stroke="#2d70b3" class="dcg-svg-curve" paint-order="fill stroke markers" d=" M 481.20689174107144 194.7380952380952 L 492.20689174107144 194.7380952380952 M 499.20689174107144 194.7380952380952 L 504.3967633928572 194.7380952380952" stroke-linecap="round" stroke-linejoin="round" stroke-miterlimit="10" stroke-width="2.5" stroke-opacity="0.9" stroke-dasharray=""/></g><g><path fill="none" stroke="#2d70b3" class="dcg-svg-curve" paint-order="fill stroke markers" d=" M -5.5 202.09740259740258 L -1.0269632711038774 202.09740259740258" stroke-linecap="round" stroke-linejoin="round" stroke-miterlimit="10" stroke-width="2.5" stroke-opacity="0.9" stroke-dasharray=""/></g><g><path fill="none" stroke="#2d70b3" class="dcg-svg-curve" paint-order="fill stroke markers" d=" M 8.47321428571427 202.35714285714283 L 9.449428013392865 202.35714285714283" stroke-linecap="round" stroke-linejoin="round" stroke-miterlimit="10" stroke-width="2.5" stroke-opacity="0.9" stroke-dasharray=""/></g><g><path fill="none" stroke="#2d70b3" class="dcg-svg-curve" paint-order="fill stroke markers" d=" M 8.147809709821459 202.35714285714283 L 8.47321428571427 202.35714285714283" stroke-linecap="round" stroke-linejoin="round" stroke-miterlimit="10" stroke-width="2.5" stroke-opacity="0.9" stroke-dasharray=""/></g><g><path fill="none" stroke="#2d70b3" class="dcg-svg-curve" paint-order="fill stroke markers" d=" M 6.829450334821459 202.35714285714283 L 8.131068638392865 202.35714285714283" stroke-linecap="round" stroke-linejoin="round" stroke-miterlimit="10" stroke-width="2.5" stroke-opacity="0.9" stroke-dasharray=""/></g><g><path fill="none" stroke="#2d70b3" class="dcg-svg-curve" paint-order="fill stroke markers" d=" M 5.836495535714324 202.35714285714283 L 6.812709263392865 202.35714285714283" stroke-linecap="round" stroke-linejoin="round" stroke-miterlimit="10" stroke-width="2.5" stroke-opacity="0.9" stroke-dasharray=""/></g><g><path fill="none" stroke="#2d70b3" class="dcg-svg-curve" paint-order="fill stroke markers" d=" M 5.511090959821459 202.35714285714283 L 5.836495535714324 202.35714285714283" stroke-linecap="round" stroke-linejoin="round" stroke-miterlimit="10" stroke-width="2.5" stroke-opacity="0.9" stroke-dasharray=""/></g><g><path fill="none" stroke="#2d70b3" class="dcg-svg-curve" paint-order="fill stroke markers" d=" M 4.199009486607135 202.35714285714283 L 5.500627790178594 202.35714285714283" stroke-linecap="round" stroke-linejoin="round" stroke-miterlimit="10" stroke-width="2.5" stroke-opacity="0.9" stroke-dasharray=""/></g><g><path fill="none" stroke="#2d70b3" class="dcg-svg-curve" paint-order="fill stroke markers" d=" M 13.74665178571427 202.35714285714283 L 24.74665178571427 202.35714285714283" stroke-linecap="round" stroke-linejoin="round" stroke-miterlimit="10" stroke-width="2.5" stroke-opacity="0.9" stroke-dasharray=""/></g><g><path fill="none" stroke="#2d70b3" class="dcg-svg-curve" paint-order="fill stroke markers" d=" M 9.466169084821459 202.35714285714283 L 13.74665178571427 202.35714285714283" stroke-linecap="round" stroke-linejoin="round" stroke-miterlimit="10" stroke-width="2.5" stroke-opacity="0.9" stroke-dasharray=""/></g><g><path fill="none" stroke="#2d70b3" class="dcg-svg-curve" paint-order="fill stroke markers" d=" M 35.3165922619048 202.67460317460316 L 46.3165922619048 202.67460317460316 M 53.3165922619048 202.67460317460316 L 58.8994140625 202.67460317460316" stroke-linecap="round" stroke-linejoin="round" stroke-miterlimit="10" stroke-width="2.5" stroke-opacity="0.9" stroke-dasharray=""/></g><g><path fill="none" stroke="#2d70b3" class="dcg-svg-curve" paint-order="fill stroke markers" d=" M 30.486095610119033 202.67460317460316 L 35.3165922619048 202.67460317460316" stroke-linecap="round" stroke-linejoin="round" stroke-miterlimit="10" stroke-width="2.5" stroke-opacity="0.9" stroke-dasharray=""/></g><g><path fill="none" stroke="#2d70b3" class="dcg-svg-curve" paint-order="fill stroke markers" d=" M 63.59737723214283 203.07142857142856 L 74.59737723214283 203.07142857142856 M 81.59737723214283 203.07142857142856 L 89.23842075892857 203.07142857142856 M 89.23842075892857 203.07142857142856 L 89.5060273706913 203.56494140625" stroke-linecap="round" stroke-linejoin="round" stroke-miterlimit="10" stroke-width="2.5" stroke-opacity="0.9" stroke-dasharray=""/></g><g><path fill="none" stroke="#2d70b3" class="dcg-svg-curve" paint-order="fill stroke markers" d=" M 62.78124999999997 203.07142857142856 L 63.59737723214283 203.07142857142856" stroke-linecap="round" stroke-linejoin="round" stroke-miterlimit="10" stroke-width="2.5" stroke-opacity="0.9" stroke-dasharray=""/></g><g><path fill="none" stroke="#2d70b3" class="dcg-svg-curve" paint-order="fill stroke markers" d=" M 96.00330835459184 203.58163265306123 L 107.00330835459184 203.58163265306123 M 114.00330835459184 203.58163265306123 L 119.35411352040816 203.58163265306123" stroke-linecap="round" stroke-linejoin="round" stroke-miterlimit="10" stroke-width="2.5" stroke-opacity="0.9" stroke-dasharray=""/></g><g><path fill="none" stroke="#2d70b3" class="dcg-svg-curve" paint-order="fill stroke markers" d=" M 93.98615872130104 203.58163265306123 L 96.00330835459184 203.58163265306123" stroke-linecap="round" stroke-linejoin="round" stroke-miterlimit="10" stroke-width="2.5" stroke-opacity="0.9" stroke-dasharray=""/></g><g><path fill="none" stroke="#2d70b3" class="dcg-svg-curve" paint-order="fill stroke markers" d=" M 93.36658960459184 203.58163265306123 L 93.71075314891583 203.58163265306123" stroke-linecap="round" stroke-linejoin="round" stroke-miterlimit="10" stroke-width="2.5" stroke-opacity="0.9" stroke-dasharray=""/></g><g><path fill="none" stroke="#2d70b3" class="dcg-svg-curve" paint-order="fill stroke markers" d=" M 92.79298369738518 203.58163265306123 L 93.36658960459184 203.58163265306123" stroke-linecap="round" stroke-linejoin="round" stroke-miterlimit="10" stroke-width="2.5" stroke-opacity="0.9" stroke-dasharray=""/></g><g><path fill="none" stroke="#2d70b3" class="dcg-svg-curve" paint-order="fill stroke markers" d=" M 91.47462432238518 203.58163265306123 L 92.39239377391583 203.58163265306123" stroke-linecap="round" stroke-linejoin="round" stroke-miterlimit="10" stroke-width="2.5" stroke-opacity="0.9" stroke-dasharray=""/></g><g><path fill="none" stroke="#2d70b3" class="dcg-svg-curve" paint-order="fill stroke markers" d=" M 127.34598214285714 204.26190476190476 L 138.34598214285714 204.26190476190476 M 145.34598214285714 204.26190476190476 L 149.20703125 204.26190476190476" stroke-linecap="round" stroke-linejoin="round" stroke-miterlimit="10" stroke-width="2.5" stroke-opacity="0.9" stroke-dasharray=""/></g><g><path fill="none" stroke="#2d70b3" class="dcg-svg-curve" paint-order="fill stroke markers" d=" M 149.48258654206822 204.58973397195453 L 149.49848008155823 204.7734375" stroke-linecap="round" stroke-linejoin="round" stroke-miterlimit="10" stroke-width="2.5" stroke-opacity="0.9" stroke-dasharray=""/></g><g><path fill="none" stroke="#2d70b3" class="dcg-svg-curve" paint-order="fill stroke markers" d=" M 121.91821289062499 204.26190476190476 L 127.34598214285714 204.26190476190476" stroke-linecap="round" stroke-linejoin="round" stroke-miterlimit="10" stroke-width="2.5" stroke-opacity="0.9" stroke-dasharray=""/></g><g><path fill="none" stroke="#2d70b3" class="dcg-svg-curve" paint-order="fill stroke markers" d=" M 120.59985351562499 204.26190476190476 L 121.01140485491072 204.26190476190476" stroke-linecap="round" stroke-linejoin="round" stroke-miterlimit="10" stroke-width="2.5" stroke-opacity="0.9" stroke-dasharray=""/></g><g><path fill="none" stroke="#2d70b3" class="dcg-svg-curve" paint-order="fill stroke markers" d=" M 151.18666294642856 205.2142857142857 L 151.8291015625 205.2142857142857" stroke-linecap="round" stroke-linejoin="round" stroke-miterlimit="10" stroke-width="2.5" stroke-opacity="0.9" stroke-dasharray=""/></g><g><path fill="none" stroke="#2d70b3" class="dcg-svg-curve" paint-order="fill stroke markers" d=" M 150.54422433035714 205.2142857142857 L 151.18666294642856 205.2142857142857" stroke-linecap="round" stroke-linejoin="round" stroke-miterlimit="10" stroke-width="2.5" stroke-opacity="0.9" stroke-dasharray=""/></g><g><path fill="none" stroke="#2d70b3" class="dcg-svg-curve" paint-order="fill stroke markers" d=" M 161.72935267857144 205.2142857142857 L 172.72935267857144 205.2142857142857" stroke-linecap="round" stroke-linejoin="round" stroke-miterlimit="10" stroke-width="2.5" stroke-opacity="0.9" stroke-dasharray=""/></g><g><path fill="none" stroke="#2d70b3" class="dcg-svg-curve" paint-order="fill stroke markers" d=" M 179.47428129040793 205.68902080639472 L 179.49751269817352 206.091796875" stroke-linecap="round" stroke-linejoin="round" stroke-miterlimit="10" stroke-width="2.5" stroke-opacity="0.9" stroke-dasharray=""/></g><g><path fill="none" stroke="#2d70b3" class="dcg-svg-curve" paint-order="fill stroke markers" d=" M 151.85421316964286 205.2142857142857 L 161.72935267857144 205.2142857142857" stroke-linecap="round" stroke-linejoin="round" stroke-miterlimit="10" stroke-width="2.5" stroke-opacity="0.9" stroke-dasharray=""/></g><g><path fill="none" stroke="#2d70b3" class="dcg-svg-curve" paint-order="fill stroke markers" d=" M 184.9701450892857 206.64285714285714 L 195.9701450892857 206.64285714285714 M 202.9701450892857 206.64285714285714 L 209.1923828125 206.64285714285714 M 209.1923828125 206.64285714285714 L 209.44509064401623 206.8022312373225" stroke-linecap="round" stroke-linejoin="round" stroke-miterlimit="10" stroke-width="2.5" stroke-opacity="0.9" stroke-dasharray=""/></g><g><path fill="none" stroke="#2d70b3" class="dcg-svg-curve" paint-order="fill stroke markers" d=" M 209.57577332273905 208.4729219515073 L 210.00900829081633 209.0238095238095 M 210.00900829081633 209.0238095238095 L 220.30817332102535 209.0238095238095 M 227.30817332102535 209.0238095238095 L 238.30817332102535 209.0238095238095" stroke-linecap="round" stroke-linejoin="round" stroke-miterlimit="10" stroke-width="2.5" stroke-opacity="0.9" stroke-dasharray=""/></g><g><path fill="none" stroke="#2d70b3" class="dcg-svg-curve" paint-order="fill stroke markers" d=" M 239.47276574373245 211.365234375 L 239.47324337778315 211.39283774814456" stroke-linecap="round" stroke-linejoin="round" stroke-miterlimit="10" stroke-width="2.5" stroke-opacity="0.9" stroke-dasharray=""/></g><g><path fill="none" stroke="#2d70b3" class="dcg-svg-curve" paint-order="fill stroke markers" d=" M 239.4879738688469 212.244140625 L 239.48827806805497 212.2617208712967" stroke-linecap="round" stroke-linejoin="round" stroke-miterlimit="10" stroke-width="2.5" stroke-opacity="0.9" stroke-dasharray=""/></g><g><path fill="none" stroke="#2d70b3" class="dcg-svg-curve" paint-order="fill stroke markers" d=" M 239.50318199396133 213.123046875 L 239.5033127583268 213.1306039944488" stroke-linecap="round" stroke-linejoin="round" stroke-miterlimit="10" stroke-width="2.5" stroke-opacity="0.9" stroke-dasharray=""/></g><g><path fill="none" stroke="#2d70b3" class="dcg-svg-curve" paint-order="fill stroke markers" d=" M 239.71554129464286 213.78571428571428 L 250.71554129464286 213.78571428571428 M 257.7155412946429 213.78571428571428 L 268.7155412946429 213.78571428571428" stroke-linecap="round" stroke-linejoin="round" stroke-miterlimit="10" stroke-width="2.5" stroke-opacity="0.9" stroke-dasharray=""/></g><g><path fill="none" stroke="#2d70b3" class="dcg-svg-curve" paint-order="fill stroke markers" d=" M 269.45804706025416 219.52796862649723 L 269.4591249227524 219.71484375" stroke-linecap="round" stroke-linejoin="round" stroke-miterlimit="10" stroke-width="2.5" stroke-opacity="0.9" stroke-dasharray=""/></g><g><path fill="none" stroke="#2d70b3" class="dcg-svg-curve" paint-order="fill stroke markers" d=" M 269.46165961027145 220.154296875 L 269.4630970171232 220.40350823858455" stroke-linecap="round" stroke-linejoin="round" stroke-miterlimit="10" stroke-width="2.5" stroke-opacity="0.9" stroke-dasharray=""/></g><g><path fill="none" stroke="#2d70b3" class="dcg-svg-curve" paint-order="fill stroke markers" d=" M 269.47179836034775 221.912109375 L 269.4731969308612 222.15458746275917" stroke-linecap="round" stroke-linejoin="round" stroke-miterlimit="10" stroke-width="2.5" stroke-opacity="0.9" stroke-dasharray=""/></g><g><path fill="none" stroke="#2d70b3" class="dcg-svg-curve" paint-order="fill stroke markers" d=" M 269.4782468877303 223.0301270748465 L 269.47940242290497 223.23046875" stroke-linecap="round" stroke-linejoin="round" stroke-miterlimit="10" stroke-width="2.5" stroke-opacity="0.9" stroke-dasharray=""/></g><g><path fill="none" stroke="#2d70b3" class="dcg-svg-curve" paint-order="fill stroke markers" d=" M 269.48193711042404 223.669921875 L 269.4832968445993 223.90566668693378" stroke-linecap="round" stroke-linejoin="round" stroke-miterlimit="10" stroke-width="2.5" stroke-opacity="0.9" stroke-dasharray=""/></g><g><path fill="none" stroke="#2d70b3" class="dcg-svg-curve" paint-order="fill stroke markers" d=" M 269.48834680146837 224.7812062990211 L 269.48954117298126 224.98828125" stroke-linecap="round" stroke-linejoin="round" stroke-miterlimit="10" stroke-width="2.5" stroke-opacity="0.9" stroke-dasharray=""/></g><g><path fill="none" stroke="#2d70b3" class="dcg-svg-curve" paint-order="fill stroke markers" d=" M 269.4933967583374 225.6567459111084 L 269.4946105480194 225.8671875" stroke-linecap="round" stroke-linejoin="round" stroke-miterlimit="10" stroke-width="2.5" stroke-opacity="0.9" stroke-dasharray=""/></g><g><path fill="none" stroke="#2d70b3" class="dcg-svg-curve" paint-order="fill stroke markers" d=" M 269.4971452355385 226.306640625 L 269.4984467152064 226.53228552319572" stroke-linecap="round" stroke-linejoin="round" stroke-miterlimit="10" stroke-width="2.5" stroke-opacity="0.9" stroke-dasharray=""/></g><g><path fill="none" stroke="#2d70b3" class="dcg-svg-curve" paint-order="fill stroke markers" d=" M 180.85550362723214 206.64285714285714 L 184.9701450892857 206.64285714285714" stroke-linecap="round" stroke-linejoin="round" stroke-miterlimit="10" stroke-width="2.5" stroke-opacity="0.9" stroke-dasharray=""/></g><g><path fill="none" stroke="#2d70b3" class="dcg-svg-curve" paint-order="fill stroke markers" d=" M 180.25474330357142 206.64285714285714 L 180.83980887276786 206.64285714285714" stroke-linecap="round" stroke-linejoin="round" stroke-miterlimit="10" stroke-width="2.5" stroke-opacity="0.9" stroke-dasharray=""/></g><g><path fill="none" stroke="#2d70b3" class="dcg-svg-curve" paint-order="fill stroke markers" d=" M 179.56330217633928 206.64285714285714 L 180.25474330357142 206.64285714285714" stroke-linecap="round" stroke-linejoin="round" stroke-miterlimit="10" stroke-width="2.5" stroke-opacity="0.9" stroke-dasharray=""/></g><g><path fill="none" stroke="#2d70b3" class="dcg-svg-curve" paint-order="fill stroke markers" d=" M 269.8395298549107 228.07142857142856 L 280.8395298549107 228.07142857142856 M 287.8395298549107 228.07142857142856 L 298.8395298549107 228.07142857142856" stroke-linecap="round" stroke-linejoin="round" stroke-miterlimit="10" stroke-width="2.5" stroke-opacity="0.9" stroke-dasharray=""/></g></g></g><g id="labels-27d98114"/></g></svg>