<svg version="1.1" xmlns="http://www.w3.org/2000/svg" xmlns:xlink="http://www.w3.org/1999/xlink" width="600" height="400"><defs/><g transform="scale(1,1)"><g id="background-997bc4f3"><rect fill="white" stroke="none" x="0" y="0" width="600" height="400" class="dcg-svg-background"/></g><g id="background-images-997bc4f3"/><g id="graphpaper-997bc4f3"><g id="grid-997bc4f3"><g><path fill="none" stroke="rgb(0,0,0)" class="dcg-svg-minor-gridline" paint-order="fill stroke markers" d=" M 29.5 0 L 29.5 400" stroke-opacity="0.12" stroke-miterlimit="10" stroke-dasharray=""/><path fill="none" stroke="rgb(0,0,0)" class="dcg-svg-minor-gridline" paint-order="fill stroke markers" d=" M 59.5 0 L 59.5 400" stroke-opacity="0.12" stroke-miterlimit="10" stroke-dasharray=""/><path fill="none" stroke="rgb(0,0,0)" class="dcg-svg-minor-gridline" paint-order="fill stroke markers" d=" M 89.5 0 L 89.5 400" stroke-opacity="0.12" stroke-miterlimit="10" stroke-dasharray=""/><path fill="none" stroke="rgb(0,0,0)" class="dcg-svg-minor-gridline" paint-order="fill stroke markers" d=" M 119.5 0 L 119.5 400" stroke-opacity="0.12" stroke-miterlimit="10" stroke-dasharray=""/><path fill="none" stroke="rgb(0,0,0)" class="dcg-svg-minor-gridline" paint-order="fill stroke markers" d=" M 149.5 0 L 149.5 400" stroke-opacity="0.12" stroke-miterlimit="10" stroke-dasharray=""/><path fill="none" stroke="rgb(0,0,0)" class="dcg-svg-minor-gridline" paint-order="fill stroke markers" d=" M 179.5 0 L 179.5 400" stroke-opacity="0.12" stroke-miterlimit="10" stroke-dasharray=""/><path fill="none" stroke="rgb(0,0,0)" class="dcg-svg-minor-gridline" paint-order="fill stroke markers" d=" M 209.5 0 L 209.5 400" stroke-opacity="0.12" stroke-miterlimit="10" stroke-dasharray=""/><path fill="none" stroke="rgb(0,0,0)" class="dcg-svg-minor-gridline" paint-order="fill stroke markers" d=" M 239.5 0 L 239.5 400" stroke-opacity="0.12" stroke-miterlimit="10" stroke-dasharray=""/><path fill="none" stroke="rgb(0,0,0)" class="dcg-svg-minor-gridline" paint-order="fill stroke markers" d=" M 269.5 0 L 269.5 400" stroke-opacity="0.12" stroke-miterlimit="10" stroke-dasharray=""/><path fill="none" stroke="rgb(0,0,0)" class="dcg-svg-minor-gridline" paint-order="fill stroke markers" d=" M 299.5 0 L 299.5 400" stroke-opacity="0.12" stroke-miterlimit="10" stroke-dasharray=""/><path fill="none" stroke="rgb(0,0,0)" class="dcg-svg-minor-gridline" paint-order="fill stroke markers" d=" M 329.5 0 L 329.5 400" stroke-opacity="0.12" stroke-miterlimit="10" stroke-dasharray=""/><path fill="none" stroke="rgb(0,0,0)" class="dcg-svg-minor-gridline" paint-order="fill stroke markers" d=" M 359.5 0 L 359.5 400" stroke-opacity="0.12" stroke-miterlimit="10" stroke-dasharray=""/><path fill="none" stroke="rgb(0,0,0)" class="dcg-svg-minor-gridline" paint-order="fill stroke markers" d=" M 389.5 0 L 389.5 400" stroke-opacity="0.12" stroke-miterlimit="10" stroke-dasharray=""/><path fill="none" stroke="rgb(0,0,0)" class="dcg-svg-minor-gridline" paint-order="fill stroke markers" d=" M 419.5 0 L 419.5 400" stroke-opacity="0.12" stroke-miterlimit="10" stroke-dasharray=""/><path fill="none" stroke="rgb(0,0,0)" class="dcg-svg-minor-gridline" paint-order="fill stroke markers" d=" M 449.5 0 L 449.5 400" stroke-opacity="0.12" stroke-miterlimit="10" stroke-dasharray=""/><path fill="none" stroke="rgb(0,0,0)" class="dcg-svg-minor-gridline" paint-order="fill stroke markers" d=" M 479.5 0 L 479.5 400" stroke-opacity="0.12" stroke-miterlimit="10" stroke-dasharray=""/><path fill="none" stroke="rgb(0,0,0)" class="dcg-svg-minor-gridline" paint-order="fill stroke markers" d=" M 509.5 0 L 509.5 400" stroke-opacity="0.12" stroke-miterlimit="10" stroke-dasharray=""/><path fill="none" stroke="rgb(0,0,0)" class="dcg-svg-minor-gridline" paint-order="fill stroke markers" d=" M 539.5 0 L 539.5 400" stroke-opacity="0.12" stroke-miterlimit="10" stroke-dasharray=""/><path fill="none" stroke="rgb(0,0,0)" class="dcg-svg-minor-gridline" paint-order="fill stroke markers" d=" M 569.5 0 L 569.5 400" stroke-opacity="0.12" stroke-miterlimit="10" stroke-dasharray=""/><path fill="none" stroke="rgb(0,0,0)" class="dcg-svg-minor-gridline" paint-order="fill stroke markers" d=" M 0 379.5 L 600 379.5" stroke-opacity="0.12" stroke-miterlimit="10" stroke-dasharray=""/><path fill="none" stroke="rgb(0,0,0)" class="dcg-svg-minor-gridline" paint-order="fill stroke markers" d=" M 0 359.5 L 600 359.5" stroke-opacity="0.12" stroke-miterlimit="10" stroke-dasharray=""/><path fill="none" stroke="rgb(0,0,0)" class="dcg-svg-minor-gridline" paint-order="fill stroke markers" d=" M 0 339.5 L 600 339.5" stroke-opacity="0.12" stroke-miterlimit="10" stroke-dasharray=""/><path fill="none" stroke="rgb(0,0,0)" class="dcg-svg-minor-gridline" paint-order="fill stroke markers" d=" M 0 319.5 L 600 319.5" stroke-opacity="0.12" stroke-miterlimit="10" stroke-dasharray=""/><path fill="none" stroke="rgb(0,0,0)" class="dcg-svg-minor-gridline" paint-order="fill stroke markers" d=" M 0 299.5 L 600 299.5" stroke-opacity="0.12" stroke-miterlimit="10" stroke-dasharray=""/><path fill="none" stroke="rgb(0,0,0)" class="dcg-svg-minor-gridline" paint-order="fill stroke markers" d=" M 0 279.5 L 600 279.5" stroke-opacity="0.12" stroke-miterlimit="10" stroke-dasharray=""/><path fill="none" stroke="rgb(0,0,0)" class="dcg-svg-minor-gridline" paint-order="fill stroke markers" d=" M 0 259.5 L 600 259.5" stroke-opacity="0.12" stroke-miterlimit="10" stroke-dasharray=""/><path fill="none" stroke="rgb(0,0,0)" class="dcg-svg-minor-gridline" paint-order="fill stroke markers" d=" M 0 239.5 L 600 239.5" stroke-opacity="0.12" stroke-miterlimit="10" stroke-dasharray=""/><path fill="none" stroke="rgb(0,0,0)" class="dcg-svg-minor-gridline" paint-order="fill stroke markers" d=" M 0 219.5 L 600 219.5" stroke-opacity="0.12" stroke-miterlimit="10" stroke-dasharray=""/><path fill="none" stroke="rgb(0,0,0)" class="dcg-svg-minor-gridline" paint-order="fill stroke markers" d=" M 0 179.5 L 600 179.5" stroke-opacity="0.12" stroke-miterlimit="10" stroke-dasharray=""/><path fill="none" stroke="rgb(0,0,0)" class="dcg-svg-minor-gridline" paint-order="fill stroke markers" d=" M 0 159.5 L 600 159.5" stroke-opacity="0.12" stroke-miterlimit="10" stroke-dasharray=""/><path fill="none" stroke="rgb(0,0,0)" class="dcg-svg-minor-gridline" paint-order="fill stroke markers" d=" M 0 139.5 L 600 139.5" stroke-opacity="0.12" stroke-miterlimit="10" stroke-dasharray=""/><path fill="none" stroke="rgb(0,0,0)" class="dcg-svg-minor-gridline" paint-order="fill stroke markers" d=" M 0 119.5 L 600 119.5" stroke-opacity="0.12" stroke-miterlimit="10" stroke-dasharray=""/><path fill="none" stroke="rgb(0,0,0)" class="dcg-svg-minor-gridline" paint-order="fill stroke markers" d=" M 0 99.5 L 600 99.5" stroke-opacity="0.12" stroke-miterlimit="10" stroke-dasharray=""/><path fill="none" stroke="rgb(0,0,0)" class="dcg-svg-minor-gridline" paint-order="fill stroke markers" d=" M 0 79.5 L 600 79.5" stroke-opacity="0.12" stroke-miterlimit="10" stroke-dasharray=""/><path fill="none" stroke="rgb(0,0,0)" class="dcg-svg-minor-gridline" paint-order="fill stroke markers" d=" M 0 59.5 L 600 59.5" stroke-opacity="0.12" stroke-miterlimit="10" stroke-dasharray=""/><path fill="none" stroke="rgb(0,0,0)" class="dcg-svg-minor-gridline" paint-order="fill stroke markers" d=" M 0 39.5 L 600 39.5" stroke-opacity="0.12" stroke-miterlimit="10" stroke-dasharray=""/><path fill="none" stroke="rgb(0,0,0)" class="dcg-svg-minor-gridline" paint-order="fill stroke markers" d=" M 0 19.5 L 600 19.5" stroke-opacity="0.12" stroke-miterlimit="10" stroke-dasharray=""/><path fill="none" stroke="rgb(0,0,0)" class="dcg-svg-minor-gridline" paint-order="fill stroke markers" d=" M 0 -0.5 L 600 -0.5" stroke-opacity="0.12" stroke-miterlimit="10" stroke-dasharray=""/><path fill="none" stroke="rgb(0,0,0)" class="dcg-svg-major-gridline" paint-order="fill stroke markers" d=" M 119.5 0 L 119.5 400" stroke-opacity="0.31818181818181823" stroke-miterlimit="10" stroke-dasharray=""/><path fill="none" stroke="rgb(0,0,0)" class="dcg-svg-major-gridline" paint-order="fill stroke markers" d=" M 239.5 0 L 239.5 400" stroke-opacity="0.31818181818181823" stroke-miterlimit="10" stroke-dasharray=""/><path fill="none" stroke="rgb(0,0,0)" class="dcg-svg-major-gridline" paint-order="fill stroke markers" d=" M 359.5 0 L 359.5 400" stroke-opacity="0.31818181818181823" stroke-miterlimit="10" stroke-dasharray=""/><path fill="none" stroke="rgb(0,0,0)" class="dcg-svg-major-gridline" paint-order="fill stroke markers" d=" M 479.5 0 L 479.5 400" stroke-opacity="0.31818181818181823" stroke-miterlimit="10" stroke-dasharray=""/><path fill="none" stroke="rgb(0,0,0)" class="dcg-svg-major-gridline" paint-order="fill stroke markers" d=" M 0 299.5 L 600 299.5" stroke-opacity="0.31818181818181823" stroke-miterlimit="10" stroke-dasharray=""/><path fill="none" stroke="rgb(0,0,0)" class="dcg-svg-major-gridline" paint-order="fill stroke markers" d=" M 0 99.5 L 600 99.5" stroke-opacity="0.31818181818181823" stroke-miterlimit="10" stroke-dasharray=""/><path fill="none" stroke="rgb(0,0,0)" class="dcg-svg-major-gridline" paint-order="fill stroke markers" d=" M 0 -0.5 L 600 -0.5" stroke-opacity="0.31818181818181823" stroke-miterlimit="10" stroke-dasharray=""/></g></g><g id="axis-997bc4f3"><g id="yaxis-997bc4f3"><title>Y axis</title><path fill="none" stroke="rgb(0,0,0)" class="dcg-svg-axis-line" paint-order="fill stroke markers" d=" M -0.25 0 L -0.25 400" stroke-opacity="0.9" stroke-miterlimit="10" stroke-width="1.5" stroke-dasharray=""/></g><g id="xaxis-997bc4f3"><title>X axis</title><path fill="none" stroke="rgb(0,0,0)" class="dcg-svg-axis-line" paint-order="fill stroke markers" d=" M 0 199.75 L 600 199.75" stroke-opacity="0.9" stroke-miterlimit="10" stroke-width="1.5" stroke-dasharray=""/></g><g><g class="dcg-svg-axis-value"><text fill="none" stroke="#ffffff" font-family="Arial" font-size="14px" font-style="normal" font-weight="normal" text-decoration="normal" x="-8.89306640625" y="215.808" text-anchor="middle" stroke-miterlimit="2" stroke-width="3" stroke-dasharray="">0</text><text fill="#000000" stroke="none" font-family="Arial" font-size="14px" font-style="normal" font-weight="normal" text-decoration="normal" x="-8.89306640625" y="215.808" text-anchor="middle">0</text></g><g class="dcg-svg-axis-value"><text fill="none" stroke="#ffffff" font-family="Arial" font-size="14px" font-style="normal" font-weight="normal" text-decoration="normal" x="120" y="215.808" text-anchor="middle" stroke-miterlimit="2" stroke-width="3" stroke-dasharray="">20</text><text fill="#000000" stroke="none" font-family="Arial" font-size="14px" font-style="normal" font-weight="normal" text-decoration="normal" x="120" y="215.808" text-anchor="middle">20</text></g><g class="dcg-svg-axis-value"><text fill="none" stroke="#ffffff" font-family="Arial" font-size="14px" font-style="normal" font-weight="normal" text-decoration="normal" x="240" y="215.808" text-anchor="middle" stroke-miterlimit="2" stroke-width="3" stroke-dasharray="">40</text><text fill="#000000" stroke="none" font-family="Arial" font-size="14px" font-style="normal" font-weight="normal" text-decoration="normal" x="240" y="215.808" text-anchor="middle">40</text></g><g class="dcg-svg-axis-value"><text fill="none" stroke="#ffffff" font-family="Arial" font-size="14px" font-style="normal" font-weight="normal" text-decoration="normal" x="360" y="215.808" text-anchor="middle" stroke-miterlimit="2" stroke-width="3" stroke-dasharray="">60</text><text fill="#000000" stroke="none" font-family="Arial" font-size="14px" font-style="normal" font-weight="normal" text-decoration="normal" x="360" y="215.808" text-anchor="middle">60</text></g><g class="dcg-svg-axis-value"><text fill="none" stroke="#ffffff" font-family="Arial" font-size="14px" font-style="normal" font-weight="normal" text-decoration="normal" x="480" y="215.808" text-anchor="middle" stroke-miterlimit="2" stroke-width="3" stroke-dasharray="">80</text><text fill="#000000" stroke="none" font-family="Arial" font-size="14px" font-style="normal" font-weight="normal" text-decoration="normal" x="480" y="215.808" text-anchor="middle">80</text></g><g class="dcg-svg-axis-value dcg-svg-offcenter-axis-value"><text fill="none" stroke="#ffffff" font-family="Arial" font-size="14px" font-style="normal" font-weight="normal" text-decoration="normal" x="585.32080078125" y="215.808" text-anchor="middle" stroke-miterlimit="2" stroke-width="3" stroke-dasharray="">100</text><text fill="#000000" stroke="none" font-family="Arial" font-size="14px" font-style="normal" font-weight="normal" text-decoration="normal" x="585.32080078125" y="215.808" text-anchor="middle">100</text></g><g class="dcg-svg-axis-value dcg-svg-offcenter-axis-value"><text fill="none" stroke="#ffffff" font-family="Arial" font-size="14px" font-style="normal" font-weight="normal" text-decoration="normal" x="13.1171875" y="393.808" text-anchor="middle" stroke-miterlimit="2" stroke-width="3" stroke-dasharray="">-10</text><text fill="rgb(150,150,150)" stroke="none" font-family="Arial" font-size="14px" font-style="normal" font-weight="normal" text-decoration="normal" x="13.1171875" y="393.808" text-anchor="middle" fill-opacity="1">-10</text></g><g class="dcg-svg-axis-value"><text fill="none" stroke="#ffffff" font-family="Arial" font-size="14px" font-style="normal" font-weight="normal" text-decoration="normal" x="9.22412109375" y="303.808" text-anchor="middle" stroke-miterlimit="2" stroke-width="3" stroke-dasharray="">-5</text><text fill="rgb(150,150,150)" stroke="none" font-family="Arial" font-size="14px" font-style="normal" font-weight="normal" text-decoration="normal" x="9.22412109375" y="303.808" text-anchor="middle" fill-opacity="1">-5</text></g><g class="dcg-svg-axis-value"><text fill="none" stroke="#ffffff" font-family="Arial" font-size="14px" font-style="normal" font-weight="normal" text-decoration="normal" x="6.89306640625" y="103.808" text-anchor="middle" stroke-miterlimit="2" stroke-width="3" stroke-dasharray="">5</text><text fill="rgb(150,150,150)" stroke="none" font-family="Arial" font-size="14px" font-style="normal" font-weight="normal" text-decoration="normal" x="6.89306640625" y="103.808" text-anchor="middle" fill-opacity="1">5</text></g><g class="dcg-svg-axis-value dcg-svg-offcenter-axis-value"><text fill="none" stroke="#ffffff" font-family="Arial" font-size="14px" font-style="normal" font-weight="normal" text-decoration="normal" x="10.7861328125" y="13.808" text-anchor="middle" stroke-miterlimit="2" stroke-width="3" stroke-dasharray="">10</text><text fill="rgb(150,150,150)" stroke="none" font-family="Arial" font-size="14px" font-style="normal" font-weight="normal" text-decoration="normal" x="10.7861328125" y="13.808" text-anchor="middle" fill-opacity="1">10</text></g></g></g></g><g id="expressions-997bc4f3"><g id="sketch-997bc4f3"><title>Expression 1</title><path fill="#2d70b3" stroke="none" paint-order="stroke fill markers" d="" fill-opacity="0.4"/><g><path fill="none" stroke="#2d70b3" class="dcg-svg-curve" paint-order="fill stroke markers" d=" M -0.5 199.5 L -0.5 199.5 L 1.990234375 191.43548646381444 L 3.30859375 187.64022381226857 L 4.333984375 185.07418493581616 L 5.212890625 183.20673327367587 L 6.091796875 181.68827247231275 L 6.82421875 180.71318499847322 L 7.556640625 180.01769543000262 L 8.2890625 179.61215450631755 L 9.021484375 179.50259775780444 L 9.75390625 179.69065568103224 L 10.486328125 180.17352947261583 L 11.21875 180.94403268287368 L 11.951171875 181.9906981693631 L 12.830078125 183.5890221974797 L 13.708984375 185.5281487136656 L 14.734375 188.16542220585194 L 16.052734375 192.02954791678746 L 17.810546875 197.70571884990144 L 20.88671875 207.70741292198207 L 22.205078125 211.4853697907104 L 23.23046875 214.03371994157524 L 24.109375 215.88348548484367 L 24.98828125 217.3823277419519 L 25.720703125 218.33989239558736 L 26.453125 219.01706921069072 L 27.185546875 219.40377999044927 L 27.91796875 219.49426944723209 L 28.650390625 219.28719085661712 L 29.3828125 218.785626100242 L 30.115234375 217.99703979918695 L 30.84765625 216.93316822050724 L 31.7265625 215.31571392394767 L 32.60546875 213.35949762779435 L 33.630859375 210.70535056143783 L 34.94921875 206.8251189882041 L 36.853515625 200.6513505102422 L 39.783203125 191.15018977352935 L 41.1015625 187.3897698008262 L 42.126953125 184.85926426864083 L 43.005859375 183.02729800203375 L 43.884765625 181.5481659795447 L 44.6171875 180.6081827242935 L 45.349609375 179.94936008825692 L 46.08203125 179.5815031091186 L 46.814453125 179.5100864796795 L 47.546875 179.73617306982993 L 48.279296875 180.2563981082112 L 49.01171875 181.06301925898617 L 49.744140625 182.14403184844275 L 50.623046875 183.78051746709315 L 51.501953125 185.75370387339268 L 52.52734375 188.42456214879374 L 53.845703125 192.3206622145524 L 55.75 198.5048518739784 L 58.533203125 207.5471259958632 L 59.8515625 211.34447448165668 L 60.876953125 213.9126508180862 L 61.90234375 216.06091080794982 L 62.78125 217.52024211121176 L 63.513671875 218.44258646542505 L 64.24609375 219.08301461949623 L 64.978515625 219.43199529468535 L 65.7109375 219.48433472793084 L 66.443359375 219.23925396889442 L 67.17578125 218.70040047281876 L 67.908203125 217.8757938166674 L 68.640625 216.77770634643372 L 69.51953125 215.12228951626906 L 70.3984375 213.1322537077761 L 71.423828125 210.44484761074983 L 72.7421875 206.53311739298044 L 74.646484375 200.3388848644846 L 77.4296875 191.3099142399925 L 78.748046875 187.52984339814273 L 79.7734375 184.97933678169147 L 80.65234375 183.12741736919762 L 81.53125 181.62618771103257 L 82.263671875 180.66649193109612 L 82.99609375 179.9870889738859 L 83.728515625 179.59809016714547 L 84.4609375 179.5052848504487 L 85.193359375 179.71005421438875 L 85.92578125 180.20935074477885 L 86.658203125 180.99574357779005 L 87.390625 182.05752909102085 L 88.26953125 183.67266545345785 L 89.1484375 185.62681272144164 L 90.173828125 188.27891929369463 L 91.4921875 192.15720760633815 L 93.396484375 198.32968480045923 L 96.326171875 207.83254450281777 L 97.64453125 211.5951064581959 L 98.669921875 214.12778732965702 L 99.548828125 215.9619211494785 L 100.427734375 217.443451643736 L 101.16015625 218.38557308174683 L 101.892578125 219.04662683080028 L 102.625 219.41677464830147 L 103.357421875 219.4905077476657 L 104.08984375 219.26672878375285 L 104.822265625 218.7487681842896 L 105.5546875 217.94433458422347 L 106.287109375 216.86540010067853 L 107.166015625 215.23122033782818 L 108.044921875 213.26008837140873 L 109.0703125 210.59125081767573 L 110.388671875 206.69706513412882 L 112.29296875 200.5141208590486 L 115.076171875 191.47026880447902 L 116.39453125 187.67083791035995 L 117.419921875 185.1005264309309 L 118.4453125 182.94974737547545 L 119.32421875 181.48800667645776 L 120.056640625 180.56351721382777 L 120.7890625 179.92085311231602 L 121.521484375 179.5695789275231 L 122.25390625 179.51492255604933 L 122.986328125 179.75769743045254 L 123.71875 180.29429041320225 L 124.451171875 181.11671556980127 L 125.18359375 182.21273302078694 L 126.0625 183.86585621453276 L 126.94140625 185.8538522971136 L 127.966796875 188.53925756852317 L 129.28515625 192.44910239956982 L 131.189453125 198.6421355194002 L 133.97265625 207.67275120903645 L 135.291015625 211.45493261367346 L 136.31640625 214.00759339467484 L 137.1953125 215.86166500561487 L 138.07421875 217.36528071044543 L 138.806640625 218.3271067508569 L 139.5390625 219.00873523722487 L 140.271484375 219.40002171999714 L 141.00390625 219.49514281288003 L 141.736328125 219.29268286035534 L 142.46875 218.7956550064096 L 143.201171875 218.0114563509163 L 143.93359375 216.95175786106455 L 144.8125 215.33894088990655 L 145.69140625 213.38686441310034 L 146.716796875 210.73680072764952 L 148.03515625 206.86045917454095 L 149.939453125 200.68927883299506 L 152.869140625 191.18472873835609 L 154.1875 187.420028194841 L 155.212890625 184.8851742690582 L 156.091796875 183.04887455075567 L 156.970703125 181.56494692134856 L 157.703125 180.6206881505488 L 158.435546875 179.95740388487314 L 159.16796875 179.58496556295196 L 159.900390625 179.50891606018376 L 160.6328125 179.7303871959683 L 161.365234375 180.24608288921576 L 162.09765625 181.04832821282275 L 162.830078125 182.12518361705443 L 163.708984375 183.75705604976747 L 164.587890625 185.7261317979754 L 165.61328125 188.39294622224728 L 166.931640625 192.2852140102952 L 168.8359375 198.46690732285194 L 171.619140625 207.51232915085225 L 172.9375 211.31383902549635 L 173.962890625 213.88628332902084 L 174.98828125 216.03957950966122 L 175.8671875 217.5037282856699 L 176.599609375 218.4303620226534 L 177.33203125 219.07526149180188 L 178.064453125 219.42882886928334 L 178.796875 219.485802129675 L 179.529296875 219.24533335893364 L 180.26171875 218.7110013736176 L 180.994140625 217.89075845855288 L 181.7265625 216.79681201562894 L 182.60546875 215.14598394972978 L 183.484375 213.16002938660705 L 184.509765625 210.47662736355434 L 185.828125 206.56867144664523 L 187.732421875 200.37684332276 L 190.515625 191.34459071529201 L 191.833984375 187.56030216010618 L 192.859375 185.0054895175344 L 193.73828125 183.14926738086922 L 194.6171875 181.64326698591705 L 195.349609375 180.67931155277836 L 196.08203125 179.99545815220966 L 196.814453125 179.60188434641947 L 197.546875 179.50444756316756 L 198.279296875 179.70459792161995 L 199.01171875 180.1993566507089 L 199.744140625 180.98136042118966 L 200.4765625 182.03897093161524 L 201.35546875 183.64946705643018 L 202.234375 185.59947098091897 L 203.259765625 188.24748938871224 L 204.578125 192.1218806850973 L 206.482421875 198.2917586065036 L 209.412109375 207.7979905185328 L 210.73046875 211.56482625371746 L 211.755859375 214.10185094690735 L 212.634765625 215.94031490700348 L 213.513671875 217.42663833277857 L 214.24609375 218.3730335844685 L 214.978515625 219.03854776835928 L 215.7109375 219.4132762586911 L 216.443359375 219.49164209625235 L 217.17578125 219.27247898840463 L 217.908203125 218.75904866662745 L 218.640625 217.95899234325557 L 219.373046875 216.88421698986315 L 220.251953125 215.25465335954294 L 221.130859375 213.28763560602295 L 222.15625 210.6228467171799 L 223.474609375 206.73250033618802 L 225.37890625 200.5520635632038 L 228.162109375 191.50508012244302 L 229.48046875 187.70149469695028 L 230.505859375 185.12691989015846 L 231.53125 182.97110852701093 L 232.41015625 181.50455299494865 L 233.142578125 180.5757758196093 L 233.875 179.92864156464464 L 234.607421875 179.5727813134589 L 235.33984375 179.51349121554995 L 236.072265625 179.75165366568146 L 236.8046875 180.28372417149598 L 237.537109375 181.1017841050131 L 238.26953125 182.19365855293003 L 239.1484375 183.84219000162543 L 240.02734375 185.8261012535858 L 241.052734375 188.5074976073487 L 242.37109375 192.41356108440976 L 244.275390625 198.60417862615725 L 247.05859375 207.6380600026678 L 248.376953125 211.42445229426306 L 249.40234375 213.98141449348415 L 250.28125 215.83978548121323 L 251.16015625 217.34816920759164 L 251.892578125 218.31425316378855 L 252.625 219.00033086159377 L 253.357421875 219.39619163532433 L 254.08984375 219.49594402103898 L 254.822265625 219.2981034372321 L 255.5546875 218.80561427936536 L 256.287109375 218.02580609941145 L 257.01953125 216.9702845225755 L 257.8984375 215.36211069707372 L 258.77734375 213.4141810841723 L 259.802734375 210.7682103430468 L 261.12109375 206.8957727988143 L 263.025390625 200.72720286393695 L 265.955078125 191.2192977109252 L 267.2734375 187.4503301824646 L 268.298828125 184.91113701074062 L 269.177734375 183.0705104674909 L 270.056640625 181.58179258629087 L 270.7890625 180.63326170753712 L 271.521484375 179.96551820585006 L 272.25390625 179.58849988518313 L 272.986328125 179.5078177835296 L 273.71875 179.7246726657141 L 274.451171875 180.23583715281043 L 275.18359375 181.033703754146 L 275.916015625 182.10639808704985 L 276.794921875 183.73365144480454 L 277.673828125 185.69860942901698 L 278.69921875 188.36137037829084 L 280.017578125 192.2497918424032 L 281.921875 198.42896649989953 L 284.705078125 207.47750339134154 L 286.0234375 211.2831609361341 L 287.048828125 213.85986392344296 L 288.07421875 216.01818852415073 L 288.953125 217.48714948915787 L 289.685546875 218.41806926492143 L 290.41796875 219.06743772186564 L 291.150390625 219.42559052570283 L 291.8828125 219.4871974076383 L 292.615234375 219.2513414929839 L 293.34765625 218.72153294669852 L 294.080078125 217.9056567327728 L 294.8125 216.81585526493876 L 295.69140625 215.1696219207323 L 296.5703125 213.1877557697951 L 297.595703125 210.50836750444532 L 298.9140625 206.60419999123573 L 300.818359375 200.41479861672627 L 303.6015625 191.37929662143188 L 304.919921875 187.5908040094646 L 305.9453125 185.03169456045455 L 306.82421875 183.17117639826137 L 307.703125 181.66041070130234 L 308.435546875 180.69219909363642 L 309.16796875 180.0038977175658 L 309.900390625 179.60575033303567 L 310.6328125 179.50368243485366 L 311.365234375 179.6992130655256 L 312.09765625 180.18943220785243 L 312.830078125 180.96704409374593 L 313.5625 182.02047578471345 L 314.44140625 183.62632586002704 L 315.3203125 185.5721794039425 L 316.345703125 188.2161000912374 L 317.6640625 192.08658038965095 L 319.421875 197.76692405119883 L 322.498046875 207.76340658886724 L 323.81640625 211.5345025102868 L 324.841796875 214.07586186971542 L 325.720703125 215.91864933552773 L 326.599609375 217.4097603290494 L 327.33203125 218.36042597911384 L 328.064453125 219.03039819616706 L 328.796875 219.4097060070277 L 329.529296875 219.4927042999832 L 330.26171875 219.27815783910572 L 330.994140625 218.76925964785667 L 331.7265625 217.97358348838299 L 332.458984375 216.9029711437396 L 333.337890625 215.27802952663876 L 334.216796875 213.3151330844952 L 335.2421875 210.65440247710129 L 336.560546875 206.76790943795538 L 338.46484375 200.59000247072368 L 341.248046875 191.5399202920811 L 342.56640625 187.73219406140694 L 343.591796875 185.1533652182514 L 344.6171875 182.99252932719787 L 345.49609375 181.5211642545246 L 346.228515625 180.58810271820136 L 346.9609375 179.93650064513002 L 347.693359375 179.5760556117625 L 348.42578125 179.51213200138153 L 349.158203125 179.74568116777243 L 349.890625 180.2732272765419 L 350.623046875 181.0869190348025 L 351.35546875 182.17464653934786 L 352.234375 183.81858029385356 L 353.11328125 185.79839955575193 L 354.138671875 188.47577731537683 L 355.45703125 192.37804534244225 L 357.361328125 198.56622496571046 L 360.14453125 207.603339428068 L 361.462890625 211.39392894247504 L 362.48828125 213.9551833324763 L 363.3671875 215.8178469905966 L 364.24609375 217.3309932951417 L 364.978515625 218.30133168076776 L 365.7109375 218.99185611412668 L 366.443359375 219.3922897502526 L 367.17578125 219.49667306881753 L 367.908203125 219.30345256768587 L 368.640625 218.8155038831688 L 369.373046875 218.04008899288772 L 370.10546875 216.98874813818196 L 370.984375 215.3852232618351 L 371.86328125 213.44144754243118 L 372.888671875 210.79957929428025 L 374.20703125 206.93105973358615 L 375.96484375 201.25200042313688 L 379.041015625 191.2538965664859 L 380.359375 187.48067565434462 L 381.384765625 184.93715239999503 L 382.263671875 183.09220567416074 L 383.142578125 181.59870291357976 L 383.875 180.64590334988372 L 384.607421875 179.97370302190515 L 385.33984375 179.5921060630577 L 386.072265625 179.50679165368038 L 386.8046875 179.7190294996896 L 387.537109375 180.22566093596953 L 388.26953125 181.0191459357319 L 389.001953125 182.08767532622133 L 389.880859375 183.7103037366656 L 390.759765625 185.67113686583878 L 391.78515625 188.3298347308737 L 393.103515625 192.21439583870617 L 395.0078125 198.3910295420402 L 397.9375 207.88836299079404 L 399.255859375 211.64398447718 L 400.28125 214.16962099806716 L 401.16015625 215.99673792861296 L 402.0390625 217.4705057815045 L 402.771484375 218.40570823659056 L 403.50390625 219.05954333792147 L 404.236328125 219.42228027563016 L 404.96875 219.48852055678557 L 405.701171875 219.2572783493634 L 406.43359375 218.73199515405568 L 407.166015625 217.92048858556296 L 407.8984375 216.83483602564087 L 408.77734375 215.1932033439731 L 409.65625 213.2154327572826 L 410.681640625 210.5400679188805 L 412 206.63970289853833 L 413.904296875 200.45275060941225 L 416.6875 191.4140318331671 L 418.005859375 187.62134883614442 L 419.03125 185.05795181588462 L 419.91015625 183.19314434230995 L 420.7890625 181.67761879532102 L 421.521484375 180.7051545071624 L 422.25390625 180.012407639498 L 422.986328125 179.60968811304267 L 423.71875 179.50298946826817 L 424.451171875 179.69389966553837 L 425.18359375 180.17957745202432 L 425.916015625 180.95279464712297 L 426.6484375 182.0020437170599 L 427.52734375 183.60324194775927 L 428.40625 185.5449380890007 L 429.431640625 188.18475151454612 L 430.75 192.05130684738904 L 432.5078125 197.72907668316105 L 435.583984375 207.72879283862605 L 436.90234375 211.50413533733473 L 437.927734375 214.0498201918693 L 438.806640625 215.89692451323694 L 439.685546875 217.39281769345706 L 440.41796875 218.3477503111805 L 441.150390625 219.02217814363334 L 441.8828125 219.40606390619544 L 442.615234375 219.493694355025 L 443.34765625 219.28376531536244 L 444.080078125 218.77940109112836 L 444.8125 217.98810796694994 L 445.544921875 216.92166249462878 L 446.423828125 215.30134875475676 L 447.302734375 213.34258070759392 L 448.328125 210.68591798356306 L 449.646484375 206.80329231164825 L 451.55078125 200.62793744469616 L 454.48046875 191.12888587878652 L 455.798828125 187.37111483166757 L 456.82421875 184.843297872903 L 457.703125 183.01400969873393 L 458.58203125 181.53784039523964 L 459.314453125 180.60049786511917 L 460.046875 179.94443032541074 L 460.779296875 179.57940181061775 L 461.51171875 179.51084491844915 L 462.244140625 179.73977995827866 L 462.9765625 180.26279976622055 L 463.708984375 181.07212041281386 L 464.44140625 182.15569704865013 L 465.3203125 183.7950271764187 L 466.19921875 185.77074730358063 L 467.224609375 188.44409680707813 L 468.54296875 192.3425553018348 L 470.447265625 198.5282746750251 L 473.23046875 207.56858961053504 L 474.548828125 211.36336266846058 L 475.57421875 213.92890000631306 L 476.453125 215.79584961293534 L 477.33203125 217.31375303507917 L 478.064453125 218.2883423484249 L 478.796875 218.98331102540692 L 479.529296875 219.38831607886297 L 480.26171875 219.49732995358474 L 480.994140625 219.3087302324129 L 481.7265625 218.8253237821308 L 482.458984375 218.0543049798017 L 483.19140625 217.00714864125342 L 484.0703125 215.40827850078324 L 484.94921875 213.46866368947911 L 485.974609375 210.83090746814702 L 487.29296875 206.96631985151475 L 489.05078125 201.2898446128354 L 492.126953125 191.28852518017953 L 493.4453125 187.51106450097183 L 494.470703125 184.9632203429384 L 495.349609375 183.11396009247267 L 496.228515625 181.6156778421901 L 496.9609375 180.65861303196795 L 497.693359375 179.98195830350147 L 498.42578125 179.59578408356185 L 499.158203125 179.50583767433915 L 499.890625 179.71345771825963 L 500.623046875 180.2155542754165 L 501.35546875 181.00465481011594 L 502.087890625 182.0690154021346 L 502.966796875 183.68701300960686 L 503.845703125 185.64371420758246 L 504.87109375 188.29833939380023 L 506.189453125 192.17902612693948 L 508.09375 198.353096586179 L 511.0234375 207.8538576993149 L 512.341796875 211.61377491695114 L 513.3671875 214.14377003302727 L 514.24609375 215.97522780045787 L 515.125 217.45379722277275 L 515.857421875 218.3932789822686 L 516.58984375 219.05157836845828 L 517.322265625 219.41889813101125 L 518.0546875 219.4897715723419 L 518.787109375 219.26314390664749 L 519.51953125 218.74238795793357 L 520.251953125 217.93525396339896 L 520.984375 216.85375422923835 L 521.86328125 215.2167281343527 L 522.7421875 213.2430602491902 L 523.767578125 210.57172849246095 L 525.0859375 206.67518004043194 L 526.990234375 200.49069916385866 L 529.7734375 191.44879622514696 L 531.091796875 187.65193652991692 L 532.1171875 185.08426118906857 L 532.99609375 183.215171133738 L 533.875 181.6948912058734 L 534.607421875 180.71817774660337 L 535.33984375 180.0209878872961 L 536.072265625 179.61369767222993 L 536.8046875 179.50236866591183 L 537.537109375 179.68865774083295 L 538.26953125 180.16979241878784 L 539.001953125 180.93861213274346 L 539.734375 181.9836747951713 L 540.61328125 183.58021540293095 L 541.4921875 185.51774713440074 L 542.517578125 188.15344377176768 L 543.8359375 192.01606018560506 L 545.59375 197.69123570594434 L 548.669921875 207.6941493927215 L 549.98828125 211.47372484444884 L 551.013671875 214.02372600734688 L 551.892578125 215.8751405185305 L 552.771484375 217.3758104871433 L 553.50390625 218.33500662641185 L 554.236328125 219.0138876404223 L 554.96875 219.4023499693377 L 555.701171875 219.49461225780493 L 556.43359375 219.28930139693887 L 557.166015625 218.7894729598446 L 557.8984375 218.00256572654118 L 558.630859375 216.94029097507826 L 559.509765625 215.3246109597437 L 560.388671875 213.36997837626748 L 561.4140625 210.71739312283356 L 562.732421875 206.8386488295786 L 564.63671875 200.66586834822346 L 567.56640625 191.1634062593332 L 568.884765625 187.40134626333156 L 569.91015625 184.86917527247493 L 570.7890625 183.03554956410187 L 571.66796875 181.5545813569138 L 572.400390625 180.61296121563174 L 573.1328125 179.95243057687054 L 573.865234375 179.58281989794904 L 574.59765625 179.50962997139754 L 575.330078125 179.73395005849613 L 576.0625 180.25244167816226 L 576.794921875 181.0573882924517 L 577.52734375 182.1368101492207 L 578.40625 183.77153073431816 L 579.28515625 185.74314459686192 L 580.310546875 188.41245619677971 L 581.62890625 192.3070910906621 L 583.533203125 198.4903278910544 L 586.31640625 207.53381067547224 L 587.634765625 211.33275358252584 L 588.66015625 213.90256460984438 L 589.685546875 216.05275315490886 L 590.564453125 217.51392900373716 L 591.296875 218.43791554424408 L 592.029296875 219.0800554003719 L 592.76171875 219.43079181868939 L 593.494140625 219.48490490599545 L 594.2265625 219.24158931524943 L 594.958984375 218.70446623128285 L 595.69140625 217.88152947791258 L 596.423828125 216.78502654852565 L 597.302734375 215.13136539626743 L 598.181640625 213.14289086641003 L 599.20703125 210.45701621281114 L 599.5 209.6273128221952" stroke-linecap="round" stroke-linejoin="round" stroke-miterlimit="10" stroke-width="2.5" stroke-opacity="0.9" stroke-dasharray=""/></g></g></g><g id="labels-997bc4f3"/></g></svg>