<svg version="1.1" xmlns="http://www.w3.org/2000/svg" xmlns:xlink="http://www.w3.org/1999/xlink" width="400" height="200"><defs/><g transform="scale(1,1)"><g id="background-2586406e"><rect fill="white" stroke="none" x="0" y="0" width="400" height="200" class="dcg-svg-background"/></g><g id="background-images-2586406e"/><g id="graphpaper-2586406e"><g id="grid-2586406e"><g><path fill="none" stroke="rgb(0,0,0)" class="dcg-svg-minor-gridline" paint-order="fill stroke markers" d=" M -0.5 0 L -0.5 200" stroke-opacity="0.12" stroke-miterlimit="10" stroke-dasharray=""/><path fill="none" stroke="rgb(0,0,0)" class="dcg-svg-minor-gridline" paint-order="fill stroke markers" d=" M 19.5 0 L 19.5 200" stroke-opacity="0.12" stroke-miterlimit="10" stroke-dasharray=""/><path fill="none" stroke="rgb(0,0,0)" class="dcg-svg-minor-gridline" paint-order="fill stroke markers" d=" M 39.5 0 L 39.5 200" stroke-opacity="0.12" stroke-miterlimit="10" stroke-dasharray=""/><path fill="none" stroke="rgb(0,0,0)" class="dcg-svg-minor-gridline" paint-order="fill stroke markers" d=" M 59.5 0 L 59.5 200" stroke-opacity="0.12" stroke-miterlimit="10" stroke-dasharray=""/><path fill="none" stroke="rgb(0,0,0)" class="dcg-svg-minor-gridline" paint-order="fill stroke markers" d=" M 79.5 0 L 79.5 200" stroke-opacity="0.12" stroke-miterlimit="10" stroke-dasharray=""/><path fill="none" stroke="rgb(0,0,0)" class="dcg-svg-minor-gridline" paint-order="fill stroke markers" d=" M 99.5 0 L 99.5 200" stroke-opacity="0.12" stroke-miterlimit="10" stroke-dasharray=""/><path fill="none" stroke="rgb(0,0,0)" class="dcg-svg-minor-gridline" paint-order="fill stroke markers" d=" M 119.5 0 L 119.5 200" stroke-opacity="0.12" stroke-miterlimit="10" stroke-dasharray=""/><path fill="none" stroke="rgb(0,0,0)" class="dcg-svg-minor-gridline" paint-order="fill stroke markers" d=" M 139.5 0 L 139.5 200" stroke-opacity="0.12" stroke-miterlimit="10" stroke-dasharray=""/><path fill="none" stroke="rgb(0,0,0)" class="dcg-svg-minor-gridline" paint-order="fill stroke markers" d=" M 159.5 0 L 159.5 200" stroke-opacity="0.12" stroke-miterlimit="10" stroke-dasharray=""/><path fill="none" stroke="rgb(0,0,0)" class="dcg-svg-minor-gridline" paint-order="fill stroke markers" d=" M 179.5 0 L 179.5 200" stroke-opacity="0.12" stroke-miterlimit="10" stroke-dasharray=""/><path fill="none" stroke="rgb(0,0,0)" class="dcg-svg-minor-gridline" paint-order="fill stroke markers" d=" M 219.5 0 L 219.5 200" stroke-opacity="0.12" stroke-miterlimit="10" stroke-dasharray=""/><path fill="none" stroke="rgb(0,0,0)" class="dcg-svg-minor-gridline" paint-order="fill stroke markers" d=" M 239.5 0 L 239.5 200" stroke-opacity="0.12" stroke-miterlimit="10" stroke-dasharray=""/><path fill="none" stroke="rgb(0,0,0)" class="dcg-svg-minor-gridline" paint-order="fill stroke markers" d=" M 259.5 0 L 259.5 200" stroke-opacity="0.12" stroke-miterlimit="10" stroke-dasharray=""/><path fill="none" stroke="rgb(0,0,0)" class="dcg-svg-minor-gridline" paint-order="fill stroke markers" d=" M 279.5 0 L 279.5 200" stroke-opacity="0.12" stroke-miterlimit="10" stroke-dasharray=""/><path fill="none" stroke="rgb(0,0,0)" class="dcg-svg-minor-gridline" paint-order="fill stroke markers" d=" M 299.5 0 L 299.5 200" stroke-opacity="0.12" stroke-miterlimit="10" stroke-dasharray=""/><path fill="none" stroke="rgb(0,0,0)" class="dcg-svg-minor-gridline" paint-order="fill stroke markers" d=" M 319.5 0 L 319.5 200" stroke-opacity="0.12" stroke-miterlimit="10" stroke-dasharray=""/><path fill="none" stroke="rgb(0,0,0)" class="dcg-svg-minor-gridline" paint-order="fill stroke markers" d=" M 339.5 0 L 339.5 200" stroke-opacity="0.12" stroke-miterlimit="10" stroke-dasharray=""/><path fill="none" stroke="rgb(0,0,0)" class="dcg-svg-minor-gridline" paint-order="fill stroke markers" d=" M 359.5 0 L 359.5 200" stroke-opacity="0.12" stroke-miterlimit="10" stroke-dasharray=""/><path fill="none" stroke="rgb(0,0,0)" class="dcg-svg-minor-gridline" paint-order="fill stroke markers" d=" M 379.5 0 L 379.5 200" stroke-opacity="0.12" stroke-miterlimit="10" stroke-dasharray=""/><path fill="none" stroke="rgb(0,0,0)" class="dcg-svg-minor-gridline" paint-order="fill stroke markers" d=" M 0 159.5 L 400 159.5" stroke-opacity="0.12" stroke-miterlimit="10" stroke-dasharray=""/><path fill="none" stroke="rgb(0,0,0)" class="dcg-svg-minor-gridline" paint-order="fill stroke markers" d=" M 0 139.5 L 400 139.5" stroke-opacity="0.12" stroke-miterlimit="10" stroke-dasharray=""/><path fill="none" stroke="rgb(0,0,0)" class="dcg-svg-minor-gridline" paint-order="fill stroke markers" d=" M 0 119.5 L 400 119.5" stroke-opacity="0.12" stroke-miterlimit="10" stroke-dasharray=""/><path fill="none" stroke="rgb(0,0,0)" class="dcg-svg-minor-gridline" paint-order="fill stroke markers" d=" M 0 99.5 L 400 99.5" stroke-opacity="0.12" stroke-miterlimit="10" stroke-dasharray=""/><path fill="none" stroke="rgb(0,0,0)" class="dcg-svg-minor-gridline" paint-order="fill stroke markers" d=" M 0 79.5 L 400 79.5" stroke-opacity="0.12" stroke-miterlimit="10" stroke-dasharray=""/><path fill="none" stroke="rgb(0,0,0)" class="dcg-svg-minor-gridline" paint-order="fill stroke markers" d=" M 0 59.5 L 400 59.5" stroke-opacity="0.12" stroke-miterlimit="10" stroke-dasharray=""/><path fill="none" stroke="rgb(0,0,0)" class="dcg-svg-minor-gridline" paint-order="fill stroke markers" d=" M 0 39.5 L 400 39.5" stroke-opacity="0.12" stroke-miterlimit="10" stroke-dasharray=""/><path fill="none" stroke="rgb(0,0,0)" class="dcg-svg-minor-gridline" paint-order="fill stroke markers" d=" M 0 19.5 L 400 19.5" stroke-opacity="0.12" stroke-miterlimit="10" stroke-dasharray=""/><path fill="none" stroke="rgb(0,0,0)" class="dcg-svg-minor-gridline" paint-order="fill stroke markers" d=" M 0 -0.5 L 400 -0.5" stroke-opacity="0.12" stroke-miterlimit="10" stroke-dasharray=""/><path fill="none" stroke="rgb(0,0,0)" class="dcg-svg-major-gridline" paint-order="fill stroke markers" d=" M -0.5 0 L -0.5 200" stroke-opacity="0.31818181818181823" stroke-miterlimit="10" stroke-dasharray=""/><path fill="none" stroke="rgb(0,0,0)" class="dcg-svg-major-gridline" paint-order="fill stroke markers" d=" M 99.5 0 L 99.5 200" stroke-opacity="0.31818181818181823" stroke-miterlimit="10" stroke-dasharray=""/><path fill="none" stroke="rgb(0,0,0)" class="dcg-svg-major-gridline" paint-order="fill stroke markers" d=" M 299.5 0 L 299.5 200" stroke-opacity="0.31818181818181823" stroke-miterlimit="10" stroke-dasharray=""/><path fill="none" stroke="rgb(0,0,0)" class="dcg-svg-major-gridline" paint-order="fill stroke markers" d=" M 0 99.5 L 400 99.5" stroke-opacity="0.31818181818181823" stroke-miterlimit="10" stroke-dasharray=""/><path fill="none" stroke="rgb(0,0,0)" class="dcg-svg-major-gridline" paint-order="fill stroke markers" d=" M 0 19.5 L 400 19.5" stroke-opacity="0.31818181818181823" stroke-miterlimit="10" stroke-dasharray=""/></g></g><g id="axis-2586406e"><g id="yaxis-2586406e"><title>Y axis</title><path fill="none" stroke="rgb(0,0,0)" class="dcg-svg-axis-line" paint-order="fill stroke markers" d=" M 199.75 0 L 199.75 200" stroke-opacity="0.9" stroke-miterlimit="10" stroke-width="1.5" stroke-dasharray=""/></g><g id="xaxis-2586406e"><title>X axis</title><path fill="none" stroke="rgb(0,0,0)" class="dcg-svg-axis-line" paint-order="fill stroke markers" d=" M 0 179.75 L 400 179.75" stroke-opacity="0.9" stroke-miterlimit="10" stroke-width="1.5" stroke-dasharray=""/></g><g/></g></g><g id="expressions-2586406e"><g id="sketch-2586406e"><title>Expression 1</title><path fill="#2d70b3" stroke="none" paint-order="stroke fill markers" d="" fill-opacity="0.4"/><g><path fill="none" stroke="#2d70b3" class="dcg-svg-curve" paint-order="fill stroke markers" d=" M -0.5 29.01217235665473 L -0.5 29.01217235665473 L 3.9921875 35.37951337331461 L 8.58203125 41.5849332900371 L 13.171875 47.49976113724344 L 17.76171875 53.136459672672515 L 22.3515625 58.50690562547172 L 26.94140625 63.622414720897666 L 31.53125 68.49376552296178 L 36.12109375 73.13122214525718 L 40.7109375 77.54455587781987 L 45.3984375 81.83012733609274 L 50.0859375 85.90105284203295 L 54.7734375 89.76627893829755 L 59.4609375 93.43430010853622 L 64.1484375 96.91317744544615 L 68.93359375 100.2773743533588 L 73.71875 103.46013489193314 L 78.50390625 106.4687482479624 L 83.38671875 109.36639638345345 L 88.26953125 112.09679975314046 L 93.25 114.7162660650253 L 98.23046875 117.1750026579283 L 103.30859375 119.52278166174068 L 108.484375 121.75655852709119 L 113.7578125 123.87339056932913 L 119.12890625 125.87040525522225 L 124.59765625 127.7447656712472 L 130.1640625 129.49363304108857 L 135.92578125 131.14068983399167 L 141.8828125 132.6747968449506 L 148.03515625 134.08478185945893 L 154.1875 135.32280998693392 L 160.2421875 136.37785733648343 L 166.19921875 137.2615441497784 L 172.05859375 137.98446376881523 L 177.91796875 138.5648103220841 L 183.6796875 138.99839053302452 L 189.44140625 139.29747871861377 L 195.203125 139.46306804866333 L 200.8671875 139.4962615384474 L 206.53125 139.4010823041119 L 212.1953125 139.17722491376315 L 217.95703125 138.81673962053495 L 223.71875 138.32115910125694 L 229.48046875 137.68883770212327 L 235.33984375 136.90339442507587 L 241.19921875 135.97166546321142 L 247.15625 134.87114393187693 L 253.11328125 133.6122046154418 L 259.16796875 132.16568559667618 L 265.22265625 130.5455895583322 L 270.984375 128.83728285845402 L 276.55078125 127.02717414434264 L 282.01953125 125.09048206512708 L 287.390625 123.02997889827955 L 292.6640625 120.84844607979144 L 297.83984375 118.54871147640324 L 302.91796875 116.13368374384326 L 307.8984375 113.6063838958742 L 312.78125 110.96997418211126 L 317.6640625 108.17014368961404 L 322.44921875 105.26132641175005 L 327.234375 102.18248705634946 L 332.01953125 98.9265744378468 L 336.70703125 95.55824072386552 L 341.39453125 92.00543089284959 L 346.08203125 88.26033704837369 L 350.671875 84.39903164092638 L 355.26171875 80.33734502881657 L 359.8515625 76.06671909039378 L 364.44140625 71.57815546123571 L 369.03125 66.86219657426676 L 373.5234375 62.0168367625069 L 378.015625 56.93435901080866 L 382.5078125 51.60450528201113 L 387 46.01651825649918 L 391.4921875 40.159119620552104 L 395.984375 34.02048730316264 L 399.5 29.01217235665473" stroke-linecap="round" stroke-linejoin="round" stroke-miterlimit="10" stroke-width="2.5" stroke-opacity="0.9" stroke-dasharray=""/></g></g></g><g id="labels-2586406e"/></g></svg>