<svg version="1.1" xmlns="http://www.w3.org/2000/svg" xmlns:xlink="http://www.w3.org/1999/xlink" width="100" height="100"><defs/><g transform="scale(1,1)"><g id="background-6f20c643"><rect fill="white" stroke="none" x="0" y="0" width="100" height="100" class="dcg-svg-background"/></g><g id="background-images-6f20c643"/><g id="graphpaper-6f20c643"><g id="grid-6f20c643"><g><path fill="none" stroke="rgb(0,0,0)" class="dcg-svg-minor-gridline" paint-order="fill stroke markers" d=" M -0.5 0 L -0.5 100" stroke-opacity="0.12" stroke-miterlimit="10" stroke-dasharray=""/><path fill="none" stroke="rgb(0,0,0)" class="dcg-svg-minor-gridline" paint-order="fill stroke markers" d=" M 24.5 0 L 24.5 100" stroke-opacity="0.12" stroke-miterlimit="10" stroke-dasharray=""/><path fill="none" stroke="rgb(0,0,0)" class="dcg-svg-minor-gridline" paint-order="fill stroke markers" d=" M 74.5 0 L 74.5 100" stroke-opacity="0.12" stroke-miterlimit="10" stroke-dasharray=""/><path fill="none" stroke="rgb(0,0,0)" class="dcg-svg-minor-gridline" paint-order="fill stroke markers" d=" M 0 62.5 L 100 62.5" stroke-opacity="0.12" stroke-miterlimit="10" stroke-dasharray=""/><path fill="none" stroke="rgb(0,0,0)" class="dcg-svg-minor-gridline" paint-order="fill stroke markers" d=" M 0 37.5 L 100 37.5" stroke-opacity="0.12" stroke-miterlimit="10" stroke-dasharray=""/><path fill="none" stroke="rgb(0,0,0)" class="dcg-svg-minor-gridline" paint-order="fill stroke markers" d=" M 0 12.5 L 100 12.5" stroke-opacity="0.12" stroke-miterlimit="10" stroke-dasharray=""/></g></g><g id="axis-6f20c643"><g id="yaxis-6f20c643"><title>Y axis</title><path fill="none" stroke="rgb(0,0,0)" class="dcg-svg-axis-line" paint-order="fill stroke markers" d=" M 49.75 0 L 49.75 100" stroke-opacity="0.9" stroke-miterlimit="10" stroke-width="1.5" stroke-dasharray=""/></g><g id="xaxis-6f20c643"><title>X axis</title><path fill="none" stroke="rgb(0,0,0)" class="dcg-svg-axis-line" paint-order="fill stroke markers" d=" M 0 87.75 L 100 87.75" stroke-opacity="0.9" stroke-miterlimit="10" stroke-width="1.5" stroke-dasharray=""/></g><g/></g></g><g id="expressions-6f20c643"><g id="sketch-6f20c643"><title>Expression 1</title><path fill="#2d70b3" stroke="none" paint-order="stroke fill markers" d="" fill-opacity="0.4"/><g><path fill="none" stroke="#2d70b3" class="dcg-svg-curve" paint-order="fill stroke markers" d=" M 24.5 8.460183660255169 L 24.5 8.460183660255169 L 24.548828125 10.022938085229924 L 24.646484375 11.16783624216744 L 24.79296875 12.291258897658082 L 24.98828125 13.409320140246521 L 25.232421875 14.526592644320715 L 25.5498046875 15.73079352048073 L 25.916015625 16.914734546990488 L 26.35546875 18.15267017414736 L 26.84375 19.371909378628146 L 27.4052734375 20.632603214584208 L 28.0400390625 21.926606456990854 L 28.7724609375 23.292621242379553 L 29.578125 24.67747129345142 L 30.4814453125 26.118695809306402 L 31.5068359375 27.64488226666188 L 32.654296875 29.245652954230522 L 33.9482421875 30.94548827440481 L 35.4130859375 32.765391058999285 L 37.0732421875 34.72461296441149 L 38.953125 36.84228255351674 L 41.150390625 39.21690363539469 L 43.8115234375 41.99134922637667 L 47.400390625 45.628006365762616 L 56.0185546875 54.324864429943275 L 58.6796875 57.12967916773249 L 60.8525390625 59.514180596313714 L 62.7080078125 61.645617318768416 L 64.3193359375 63.59254629579293 L 65.7353515625 65.40043316980882 L 66.98046875 67.08769466719889 L 68.0791015625 68.67476159751365 L 69.0556640625 70.18588713484061 L 69.9345703125 71.65142399427573 L 70.7158203125 73.06497554967041 L 71.3994140625 74.41650901344674 L 71.9853515625 75.69077038201945 L 72.498046875 76.9271216262457 L 72.9619140625 78.18489561226556 L 73.3525390625 79.3962254026975 L 73.669921875 80.53968744006883 L 73.9384765625 81.691336435997 L 74.158203125 82.86128908316033 L 74.3046875 83.87296191017543 L 74.4267578125 85.08586862711986 L 74.4755859375 85.89505572135712 L 74.5 87" stroke-linecap="round" stroke-linejoin="round" stroke-miterlimit="10" stroke-width="2.5" stroke-opacity="0.9" stroke-dasharray=""/></g></g></g><g id="labels-6f20c643"/></g></svg>