<svg version="1.1" xmlns="http://www.w3.org/2000/svg" xmlns:xlink="http://www.w3.org/1999/xlink" width="600" height="400"><defs/><g transform="scale(1,1)"><g id="background-51a362df"><rect fill="white" stroke="none" x="0" y="0" width="600" height="400" class="dcg-svg-background"/></g><g id="background-images-51a362df"/><g id="graphpaper-51a362df"><g id="grid-51a362df"><g><path fill="none" stroke="rgb(0,0,0)" class="dcg-svg-minor-gridline" paint-order="fill stroke markers" d=" M -0.5 0 L -0.5 400" stroke-opacity="0.12" stroke-miterlimit="10" stroke-dasharray=""/><path fill="none" stroke="rgb(0,0,0)" class="dcg-svg-minor-gridline" paint-order="fill stroke markers" d=" M 32.5 0 L 32.5 400" stroke-opacity="0.12" stroke-miterlimit="10" stroke-dasharray=""/><path fill="none" stroke="rgb(0,0,0)" class="dcg-svg-minor-gridline" paint-order="fill stroke markers" d=" M 66.5 0 L 66.5 400" stroke-opacity="0.12" stroke-miterlimit="10" stroke-dasharray=""/><path fill="none" stroke="rgb(0,0,0)" class="dcg-svg-minor-gridline" paint-order="fill stroke markers" d=" M 99.5 0 L 99.5 400" stroke-opacity="0.12" stroke-miterlimit="10" stroke-dasharray=""/><path fill="none" stroke="rgb(0,0,0)" class="dcg-svg-minor-gridline" paint-order="fill stroke markers" d=" M 132.5 0 L 132.5 400" stroke-opacity="0.12" stroke-miterlimit="10" stroke-dasharray=""/><path fill="none" stroke="rgb(0,0,0)" class="dcg-svg-minor-gridline" paint-order="fill stroke markers" d=" M 166.5 0 L 166.5 400" stroke-opacity="0.12" stroke-miterlimit="10" stroke-dasharray=""/><path fill="none" stroke="rgb(0,0,0)" class="dcg-svg-minor-gridline" paint-order="fill stroke markers" d=" M 199.5 0 L 199.5 400" stroke-opacity="0.12" stroke-miterlimit="10" stroke-dasharray=""/><path fill="none" stroke="rgb(0,0,0)" class="dcg-svg-minor-gridline" paint-order="fill stroke markers" d=" M 232.5 0 L 232.5 400" stroke-opacity="0.12" stroke-miterlimit="10" stroke-dasharray=""/><path fill="none" stroke="rgb(0,0,0)" class="dcg-svg-minor-gridline" paint-order="fill stroke markers" d=" M 266.5 0 L 266.5 400" stroke-opacity="0.12" stroke-miterlimit="10" stroke-dasharray=""/><path fill="none" stroke="rgb(0,0,0)" class="dcg-svg-minor-gridline" paint-order="fill stroke markers" d=" M 299.5 0 L 299.5 400" stroke-opacity="0.12" stroke-miterlimit="10" stroke-dasharray=""/><path fill="none" stroke="rgb(0,0,0)" class="dcg-svg-minor-gridline" paint-order="fill stroke markers" d=" M 332.5 0 L 332.5 400" stroke-opacity="0.12" stroke-miterlimit="10" stroke-dasharray=""/><path fill="none" stroke="rgb(0,0,0)" class="dcg-svg-minor-gridline" paint-order="fill stroke markers" d=" M 366.5 0 L 366.5 400" stroke-opacity="0.12" stroke-miterlimit="10" stroke-dasharray=""/><path fill="none" stroke="rgb(0,0,0)" class="dcg-svg-minor-gridline" paint-order="fill stroke markers" d=" M 399.5 0 L 399.5 400" stroke-opacity="0.12" stroke-miterlimit="10" stroke-dasharray=""/><path fill="none" stroke="rgb(0,0,0)" class="dcg-svg-minor-gridline" paint-order="fill stroke markers" d=" M 432.5 0 L 432.5 400" stroke-opacity="0.12" stroke-miterlimit="10" stroke-dasharray=""/><path fill="none" stroke="rgb(0,0,0)" class="dcg-svg-minor-gridline" paint-order="fill stroke markers" d=" M 466.5 0 L 466.5 400" stroke-opacity="0.12" stroke-miterlimit="10" stroke-dasharray=""/><path fill="none" stroke="rgb(0,0,0)" class="dcg-svg-minor-gridline" paint-order="fill stroke markers" d=" M 499.5 0 L 499.5 400" stroke-opacity="0.12" stroke-miterlimit="10" stroke-dasharray=""/><path fill="none" stroke="rgb(0,0,0)" class="dcg-svg-minor-gridline" paint-order="fill stroke markers" d=" M 532.5 0 L 532.5 400" stroke-opacity="0.12" stroke-miterlimit="10" stroke-dasharray=""/><path fill="none" stroke="rgb(0,0,0)" class="dcg-svg-minor-gridline" paint-order="fill stroke markers" d=" M 566.5 0 L 566.5 400" stroke-opacity="0.12" stroke-miterlimit="10" stroke-dasharray=""/><path fill="none" stroke="rgb(0,0,0)" class="dcg-svg-minor-gridline" paint-order="fill stroke markers" d=" M 0 379.5 L 600 379.5" stroke-opacity="0.12" stroke-miterlimit="10" stroke-dasharray=""/><path fill="none" stroke="rgb(0,0,0)" class="dcg-svg-minor-gridline" paint-order="fill stroke markers" d=" M 0 359.5 L 600 359.5" stroke-opacity="0.12" stroke-miterlimit="10" stroke-dasharray=""/><path fill="none" stroke="rgb(0,0,0)" class="dcg-svg-minor-gridline" paint-order="fill stroke markers" d=" M 0 339.5 L 600 339.5" stroke-opacity="0.12" stroke-miterlimit="10" stroke-dasharray=""/><path fill="none" stroke="rgb(0,0,0)" class="dcg-svg-minor-gridline" paint-order="fill stroke markers" d=" M 0 319.5 L 600 319.5" stroke-opacity="0.12" stroke-miterlimit="10" stroke-dasharray=""/><path fill="none" stroke="rgb(0,0,0)" class="dcg-svg-minor-gridline" paint-order="fill stroke markers" d=" M 0 299.5 L 600 299.5" stroke-opacity="0.12" stroke-miterlimit="10" stroke-dasharray=""/><path fill="none" stroke="rgb(0,0,0)" class="dcg-svg-minor-gridline" paint-order="fill stroke markers" d=" M 0 279.5 L 600 279.5" stroke-opacity="0.12" stroke-miterlimit="10" stroke-dasharray=""/><path fill="none" stroke="rgb(0,0,0)" class="dcg-svg-minor-gridline" paint-order="fill stroke markers" d=" M 0 259.5 L 600 259.5" stroke-opacity="0.12" stroke-miterlimit="10" stroke-dasharray=""/><path fill="none" stroke="rgb(0,0,0)" class="dcg-svg-minor-gridline" paint-order="fill stroke markers" d=" M 0 239.5 L 600 239.5" stroke-opacity="0.12" stroke-miterlimit="10" stroke-dasharray=""/><path fill="none" stroke="rgb(0,0,0)" class="dcg-svg-minor-gridline" paint-order="fill stroke markers" d=" M 0 219.5 L 600 219.5" stroke-opacity="0.12" stroke-miterlimit="10" stroke-dasharray=""/><path fill="none" stroke="rgb(0,0,0)" class="dcg-svg-minor-gridline" paint-order="fill stroke markers" d=" M 0 199.5 L 600 199.5" stroke-opacity="0.12" stroke-miterlimit="10" stroke-dasharray=""/><path fill="none" stroke="rgb(0,0,0)" class="dcg-svg-minor-gridline" paint-order="fill stroke markers" d=" M 0 179.5 L 600 179.5" stroke-opacity="0.12" stroke-miterlimit="10" stroke-dasharray=""/><path fill="none" stroke="rgb(0,0,0)" class="dcg-svg-minor-gridline" paint-order="fill stroke markers" d=" M 0 159.5 L 600 159.5" stroke-opacity="0.12" stroke-miterlimit="10" stroke-dasharray=""/><path fill="none" stroke="rgb(0,0,0)" class="dcg-svg-minor-gridline" paint-order="fill stroke markers" d=" M 0 139.5 L 600 139.5" stroke-opacity="0.12" stroke-miterlimit="10" stroke-dasharray=""/><path fill="none" stroke="rgb(0,0,0)" class="dcg-svg-minor-gridline" paint-order="fill stroke markers" d=" M 0 99.5 L 600 99.5" stroke-opacity="0.12" stroke-miterlimit="10" stroke-dasharray=""/><path fill="none" stroke="rgb(0,0,0)" class="dcg-svg-minor-gridline" paint-order="fill stroke markers" d=" M 0 79.5 L 600 79.5" stroke-opacity="0.12" stroke-miterlimit="10" stroke-dasharray=""/><path fill="none" stroke="rgb(0,0,0)" class="dcg-svg-minor-gridline" paint-order="fill stroke markers" d=" M 0 59.5 L 600 59.5" stroke-opacity="0.12" stroke-miterlimit="10" stroke-dasharray=""/><path fill="none" stroke="rgb(0,0,0)" class="dcg-svg-minor-gridline" paint-order="fill stroke markers" d=" M 0 39.5 L 600 39.5" stroke-opacity="0.12" stroke-miterlimit="10" stroke-dasharray=""/><path fill="none" stroke="rgb(0,0,0)" class="dcg-svg-minor-gridline" paint-order="fill stroke markers" d=" M 0 19.5 L 600 19.5" stroke-opacity="0.12" stroke-miterlimit="10" stroke-dasharray=""/><path fill="none" stroke="rgb(0,0,0)" class="dcg-svg-minor-gridline" paint-order="fill stroke markers" d=" M 0 -0.5 L 600 -0.5" stroke-opacity="0.12" stroke-miterlimit="10" stroke-dasharray=""/><path fill="none" stroke="rgb(0,0,0)" class="dcg-svg-major-gridline" paint-order="fill stroke markers" d=" M 66.5 0 L 66.5 400" stroke-opacity="0.31818181818181823" stroke-miterlimit="10" stroke-dasharray=""/><path fill="none" stroke="rgb(0,0,0)" class="dcg-svg-major-gridline" paint-order="fill stroke markers" d=" M 199.5 0 L 199.5 400" stroke-opacity="0.31818181818181823" stroke-miterlimit="10" stroke-dasharray=""/><path fill="none" stroke="rgb(0,0,0)" class="dcg-svg-major-gridline" paint-order="fill stroke markers" d=" M 332.5 0 L 332.5 400" stroke-opacity="0.31818181818181823" stroke-miterlimit="10" stroke-dasharray=""/><path fill="none" stroke="rgb(0,0,0)" class="dcg-svg-major-gridline" paint-order="fill stroke markers" d=" M 466.5 0 L 466.5 400" stroke-opacity="0.31818181818181823" stroke-miterlimit="10" stroke-dasharray=""/><path fill="none" stroke="rgb(0,0,0)" class="dcg-svg-major-gridline" paint-order="fill stroke markers" d=" M 0 359.5 L 600 359.5" stroke-opacity="0.31818181818181823" stroke-miterlimit="10" stroke-dasharray=""/><path fill="none" stroke="rgb(0,0,0)" class="dcg-svg-major-gridline" paint-order="fill stroke markers" d=" M 0 279.5 L 600 279.5" stroke-opacity="0.31818181818181823" stroke-miterlimit="10" stroke-dasharray=""/><path fill="none" stroke="rgb(0,0,0)" class="dcg-svg-major-gridline" paint-order="fill stroke markers" d=" M 0 199.5 L 600 199.5" stroke-opacity="0.31818181818181823" stroke-miterlimit="10" stroke-dasharray=""/><path fill="none" stroke="rgb(0,0,0)" class="dcg-svg-major-gridline" paint-order="fill stroke markers" d=" M 0 39.5 L 600 39.5" stroke-opacity="0.31818181818181823" stroke-miterlimit="10" stroke-dasharray=""/></g></g><g id="axis-51a362df"><g id="yaxis-51a362df"><title>Y axis</title><path fill="none" stroke="rgb(0,0,0)" class="dcg-svg-axis-line" paint-order="fill stroke markers" d=" M -67.25 0 L -67.25 400" stroke-opacity="0.9" stroke-miterlimit="10" stroke-width="1.5" stroke-dasharray=""/></g><g id="xaxis-51a362df"><title>X axis</title><path fill="none" stroke="rgb(0,0,0)" class="dcg-svg-axis-line" paint-order="fill stroke markers" d=" M 0 119.75 L 600 119.75" stroke-opacity="0.9" stroke-miterlimit="10" stroke-width="1.5" stroke-dasharray=""/></g><g><g class="dcg-svg-axis-value"><text fill="none" stroke="#ffffff" font-family="Arial" font-size="14px" font-style="normal" font-weight="normal" text-decoration="normal" x="-75.55973307291667" y="135.808" text-anchor="middle" stroke-miterlimit="2" stroke-width="3" stroke-dasharray="">0</text><text fill="#000000" stroke="none" font-family="Arial" font-size="14px" font-style="normal" font-weight="normal" text-decoration="normal" x="-75.55973307291667" y="135.808" text-anchor="middle">0</text></g><g class="dcg-svg-axis-value"><text fill="none" stroke="#ffffff" font-family="Arial" font-size="14px" font-style="normal" font-weight="normal" text-decoration="normal" x="66.66666666666667" y="135.808" text-anchor="middle" stroke-miterlimit="2" stroke-width="3" stroke-dasharray="">2</text><text fill="#000000" stroke="none" font-family="Arial" font-size="14px" font-style="normal" font-weight="normal" text-decoration="normal" x="66.66666666666667" y="135.808" text-anchor="middle">2</text></g><g class="dcg-svg-axis-value"><text fill="none" stroke="#ffffff" font-family="Arial" font-size="14px" font-style="normal" font-weight="normal" text-decoration="normal" x="200" y="135.808" text-anchor="middle" stroke-miterlimit="2" stroke-width="3" stroke-dasharray="">4</text><text fill="#000000" stroke="none" font-family="Arial" font-size="14px" font-style="normal" font-weight="normal" text-decoration="normal" x="200" y="135.808" text-anchor="middle">4</text></g><g class="dcg-svg-axis-value"><text fill="none" stroke="#ffffff" font-family="Arial" font-size="14px" font-style="normal" font-weight="normal" text-decoration="normal" x="333.3333333333333" y="135.808" text-anchor="middle" stroke-miterlimit="2" stroke-width="3" stroke-dasharray="">6</text><text fill="#000000" stroke="none" font-family="Arial" font-size="14px" font-style="normal" font-weight="normal" text-decoration="normal" x="333.3333333333333" y="135.808" text-anchor="middle">6</text></g><g class="dcg-svg-axis-value"><text fill="none" stroke="#ffffff" font-family="Arial" font-size="14px" font-style="normal" font-weight="normal" text-decoration="normal" x="466.6666666666667" y="135.808" text-anchor="middle" stroke-miterlimit="2" stroke-width="3" stroke-dasharray="">8</text><text fill="#000000" stroke="none" font-family="Arial" font-size="14px" font-style="normal" font-weight="normal" text-decoration="normal" x="466.6666666666667" y="135.808" text-anchor="middle">8</text></g><g class="dcg-svg-axis-value dcg-svg-offcenter-axis-value"><text fill="none" stroke="#ffffff" font-family="Arial" font-size="14px" font-style="normal" font-weight="normal" text-decoration="normal" x="589.2138671875" y="135.808" text-anchor="middle" stroke-miterlimit="2" stroke-width="3" stroke-dasharray="">10</text><text fill="#000000" stroke="none" font-family="Arial" font-size="14px" font-style="normal" font-weight="normal" text-decoration="normal" x="589.2138671875" y="135.808" text-anchor="middle">10</text></g><g class="dcg-svg-axis-value"><text fill="none" stroke="#ffffff" font-family="Arial" font-size="14px" font-style="normal" font-weight="normal" text-decoration="normal" x="9.22412109375" y="363.808" text-anchor="middle" stroke-miterlimit="2" stroke-width="3" stroke-dasharray="">-6</text><text fill="rgb(150,150,150)" stroke="none" font-family="Arial" font-size="14px" font-style="normal" font-weight="normal" text-decoration="normal" x="9.22412109375" y="363.808" text-anchor="middle" fill-opacity="1">-6</text></g><g class="dcg-svg-axis-value"><text fill="none" stroke="#ffffff" font-family="Arial" font-size="14px" font-style="normal" font-weight="normal" text-decoration="normal" x="9.22412109375" y="283.808" text-anchor="middle" stroke-miterlimit="2" stroke-width="3" stroke-dasharray="">-4</text><text fill="rgb(150,150,150)" stroke="none" font-family="Arial" font-size="14px" font-style="normal" font-weight="normal" text-decoration="normal" x="9.22412109375" y="283.808" text-anchor="middle" fill-opacity="1">-4</text></g><g class="dcg-svg-axis-value"><text fill="none" stroke="#ffffff" font-family="Arial" font-size="14px" font-style="normal" font-weight="normal" text-decoration="normal" x="9.22412109375" y="203.808" text-anchor="middle" stroke-miterlimit="2" stroke-width="3" stroke-dasharray="">-2</text><text fill="rgb(150,150,150)" stroke="none" font-family="Arial" font-size="14px" font-style="normal" font-weight="normal" text-decoration="normal" x="9.22412109375" y="203.808" text-anchor="middle" fill-opacity="1">-2</text></g><g class="dcg-svg-axis-value"><text fill="none" stroke="#ffffff" font-family="Arial" font-size="14px" font-style="normal" font-weight="normal" text-decoration="normal" x="6.89306640625" y="43.808" text-anchor="middle" stroke-miterlimit="2" stroke-width="3" stroke-dasharray="">2</text><text fill="rgb(150,150,150)" stroke="none" font-family="Arial" font-size="14px" font-style="normal" font-weight="normal" text-decoration="normal" x="6.89306640625" y="43.808" text-anchor="middle" fill-opacity="1">2</text></g></g></g></g><g id="expressions-51a362df"><g id="sketch-51a362df"><title>Expression 1</title><path fill="#2d70b3" stroke="none" paint-order="stroke fill markers" d="" fill-opacity="0.4"/><path fill="#2d70b3" stroke="none" class="dcg-svg-region" paint-order="stroke fill markers" d=" M -3 -3 L -0.4226804123711343 -3 L -0.38281250000000294 79.5 L 66.15051132440568 79.529296875 L 66.23198342323303 99.3046875 L 67.46875 99.5 L 132.72753906250003 99.5 L 132.81366365334023 99.80155701889345 L 132.89139856398106 106.1162109375 L 132.068359375 106.0887451171875 L 128.6900634765625 105.841552734375 L 128.6900634765625 105.88275146484375 L 127.20690917968751 105.731689453125 L 126.63012695312501 105.731689453125 L 126.13574218750001 105.6767578125 L 124.32299804687501 105.56689453125 L 124.15820312500001 105.45703125 L 124.07580566406251 105.511962890625 L 124.07580566406251 105.511962890625 L 118.88476562500001 105.12744140625 L 116.98962402343751 105.017578125 L 116.90722656250001 104.90771484375 L 116.82482910156251 105.00384521484375 L 114.92968750000001 104.7978515625 L 114.60009765625001 104.7978515625 L 112.95214843750001 104.68798828125 L 112.37536621093751 104.633056640625 L 112.37536621093751 104.633056640625 L 112.29296875000001 104.578125 L 112.21057128906251 104.633056640625 L 112.21057128906251 104.633056640625 L 106.27795410156251 104.083740234375 L 106.27795410156251 104.12493896484375 L 104.38281250000001 103.9189453125 L 104.05322265625001 103.9189453125 L 103.22924804687501 103.80908203125 L 101.66369628906251 103.69921875 L 82.95947265625 101.7216796875 L 82.3826904296875 101.666748046875 L 62.11291503906251 98.865234375 L 60.62976074218751 98.590576171875 L 56.83947753906251 97.986328125 L 55.35632324218751 97.711669921875 L 49.176513671875 96.55810546875 L 49.01171875 96.4482421875 L 48.187744140625 96.33837890625 L 32.5322265625 92.712890625 L 29.730712890625004 91.94384765625 L 27.753173828125004 91.39453125 L 25.198852539062504 90.570556640625 L 24.869262695312504 90.515625 L 24.869262695312504 90.515625 L 21.326171875 89.30712890625 L 20.2550048828125 88.99127197265625 L 20.0078125 88.86767578125 L 20.0078125 88.86767578125 L 19.5958251953125 88.7578125 L 9.955322265625 84.91259765625 L 6.165039062500001 83.044921875 L 0.3148193359375001 79.96875 L 0.232421875 79.85888671875 L -1.1683349609375 79.08984375 L -2.4866943359375 78.265869140625 L -2.569091796875 78.2109375 L -2.569091796875 78.2109375 L -3 77.90953722677595 M 161.072265625 107.76416015625 L 158.0235595703125 107.654296875 L 157.6939697265625 107.599365234375 L 157.6939697265625 107.64056396484375 L 156.293212890625 107.54443359375 L 154.15087890625 107.4345703125 L 153.8212890625 107.32470703125 L 152.9149169921875 107.379638671875 L 151.1845703125 107.21484375 L 148.053466796875 107.10498046875 L 147.888671875 106.9951171875 L 147.2294921875 106.9951171875 L 144.427978515625 106.88525390625 L 143.93359375 106.775390625 L 142.615234375 106.775390625 L 140.6376953125 106.66552734375 L 139.64892578125 106.5556640625 L 137.177001953125 106.44580078125 L 136.0234375 106.3359375 L 134.6226806640625 106.281005859375 L 133.76513671875 106.16666666666669 L 199.4709271233638 106.22511108442416 L 199.54970729351047 109.412109375 L 194.36083984375 109.30224609375 L 190.7353515625 109.08251953125 L 189.911376953125 109.08251953125 L 186.2034912109375 108.97265625 L 186.12109375 108.86279296875 L 186.0386962890625 108.917724609375 L 184.1435546875 108.86279296875 L 181.17724609375 108.7529296875 L 177.5517578125 108.533203125 L 177.4693603515625 108.588134765625 L 174.9150390625 108.42333984375 L 174.8326416015625 108.478271484375 L 166.4281005859375 108.038818359375 L 166.345703125 107.98388671875 L 166.2633056640625 108.038818359375 L 163.708984375 107.8740234375 L 163.0498046875 107.8740234375 L 161.072265625 107.76416015625 M 206.6875 109.5 L 265.8818359375 109.5 L 266.1435122489929 109.8515625 L 266.27226851756046 111.48572981580435 L 261.9267578125 111.3896484375 L 261.267578125 111.3621826171875 L 258.136474609375 111.27978515625 L 253.02783203125003 111.169921875 L 252.61584472656253 111.114990234375 L 252.61584472656253 111.15618896484375 L 245.77685546875003 110.9501953125 L 240.83300781250003 110.84033203125 L 240.25622558593753 110.785400390625 L 240.25622558593753 110.785400390625 L 240.17382812500003 110.73046875 L 240.09143066406253 110.785400390625 L 240.09143066406253 110.785400390625 L 238.19628906250003 110.73046875 L 233.41723632812503 110.62060546875 L 232.26367187500003 110.5107421875 L 231.60449218750003 110.5107421875 L 226.16625976562503 110.40087890625 L 225.67187500000003 110.291015625 L 224.35351562500003 110.291015625 L 222.29357910156253 110.236083984375 L 222.29357910156253 110.27728271484375 L 214.46582031250003 109.96142578125 L 213.64184570312503 109.96142578125 L 209.27478027343753 109.8515625 L 205.89648437500003 109.6318359375 L 205.5153961181641 109.70736694335938 L 201.94140625000003 109.52197265625 L 200.49121093750003 109.5 L 206.6875 109.5 M 295.544921875 112.048828125 L 293.6497802734375 112.103759765625 L 293.5673828125 112.048828125 L 293.4849853515625 112.103759765625 L 291.58984375 112.048828125 L 285.6572265625 111.93896484375 L 284.998046875 111.9114990234375 L 280.71337890625 111.8291015625 L 280.3837890625 111.71923828125 L 279.4774169921875 111.774169921875 L 278.40625 111.71923828125 L 278.1590576171875 111.774169921875 L 276.923095703125 111.71923828125 L 270.82568359375 111.609375 L 270.496826171875 111.5 L 332.7953333854676 111.609375 L 332.86643454787065 112.75991469858042 L 331.964599609375 112.81787109375 L 331.7998046875 112.7080078125 L 330.8934326171875 112.7904052734375 L 329.822265625 112.7080078125 L 329.4102783203125 112.762939453125 L 328.9158935546875 112.762939453125 L 325.53759765625 112.7080078125 L 325.2080078125 112.59814453125 L 324.3016357421875 112.653076171875 L 323.23046875 112.59814453125 L 322.9832763671875 112.653076171875 L 321.912109375 112.59814453125 L 321.747314453125 112.59814453125 L 313.177978515625 112.48828125 L 312.0244140625 112.37841796875 L 310.7060546875 112.37841796875 L 301.80712890625 112.2685546875 L 301.2303466796875 112.213623046875 L 299.9119873046875 112.213623046875 L 298.676025390625 112.15869140625 L 295.544921875 112.048828125 M 270.33203125000006 111.5 L 270.495361328125 111.5 L 270.12530517578125 111.5819091796875 L 269.18872070312494 111.5 L 270.33203125000006 111.5 M 269.0953369140625 111.554443359375 L 267.87036132812494 111.5 L 269.177001953125 111.5 L 269.0953369140625 111.554443359375 M 509.50000000000006 114.5 L 532.7952008928571 114.5 L 532.8436146378516 115.01513671875 L 514.06298828125 114.9052734375 L 505.98803710937506 114.79541015625 L 505.8850402832032 114.83660888671875 L 503.35131835937506 114.79541015625 L 487.36621093750006 114.685546875 L 484.64709472656256 114.630615234375 L 482.01037597656256 114.630615234375 L 480.11523437500006 114.57568359375 L 473.77978515625006 114.5 L 509.50000000000006 114.5 M 472.58593750000006 114.5 L 472.95947265625 114.5 L 472.46142578125006 114.5 L 472.58593750000006 114.5 M 471.29870605468756 114.520751953125 L 471.14306640625006 114.5 L 471.64111328125 114.5 L 471.29870605468756 114.520751953125 M 469.94921875000006 114.5 L 470.32275390625 114.5 L 469.82470703125006 114.5 L 469.94921875000006 114.5 M 468.66198730468756 114.520751953125 L 468.50634765625006 114.5 L 469.00439453125 114.5 L 468.66198730468756 114.520751953125 M 543.5006510416667 115.05555555555554 L 599.4396324157715 115.125 L 599.4267578125 115.45458984375 L 574.70751953125 115.3447265625 L 574.3779296875 115.23486328125 L 573.4715576171875 115.289794921875 L 572.6475830078125 115.289794921875 L 572.1531982421875 115.289794921875 L 571.3292236328125 115.289794921875 L 570.8348388671875 115.289794921875 L 569.763671875 115.23486328125 L 569.5164794921875 115.289794921875 L 568.4453125 115.23486328125 L 568.1981201171875 115.289794921875 L 567.126953125 115.23486328125 L 566.8797607421875 115.289794921875 L 565.80859375 115.23486328125 L 565.643798828125 115.23486328125 L 542.40771484375 115.125 L 542.1387532552084 115.05555555555554 L 543.5006510416667 115.05555555555554 M 541.9739583333334 115.05555555555554 L 542.0174967447917 115.05555555555554 L 541.9957275390625 115.070068359375 L 540.9915084838867 115.11470031738281 L 541.9739583333334 115.05555555555554 M 540.6773681640625 115.070068359375 L 539.9048919677734 115.10440063476562 L 540.6991373697917 115.05555555555554 L 540.6773681640625 115.070068359375 M 539.3372395833335 115.05555555555554 L 539.3807779947917 115.05555555555554 L 539.0706176757812 115.0975341796875 L 538.7410278320312 115.0975341796875 L 539.3372395833335 115.05555555555554 M 538.0406494140625 115.070068359375 L 537.654411315918 115.08723449707031 L 538.0421006944446 115.05555555555554 L 538.0624186197917 115.05555555555554 L 538.0406494140625 115.070068359375 M 536.7005208333335 115.05555555555554 L 536.7440592447917 115.05555555555554 L 536.4905471801758 115.08036804199219 L 536.395751953125 115.05555555555554 L 536.7005208333335 115.05555555555554 M 535.4039306640625 115.070068359375 L 535.077392578125 115.05555555555554 L 535.4256998697917 115.05555555555554 L 535.4039306640625 115.070068359375 M 601.966796875 115.5 L 602.1096191406251 115.5 L 601.881103515625 115.5 L 601.966796875 115.5 M 338.24999999999994 112.83333333333331 L 399.45628744363785 112.927734375 L 399.53989250320933 113.71157924820625 L 399.1185302734375 113.751708984375 L 399.1185302734375 113.751708984375 L 395.0810546875 113.69677734375 L 383.875 113.5869140625 L 383.2158203125 113.47705078125 L 382.3094482421875 113.531982421875 L 381.23828125 113.47705078125 L 380.9910888671875 113.531982421875 L 379.919921875 113.47705078125 L 379.6727294921875 113.531982421875 L 378.436767578125 113.47705078125 L 367.72509765625 113.3671875 L 364.099609375 113.25732421875 L 364.0172119140625 113.312255859375 L 364.0172119140625 113.312255859375 L 358.826171875 113.1474609375 L 358.44508361816406 113.22299194335938 L 356.189453125 113.1474609375 L 345.642578125 113.03759765625 L 345.0657958984375 112.982666015625 L 345.0657958984375 112.982666015625 L 343.005859375 112.927734375 L 342.4290771484375 112.982666015625 L 342.4290771484375 112.982666015625 L 340.369140625 112.927734375 L 337.894775390625 112.83333333333331 L 338.24999999999994 112.83333333333331 M 336.9908447265625 112.872802734375 L 336.576416015625 112.83333333333331 L 337.523681640625 112.83333333333331 L 336.9908447265625 112.872802734375 M 335.61328125 112.83333333333331 L 336.20532226562506 112.83333333333331 L 335.258056640625 112.83333333333331 L 335.61328125 112.83333333333331 M 425.3719308035715 113.78571428571428 L 466.1216760123838 113.90716390841078 L 466.16077375411993 114.24609375 L 465.94287109375006 114.4658203125 L 464.95410156250006 114.4658203125 L 451.27612304687506 114.35595703125 L 451.11132812500006 114.24609375 L 451.02893066406256 114.301025390625 L 451.02893066406256 114.301025390625 L 449.13378906250006 114.24609375 L 448.55700683593756 114.301025390625 L 448.55700683593756 114.301025390625 L 448.47460937500006 114.24609375 L 448.39221191406256 114.301025390625 L 448.39221191406256 114.301025390625 L 446.49707031250006 114.24609375 L 445.92028808593756 114.301025390625 L 445.92028808593756 114.301025390625 L 445.83789062500006 114.24609375 L 445.75549316406256 114.301025390625 L 445.75549316406256 114.301025390625 L 443.86035156250006 114.24609375 L 430.01757812500006 114.13623046875 L 429.5025939941407 114.12249755859375 L 428.3181304931641 114.10189819335938 L 426.06250000000006 114.0263671875 L 425.81530761718756 114.081298828125 L 422.9725952148438 114.0538330078125 L 415.02124023437506 113.91650390625 L 414.9182434082032 113.95770263671875 L 412.38452148437506 113.91650390625 L 401.67285156250006 113.806640625 L 401.54729352678567 113.78571428571428 L 425.3719308035715 113.78571428571428" fill-opacity="0.4"/><g><path fill="none" stroke="#2d70b3" class="dcg-svg-curve" paint-order="fill stroke markers" d=" M -0.4267578125 79.5 L 10.573241122491025 79.50484047480434 M 17.573240444758042 79.50792077695255 L 28.57323937974907 79.51276125175688 M 35.573238702016084 79.51584155390509 L 46.57323763700711 79.52068202870943 M 53.573236959274126 79.52376233085764 L 64.57323589426515 79.52860280566198" stroke-linecap="round" stroke-linejoin="round" stroke-miterlimit="10" stroke-width="2.5" stroke-opacity="0.9" stroke-dasharray=""/></g><g><path fill="none" stroke="#2d70b3" class="dcg-svg-curve" paint-order="fill stroke markers" d=" M 66.15413230657579 80.408203125 L 66.15594279766084 80.84765625" stroke-linecap="round" stroke-linejoin="round" stroke-miterlimit="10" stroke-width="2.5" stroke-opacity="0.9" stroke-dasharray=""/></g><g><path fill="none" stroke="#2d70b3" class="dcg-svg-curve" paint-order="fill stroke markers" d=" M 66.98535156250003 99.5 L 77.98535156250003 99.5 M 84.98535156250003 99.5 L 95.98535156250003 99.5 M 102.98535156250003 99.5 L 113.98535156250003 99.5 M 120.98535156250003 99.5 L 131.98535156250003 99.5" stroke-linecap="round" stroke-linejoin="round" stroke-miterlimit="10" stroke-width="2.5" stroke-opacity="0.9" stroke-dasharray=""/></g><g><path fill="none" stroke="#2d70b3" class="dcg-svg-curve" paint-order="fill stroke markers" d=" M 133.76513671875 106.16666666666669 L 144.76513236722766 106.17645101500267 M 151.7651295980771 106.1826774184892 L 162.76512524655476 106.19246176682519 M 169.7651224774042 106.19868817031173 L 180.76511812588186 106.20847251864771 M 187.7651153567313 106.21469892213425 L 198.76511100520895 106.22448327047023" stroke-linecap="round" stroke-linejoin="round" stroke-miterlimit="10" stroke-width="2.5" stroke-opacity="0.9" stroke-dasharray=""/></g><g><path fill="none" stroke="#2d70b3" class="dcg-svg-curve" paint-order="fill stroke markers" d=" M 206.6875 109.5 L 217.6875 109.5 M 224.6875 109.5 L 235.6875 109.5 M 242.6875 109.5 L 253.6875 109.5 M 260.6875 109.5 L 265.8818359375 109.5" stroke-linecap="round" stroke-linejoin="round" stroke-miterlimit="10" stroke-width="2.5" stroke-opacity="0.9" stroke-dasharray=""/></g><g><path fill="none" stroke="#2d70b3" class="dcg-svg-curve" paint-order="fill stroke markers" d=" M 200.49121093750003 109.5 L 206.6875 109.5" stroke-linecap="round" stroke-linejoin="round" stroke-miterlimit="10" stroke-width="2.5" stroke-opacity="0.9" stroke-dasharray=""/></g><g><path fill="none" stroke="#2d70b3" class="dcg-svg-curve" paint-order="fill stroke markers" d=" M 270.496826171875 111.5 L 281.4968092190321 111.51931223073545 M 288.49679843085937 111.53160183211256 L 299.4967814780165 111.55091406284801 M 306.49677068984374 111.56320366422511 L 317.49675373700086 111.58251589496055 M 324.4967429488281 111.59480549633766 L 332.7953333854676 111.609375" stroke-linecap="round" stroke-linejoin="round" stroke-miterlimit="10" stroke-width="2.5" stroke-opacity="0.9" stroke-dasharray=""/></g><g><path fill="none" stroke="#2d70b3" class="dcg-svg-curve" paint-order="fill stroke markers" d=" M 270.33203125000006 111.5 L 270.495361328125 111.5" stroke-linecap="round" stroke-linejoin="round" stroke-miterlimit="10" stroke-width="2.5" stroke-opacity="0.9" stroke-dasharray=""/></g><g><path fill="none" stroke="#2d70b3" class="dcg-svg-curve" paint-order="fill stroke markers" d=" M 269.18872070312494 111.5 L 270.33203125000006 111.5" stroke-linecap="round" stroke-linejoin="round" stroke-miterlimit="10" stroke-width="2.5" stroke-opacity="0.9" stroke-dasharray=""/></g><g><path fill="none" stroke="#2d70b3" class="dcg-svg-curve" paint-order="fill stroke markers" d=" M 267.87036132812494 111.5 L 269.177001953125 111.5" stroke-linecap="round" stroke-linejoin="round" stroke-miterlimit="10" stroke-width="2.5" stroke-opacity="0.9" stroke-dasharray=""/></g><g><path fill="none" stroke="#2d70b3" class="dcg-svg-curve" paint-order="fill stroke markers" d=" M 509.50000000000006 114.5 L 520.5 114.5 M 527.5 114.5 L 532.7952008928571 114.5 M 532.7952008928571 114.5 L 532.8436146378516 115.01513671875" stroke-linecap="round" stroke-linejoin="round" stroke-miterlimit="10" stroke-width="2.5" stroke-opacity="0.9" stroke-dasharray=""/></g><g><path fill="none" stroke="#2d70b3" class="dcg-svg-curve" paint-order="fill stroke markers" d=" M 473.77978515625006 114.5 L 484.77978515625006 114.5 M 491.77978515625006 114.5 L 502.77978515625006 114.5" stroke-linecap="round" stroke-linejoin="round" stroke-miterlimit="10" stroke-width="2.5" stroke-opacity="0.9" stroke-dasharray=""/></g><g><path fill="none" stroke="#2d70b3" class="dcg-svg-curve" paint-order="fill stroke markers" d=" M 472.58593750000006 114.5 L 472.95947265625 114.5" stroke-linecap="round" stroke-linejoin="round" stroke-miterlimit="10" stroke-width="2.5" stroke-opacity="0.9" stroke-dasharray=""/></g><g><path fill="none" stroke="#2d70b3" class="dcg-svg-curve" paint-order="fill stroke markers" d=" M 472.46142578125006 114.5 L 472.58593750000006 114.5" stroke-linecap="round" stroke-linejoin="round" stroke-miterlimit="10" stroke-width="2.5" stroke-opacity="0.9" stroke-dasharray=""/></g><g><path fill="none" stroke="#2d70b3" class="dcg-svg-curve" paint-order="fill stroke markers" d=" M 471.14306640625006 114.5 L 471.64111328125 114.5" stroke-linecap="round" stroke-linejoin="round" stroke-miterlimit="10" stroke-width="2.5" stroke-opacity="0.9" stroke-dasharray=""/></g><g><path fill="none" stroke="#2d70b3" class="dcg-svg-curve" paint-order="fill stroke markers" d=" M 469.94921875000006 114.5 L 470.32275390625 114.5" stroke-linecap="round" stroke-linejoin="round" stroke-miterlimit="10" stroke-width="2.5" stroke-opacity="0.9" stroke-dasharray=""/></g><g><path fill="none" stroke="#2d70b3" class="dcg-svg-curve" paint-order="fill stroke markers" d=" M 469.82470703125006 114.5 L 469.94921875000006 114.5" stroke-linecap="round" stroke-linejoin="round" stroke-miterlimit="10" stroke-width="2.5" stroke-opacity="0.9" stroke-dasharray=""/></g><g><path fill="none" stroke="#2d70b3" class="dcg-svg-curve" paint-order="fill stroke markers" d=" M 468.50634765625006 114.5 L 469.00439453125 114.5" stroke-linecap="round" stroke-linejoin="round" stroke-miterlimit="10" stroke-width="2.5" stroke-opacity="0.9" stroke-dasharray=""/></g><g><path fill="none" stroke="#2d70b3" class="dcg-svg-curve" paint-order="fill stroke markers" d=" M 543.5006510416667 115.05555555555554 L 554.5006510416667 115.05555555555554 M 561.5006510416667 115.05555555555554 L 572.5006510416667 115.05555555555554 M 579.5006510416667 115.05555555555554 L 590.5006510416667 115.05555555555554 M 597.5006510416667 115.05555555555554 L 599.4267578125 115.05555555555554" stroke-linecap="round" stroke-linejoin="round" stroke-miterlimit="10" stroke-width="2.5" stroke-opacity="0.9" stroke-dasharray=""/></g><g><path fill="none" stroke="#2d70b3" class="dcg-svg-curve" paint-order="fill stroke markers" d=" M 542.1387532552084 115.05555555555554 L 543.5006510416667 115.05555555555554" stroke-linecap="round" stroke-linejoin="round" stroke-miterlimit="10" stroke-width="2.5" stroke-opacity="0.9" stroke-dasharray=""/></g><g><path fill="none" stroke="#2d70b3" class="dcg-svg-curve" paint-order="fill stroke markers" d=" M 541.9739583333334 115.05555555555554 L 542.0174967447917 115.05555555555554" stroke-linecap="round" stroke-linejoin="round" stroke-miterlimit="10" stroke-width="2.5" stroke-opacity="0.9" stroke-dasharray=""/></g><g><path fill="none" stroke="#2d70b3" class="dcg-svg-curve" paint-order="fill stroke markers" d=" M 541.669189453125 115.05555555555554 L 541.9739583333334 115.05555555555554" stroke-linecap="round" stroke-linejoin="round" stroke-miterlimit="10" stroke-width="2.5" stroke-opacity="0.9" stroke-dasharray=""/></g><g><path fill="none" stroke="#2d70b3" class="dcg-svg-curve" paint-order="fill stroke markers" d=" M 540.350830078125 115.05555555555554 L 540.6991373697917 115.05555555555554" stroke-linecap="round" stroke-linejoin="round" stroke-miterlimit="10" stroke-width="2.5" stroke-opacity="0.9" stroke-dasharray=""/></g><g><path fill="none" stroke="#2d70b3" class="dcg-svg-curve" paint-order="fill stroke markers" d=" M 539.3372395833335 115.05555555555554 L 539.3807779947917 115.05555555555554" stroke-linecap="round" stroke-linejoin="round" stroke-miterlimit="10" stroke-width="2.5" stroke-opacity="0.9" stroke-dasharray=""/></g><g><path fill="none" stroke="#2d70b3" class="dcg-svg-curve" paint-order="fill stroke markers" d=" M 539.032470703125 115.05555555555554 L 539.3372395833335 115.05555555555554" stroke-linecap="round" stroke-linejoin="round" stroke-miterlimit="10" stroke-width="2.5" stroke-opacity="0.9" stroke-dasharray=""/></g><g><path fill="none" stroke="#2d70b3" class="dcg-svg-curve" paint-order="fill stroke markers" d=" M 537.714111328125 115.05555555555554 L 538.0624186197917 115.05555555555554" stroke-linecap="round" stroke-linejoin="round" stroke-miterlimit="10" stroke-width="2.5" stroke-opacity="0.9" stroke-dasharray=""/></g><g><path fill="none" stroke="#2d70b3" class="dcg-svg-curve" paint-order="fill stroke markers" d=" M 536.7005208333335 115.05555555555554 L 536.7440592447917 115.05555555555554" stroke-linecap="round" stroke-linejoin="round" stroke-miterlimit="10" stroke-width="2.5" stroke-opacity="0.9" stroke-dasharray=""/></g><g><path fill="none" stroke="#2d70b3" class="dcg-svg-curve" paint-order="fill stroke markers" d=" M 536.395751953125 115.05555555555554 L 536.7005208333335 115.05555555555554" stroke-linecap="round" stroke-linejoin="round" stroke-miterlimit="10" stroke-width="2.5" stroke-opacity="0.9" stroke-dasharray=""/></g><g><path fill="none" stroke="#2d70b3" class="dcg-svg-curve" paint-order="fill stroke markers" d=" M 535.077392578125 115.05555555555554 L 535.4256998697917 115.05555555555554" stroke-linecap="round" stroke-linejoin="round" stroke-miterlimit="10" stroke-width="2.5" stroke-opacity="0.9" stroke-dasharray=""/></g><g><path fill="none" stroke="#2d70b3" class="dcg-svg-curve" paint-order="fill stroke markers" d=" M 601.966796875 115.5 L 602.1096191406251 115.5" stroke-linecap="round" stroke-linejoin="round" stroke-miterlimit="10" stroke-width="2.5" stroke-opacity="0.9" stroke-dasharray=""/></g><g><path fill="none" stroke="#2d70b3" class="dcg-svg-curve" paint-order="fill stroke markers" d=" M 601.881103515625 115.5 L 601.966796875 115.5" stroke-linecap="round" stroke-linejoin="round" stroke-miterlimit="10" stroke-width="2.5" stroke-opacity="0.9" stroke-dasharray=""/></g><g><path fill="none" stroke="#2d70b3" class="dcg-svg-curve" paint-order="fill stroke markers" d=" M 604.6035156250001 115.5 L 604.746337890625 115.5" stroke-linecap="round" stroke-linejoin="round" stroke-miterlimit="10" stroke-width="2.5" stroke-opacity="0.9" stroke-dasharray=""/></g><g><path fill="none" stroke="#2d70b3" class="dcg-svg-curve" paint-order="fill stroke markers" d=" M 604.517822265625 115.5 L 604.6035156250001 115.5" stroke-linecap="round" stroke-linejoin="round" stroke-miterlimit="10" stroke-width="2.5" stroke-opacity="0.9" stroke-dasharray=""/></g><g><path fill="none" stroke="#2d70b3" class="dcg-svg-curve" paint-order="fill stroke markers" d=" M 603.199462890625 115.5 L 603.4279785156251 115.5" stroke-linecap="round" stroke-linejoin="round" stroke-miterlimit="10" stroke-width="2.5" stroke-opacity="0.9" stroke-dasharray=""/></g><g><path fill="none" stroke="#2d70b3" class="dcg-svg-curve" paint-order="fill stroke markers" d=" M 338.24999999999994 112.83333333333331 L 349.24999999999994 112.83333333333331 M 356.24999999999994 112.83333333333331 L 367.24999999999994 112.83333333333331 M 374.24999999999994 112.83333333333331 L 385.24999999999994 112.83333333333331 M 392.24999999999994 112.83333333333331 L 399.17773437500006 112.83333333333331" stroke-linecap="round" stroke-linejoin="round" stroke-miterlimit="10" stroke-width="2.5" stroke-opacity="0.9" stroke-dasharray=""/></g><g><path fill="none" stroke="#2d70b3" class="dcg-svg-curve" paint-order="fill stroke markers" d=" M 399.5067796725791 113.49287605161396 L 399.53989250320933 113.71157924820625" stroke-linecap="round" stroke-linejoin="round" stroke-miterlimit="10" stroke-width="2.5" stroke-opacity="0.9" stroke-dasharray=""/></g><g><path fill="none" stroke="#2d70b3" class="dcg-svg-curve" paint-order="fill stroke markers" d=" M 337.894775390625 112.83333333333331 L 338.24999999999994 112.83333333333331" stroke-linecap="round" stroke-linejoin="round" stroke-miterlimit="10" stroke-width="2.5" stroke-opacity="0.9" stroke-dasharray=""/></g><g><path fill="none" stroke="#2d70b3" class="dcg-svg-curve" paint-order="fill stroke markers" d=" M 336.576416015625 112.83333333333331 L 337.523681640625 112.83333333333331" stroke-linecap="round" stroke-linejoin="round" stroke-miterlimit="10" stroke-width="2.5" stroke-opacity="0.9" stroke-dasharray=""/></g><g><path fill="none" stroke="#2d70b3" class="dcg-svg-curve" paint-order="fill stroke markers" d=" M 335.61328125 112.83333333333331 L 336.20532226562506 112.83333333333331" stroke-linecap="round" stroke-linejoin="round" stroke-miterlimit="10" stroke-width="2.5" stroke-opacity="0.9" stroke-dasharray=""/></g><g><path fill="none" stroke="#2d70b3" class="dcg-svg-curve" paint-order="fill stroke markers" d=" M 335.258056640625 112.83333333333331 L 335.61328125 112.83333333333331" stroke-linecap="round" stroke-linejoin="round" stroke-miterlimit="10" stroke-width="2.5" stroke-opacity="0.9" stroke-dasharray=""/></g><g><path fill="none" stroke="#2d70b3" class="dcg-svg-curve" paint-order="fill stroke markers" d=" M 425.3719308035715 113.78571428571428 L 436.3719308035715 113.78571428571428 M 443.3719308035715 113.78571428571428 L 454.3719308035715 113.78571428571428 M 461.3719308035715 113.78571428571428 L 465.61328125000006 113.78571428571428" stroke-linecap="round" stroke-linejoin="round" stroke-miterlimit="10" stroke-width="2.5" stroke-opacity="0.9" stroke-dasharray=""/></g><g><path fill="none" stroke="#2d70b3" class="dcg-svg-curve" paint-order="fill stroke markers" d=" M 401.54729352678567 113.78571428571428 L 412.54729352678567 113.78571428571428 M 419.54729352678567 113.78571428571428 L 425.3719308035715 113.78571428571428" stroke-linecap="round" stroke-linejoin="round" stroke-miterlimit="10" stroke-width="2.5" stroke-opacity="0.9" stroke-dasharray=""/></g></g></g><g id="labels-51a362df"/></g></svg>