<svg version="1.1" xmlns="http://www.w3.org/2000/svg" xmlns:xlink="http://www.w3.org/1999/xlink" width="300" height="300"><defs/><g transform="scale(1,1)"><g id="background-56a5beee"><rect fill="white" stroke="none" x="0" y="0" width="300" height="300" class="dcg-svg-background"/></g><g id="background-images-56a5beee"/><g id="graphpaper-56a5beee"><g id="grid-56a5beee"><g><path fill="none" stroke="rgb(0,0,0)" class="dcg-svg-minor-gridline" paint-order="fill stroke markers" d=" M -0.5 0 L -0.5 300" stroke-opacity="0.12" stroke-miterlimit="10" stroke-dasharray=""/><path fill="none" stroke="rgb(0,0,0)" class="dcg-svg-minor-gridline" paint-order="fill stroke markers" d=" M 37.5 0 L 37.5 300" stroke-opacity="0.12" stroke-miterlimit="10" stroke-dasharray=""/><path fill="none" stroke="rgb(0,0,0)" class="dcg-svg-minor-gridline" paint-order="fill stroke markers" d=" M 74.5 0 L 74.5 300" stroke-opacity="0.12" stroke-miterlimit="10" stroke-dasharray=""/><path fill="none" stroke="rgb(0,0,0)" class="dcg-svg-minor-gridline" paint-order="fill stroke markers" d=" M 112.5 0 L 112.5 300" stroke-opacity="0.12" stroke-miterlimit="10" stroke-dasharray=""/><path fill="none" stroke="rgb(0,0,0)" class="dcg-svg-minor-gridline" paint-order="fill stroke markers" d=" M 187.5 0 L 187.5 300" stroke-opacity="0.12" stroke-miterlimit="10" stroke-dasharray=""/><path fill="none" stroke="rgb(0,0,0)" class="dcg-svg-minor-gridline" paint-order="fill stroke markers" d=" M 224.5 0 L 224.5 300" stroke-opacity="0.12" stroke-miterlimit="10" stroke-dasharray=""/><path fill="none" stroke="rgb(0,0,0)" class="dcg-svg-minor-gridline" paint-order="fill stroke markers" d=" M 262.5 0 L 262.5 300" stroke-opacity="0.12" stroke-miterlimit="10" stroke-dasharray=""/><path fill="none" stroke="rgb(0,0,0)" class="dcg-svg-minor-gridline" paint-order="fill stroke markers" d=" M 0 262.5 L 300 262.5" stroke-opacity="0.12" stroke-miterlimit="10" stroke-dasharray=""/><path fill="none" stroke="rgb(0,0,0)" class="dcg-svg-minor-gridline" paint-order="fill stroke markers" d=" M 0 187.5 L 300 187.5" stroke-opacity="0.12" stroke-miterlimit="10" stroke-dasharray=""/><path fill="none" stroke="rgb(0,0,0)" class="dcg-svg-minor-gridline" paint-order="fill stroke markers" d=" M 0 149.5 L 300 149.5" stroke-opacity="0.12" stroke-miterlimit="10" stroke-dasharray=""/><path fill="none" stroke="rgb(0,0,0)" class="dcg-svg-minor-gridline" paint-order="fill stroke markers" d=" M 0 112.5 L 300 112.5" stroke-opacity="0.12" stroke-miterlimit="10" stroke-dasharray=""/><path fill="none" stroke="rgb(0,0,0)" class="dcg-svg-minor-gridline" paint-order="fill stroke markers" d=" M 0 74.5 L 300 74.5" stroke-opacity="0.12" stroke-miterlimit="10" stroke-dasharray=""/><path fill="none" stroke="rgb(0,0,0)" class="dcg-svg-minor-gridline" paint-order="fill stroke markers" d=" M 0 37.5 L 300 37.5" stroke-opacity="0.12" stroke-miterlimit="10" stroke-dasharray=""/><path fill="none" stroke="rgb(0,0,0)" class="dcg-svg-minor-gridline" paint-order="fill stroke markers" d=" M 0 -0.5 L 300 -0.5" stroke-opacity="0.12" stroke-miterlimit="10" stroke-dasharray=""/><path fill="none" stroke="rgb(0,0,0)" class="dcg-svg-major-gridline" paint-order="fill stroke markers" d=" M -0.5 0 L -0.5 300" stroke-opacity="0.31818181818181823" stroke-miterlimit="10" stroke-dasharray=""/><path fill="none" stroke="rgb(0,0,0)" class="dcg-svg-major-gridline" paint-order="fill stroke markers" d=" M 0 74.5 L 300 74.5" stroke-opacity="0.31818181818181823" stroke-miterlimit="10" stroke-dasharray=""/></g></g><g id="axis-56a5beee"><g id="yaxis-56a5beee"><title>Y axis</title><path fill="none" stroke="rgb(0,0,0)" class="dcg-svg-axis-line" paint-order="fill stroke markers" d=" M 149.75 0 L 149.75 300" stroke-opacity="0.9" stroke-miterlimit="10" stroke-width="1.5" stroke-dasharray=""/></g><g id="xaxis-56a5beee"><title>X axis</title><path fill="none" stroke="rgb(0,0,0)" class="dcg-svg-axis-line" paint-order="fill stroke markers" d=" M 0 224.75 L 300 224.75" stroke-opacity="0.9" stroke-miterlimit="10" stroke-width="1.5" stroke-dasharray=""/></g><g><g class="dcg-svg-axis-value"><text fill="none" stroke="#ffffff" font-family="Arial" font-size="14px" font-style="normal" font-weight="normal" text-decoration="normal" x="141.10693359375" y="240.808" text-anchor="middle" stroke-miterlimit="2" stroke-width="3" stroke-dasharray="">0</text><text fill="#000000" stroke="none" font-family="Arial" font-size="14px" font-style="normal" font-weight="normal" text-decoration="normal" x="141.10693359375" y="240.808" text-anchor="middle">0</text></g><g class="dcg-svg-axis-value dcg-svg-offcenter-axis-value"><text fill="none" stroke="#ffffff" font-family="Arial" font-size="14px" font-style="normal" font-weight="normal" text-decoration="normal" x="9.22412109375" y="240.808" text-anchor="middle" stroke-miterlimit="2" stroke-width="3" stroke-dasharray="">-2</text><text fill="#000000" stroke="none" font-family="Arial" font-size="14px" font-style="normal" font-weight="normal" text-decoration="normal" x="9.22412109375" y="240.808" text-anchor="middle">-2</text></g><g class="dcg-svg-axis-value dcg-svg-offcenter-axis-value"><text fill="none" stroke="#ffffff" font-family="Arial" font-size="14px" font-style="normal" font-weight="normal" text-decoration="normal" x="293.10693359375" y="240.808" text-anchor="middle" stroke-miterlimit="2" stroke-width="3" stroke-dasharray="">2</text><text fill="#000000" stroke="none" font-family="Arial" font-size="14px" font-style="normal" font-weight="normal" text-decoration="normal" x="293.10693359375" y="240.808" text-anchor="middle">2</text></g><g class="dcg-svg-axis-value"><text fill="none" stroke="#ffffff" font-family="Arial" font-size="14px" font-style="normal" font-weight="normal" text-decoration="normal" x="141.10693359375" y="78.808" text-anchor="middle" stroke-miterlimit="2" stroke-width="3" stroke-dasharray="">2</text><text fill="#000000" stroke="none" font-family="Arial" font-size="14px" font-style="normal" font-weight="normal" text-decoration="normal" x="141.10693359375" y="78.808" text-anchor="middle">2</text></g></g></g></g><g id="expressions-56a5beee"><g id="sketch-56a5beee"><title>Expression 1</title><path fill="#2d70b3" stroke="none" paint-order="stroke fill markers" d="" fill-opacity="0.4"/><g><path fill="none" stroke="#2d70b3" class="dcg-svg-curve" paint-order="fill stroke markers" d=" M 15.565934797936475 -5.5 L 15.565934797936475 -5.5 L 16.638671875 -2.362051952240506 L 20.0810546875 7.229527601683117 L 23.5234375 16.363310355553324 L 26.9658203125 25.058541522357245 L 30.408203125 33.33354227091229 L 33.923828125 41.368988755173916 L 37.439453125 49.0019740788118 L 40.955078125 56.2492730093079 L 44.470703125 63.12681270350541 L 47.986328125 69.64970771021152 L 51.5751953125 75.95757691254775 L 55.1640625 81.92525292237463 L 58.7529296875 87.5664029649295 L 62.4150390625 92.9994932189752 L 66.0771484375 98.11899953713836 L 69.8125 103.03049887192242 L 73.5478515625 107.64062998361555 L 77.3564453125 112.0427156157638 L 81.23828125 116.23104723829596 L 85.193359375 120.20010731749213 L 89.2216796875 123.94450985354172 L 93.3232421875 127.45893563358845 L 97.498046875 130.73806195204108 L 101.8193359375 133.8262934387344 L 106.0673828125 136.5686449839357 L 110.2421875 138.98875146190298 L 114.34375 141.10827026667909 L 118.3720703125 142.94708561421044 L 122.400390625 144.5505752637021 L 126.35546875 145.90044112736956 L 130.310546875 147.03167769453833 L 134.1923828125 147.93241522438632 L 138.07421875 148.62799226624517 L 141.9560546875 149.1202725974008 L 145.7646484375 149.40696176191594 L 149.5732421875 149.49996423721026 L 153.3818359375 149.39951990359708 L 157.1904296875 149.10536968605572 L 160.9990234375 148.61675488600224 L 164.8076171875 147.93241522438632 L 168.689453125 147.03167769453833 L 172.5712890625 145.92336617819902 L 176.453125 144.60451098875484 L 180.408203125 143.04057168259448 L 184.36328125 141.2500481848475 L 188.3916015625 139.18829547673027 L 192.419921875 136.8803708620774 L 196.521484375 134.27067034965694 L 200.6962890625 131.33712547232273 L 204.9443359375 128.05567489668047 L 209.119140625 124.52933063336187 L 213.1474609375 120.83312539072003 L 217.1025390625 116.91316254356076 L 220.984375 112.77486306725828 L 224.79296875 108.42377132961812 L 228.5283203125 103.86561467187332 L 232.263671875 99.00816172977426 L 235.92578125 93.94378276453295 L 239.587890625 88.56807167246714 L 243.1767578125 82.98546975390585 L 246.765625 77.07876998618971 L 250.28125 70.96534784182393 L 253.796875 64.51450750769592 L 257.3125 57.71207217852182 L 260.828125 50.54309235995299 L 264.2705078125 43.153140845306666 L 267.712890625 35.381084892333604 L 271.1552734375 27.21054849602092 L 274.59765625 18.62431603854617 L 278.0400390625 9.604296015342754 L 281.4091796875 0.3378819453087658 L 283.4329436155201 -5.5" stroke-linecap="round" stroke-linejoin="round" stroke-miterlimit="10" stroke-width="2.5" stroke-opacity="0.9" stroke-dasharray=""/></g></g></g><g id="labels-56a5beee"/></g></svg>