<svg version="1.1" xmlns="http://www.w3.org/2000/svg" xmlns:xlink="http://www.w3.org/1999/xlink" width="400" height="200"><defs/><g transform="scale(1,1)"><g id="background-07950abd"><rect fill="white" stroke="none" x="0" y="0" width="400" height="200" class="dcg-svg-background"/></g><g id="background-images-07950abd"/><g id="graphpaper-07950abd"><g id="grid-07950abd"><g><path fill="none" stroke="rgb(0,0,0)" class="dcg-svg-minor-gridline" paint-order="fill stroke markers" d=" M -0.5 0 L -0.5 200" stroke-opacity="0.12" stroke-miterlimit="10" stroke-dasharray=""/><path fill="none" stroke="rgb(0,0,0)" class="dcg-svg-minor-gridline" paint-order="fill stroke markers" d=" M 19.5 0 L 19.5 200" stroke-opacity="0.12" stroke-miterlimit="10" stroke-dasharray=""/><path fill="none" stroke="rgb(0,0,0)" class="dcg-svg-minor-gridline" paint-order="fill stroke markers" d=" M 39.5 0 L 39.5 200" stroke-opacity="0.12" stroke-miterlimit="10" stroke-dasharray=""/><path fill="none" stroke="rgb(0,0,0)" class="dcg-svg-minor-gridline" paint-order="fill stroke markers" d=" M 59.5 0 L 59.5 200" stroke-opacity="0.12" stroke-miterlimit="10" stroke-dasharray=""/><path fill="none" stroke="rgb(0,0,0)" class="dcg-svg-minor-gridline" paint-order="fill stroke markers" d=" M 79.5 0 L 79.5 200" stroke-opacity="0.12" stroke-miterlimit="10" stroke-dasharray=""/><path fill="none" stroke="rgb(0,0,0)" class="dcg-svg-minor-gridline" paint-order="fill stroke markers" d=" M 99.5 0 L 99.5 200" stroke-opacity="0.12" stroke-miterlimit="10" stroke-dasharray=""/><path fill="none" stroke="rgb(0,0,0)" class="dcg-svg-minor-gridline" paint-order="fill stroke markers" d=" M 119.5 0 L 119.5 200" stroke-opacity="0.12" stroke-miterlimit="10" stroke-dasharray=""/><path fill="none" stroke="rgb(0,0,0)" class="dcg-svg-minor-gridline" paint-order="fill stroke markers" d=" M 139.5 0 L 139.5 200" stroke-opacity="0.12" stroke-miterlimit="10" stroke-dasharray=""/><path fill="none" stroke="rgb(0,0,0)" class="dcg-svg-minor-gridline" paint-order="fill stroke markers" d=" M 159.5 0 L 159.5 200" stroke-opacity="0.12" stroke-miterlimit="10" stroke-dasharray=""/><path fill="none" stroke="rgb(0,0,0)" class="dcg-svg-minor-gridline" paint-order="fill stroke markers" d=" M 179.5 0 L 179.5 200" stroke-opacity="0.12" stroke-miterlimit="10" stroke-dasharray=""/><path fill="none" stroke="rgb(0,0,0)" class="dcg-svg-minor-gridline" paint-order="fill stroke markers" d=" M 219.5 0 L 219.5 200" stroke-opacity="0.12" stroke-miterlimit="10" stroke-dasharray=""/><path fill="none" stroke="rgb(0,0,0)" class="dcg-svg-minor-gridline" paint-order="fill stroke markers" d=" M 239.5 0 L 239.5 200" stroke-opacity="0.12" stroke-miterlimit="10" stroke-dasharray=""/><path fill="none" stroke="rgb(0,0,0)" class="dcg-svg-minor-gridline" paint-order="fill stroke markers" d=" M 259.5 0 L 259.5 200" stroke-opacity="0.12" stroke-miterlimit="10" stroke-dasharray=""/><path fill="none" stroke="rgb(0,0,0)" class="dcg-svg-minor-gridline" paint-order="fill stroke markers" d=" M 279.5 0 L 279.5 200" stroke-opacity="0.12" stroke-miterlimit="10" stroke-dasharray=""/><path fill="none" stroke="rgb(0,0,0)" class="dcg-svg-minor-gridline" paint-order="fill stroke markers" d=" M 299.5 0 L 299.5 200" stroke-opacity="0.12" stroke-miterlimit="10" stroke-dasharray=""/><path fill="none" stroke="rgb(0,0,0)" class="dcg-svg-minor-gridline" paint-order="fill stroke markers" d=" M 319.5 0 L 319.5 200" stroke-opacity="0.12" stroke-miterlimit="10" stroke-dasharray=""/><path fill="none" stroke="rgb(0,0,0)" class="dcg-svg-minor-gridline" paint-order="fill stroke markers" d=" M 339.5 0 L 339.5 200" stroke-opacity="0.12" stroke-miterlimit="10" stroke-dasharray=""/><path fill="none" stroke="rgb(0,0,0)" class="dcg-svg-minor-gridline" paint-order="fill stroke markers" d=" M 359.5 0 L 359.5 200" stroke-opacity="0.12" stroke-miterlimit="10" stroke-dasharray=""/><path fill="none" stroke="rgb(0,0,0)" class="dcg-svg-minor-gridline" paint-order="fill stroke markers" d=" M 379.5 0 L 379.5 200" stroke-opacity="0.12" stroke-miterlimit="10" stroke-dasharray=""/><path fill="none" stroke="rgb(0,0,0)" class="dcg-svg-minor-gridline" paint-order="fill stroke markers" d=" M 0 159.5 L 400 159.5" stroke-opacity="0.12" stroke-miterlimit="10" stroke-dasharray=""/><path fill="none" stroke="rgb(0,0,0)" class="dcg-svg-minor-gridline" paint-order="fill stroke markers" d=" M 0 119.5 L 400 119.5" stroke-opacity="0.12" stroke-miterlimit="10" stroke-dasharray=""/><path fill="none" stroke="rgb(0,0,0)" class="dcg-svg-minor-gridline" paint-order="fill stroke markers" d=" M 0 79.5 L 400 79.5" stroke-opacity="0.12" stroke-miterlimit="10" stroke-dasharray=""/><path fill="none" stroke="rgb(0,0,0)" class="dcg-svg-minor-gridline" paint-order="fill stroke markers" d=" M 0 39.5 L 400 39.5" stroke-opacity="0.12" stroke-miterlimit="10" stroke-dasharray=""/><path fill="none" stroke="rgb(0,0,0)" class="dcg-svg-minor-gridline" paint-order="fill stroke markers" d=" M 0 -0.5 L 400 -0.5" stroke-opacity="0.12" stroke-miterlimit="10" stroke-dasharray=""/><path fill="none" stroke="rgb(0,0,0)" class="dcg-svg-major-gridline" paint-order="fill stroke markers" d=" M 39.5 0 L 39.5 200" stroke-opacity="0.31818181818181823" stroke-miterlimit="10" stroke-dasharray=""/><path fill="none" stroke="rgb(0,0,0)" class="dcg-svg-major-gridline" paint-order="fill stroke markers" d=" M 119.5 0 L 119.5 200" stroke-opacity="0.31818181818181823" stroke-miterlimit="10" stroke-dasharray=""/><path fill="none" stroke="rgb(0,0,0)" class="dcg-svg-major-gridline" paint-order="fill stroke markers" d=" M 279.5 0 L 279.5 200" stroke-opacity="0.31818181818181823" stroke-miterlimit="10" stroke-dasharray=""/><path fill="none" stroke="rgb(0,0,0)" class="dcg-svg-major-gridline" paint-order="fill stroke markers" d=" M 359.5 0 L 359.5 200" stroke-opacity="0.31818181818181823" stroke-miterlimit="10" stroke-dasharray=""/><path fill="none" stroke="rgb(0,0,0)" class="dcg-svg-major-gridline" paint-order="fill stroke markers" d=" M 0 39.5 L 400 39.5" stroke-opacity="0.31818181818181823" stroke-miterlimit="10" stroke-dasharray=""/></g></g><g id="axis-07950abd"><g id="yaxis-07950abd"><title>Y axis</title><path fill="none" stroke="rgb(0,0,0)" class="dcg-svg-axis-line" paint-order="fill stroke markers" d=" M 199.75 0 L 199.75 200" stroke-opacity="0.9" stroke-miterlimit="10" stroke-width="1.5" stroke-dasharray=""/></g><g id="xaxis-07950abd"><title>X axis</title><path fill="none" stroke="rgb(0,0,0)" class="dcg-svg-axis-line" paint-order="fill stroke markers" d=" M 0 199.75 L 400 199.75" stroke-opacity="0.9" stroke-miterlimit="10" stroke-width="1.5" stroke-dasharray=""/></g><g/></g></g><g id="expressions-07950abd"><g id="sketch-07950abd"><title>Expression 1</title><path fill="#2d70b3" stroke="none" paint-order="stroke fill markers" d="" fill-opacity="0.4"/><g><path fill="none" stroke="#2d70b3" class="dcg-svg-curve" paint-order="fill stroke markers" d=" M 135.7569979152536 -5.5 L 135.7569979152536 -5.5 L 138.26953125 5.977331794957763 L 140.80859375 16.780231779284463 L 143.25 26.472605029120558 L 145.69140625 35.520200875131025 L 148.03515625 43.630604183689115 L 150.28125 50.900431551867 L 152.52734375 57.701588617407 L 154.67578125 63.78829036706571 L 156.82421875 69.483388051535 L 158.875 74.56941849476291 L 160.92578125 79.32698886591947 L 162.87890625 83.56409080849278 L 164.83203125 87.52472508105978 L 166.78515625 91.21833644785895 L 168.640625 94.48796677972884 L 170.49609375 97.53159929391069 L 172.3515625 100.3557842331239 L 174.109375 102.83441484108846 L 175.8671875 105.12633574544816 L 177.625 107.23597379441411 L 179.3828125 109.16740375662489 L 181.140625 110.9243561915675 L 182.80078125 112.42655561440002 L 184.4609375 113.77874303342102 L 186.12109375 114.98324802621511 L 187.78125 116.0421457399049 L 189.44140625 116.95726046625903 L 191.1015625 117.73016878462138 L 192.76171875 118.36220227807583 L 194.421875 118.85444982752628 L 196.08203125 119.20775948764414 L 197.7421875 119.4227399479151 L 199.40234375 119.49976158130247 L 201.0625 119.4389570823338 L 202.72265625 119.2402216957097 L 204.3828125 118.90321303582934 L 206.04296875 118.42735049692104 L 207.703125 117.81181425276215 L 209.36328125 117.0555438442649 L 211.0234375 116.15723635249458 L 212.68359375 115.1153441539727 L 214.34375 113.92807225439813 L 216.00390625 112.59337519619213 L 217.6640625 111.10895353454009 L 219.32421875 109.4722498758585 L 220.984375 107.68044447186224 L 222.7421875 105.61074812303471 L 224.5 103.3597045619515 L 226.2578125 100.92296589504325 L 228.015625 98.2958255584019 L 229.87109375 95.31055795014016 L 231.7265625 92.1010628337793 L 233.58203125 88.66043301144938 L 235.4375 84.98126385715213 L 237.390625 80.84204069438704 L 239.34375 76.4198586988868 L 241.296875 71.70417247223965 L 243.34765625 66.42450366519321 L 245.3984375 60.79496065928831 L 247.546875 54.5059431172983 L 249.6953125 47.798536754939306 L 251.94140625 40.31787750282413 L 254.1875 32.3351714796153 L 256.53125 23.44287688986455 L 258.875 13.945965183949852 L 261.31640625 3.3752311908486945 L 263.2310919920035 -5.5" stroke-linecap="round" stroke-linejoin="round" stroke-miterlimit="10" stroke-width="2.5" stroke-opacity="0.9" stroke-dasharray=""/></g></g></g><g id="labels-07950abd"/></g></svg>