<svg version="1.1" xmlns="http://www.w3.org/2000/svg" xmlns:xlink="http://www.w3.org/1999/xlink" width="600" height="399"><defs/><g transform="scale(1,1)"><g id="background-7f795682"><rect fill="white" stroke="none" x="0" y="0" width="600" height="399.9937744140625" class="dcg-svg-background"/></g><g id="background-images-7f795682"/><g id="graphpaper-7f795682"><g id="grid-7f795682"><g><path fill="none" stroke="rgb(0,0,0)" class="dcg-svg-minor-gridline" paint-order="fill stroke markers" d=" M -0.5 0 L -0.5 399.9937744140625" stroke-opacity="0.12" stroke-miterlimit="10" stroke-dasharray=""/><path fill="none" stroke="rgb(0,0,0)" class="dcg-svg-minor-gridline" paint-order="fill stroke markers" d=" M 29.5 0 L 29.5 399.9937744140625" stroke-opacity="0.12" stroke-miterlimit="10" stroke-dasharray=""/><path fill="none" stroke="rgb(0,0,0)" class="dcg-svg-minor-gridline" paint-order="fill stroke markers" d=" M 59.5 0 L 59.5 399.9937744140625" stroke-opacity="0.12" stroke-miterlimit="10" stroke-dasharray=""/><path fill="none" stroke="rgb(0,0,0)" class="dcg-svg-minor-gridline" paint-order="fill stroke markers" d=" M 89.5 0 L 89.5 399.9937744140625" stroke-opacity="0.12" stroke-miterlimit="10" stroke-dasharray=""/><path fill="none" stroke="rgb(0,0,0)" class="dcg-svg-minor-gridline" paint-order="fill stroke markers" d=" M 119.5 0 L 119.5 399.9937744140625" stroke-opacity="0.12" stroke-miterlimit="10" stroke-dasharray=""/><path fill="none" stroke="rgb(0,0,0)" class="dcg-svg-minor-gridline" paint-order="fill stroke markers" d=" M 149.5 0 L 149.5 399.9937744140625" stroke-opacity="0.12" stroke-miterlimit="10" stroke-dasharray=""/><path fill="none" stroke="rgb(0,0,0)" class="dcg-svg-minor-gridline" paint-order="fill stroke markers" d=" M 179.5 0 L 179.5 399.9937744140625" stroke-opacity="0.12" stroke-miterlimit="10" stroke-dasharray=""/><path fill="none" stroke="rgb(0,0,0)" class="dcg-svg-minor-gridline" paint-order="fill stroke markers" d=" M 209.5 0 L 209.5 399.9937744140625" stroke-opacity="0.12" stroke-miterlimit="10" stroke-dasharray=""/><path fill="none" stroke="rgb(0,0,0)" class="dcg-svg-minor-gridline" paint-order="fill stroke markers" d=" M 239.5 0 L 239.5 399.9937744140625" stroke-opacity="0.12" stroke-miterlimit="10" stroke-dasharray=""/><path fill="none" stroke="rgb(0,0,0)" class="dcg-svg-minor-gridline" paint-order="fill stroke markers" d=" M 269.5 0 L 269.5 399.9937744140625" stroke-opacity="0.12" stroke-miterlimit="10" stroke-dasharray=""/><path fill="none" stroke="rgb(0,0,0)" class="dcg-svg-minor-gridline" paint-order="fill stroke markers" d=" M 329.5 0 L 329.5 399.9937744140625" stroke-opacity="0.12" stroke-miterlimit="10" stroke-dasharray=""/><path fill="none" stroke="rgb(0,0,0)" class="dcg-svg-minor-gridline" paint-order="fill stroke markers" d=" M 359.5 0 L 359.5 399.9937744140625" stroke-opacity="0.12" stroke-miterlimit="10" stroke-dasharray=""/><path fill="none" stroke="rgb(0,0,0)" class="dcg-svg-minor-gridline" paint-order="fill stroke markers" d=" M 389.5 0 L 389.5 399.9937744140625" stroke-opacity="0.12" stroke-miterlimit="10" stroke-dasharray=""/><path fill="none" stroke="rgb(0,0,0)" class="dcg-svg-minor-gridline" paint-order="fill stroke markers" d=" M 419.5 0 L 419.5 399.9937744140625" stroke-opacity="0.12" stroke-miterlimit="10" stroke-dasharray=""/><path fill="none" stroke="rgb(0,0,0)" class="dcg-svg-minor-gridline" paint-order="fill stroke markers" d=" M 449.5 0 L 449.5 399.9937744140625" stroke-opacity="0.12" stroke-miterlimit="10" stroke-dasharray=""/><path fill="none" stroke="rgb(0,0,0)" class="dcg-svg-minor-gridline" paint-order="fill stroke markers" d=" M 479.5 0 L 479.5 399.9937744140625" stroke-opacity="0.12" stroke-miterlimit="10" stroke-dasharray=""/><path fill="none" stroke="rgb(0,0,0)" class="dcg-svg-minor-gridline" paint-order="fill stroke markers" d=" M 509.5 0 L 509.5 399.9937744140625" stroke-opacity="0.12" stroke-miterlimit="10" stroke-dasharray=""/><path fill="none" stroke="rgb(0,0,0)" class="dcg-svg-minor-gridline" paint-order="fill stroke markers" d=" M 539.5 0 L 539.5 399.9937744140625" stroke-opacity="0.12" stroke-miterlimit="10" stroke-dasharray=""/><path fill="none" stroke="rgb(0,0,0)" class="dcg-svg-minor-gridline" paint-order="fill stroke markers" d=" M 569.5 0 L 569.5 399.9937744140625" stroke-opacity="0.12" stroke-miterlimit="10" stroke-dasharray=""/><path fill="none" stroke="rgb(0,0,0)" class="dcg-svg-minor-gridline" paint-order="fill stroke markers" d=" M 0 399.5 L 600 399.5" stroke-opacity="0.12" stroke-miterlimit="10" stroke-dasharray=""/><path fill="none" stroke="rgb(0,0,0)" class="dcg-svg-minor-gridline" paint-order="fill stroke markers" d=" M 0 370.5 L 600 370.5" stroke-opacity="0.12" stroke-miterlimit="10" stroke-dasharray=""/><path fill="none" stroke="rgb(0,0,0)" class="dcg-svg-minor-gridline" paint-order="fill stroke markers" d=" M 0 342.5 L 600 342.5" stroke-opacity="0.12" stroke-miterlimit="10" stroke-dasharray=""/><path fill="none" stroke="rgb(0,0,0)" class="dcg-svg-minor-gridline" paint-order="fill stroke markers" d=" M 0 313.5 L 600 313.5" stroke-opacity="0.12" stroke-miterlimit="10" stroke-dasharray=""/><path fill="none" stroke="rgb(0,0,0)" class="dcg-svg-minor-gridline" paint-order="fill stroke markers" d=" M 0 285.5 L 600 285.5" stroke-opacity="0.12" stroke-miterlimit="10" stroke-dasharray=""/><path fill="none" stroke="rgb(0,0,0)" class="dcg-svg-minor-gridline" paint-order="fill stroke markers" d=" M 0 256.5 L 600 256.5" stroke-opacity="0.12" stroke-miterlimit="10" stroke-dasharray=""/><path fill="none" stroke="rgb(0,0,0)" class="dcg-svg-minor-gridline" paint-order="fill stroke markers" d=" M 0 228.5 L 600 228.5" stroke-opacity="0.12" stroke-miterlimit="10" stroke-dasharray=""/><path fill="none" stroke="rgb(0,0,0)" class="dcg-svg-minor-gridline" paint-order="fill stroke markers" d=" M 0 170.5 L 600 170.5" stroke-opacity="0.12" stroke-miterlimit="10" stroke-dasharray=""/><path fill="none" stroke="rgb(0,0,0)" class="dcg-svg-minor-gridline" paint-order="fill stroke markers" d=" M 0 142.5 L 600 142.5" stroke-opacity="0.12" stroke-miterlimit="10" stroke-dasharray=""/><path fill="none" stroke="rgb(0,0,0)" class="dcg-svg-minor-gridline" paint-order="fill stroke markers" d=" M 0 113.5 L 600 113.5" stroke-opacity="0.12" stroke-miterlimit="10" stroke-dasharray=""/><path fill="none" stroke="rgb(0,0,0)" class="dcg-svg-minor-gridline" paint-order="fill stroke markers" d=" M 0 85.5 L 600 85.5" stroke-opacity="0.12" stroke-miterlimit="10" stroke-dasharray=""/><path fill="none" stroke="rgb(0,0,0)" class="dcg-svg-minor-gridline" paint-order="fill stroke markers" d=" M 0 56.5 L 600 56.5" stroke-opacity="0.12" stroke-miterlimit="10" stroke-dasharray=""/><path fill="none" stroke="rgb(0,0,0)" class="dcg-svg-minor-gridline" paint-order="fill stroke markers" d=" M 0 28.5 L 600 28.5" stroke-opacity="0.12" stroke-miterlimit="10" stroke-dasharray=""/><path fill="none" stroke="rgb(0,0,0)" class="dcg-svg-minor-gridline" paint-order="fill stroke markers" d=" M 0 -0.5 L 600 -0.5" stroke-opacity="0.12" stroke-miterlimit="10" stroke-dasharray=""/><path fill="none" stroke="rgb(0,0,0)" class="dcg-svg-major-gridline" paint-order="fill stroke markers" d=" M -0.5 0 L -0.5 399.9937744140625" stroke-opacity="0.31818181818181823" stroke-miterlimit="10" stroke-dasharray=""/><path fill="none" stroke="rgb(0,0,0)" class="dcg-svg-major-gridline" paint-order="fill stroke markers" d=" M 149.5 0 L 149.5 399.9937744140625" stroke-opacity="0.31818181818181823" stroke-miterlimit="10" stroke-dasharray=""/><path fill="none" stroke="rgb(0,0,0)" class="dcg-svg-major-gridline" paint-order="fill stroke markers" d=" M 449.5 0 L 449.5 399.9937744140625" stroke-opacity="0.31818181818181823" stroke-miterlimit="10" stroke-dasharray=""/><path fill="none" stroke="rgb(0,0,0)" class="dcg-svg-major-gridline" paint-order="fill stroke markers" d=" M 0 342.5 L 600 342.5" stroke-opacity="0.31818181818181823" stroke-miterlimit="10" stroke-dasharray=""/><path fill="none" stroke="rgb(0,0,0)" class="dcg-svg-major-gridline" paint-order="fill stroke markers" d=" M 0 56.5 L 600 56.5" stroke-opacity="0.31818181818181823" stroke-miterlimit="10" stroke-dasharray=""/></g></g><g id="axis-7f795682"><g id="yaxis-7f795682"><title>Y axis</title><path fill="none" stroke="rgb(0,0,0)" class="dcg-svg-axis-line" paint-order="fill stroke markers" d=" M 299.75 0 L 299.75 399.9937744140625" stroke-opacity="0.9" stroke-miterlimit="10" stroke-width="1.5" stroke-dasharray=""/></g><g id="xaxis-7f795682"><title>X axis</title><path fill="none" stroke="rgb(0,0,0)" class="dcg-svg-axis-line" paint-order="fill stroke markers" d=" M 0 199.75 L 600 199.75" stroke-opacity="0.9" stroke-miterlimit="10" stroke-width="1.5" stroke-dasharray=""/></g><g><g class="dcg-svg-axis-value"><text fill="none" stroke="#ffffff" font-family="Arial" font-size="14px" font-style="normal" font-weight="normal" text-decoration="normal" x="291.10693359375" y="215.80488720703124" text-anchor="middle" stroke-miterlimit="2" stroke-width="3" stroke-dasharray="">0</text><text fill="#000000" stroke="none" font-family="Arial" font-size="14px" font-style="normal" font-weight="normal" text-decoration="normal" x="291.10693359375" y="215.80488720703124" text-anchor="middle">0</text></g><g class="dcg-svg-axis-value dcg-svg-offcenter-axis-value"><text fill="none" stroke="#ffffff" font-family="Arial" font-size="14px" font-style="normal" font-weight="normal" text-decoration="normal" x="13.1171875" y="215.80488720703124" text-anchor="middle" stroke-miterlimit="2" stroke-width="3" stroke-dasharray="">-10</text><text fill="#000000" stroke="none" font-family="Arial" font-size="14px" font-style="normal" font-weight="normal" text-decoration="normal" x="13.1171875" y="215.80488720703124" text-anchor="middle">-10</text></g><g class="dcg-svg-axis-value"><text fill="none" stroke="#ffffff" font-family="Arial" font-size="14px" font-style="normal" font-weight="normal" text-decoration="normal" x="147.6689453125" y="215.80488720703124" text-anchor="middle" stroke-miterlimit="2" stroke-width="3" stroke-dasharray="">-5</text><text fill="#000000" stroke="none" font-family="Arial" font-size="14px" font-style="normal" font-weight="normal" text-decoration="normal" x="147.6689453125" y="215.80488720703124" text-anchor="middle">-5</text></g><g class="dcg-svg-axis-value"><text fill="none" stroke="#ffffff" font-family="Arial" font-size="14px" font-style="normal" font-weight="normal" text-decoration="normal" x="450" y="215.80488720703124" text-anchor="middle" stroke-miterlimit="2" stroke-width="3" stroke-dasharray="">5</text><text fill="#000000" stroke="none" font-family="Arial" font-size="14px" font-style="normal" font-weight="normal" text-decoration="normal" x="450" y="215.80488720703124" text-anchor="middle">5</text></g><g class="dcg-svg-axis-value dcg-svg-offcenter-axis-value"><text fill="none" stroke="#ffffff" font-family="Arial" font-size="14px" font-style="normal" font-weight="normal" text-decoration="normal" x="589.2138671875" y="215.80488720703124" text-anchor="middle" stroke-miterlimit="2" stroke-width="3" stroke-dasharray="">10</text><text fill="#000000" stroke="none" font-family="Arial" font-size="14px" font-style="normal" font-weight="normal" text-decoration="normal" x="589.2138671875" y="215.80488720703124" text-anchor="middle">10</text></g><g class="dcg-svg-axis-value"><text fill="none" stroke="#ffffff" font-family="Arial" font-size="14px" font-style="normal" font-weight="normal" text-decoration="normal" x="288.77587890625" y="346.659806640625" text-anchor="middle" stroke-miterlimit="2" stroke-width="3" stroke-dasharray="">-5</text><text fill="#000000" stroke="none" font-family="Arial" font-size="14px" font-style="normal" font-weight="normal" text-decoration="normal" x="288.77587890625" y="346.659806640625" text-anchor="middle">-5</text></g><g class="dcg-svg-axis-value"><text fill="none" stroke="#ffffff" font-family="Arial" font-size="14px" font-style="normal" font-weight="normal" text-decoration="normal" x="291.10693359375" y="60.9499677734375" text-anchor="middle" stroke-miterlimit="2" stroke-width="3" stroke-dasharray="">5</text><text fill="#000000" stroke="none" font-family="Arial" font-size="14px" font-style="normal" font-weight="normal" text-decoration="normal" x="291.10693359375" y="60.9499677734375" text-anchor="middle">5</text></g></g></g></g><g id="expressions-7f795682"><g id="sketch-7f795682"><title>Expression 1</title><path fill="#2d70b3" stroke="none" paint-order="stroke fill markers" d="" fill-opacity="0.4"/><g><path fill="none" stroke="#2d70b3" class="dcg-svg-curve" paint-order="fill stroke markers" d=" M -0.5 183.95366881377623 L -0.5 183.95366881377623 L 4.7734375 188.38553974007024 L 11.658203125 194.6646283746741 L 30.84765625 212.42864730791374 L 36.267578125 216.7959339375495 L 40.80859375 220.02688408910842 L 44.763671875 222.46073905932192 L 48.42578125 224.35976888393358 L 51.794921875 225.78064170417605 L 55.017578125 226.83007117803567 L 58.09375 227.53798469858634 L 61.0234375 227.9383980407638 L 63.88055098076552 228.06787109375 L 66.736328125 227.93851903593364 L 69.666015625 227.53822864307278 L 72.595703125 226.87072764017327 L 75.671875 225.88926019426205 L 78.89453125 224.56389848759227 L 82.263671875 222.86959862662852 L 85.92578125 220.6947676035567 L 90.02734375 217.88613226221494 L 94.71484375 214.25938029919882 L 100.28125 209.49321442004896 L 107.8984375 202.44965771906152 L 123.279296875 188.13019208344804 L 128.9921875 183.37412889070401 L 133.6796875 179.9000119864574 L 137.78125 177.24921384647342 L 141.58984375 175.15860121139187 L 145.10546875 173.575836895775 L 148.328125 172.43687894258647 L 151.404296875 171.64055362510246 L 154.333984375 171.1541201055866 L 157.263671875 170.93776953144746 L 160.193359375 170.9935635433177 L 163.123046875 171.32097047077124 L 166.052734375 171.91687039869933 L 169.12890625 172.8252832117021 L 172.3515625 174.07727036417268 L 175.720703125 175.69921993408894 L 179.3828125 177.80151029919625 L 183.337890625 180.43359825180056 L 187.87890625 183.8605687843977 L 193.15234375 188.28327332299872 L 200.037109375 194.55516936267912 L 219.373046875 212.45397460449905 L 224.79296875 216.81853620136832 L 229.333984375 220.0466323591522 L 233.2890625 222.47763107572095 L 236.951171875 224.37375364440433 L 240.3203125 225.79176689350237 L 243.54296875 226.8383294597008 L 246.619140625 227.5434170954847 L 249.548828125 227.94108561745347 L 252.478515625 228.0677046382189 L 255.408203125 227.9220675840565 L 258.337890625 227.50556225469654 L 261.267578125 226.82215759875015 L 264.34375 225.82449210185504 L 267.56640625 224.48289357989728 L 271.08203125 222.6914383793855 L 274.890625 220.3925330728782 L 278.9921875 217.54184519507263 L 283.6796875 213.8749414006809 L 289.392578125 208.9417752586503 L 297.44921875 201.4484610275068 L 311.21875 188.6180162711059 L 317.078125 183.6976832625267 L 321.912109375 180.08312599304062 L 326.16015625 177.31908597034425 L 329.96875 175.2169751534662 L 333.484375 173.62275873195023 L 336.70703125 172.472733599375 L 339.783203125 171.66545670975412 L 342.712890625 171.16834817256014 L 345.642578125 170.94118699912443 L 348.572265625 170.98613784607977 L 351.501953125 171.30277236932338 L 354.431640625 171.88807330577936 L 357.5078125 172.7856542923415 L 360.73046875 174.02674221226792 L 364.099609375 175.6379219112382 L 367.76171875 177.72938607051745 L 371.716796875 180.35099183169984 L 376.2578125 183.76770517436748 L 381.53125 188.18117645448814 L 388.416015625 194.4457850688934 L 408.044921875 212.6034067702077 L 413.46484375 216.9517742709272 L 418.005859375 220.16293707304385 L 421.9609375 222.57700517282984 L 425.623046875 224.45590648274236 L 428.9921875 225.85698996231832 L 432.21484375 226.88658689803125 L 435.291015625 227.57495825929902 L 438.220703125 227.95639583626368 L 441.150390625 228.06663801840162 L 444.080078125 227.90463428960942 L 447.009765625 227.47192841038432 L 449.939453125 226.77264370707354 L 453.015625 225.75881461985375 L 456.23828125 224.4010256231597 L 459.75390625 222.59299066114056 L 463.5625 220.2776545604296 L 467.810546875 217.3024569702685 L 472.64453125 213.48698429640388 L 478.50390625 208.38635709144737 L 487 200.44485006838545 L 499.451171875 188.8501572543955 L 505.310546875 183.90708933456375 L 510.14453125 180.26773358258808 L 514.392578125 177.47792815499085 L 518.201171875 175.34999754610152 L 521.716796875 173.73003706783058 L 524.939453125 172.55511149744854 L 528.015625 171.72317591640197 L 530.9453125 171.20201529236078 L 533.875 170.9504812124894 L 536.8046875 170.97097058690284 L 539.734375 171.26328816894187 L 542.6640625 171.82464841571087 L 545.740234375 172.69774616785375 L 548.962890625 173.91417973355848 L 552.33203125 175.5009763323185 L 555.994140625 177.5679036510857 L 559.94921875 180.1657191331066 L 564.34375 183.44351177588752 L 569.6171875 187.8240332429759 L 576.35546875 193.92540844223453 L 597.15625 213.12170184278835 L 599.5 215.04010560028627" stroke-linecap="round" stroke-linejoin="round" stroke-miterlimit="10" stroke-width="2.5" stroke-opacity="0.9" stroke-dasharray=""/></g></g><g id="sketch-7f795682"><title>Expression 2</title><path fill="#388c46" stroke="none" paint-order="stroke fill markers" d="" fill-opacity="0.4"/><g><path fill="none" stroke="#388c46" class="dcg-svg-curve" paint-order="fill stroke markers" d=" M -0.5 202.3539855957031 L -0.5 202.3539855957031 L 57.068359375 203.03243856654785 L 99.255859375 203.77730966496833 L 131.189453125 204.5894350747423 L 156.091796875 205.47373858598937 L 175.720703125 206.42154697034488 L 191.541015625 207.43628679997562 L 204.578125 208.5267290280189 L 215.41796875 209.69085497706607 L 224.5 210.92528076171877 L 232.1171875 212.21718612007473 L 238.708984375 213.5964956407662 L 244.421875 215.05895502618017 L 249.40234375 216.60606118363944 L 253.796875 218.25117406600563 L 257.751953125 220.02789597896108 L 261.267578125 221.91580483155232 L 264.490234375 223.97947088903962 L 267.56640625 226.33788491345328 L 270.349609375 228.90059323718202 L 272.986328125 231.82471869874396 L 275.330078125 234.95953872218277 L 277.52734375 238.50580387369791 L 279.431640625 242.20737990776118 L 281.189453125 246.30758720703125 L 282.80078125 250.82440913685582 L 284.412109375 256.30598914877885 L 285.876953125 262.414494733913 L 287.1953125 269.15566696893603 L 288.513671875 277.5147205403646 L 289.685546875 286.8302827294193 L 290.857421875 298.672099071438 L 291.8828125 312.0226083608774 L 292.908203125 329.5266094292535 L 293.787109375 349.53118207882613 L 294.666015625 376.8101447827888 L 295.32951761728197 405.4937744140625" stroke-linecap="round" stroke-linejoin="round" stroke-miterlimit="10" stroke-width="2.5" stroke-opacity="0.9" stroke-dasharray=""/></g><g><path fill="none" stroke="#388c46" class="dcg-svg-curve" paint-order="fill stroke markers" d=" M 303.6964035561107 -5.5 L 303.6964035561107 -5.5 L 304.48046875 27.39872544232537 L 305.359375 53.2134497070312 L 306.384765625 75.00034465383976 L 307.41015625 91.13878535517938 L 308.58203125 105.1204759167087 L 309.75390625 115.90635149274556 L 311.072265625 125.42932391589204 L 312.537109375 133.75152203849188 L 314.001953125 140.39246801511206 L 315.61328125 146.30290993430398 L 317.37109375 151.53510442014598 L 319.12890625 155.83018944583722 L 321.033203125 159.69187020022852 L 323.083984375 163.153176026907 L 325.427734375 166.43848325222896 L 327.91796875 169.3353537018766 L 330.84765625 172.1541886089004 L 333.923828125 174.59757869639296 L 337.146484375 176.72903701247873 L 340.662109375 178.67362208247607 L 344.470703125 180.43715593667295 L 348.71875 182.08219226655507 L 353.552734375 183.63960400919927 L 358.97265625 185.084725876982 L 365.125 186.4358660016741 L 372.15625 187.6998357957409 L 380.359375 188.89663811282836 L 389.880859375 190.01335803361147 L 401.16015625 191.06556516092175 L 414.63671875 192.05243746148417 L 430.896484375 192.9736569952141 L 450.818359375 193.83247529996444 L 475.57421875 194.62888595911113 L 506.921875 195.36458671268096 L 547.205078125 196.0366048297397 L 599.5 196.6397888183594" stroke-linecap="round" stroke-linejoin="round" stroke-miterlimit="10" stroke-width="2.5" stroke-opacity="0.9" stroke-dasharray=""/></g></g></g><g id="labels-7f795682"/></g></svg>