<svg version="1.1" xmlns="http://www.w3.org/2000/svg" xmlns:xlink="http://www.w3.org/1999/xlink" width="400" height="200"><defs/><g transform="scale(1,1)"><g id="background-7f70deb0"><rect fill="white" stroke="none" x="0" y="0" width="400" height="200" class="dcg-svg-background"/></g><g id="background-images-7f70deb0"/><g id="graphpaper-7f70deb0"><g id="grid-7f70deb0"><g><path fill="none" stroke="rgb(0,0,0)" class="dcg-svg-minor-gridline" paint-order="fill stroke markers" d=" M -0.5 0 L -0.5 200" stroke-opacity="0.12" stroke-miterlimit="10" stroke-dasharray=""/><path fill="none" stroke="rgb(0,0,0)" class="dcg-svg-minor-gridline" paint-order="fill stroke markers" d=" M 32.5 0 L 32.5 200" stroke-opacity="0.12" stroke-miterlimit="10" stroke-dasharray=""/><path fill="none" stroke="rgb(0,0,0)" class="dcg-svg-minor-gridline" paint-order="fill stroke markers" d=" M 66.5 0 L 66.5 200" stroke-opacity="0.12" stroke-miterlimit="10" stroke-dasharray=""/><path fill="none" stroke="rgb(0,0,0)" class="dcg-svg-minor-gridline" paint-order="fill stroke markers" d=" M 99.5 0 L 99.5 200" stroke-opacity="0.12" stroke-miterlimit="10" stroke-dasharray=""/><path fill="none" stroke="rgb(0,0,0)" class="dcg-svg-minor-gridline" paint-order="fill stroke markers" d=" M 132.5 0 L 132.5 200" stroke-opacity="0.12" stroke-miterlimit="10" stroke-dasharray=""/><path fill="none" stroke="rgb(0,0,0)" class="dcg-svg-minor-gridline" paint-order="fill stroke markers" d=" M 166.5 0 L 166.5 200" stroke-opacity="0.12" stroke-miterlimit="10" stroke-dasharray=""/><path fill="none" stroke="rgb(0,0,0)" class="dcg-svg-minor-gridline" paint-order="fill stroke markers" d=" M 232.5 0 L 232.5 200" stroke-opacity="0.12" stroke-miterlimit="10" stroke-dasharray=""/><path fill="none" stroke="rgb(0,0,0)" class="dcg-svg-minor-gridline" paint-order="fill stroke markers" d=" M 266.5 0 L 266.5 200" stroke-opacity="0.12" stroke-miterlimit="10" stroke-dasharray=""/><path fill="none" stroke="rgb(0,0,0)" class="dcg-svg-minor-gridline" paint-order="fill stroke markers" d=" M 299.5 0 L 299.5 200" stroke-opacity="0.12" stroke-miterlimit="10" stroke-dasharray=""/><path fill="none" stroke="rgb(0,0,0)" class="dcg-svg-minor-gridline" paint-order="fill stroke markers" d=" M 332.5 0 L 332.5 200" stroke-opacity="0.12" stroke-miterlimit="10" stroke-dasharray=""/><path fill="none" stroke="rgb(0,0,0)" class="dcg-svg-minor-gridline" paint-order="fill stroke markers" d=" M 366.5 0 L 366.5 200" stroke-opacity="0.12" stroke-miterlimit="10" stroke-dasharray=""/><path fill="none" stroke="rgb(0,0,0)" class="dcg-svg-minor-gridline" paint-order="fill stroke markers" d=" M 0 166.5 L 400 166.5" stroke-opacity="0.12" stroke-miterlimit="10" stroke-dasharray=""/><path fill="none" stroke="rgb(0,0,0)" class="dcg-svg-minor-gridline" paint-order="fill stroke markers" d=" M 0 149.5 L 400 149.5" stroke-opacity="0.12" stroke-miterlimit="10" stroke-dasharray=""/><path fill="none" stroke="rgb(0,0,0)" class="dcg-svg-minor-gridline" paint-order="fill stroke markers" d=" M 0 132.5 L 400 132.5" stroke-opacity="0.12" stroke-miterlimit="10" stroke-dasharray=""/><path fill="none" stroke="rgb(0,0,0)" class="dcg-svg-minor-gridline" paint-order="fill stroke markers" d=" M 0 116.5 L 400 116.5" stroke-opacity="0.12" stroke-miterlimit="10" stroke-dasharray=""/><path fill="none" stroke="rgb(0,0,0)" class="dcg-svg-minor-gridline" paint-order="fill stroke markers" d=" M 0 99.5 L 400 99.5" stroke-opacity="0.12" stroke-miterlimit="10" stroke-dasharray=""/><path fill="none" stroke="rgb(0,0,0)" class="dcg-svg-minor-gridline" paint-order="fill stroke markers" d=" M 0 82.5 L 400 82.5" stroke-opacity="0.12" stroke-miterlimit="10" stroke-dasharray=""/><path fill="none" stroke="rgb(0,0,0)" class="dcg-svg-minor-gridline" paint-order="fill stroke markers" d=" M 0 66.5 L 400 66.5" stroke-opacity="0.12" stroke-miterlimit="10" stroke-dasharray=""/><path fill="none" stroke="rgb(0,0,0)" class="dcg-svg-minor-gridline" paint-order="fill stroke markers" d=" M 0 49.5 L 400 49.5" stroke-opacity="0.12" stroke-miterlimit="10" stroke-dasharray=""/><path fill="none" stroke="rgb(0,0,0)" class="dcg-svg-minor-gridline" paint-order="fill stroke markers" d=" M 0 32.5 L 400 32.5" stroke-opacity="0.12" stroke-miterlimit="10" stroke-dasharray=""/><path fill="none" stroke="rgb(0,0,0)" class="dcg-svg-minor-gridline" paint-order="fill stroke markers" d=" M 0 16.5 L 400 16.5" stroke-opacity="0.12" stroke-miterlimit="10" stroke-dasharray=""/><path fill="none" stroke="rgb(0,0,0)" class="dcg-svg-minor-gridline" paint-order="fill stroke markers" d=" M 0 -0.5 L 400 -0.5" stroke-opacity="0.12" stroke-miterlimit="10" stroke-dasharray=""/><path fill="none" stroke="rgb(0,0,0)" class="dcg-svg-major-gridline" paint-order="fill stroke markers" d=" M 66.5 0 L 66.5 200" stroke-opacity="0.31818181818181823" stroke-miterlimit="10" stroke-dasharray=""/><path fill="none" stroke="rgb(0,0,0)" class="dcg-svg-major-gridline" paint-order="fill stroke markers" d=" M 332.5 0 L 332.5 200" stroke-opacity="0.31818181818181823" stroke-miterlimit="10" stroke-dasharray=""/><path fill="none" stroke="rgb(0,0,0)" class="dcg-svg-major-gridline" paint-order="fill stroke markers" d=" M 0 99.5 L 400 99.5" stroke-opacity="0.31818181818181823" stroke-miterlimit="10" stroke-dasharray=""/><path fill="none" stroke="rgb(0,0,0)" class="dcg-svg-major-gridline" paint-order="fill stroke markers" d=" M 0 16.5 L 400 16.5" stroke-opacity="0.31818181818181823" stroke-miterlimit="10" stroke-dasharray=""/></g></g><g id="axis-7f70deb0"><g id="yaxis-7f70deb0"><title>Y axis</title><path fill="none" stroke="rgb(0,0,0)" class="dcg-svg-axis-line" paint-order="fill stroke markers" d=" M 199.75 0 L 199.75 200" stroke-opacity="0.9" stroke-miterlimit="10" stroke-width="1.5" stroke-dasharray=""/></g><g id="xaxis-7f70deb0"><title>X axis</title><path fill="none" stroke="rgb(0,0,0)" class="dcg-svg-axis-line" paint-order="fill stroke markers" d=" M 0 182.75 L 400 182.75" stroke-opacity="0.9" stroke-miterlimit="10" stroke-width="1.5" stroke-dasharray=""/></g><g/></g></g><g id="expressions-7f70deb0"><g id="sketch-7f70deb0"><title>Expression 1</title><path fill="#2d70b3" stroke="none" paint-order="stroke fill markers" d="" fill-opacity="0.4"/><g><path fill="none" stroke="#2d70b3" class="dcg-svg-curve" paint-order="fill stroke markers" d=" M -0.5 15.038966737037242 L -0.5 15.038966737037242 L 3.1132812500000004 23.84623483901271 L 6.726562500000001 32.18635520585863 L 10.33984375 40.08383340046021 L 13.953125000000002 47.561874381501326 L 17.56640625 54.64245068600283 L 21.1796875 61.34636699066735 L 24.792968750000004 67.69332124172999 L 28.406250000000004 73.70196253293129 L 32.1171875 79.53938365822317 L 35.828125 85.05666708596213 L 39.5390625 90.27091246640703 L 43.25 95.19828024763657 L 46.9609375 99.85404176143203 L 50.67187500000001 104.2526265535322 L 54.38281250000001 108.40766710495133 L 58.09375000000001 112.33204108296383 L 61.80468750000001 116.0379112527036 L 65.515625 119.53676317307614 L 69.2265625 122.83944079381315 L 72.9375 125.95618006399573 L 76.6484375 128.8966406562085 L 80.359375 131.66993590464665 L 84.0703125 134.28466104996335 L 87.78125 136.7489198783957 L 91.58984375 139.12957789414097 L 95.3984375 141.36756064398742 L 99.20703125 143.4701742456977 L 103.01562500000001 145.4442828909573 L 106.82421875000001 147.29633125421222 L 110.73046875000001 149.0754048470458 L 114.63671875000001 150.7385466274739 L 118.54296875000001 152.2914681734736 L 122.54687500000001 153.7744032803764 L 126.55078125000001 155.15249030851575 L 130.65234375 156.46066933768304 L 134.75390625 157.66899282526873 L 138.953125 158.80741096219222 L 143.25 159.87363082569013 L 147.64453125 160.86542563402406 L 152.13671875 161.7805953151387 L 156.82421875 162.6336623355391 L 161.70703125 163.4160944906745 L 166.78515625 164.1193326198324 L 172.15625 164.7450016110665 L 178.015625 165.29369104606536 L 184.0703125 165.71827934941203 L 190.02734375 165.99813737802188 L 195.984375 166.14348700980486 L 201.84375000000003 166.15636592317117 L 207.70312500000003 166.04033628274772 L 213.56250000000003 165.79450121005692 L 219.51953125000003 165.409537101318 L 225.47656250000003 164.88536184802055 L 231.33593750000003 164.2299142661071 L 236.70703125000003 163.50290667186658 L 241.78515625000003 162.70018705295277 L 246.57031250000003 161.83691620345928 L 251.16015625000003 160.90725883795557 L 255.5546875 159.9197963980126 L 259.8515625 158.8580065194564 L 264.05078125 157.7241206901312 L 268.15234375 156.52043518853873 L 272.25390625 155.21712043844627 L 276.2578125 153.84401776755084 L 280.26171875 152.3663181952485 L 284.16796875 150.81876460186965 L 288.07421875 149.16126625942462 L 291.8828125 147.43391669397016 L 295.69140625 145.59100220438205 L 299.5 143.62650641261254 L 303.30859375 141.53401602633394 L 307.01953125 139.3655536066335 L 310.73046875 137.06237201932248 L 314.44140625 134.61733304137107 L 318.15234375 132.0228587928425 L 321.86328125 129.27090825086086 L 325.57421875 126.35295232816537 L 329.1875 123.34366455565798 L 332.80078125 120.15957980719288 L 336.4140625 116.791342367792 L 340.02734375 113.22905543132391 L 343.640625 109.4622520209709 L 347.25390625 105.4798642343781 L 350.8671875 101.27019072311828 L 354.48046875 96.82086231091833 L 358.09375 92.11880564962433 L 361.70703125 87.15020480611605 L 365.3203125 81.90046066730326 L 368.93359375 76.35414804392416 L 372.546875 70.49497034710538 L 376.16015625 64.30571170451068 L 379.7734375 57.76818637538247 L 383.38671875 50.863185315843765 L 387 43.57041973745456 L 390.61328125 35.86846149318259 L 394.2265625 27.734680115625537 L 397.83984375 19.145176322485952 L 399.5 15.038966737037242" stroke-linecap="round" stroke-linejoin="round" stroke-miterlimit="10" stroke-width="2.5" stroke-opacity="0.9" stroke-dasharray=""/></g></g></g><g id="labels-7f70deb0"/></g></svg>