<svg version="1.1" xmlns="http://www.w3.org/2000/svg" xmlns:xlink="http://www.w3.org/1999/xlink" width="200" height="400"><defs/><g transform="scale(1,1)"><g id="background-5bfdcd1e"><rect fill="white" stroke="none" x="0" y="0" width="200" height="400" class="dcg-svg-background"/></g><g id="background-images-5bfdcd1e"/><g id="graphpaper-5bfdcd1e"><g id="grid-5bfdcd1e"><g><path fill="none" stroke="rgb(0,0,0)" class="dcg-svg-minor-gridline" paint-order="fill stroke markers" d=" M -0.5 0 L -0.5 400" stroke-opacity="0.12" stroke-miterlimit="10" stroke-dasharray=""/><path fill="none" stroke="rgb(0,0,0)" class="dcg-svg-minor-gridline" paint-order="fill stroke markers" d=" M 32.5 0 L 32.5 400" stroke-opacity="0.12" stroke-miterlimit="10" stroke-dasharray=""/><path fill="none" stroke="rgb(0,0,0)" class="dcg-svg-minor-gridline" paint-order="fill stroke markers" d=" M 66.5 0 L 66.5 400" stroke-opacity="0.12" stroke-miterlimit="10" stroke-dasharray=""/><path fill="none" stroke="rgb(0,0,0)" class="dcg-svg-minor-gridline" paint-order="fill stroke markers" d=" M 132.5 0 L 132.5 400" stroke-opacity="0.12" stroke-miterlimit="10" stroke-dasharray=""/><path fill="none" stroke="rgb(0,0,0)" class="dcg-svg-minor-gridline" paint-order="fill stroke markers" d=" M 166.5 0 L 166.5 400" stroke-opacity="0.12" stroke-miterlimit="10" stroke-dasharray=""/><path fill="none" stroke="rgb(0,0,0)" class="dcg-svg-minor-gridline" paint-order="fill stroke markers" d=" M 0 332.5 L 200 332.5" stroke-opacity="0.12" stroke-miterlimit="10" stroke-dasharray=""/><path fill="none" stroke="rgb(0,0,0)" class="dcg-svg-minor-gridline" paint-order="fill stroke markers" d=" M 0 299.5 L 200 299.5" stroke-opacity="0.12" stroke-miterlimit="10" stroke-dasharray=""/><path fill="none" stroke="rgb(0,0,0)" class="dcg-svg-minor-gridline" paint-order="fill stroke markers" d=" M 0 266.5 L 200 266.5" stroke-opacity="0.12" stroke-miterlimit="10" stroke-dasharray=""/><path fill="none" stroke="rgb(0,0,0)" class="dcg-svg-minor-gridline" paint-order="fill stroke markers" d=" M 0 232.5 L 200 232.5" stroke-opacity="0.12" stroke-miterlimit="10" stroke-dasharray=""/><path fill="none" stroke="rgb(0,0,0)" class="dcg-svg-minor-gridline" paint-order="fill stroke markers" d=" M 0 199.5 L 200 199.5" stroke-opacity="0.12" stroke-miterlimit="10" stroke-dasharray=""/><path fill="none" stroke="rgb(0,0,0)" class="dcg-svg-minor-gridline" paint-order="fill stroke markers" d=" M 0 166.5 L 200 166.5" stroke-opacity="0.12" stroke-miterlimit="10" stroke-dasharray=""/><path fill="none" stroke="rgb(0,0,0)" class="dcg-svg-minor-gridline" paint-order="fill stroke markers" d=" M 0 132.5 L 200 132.5" stroke-opacity="0.12" stroke-miterlimit="10" stroke-dasharray=""/><path fill="none" stroke="rgb(0,0,0)" class="dcg-svg-minor-gridline" paint-order="fill stroke markers" d=" M 0 99.5 L 200 99.5" stroke-opacity="0.12" stroke-miterlimit="10" stroke-dasharray=""/><path fill="none" stroke="rgb(0,0,0)" class="dcg-svg-minor-gridline" paint-order="fill stroke markers" d=" M 0 66.5 L 200 66.5" stroke-opacity="0.12" stroke-miterlimit="10" stroke-dasharray=""/><path fill="none" stroke="rgb(0,0,0)" class="dcg-svg-minor-gridline" paint-order="fill stroke markers" d=" M 0 32.5 L 200 32.5" stroke-opacity="0.12" stroke-miterlimit="10" stroke-dasharray=""/><path fill="none" stroke="rgb(0,0,0)" class="dcg-svg-minor-gridline" paint-order="fill stroke markers" d=" M 0 -0.5 L 200 -0.5" stroke-opacity="0.12" stroke-miterlimit="10" stroke-dasharray=""/><path fill="none" stroke="rgb(0,0,0)" class="dcg-svg-major-gridline" paint-order="fill stroke markers" d=" M 0 199.5 L 200 199.5" stroke-opacity="0.31818181818181823" stroke-miterlimit="10" stroke-dasharray=""/><path fill="none" stroke="rgb(0,0,0)" class="dcg-svg-major-gridline" paint-order="fill stroke markers" d=" M 0 32.5 L 200 32.5" stroke-opacity="0.31818181818181823" stroke-miterlimit="10" stroke-dasharray=""/></g></g><g id="axis-5bfdcd1e"><g id="yaxis-5bfdcd1e"><title>Y axis</title><path fill="none" stroke="rgb(0,0,0)" class="dcg-svg-axis-line" paint-order="fill stroke markers" d=" M 99.75 0 L 99.75 400" stroke-opacity="0.9" stroke-miterlimit="10" stroke-width="1.5" stroke-dasharray=""/></g><g id="xaxis-5bfdcd1e"><title>X axis</title><path fill="none" stroke="rgb(0,0,0)" class="dcg-svg-axis-line" paint-order="fill stroke markers" d=" M 0 366.75 L 200 366.75" stroke-opacity="0.9" stroke-miterlimit="10" stroke-width="1.5" stroke-dasharray=""/></g><g/></g></g><g id="expressions-5bfdcd1e"><g id="sketch-5bfdcd1e"><title>Expression 1</title><path fill="#2d70b3" stroke="none" paint-order="stroke fill markers" d="" fill-opacity="0.4"/><g><path fill="none" stroke="#2d70b3" class="dcg-svg-curve" paint-order="fill stroke markers" d=" M -0.5 30.577933474074484 L -0.5 30.577933474074484 L 1.3066406250000002 48.19246967802542 L 3.1132812500000004 64.87271041171726 L 4.919921875 80.66766680092041 L 6.726562500000001 95.62374876300265 L 8.533203125 109.78490137200566 L 10.33984375 123.1927339813347 L 12.146484375000002 135.88664248345998 L 13.953125000000002 147.90392506586258 L 15.80859375 159.57876731644635 L 17.6640625 170.61333417192427 L 19.51953125 181.04182493281405 L 21.375 190.89656049527315 L 23.23046875 200.20808352286406 L 25.085937500000004 209.0052531070644 L 26.941406250000004 217.31533420990266 L 28.796875000000004 225.16408216592765 L 30.652343750000004 232.5758225054072 L 32.5078125 239.57352634615228 L 34.36328125 246.1788815876263 L 36.21875 252.41236012799146 L 38.07421875 258.293281312417 L 39.9296875 263.8398718092933 L 41.78515625 269.0693220999267 L 43.640625 273.9978397567914 L 45.544921875 278.75915578828193 L 47.44921875 283.23512128797483 L 49.353515625 287.4403484913954 L 51.25781250000001 291.3885657819146 L 53.16210937500001 295.09266250842444 L 55.11523437500001 298.6508096940916 L 57.06835937500001 301.9770932549478 L 59.02148437500001 305.0829363469472 L 61.02343750000001 308.0488065607528 L 63.02539062500001 310.8049806170315 L 65.076171875 313.4213386753661 L 67.126953125 315.83798565053746 L 69.2265625 318.11482192438444 L 71.375 320.24726165138026 L 73.572265625 322.2308512680481 L 75.818359375 324.0611906302774 L 78.162109375 325.7673246710782 L 80.603515625 327.332188981349 L 83.142578125 328.7386652396648 L 85.828125 329.990003222133 L 88.7578125 331.0873820921307 L 91.78515625 331.93655869882406 L 94.763671875 332.49627475604376 L 97.7421875 332.7869740196097 L 100.67187500000001 332.81273184634233 L 103.60156250000001 332.58067256549543 L 106.53125000000001 332.08900242011384 L 109.50976562500001 331.319074202636 L 112.48828125000001 330.2707236960411 L 115.41796875000001 328.9598285322142 L 118.10351562500001 327.50581334373317 L 120.64257812500001 325.90037410590554 L 123.03515625000001 324.17383240691856 L 125.33007812500001 322.31451767591113 L 127.52734375 320.3395927960252 L 129.67578125 318.2160130389128 L 131.775390625 315.9482413802624 L 133.826171875 313.54087037707745 L 135.876953125 310.93424087689255 L 137.87890625 308.1880355351017 L 139.880859375 305.232636390497 L 141.833984375 302.1375292037393 L 143.787109375 298.82253251884924 L 145.69140625 295.3678333879403 L 147.595703125 291.6820044087641 L 149.5 287.7530128252251 L 151.404296875 283.5680320526679 L 153.259765625 279.231107213267 L 155.115234375 274.62474403864496 L 156.970703125 269.73466608274214 L 158.826171875 264.545717585685 L 160.681640625 259.0418165017217 L 162.537109375 253.20590465633074 L 164.34375 247.18732911131596 L 166.150390625 240.81915961438577 L 167.95703125 234.082684735584 L 169.763671875 226.95811086264783 L 171.5703125 219.4245040419418 L 173.376953125 211.4597284687562 L 175.18359375 203.04038144623655 L 176.990234375 194.14172462183666 L 178.796875 184.73761129924867 L 180.603515625 174.8004096122321 L 182.41015625 164.30092133460653 L 184.216796875 153.2082960878483 L 186.0234375 141.48994069421076 L 187.830078125 129.11142340902137 L 189.63671875 116.03637275076494 L 191.443359375 102.22637063168753 L 193.25 87.64083947490911 L 195.056640625 72.23692298636519 L 196.86328125 55.96936023125107 L 198.669921875 38.790352644971904 L 199.5 30.577933474074484" stroke-linecap="round" stroke-linejoin="round" stroke-miterlimit="10" stroke-width="2.5" stroke-opacity="0.9" stroke-dasharray=""/></g></g></g><g id="labels-5bfdcd1e"/></g></svg>