<svg version="1.1" xmlns="http://www.w3.org/2000/svg" xmlns:xlink="http://www.w3.org/1999/xlink" width="600" height="400"><defs/><g transform="scale(1,1)"><g id="background-eca8e14d"><rect fill="white" stroke="none" x="0" y="0" width="600" height="400" class="dcg-svg-background"/></g><g id="background-images-eca8e14d"/><g id="graphpaper-eca8e14d"><g id="grid-eca8e14d"><g><path fill="none" stroke="rgb(0,0,0)" class="dcg-svg-minor-gridline" paint-order="fill stroke markers" d=" M -0.5 0 L -0.5 400" stroke-opacity="0.12" stroke-miterlimit="10" stroke-dasharray=""/><path fill="none" stroke="rgb(0,0,0)" class="dcg-svg-minor-gridline" paint-order="fill stroke markers" d=" M 29.5 0 L 29.5 400" stroke-opacity="0.12" stroke-miterlimit="10" stroke-dasharray=""/><path fill="none" stroke="rgb(0,0,0)" class="dcg-svg-minor-gridline" paint-order="fill stroke markers" d=" M 59.5 0 L 59.5 400" stroke-opacity="0.12" stroke-miterlimit="10" stroke-dasharray=""/><path fill="none" stroke="rgb(0,0,0)" class="dcg-svg-minor-gridline" paint-order="fill stroke markers" d=" M 89.5 0 L 89.5 400" stroke-opacity="0.12" stroke-miterlimit="10" stroke-dasharray=""/><path fill="none" stroke="rgb(0,0,0)" class="dcg-svg-minor-gridline" paint-order="fill stroke markers" d=" M 119.5 0 L 119.5 400" stroke-opacity="0.12" stroke-miterlimit="10" stroke-dasharray=""/><path fill="none" stroke="rgb(0,0,0)" class="dcg-svg-minor-gridline" paint-order="fill stroke markers" d=" M 149.5 0 L 149.5 400" stroke-opacity="0.12" stroke-miterlimit="10" stroke-dasharray=""/><path fill="none" stroke="rgb(0,0,0)" class="dcg-svg-minor-gridline" paint-order="fill stroke markers" d=" M 179.5 0 L 179.5 400" stroke-opacity="0.12" stroke-miterlimit="10" stroke-dasharray=""/><path fill="none" stroke="rgb(0,0,0)" class="dcg-svg-minor-gridline" paint-order="fill stroke markers" d=" M 209.5 0 L 209.5 400" stroke-opacity="0.12" stroke-miterlimit="10" stroke-dasharray=""/><path fill="none" stroke="rgb(0,0,0)" class="dcg-svg-minor-gridline" paint-order="fill stroke markers" d=" M 239.5 0 L 239.5 400" stroke-opacity="0.12" stroke-miterlimit="10" stroke-dasharray=""/><path fill="none" stroke="rgb(0,0,0)" class="dcg-svg-minor-gridline" paint-order="fill stroke markers" d=" M 269.5 0 L 269.5 400" stroke-opacity="0.12" stroke-miterlimit="10" stroke-dasharray=""/><path fill="none" stroke="rgb(0,0,0)" class="dcg-svg-minor-gridline" paint-order="fill stroke markers" d=" M 329.5 0 L 329.5 400" stroke-opacity="0.12" stroke-miterlimit="10" stroke-dasharray=""/><path fill="none" stroke="rgb(0,0,0)" class="dcg-svg-minor-gridline" paint-order="fill stroke markers" d=" M 359.5 0 L 359.5 400" stroke-opacity="0.12" stroke-miterlimit="10" stroke-dasharray=""/><path fill="none" stroke="rgb(0,0,0)" class="dcg-svg-minor-gridline" paint-order="fill stroke markers" d=" M 389.5 0 L 389.5 400" stroke-opacity="0.12" stroke-miterlimit="10" stroke-dasharray=""/><path fill="none" stroke="rgb(0,0,0)" class="dcg-svg-minor-gridline" paint-order="fill stroke markers" d=" M 419.5 0 L 419.5 400" stroke-opacity="0.12" stroke-miterlimit="10" stroke-dasharray=""/><path fill="none" stroke="rgb(0,0,0)" class="dcg-svg-minor-gridline" paint-order="fill stroke markers" d=" M 449.5 0 L 449.5 400" stroke-opacity="0.12" stroke-miterlimit="10" stroke-dasharray=""/><path fill="none" stroke="rgb(0,0,0)" class="dcg-svg-minor-gridline" paint-order="fill stroke markers" d=" M 479.5 0 L 479.5 400" stroke-opacity="0.12" stroke-miterlimit="10" stroke-dasharray=""/><path fill="none" stroke="rgb(0,0,0)" class="dcg-svg-minor-gridline" paint-order="fill stroke markers" d=" M 509.5 0 L 509.5 400" stroke-opacity="0.12" stroke-miterlimit="10" stroke-dasharray=""/><path fill="none" stroke="rgb(0,0,0)" class="dcg-svg-minor-gridline" paint-order="fill stroke markers" d=" M 539.5 0 L 539.5 400" stroke-opacity="0.12" stroke-miterlimit="10" stroke-dasharray=""/><path fill="none" stroke="rgb(0,0,0)" class="dcg-svg-minor-gridline" paint-order="fill stroke markers" d=" M 569.5 0 L 569.5 400" stroke-opacity="0.12" stroke-miterlimit="10" stroke-dasharray=""/><path fill="none" stroke="rgb(0,0,0)" class="dcg-svg-minor-gridline" paint-order="fill stroke markers" d=" M 0 370.5 L 600 370.5" stroke-opacity="0.12" stroke-miterlimit="10" stroke-dasharray=""/><path fill="none" stroke="rgb(0,0,0)" class="dcg-svg-minor-gridline" paint-order="fill stroke markers" d=" M 0 342.5 L 600 342.5" stroke-opacity="0.12" stroke-miterlimit="10" stroke-dasharray=""/><path fill="none" stroke="rgb(0,0,0)" class="dcg-svg-minor-gridline" paint-order="fill stroke markers" d=" M 0 313.5 L 600 313.5" stroke-opacity="0.12" stroke-miterlimit="10" stroke-dasharray=""/><path fill="none" stroke="rgb(0,0,0)" class="dcg-svg-minor-gridline" paint-order="fill stroke markers" d=" M 0 285.5 L 600 285.5" stroke-opacity="0.12" stroke-miterlimit="10" stroke-dasharray=""/><path fill="none" stroke="rgb(0,0,0)" class="dcg-svg-minor-gridline" paint-order="fill stroke markers" d=" M 0 256.5 L 600 256.5" stroke-opacity="0.12" stroke-miterlimit="10" stroke-dasharray=""/><path fill="none" stroke="rgb(0,0,0)" class="dcg-svg-minor-gridline" paint-order="fill stroke markers" d=" M 0 228.5 L 600 228.5" stroke-opacity="0.12" stroke-miterlimit="10" stroke-dasharray=""/><path fill="none" stroke="rgb(0,0,0)" class="dcg-svg-minor-gridline" paint-order="fill stroke markers" d=" M 0 170.5 L 600 170.5" stroke-opacity="0.12" stroke-miterlimit="10" stroke-dasharray=""/><path fill="none" stroke="rgb(0,0,0)" class="dcg-svg-minor-gridline" paint-order="fill stroke markers" d=" M 0 142.5 L 600 142.5" stroke-opacity="0.12" stroke-miterlimit="10" stroke-dasharray=""/><path fill="none" stroke="rgb(0,0,0)" class="dcg-svg-minor-gridline" paint-order="fill stroke markers" d=" M 0 113.5 L 600 113.5" stroke-opacity="0.12" stroke-miterlimit="10" stroke-dasharray=""/><path fill="none" stroke="rgb(0,0,0)" class="dcg-svg-minor-gridline" paint-order="fill stroke markers" d=" M 0 85.5 L 600 85.5" stroke-opacity="0.12" stroke-miterlimit="10" stroke-dasharray=""/><path fill="none" stroke="rgb(0,0,0)" class="dcg-svg-minor-gridline" paint-order="fill stroke markers" d=" M 0 56.5 L 600 56.5" stroke-opacity="0.12" stroke-miterlimit="10" stroke-dasharray=""/><path fill="none" stroke="rgb(0,0,0)" class="dcg-svg-minor-gridline" paint-order="fill stroke markers" d=" M 0 28.5 L 600 28.5" stroke-opacity="0.12" stroke-miterlimit="10" stroke-dasharray=""/><path fill="none" stroke="rgb(0,0,0)" class="dcg-svg-minor-gridline" paint-order="fill stroke markers" d=" M 0 -0.5 L 600 -0.5" stroke-opacity="0.12" stroke-miterlimit="10" stroke-dasharray=""/><path fill="none" stroke="rgb(0,0,0)" class="dcg-svg-major-gridline" paint-order="fill stroke markers" d=" M -0.5 0 L -0.5 400" stroke-opacity="0.31818181818181823" stroke-miterlimit="10" stroke-dasharray=""/><path fill="none" stroke="rgb(0,0,0)" class="dcg-svg-major-gridline" paint-order="fill stroke markers" d=" M 149.5 0 L 149.5 400" stroke-opacity="0.31818181818181823" stroke-miterlimit="10" stroke-dasharray=""/><path fill="none" stroke="rgb(0,0,0)" class="dcg-svg-major-gridline" paint-order="fill stroke markers" d=" M 449.5 0 L 449.5 400" stroke-opacity="0.31818181818181823" stroke-miterlimit="10" stroke-dasharray=""/><path fill="none" stroke="rgb(0,0,0)" class="dcg-svg-major-gridline" paint-order="fill stroke markers" d=" M 0 342.5 L 600 342.5" stroke-opacity="0.31818181818181823" stroke-miterlimit="10" stroke-dasharray=""/><path fill="none" stroke="rgb(0,0,0)" class="dcg-svg-major-gridline" paint-order="fill stroke markers" d=" M 0 56.5 L 600 56.5" stroke-opacity="0.31818181818181823" stroke-miterlimit="10" stroke-dasharray=""/></g></g><g id="axis-eca8e14d"><g id="yaxis-eca8e14d"><title>Y axis</title><path fill="none" stroke="rgb(0,0,0)" class="dcg-svg-axis-line" paint-order="fill stroke markers" d=" M 299.75 0 L 299.75 400" stroke-opacity="0.9" stroke-miterlimit="10" stroke-width="1.5" stroke-dasharray=""/></g><g id="xaxis-eca8e14d"><title>X axis</title><path fill="none" stroke="rgb(0,0,0)" class="dcg-svg-axis-line" paint-order="fill stroke markers" d=" M 0 199.75 L 600 199.75" stroke-opacity="0.9" stroke-miterlimit="10" stroke-width="1.5" stroke-dasharray=""/></g><g><g class="dcg-svg-axis-value"><text fill="none" stroke="#ffffff" font-family="Arial" font-size="14px" font-style="normal" font-weight="normal" text-decoration="normal" x="291.10693359375" y="215.808" text-anchor="middle" stroke-miterlimit="2" stroke-width="3" stroke-dasharray="">0</text><text fill="#000000" stroke="none" font-family="Arial" font-size="14px" font-style="normal" font-weight="normal" text-decoration="normal" x="291.10693359375" y="215.808" text-anchor="middle">0</text></g><g class="dcg-svg-axis-value dcg-svg-offcenter-axis-value"><text fill="none" stroke="#ffffff" font-family="Arial" font-size="14px" font-style="normal" font-weight="normal" text-decoration="normal" x="13.1171875" y="215.808" text-anchor="middle" stroke-miterlimit="2" stroke-width="3" stroke-dasharray="">-10</text><text fill="#000000" stroke="none" font-family="Arial" font-size="14px" font-style="normal" font-weight="normal" text-decoration="normal" x="13.1171875" y="215.808" text-anchor="middle">-10</text></g><g class="dcg-svg-axis-value"><text fill="none" stroke="#ffffff" font-family="Arial" font-size="14px" font-style="normal" font-weight="normal" text-decoration="normal" x="147.6689453125" y="215.808" text-anchor="middle" stroke-miterlimit="2" stroke-width="3" stroke-dasharray="">-5</text><text fill="#000000" stroke="none" font-family="Arial" font-size="14px" font-style="normal" font-weight="normal" text-decoration="normal" x="147.6689453125" y="215.808" text-anchor="middle">-5</text></g><g class="dcg-svg-axis-value"><text fill="none" stroke="#ffffff" font-family="Arial" font-size="14px" font-style="normal" font-weight="normal" text-decoration="normal" x="450" y="215.808" text-anchor="middle" stroke-miterlimit="2" stroke-width="3" stroke-dasharray="">5</text><text fill="#000000" stroke="none" font-family="Arial" font-size="14px" font-style="normal" font-weight="normal" text-decoration="normal" x="450" y="215.808" text-anchor="middle">5</text></g><g class="dcg-svg-axis-value dcg-svg-offcenter-axis-value"><text fill="none" stroke="#ffffff" font-family="Arial" font-size="14px" font-style="normal" font-weight="normal" text-decoration="normal" x="589.2138671875" y="215.808" text-anchor="middle" stroke-miterlimit="2" stroke-width="3" stroke-dasharray="">10</text><text fill="#000000" stroke="none" font-family="Arial" font-size="14px" font-style="normal" font-weight="normal" text-decoration="normal" x="589.2138671875" y="215.808" text-anchor="middle">10</text></g><g class="dcg-svg-axis-value"><text fill="none" stroke="#ffffff" font-family="Arial" font-size="14px" font-style="normal" font-weight="normal" text-decoration="normal" x="288.77587890625" y="346.6651428571428" text-anchor="middle" stroke-miterlimit="2" stroke-width="3" stroke-dasharray="">-5</text><text fill="#000000" stroke="none" font-family="Arial" font-size="14px" font-style="normal" font-weight="normal" text-decoration="normal" x="288.77587890625" y="346.6651428571428" text-anchor="middle">-5</text></g><g class="dcg-svg-axis-value"><text fill="none" stroke="#ffffff" font-family="Arial" font-size="14px" font-style="normal" font-weight="normal" text-decoration="normal" x="291.10693359375" y="60.95085714285717" text-anchor="middle" stroke-miterlimit="2" stroke-width="3" stroke-dasharray="">5</text><text fill="#000000" stroke="none" font-family="Arial" font-size="14px" font-style="normal" font-weight="normal" text-decoration="normal" x="291.10693359375" y="60.95085714285717" text-anchor="middle">5</text></g></g></g></g><g id="expressions-eca8e14d"><g id="sketch-eca8e14d"><title>Expression 1</title><path fill="#ddbb22" stroke="none" paint-order="stroke fill markers" d="" fill-opacity="0.4"/><g><path fill="none" stroke="#ddbb22" class="dcg-svg-curve" paint-order="fill stroke markers" d=" M -0.5 85.21428571428572 L -0.39999999999999997 85.21428571428572 M 7.6 85.21428571428572 L 7.699999999999999 85.21428571428572 M 15.7 85.21428571428572 L 15.799999999999999 85.21428571428572 M 23.8 85.21428571428572 L 23.900000000000002 85.21428571428572 M 31.900000000000006 85.21428571428572 L 32.00000000000001 85.21428571428572 M 40.00000000000001 85.21428571428572 L 40.10000000000001 85.21428571428572 M 48.10000000000001 85.21428571428572 L 48.20000000000001 85.21428571428572 M 56.20000000000001 85.21428571428572 L 56.30000000000001 85.21428571428572 M 64.30000000000001 85.21428571428572 L 64.4 85.21428571428572 M 72.4 85.21428571428572 L 72.5 85.21428571428572 M 80.5 85.21428571428572 L 80.6 85.21428571428572 M 88.6 85.21428571428572 L 88.69999999999999 85.21428571428572 M 96.69999999999999 85.21428571428572 L 96.79999999999998 85.21428571428572 M 104.79999999999998 85.21428571428572 L 104.89999999999998 85.21428571428572 M 112.89999999999998 85.21428571428572 L 112.99999999999997 85.21428571428572 M 120.99999999999997 85.21428571428572 L 121.09999999999997 85.21428571428572 M 129.09999999999997 85.21428571428572 L 129.19999999999996 85.21428571428572 M 137.19999999999996 85.21428571428572 L 137.29999999999995 85.21428571428572 M 145.29999999999995 85.21428571428572 L 145.39999999999995 85.21428571428572 M 153.39999999999995 85.21428571428572 L 153.49999999999994 85.21428571428572 M 161.49999999999994 85.21428571428572 L 161.59999999999994 85.21428571428572 M 169.59999999999994 85.21428571428572 L 169.69999999999993 85.21428571428572 M 177.69999999999993 85.21428571428572 L 177.79999999999993 85.21428571428572 M 185.79999999999993 85.21428571428572 L 185.89999999999992 85.21428571428572 M 193.89999999999992 85.21428571428572 L 193.99999999999991 85.21428571428572 M 201.99999999999994 85.21428571428572 L 202.09999999999994 85.21428571428572 M 210.09999999999997 85.21428571428572 L 210.19999999999996 85.21428571428572 M 218.2 85.21428571428572 L 218.29999999999998 85.21428571428572 M 226.3 85.21428571428572 L 226.4 85.21428571428572 M 234.40000000000003 85.21428571428572 L 234.50000000000003 85.21428571428572 M 242.50000000000006 85.21428571428572 L 242.60000000000005 85.21428571428572 M 250.60000000000008 85.21428571428572 L 250.70000000000007 85.21428571428572 M 258.7000000000001 85.21428571428572 L 258.8000000000001 85.21428571428572 M 266.8000000000001 85.21428571428572 L 266.90000000000015 85.21428571428572 M 274.90000000000015 85.21428571428572 L 275.00000000000017 85.21428571428572 M 283.00000000000017 85.21428571428572 L 283.1000000000002 85.21428571428572 M 291.1000000000002 85.21428571428572 L 291.2000000000002 85.21428571428572 M 299.2000000000002 85.21428571428572 L 299.30000000000024 85.21428571428572 M 307.30000000000024 85.21428571428572 L 307.40000000000026 85.21428571428572 M 315.40000000000026 85.21428571428572 L 315.5000000000003 85.21428571428572 M 323.5000000000003 85.21428571428572 L 323.6000000000003 85.21428571428572 M 331.6000000000003 85.21428571428572 L 331.70000000000033 85.21428571428572 M 339.70000000000033 85.21428571428572 L 339.80000000000035 85.21428571428572 M 347.80000000000035 85.21428571428572 L 347.9000000000004 85.21428571428572 M 355.9000000000004 85.21428571428572 L 356.0000000000004 85.21428571428572 M 364.0000000000004 85.21428571428572 L 364.1000000000004 85.21428571428572 M 372.1000000000004 85.21428571428572 L 372.20000000000044 85.21428571428572 M 380.20000000000044 85.21428571428572 L 380.30000000000047 85.21428571428572 M 388.30000000000047 85.21428571428572 L 388.4000000000005 85.21428571428572 M 396.4000000000005 85.21428571428572 L 396.5000000000005 85.21428571428572 M 404.5000000000005 85.21428571428572 L 404.60000000000053 85.21428571428572 M 412.60000000000053 85.21428571428572 L 412.70000000000056 85.21428571428572 M 420.70000000000056 85.21428571428572 L 420.8000000000006 85.21428571428572 M 428.8000000000006 85.21428571428572 L 428.9000000000006 85.21428571428572 M 436.9000000000006 85.21428571428572 L 437.0000000000006 85.21428571428572 M 445.0000000000006 85.21428571428572 L 445.10000000000065 85.21428571428572 M 453.10000000000065 85.21428571428572 L 453.20000000000067 85.21428571428572 M 461.20000000000067 85.21428571428572 L 461.3000000000007 85.21428571428572 M 469.3000000000007 85.21428571428572 L 469.4000000000007 85.21428571428572 M 477.4000000000007 85.21428571428572 L 477.50000000000074 85.21428571428572 M 485.50000000000074 85.21428571428572 L 485.60000000000076 85.21428571428572 M 493.60000000000076 85.21428571428572 L 493.7000000000008 85.21428571428572 M 501.7000000000008 85.21428571428572 L 501.8000000000008 85.21428571428572 M 509.8000000000008 85.21428571428572 L 509.90000000000083 85.21428571428572 M 517.9000000000009 85.21428571428572 L 518.0000000000009 85.21428571428572 M 526.0000000000009 85.21428571428572 L 526.1000000000009 85.21428571428572 M 534.1000000000009 85.21428571428572 L 534.200000000001 85.21428571428572 M 542.200000000001 85.21428571428572 L 542.300000000001 85.21428571428572 M 550.300000000001 85.21428571428572 L 550.400000000001 85.21428571428572 M 558.400000000001 85.21428571428572 L 558.500000000001 85.21428571428572 M 566.500000000001 85.21428571428572 L 566.600000000001 85.21428571428572 M 574.600000000001 85.21428571428572 L 574.7000000000011 85.21428571428572 M 582.700000000001 85.21428571428572 L 582.800000000001 85.21428571428572 M 590.8000000000009 85.21428571428572 L 590.9000000000009 85.21428571428572 M 598.9000000000009 85.21428571428572 L 599.0000000000009 85.21428571428572" stroke-linecap="round" stroke-linejoin="round" stroke-miterlimit="10" stroke-width="5" stroke-opacity="0.9" stroke-dasharray=""/></g></g><g id="sketch-eca8e14d"><title>Expression 2</title><path fill="#00ff00" stroke="none" paint-order="stroke fill markers" d="" fill-opacity="0.4"/><g><path fill="none" stroke="#00ff00" class="dcg-svg-curve" paint-order="fill stroke markers" d=" M 359.5 399.5 L 359.5 388.5 M 359.5 381.5 L 359.5 370.5 M 359.5 363.5 L 359.5 352.5 M 359.5 345.5 L 359.5 334.5 M 359.5 327.5 L 359.5 316.5 M 359.5 309.5 L 359.5 298.5 M 359.5 291.5 L 359.5 280.5 M 359.5 273.5 L 359.5 262.5 M 359.5 255.5 L 359.5 244.5 M 359.5 237.5 L 359.5 226.5 M 359.5 219.5 L 359.5 208.5 M 359.5 201.5 L 359.5 190.5 M 359.5 183.5 L 359.5 172.5 M 359.5 165.5 L 359.5 154.5 M 359.5 147.5 L 359.5 136.5 M 359.5 129.5 L 359.5 118.5 M 359.5 111.5 L 359.5 100.5 M 359.5 93.5 L 359.5 82.5 M 359.5 75.5 L 359.5 64.5 M 359.5 57.5 L 359.5 46.5 M 359.5 39.5 L 359.5 28.5 M 359.5 21.5 L 359.5 10.5 M 359.5 3.5 L 359.5 -0.5" stroke-linecap="round" stroke-linejoin="round" stroke-miterlimit="10" stroke-width="2.5" stroke-opacity="0.9" stroke-dasharray=""/></g></g><g id="sketch-eca8e14d"><title>Expression 3</title><path fill="none" stroke="#ff0000" class="dcg-svg-point" paint-order="fill stroke markers" d=" M 355.9 81.61428571428573 L 363.1 88.81428571428572 M 363.1 81.61428571428573 L 355.9 88.81428571428572" stroke-linecap="round" stroke-linejoin="round" stroke-miterlimit="10" stroke-width="2.6999999999999997" stroke-opacity="0.9" stroke-dasharray=""/></g></g><g id="labels-eca8e14d"/></g></svg>